<svg width="253" height="40" viewBox="0 0 253 40" fill="none" xmlns="http://www.w3.org/2000/svg">
<path d="M60.2814 17.5005C61.2682 17.5005 62.1892 17.3031 63.1103 16.9084C63.9656 16.5136 64.755 15.8557 65.3471 15.0663L68.0445 17.8294C65.9392 20.1978 63.505 21.382 60.6103 21.382C59.2945 21.4478 58.0445 21.2505 56.7945 20.7241C55.6103 20.2636 54.4919 19.5399 53.505 18.6847C52.584 17.8294 51.8603 16.711 51.3998 15.5926C50.9392 14.4084 50.6761 13.1584 50.7419 11.9084C50.6761 10.6584 50.9392 9.34257 51.3998 8.15836C51.8603 6.97415 52.584 5.92152 53.505 5.00046C54.4919 4.07941 55.6761 3.35573 56.9261 2.8952C58.1761 2.43467 59.5577 2.2373 60.9392 2.30309C62.3208 2.36888 63.6366 2.69783 64.8866 3.28994C66.1366 3.88204 67.1892 4.73731 68.1103 5.78994L65.5445 8.75046C64.9524 7.96099 64.2287 7.36888 63.3735 6.97415C62.5182 6.57941 61.5971 6.31625 60.6103 6.31625C59.1629 6.31625 57.7156 6.84257 56.5971 7.82941C56.005 8.35573 55.6103 9.01362 55.2814 9.73731C55.0182 10.461 54.8866 11.2505 54.8866 11.9741C54.8208 12.7636 54.9524 13.4873 55.2156 14.211C55.4787 14.9347 55.8735 15.5926 56.4656 16.1189C57.5182 16.9741 58.8998 17.5005 60.2814 17.5005ZM71.2024 21.1189V2.56625H75.3471V17.4347H83.3077V21.1189H71.2024ZM101.466 18.5531C99.5577 20.3294 97.1235 21.3163 94.4919 21.3163C91.8603 21.3163 89.4261 20.3294 87.5182 18.5531C86.5971 17.6978 85.8735 16.6452 85.4129 15.461C84.9524 14.2768 84.6892 13.0268 84.6892 11.7768C84.6235 10.5268 84.8866 9.21099 85.3471 8.09257C85.8077 6.90836 86.5314 5.85573 87.4524 5.00046C89.3603 3.22415 91.7945 2.2373 94.4261 2.2373C97.0577 2.2373 99.4919 3.22415 101.4 5.00046C102.321 5.85573 103.045 6.90836 103.505 8.09257C103.966 9.27678 104.229 10.5268 104.163 11.7768C104.229 13.0268 103.966 14.3426 103.505 15.461C103.11 16.6452 102.387 17.6978 101.466 18.5531ZM100.018 11.7768C100.018 10.1978 99.4261 8.68467 98.3735 7.50046C97.8471 6.97415 97.255 6.51362 96.5971 6.18467C95.9393 5.85573 95.1498 5.72415 94.4261 5.72415C93.7024 5.72415 92.9787 5.85573 92.255 6.18467C91.5971 6.51362 90.9393 6.90836 90.4787 7.50046C89.4261 8.68467 88.834 10.1978 88.834 11.7768C88.834 13.3557 89.4261 14.8689 90.4787 16.0531C91.005 16.5794 91.5971 17.0399 92.255 17.3689C92.9129 17.6978 93.7024 17.8294 94.4261 17.8294C95.1498 17.8294 95.8735 17.6978 96.5971 17.3689C97.255 17.0399 97.9129 16.6452 98.3735 16.0531C98.8998 15.461 99.3603 14.8031 99.6235 14.0794C99.9524 13.2899 100.084 12.5663 100.018 11.7768ZM112.716 16.382C113.045 16.8426 113.505 17.1715 113.966 17.3689C114.426 17.5663 115.018 17.6978 115.545 17.6978C116.071 17.6978 116.597 17.632 117.058 17.3689C117.518 17.1715 117.979 16.7768 118.242 16.382C118.966 15.3294 119.295 14.1452 119.229 12.8952V2.63204H123.373V13.0268C123.373 15.7241 122.65 17.7636 121.137 19.211C120.347 19.9347 119.492 20.5268 118.505 20.8557C117.518 21.2505 116.466 21.382 115.413 21.382C114.36 21.382 113.308 21.2505 112.321 20.8557C111.334 20.461 110.413 19.9347 109.689 19.211C108.176 17.7636 107.452 15.7241 107.452 13.0268V2.63204H111.597V12.8952C111.597 14.1452 111.992 15.3952 112.716 16.382ZM141.992 5.00046C143.768 6.6452 144.689 8.88204 144.689 11.7768C144.689 14.6715 143.834 16.9741 142.123 18.6847C140.413 20.3952 137.716 21.1847 134.229 21.1847H127.781V2.56625H134.36C137.65 2.56625 140.216 3.35573 141.992 5.00046ZM138.966 16.0531C139.952 15.132 140.479 13.6847 140.479 11.8426C140.479 10.0005 139.952 8.61888 138.966 7.63204C137.979 6.6452 136.4 6.11888 134.295 6.11888H131.992V17.4347H134.623C136.202 17.5663 137.781 17.1057 138.966 16.0531ZM168.308 2.56625H172.452V21.1847H168.308L159.426 9.53994V21.1847H155.281V2.56625H159.163L168.308 14.5399V2.56625ZM190.281 21.1189L188.505 17.1057H180.676L178.9 21.1189H174.426L182.452 2.50046H186.466L194.558 21.1189H190.281ZM184.689 8.09257L182.387 13.4873H186.992L184.689 8.09257ZM203.439 6.18467V21.1847H199.295V6.18467H194.031V2.63204H208.768V6.18467C208.768 6.18467 203.439 6.18467 203.439 6.18467ZM211.663 2.56625H215.808V21.1847H211.663C211.663 21.1189 211.663 2.56625 211.663 2.56625ZM227.321 14.4084L232.058 2.56625H236.597L229.163 21.1847H225.676L218.242 2.56625H222.781L227.321 14.4084ZM252.123 2.56625V6.25046H242.847V10.0663H251.202V13.6189H242.847V17.5005H252.452V21.1847H238.768V2.63204L252.123 2.56625ZM55.4787 36.9741C56.005 36.9741 56.5314 36.8426 57.0577 36.6452C57.5182 36.382 57.9787 36.0531 58.3077 35.5926L59.8208 37.1715C59.2945 37.7636 58.7024 38.2899 57.9129 38.6189C57.1892 38.9478 56.3998 39.1452 55.6103 39.1452C54.8866 39.1452 54.1629 39.0794 53.505 38.8163C52.8471 38.5531 52.1892 38.1584 51.6629 37.632C51.1366 37.1715 50.7419 36.5794 50.4787 35.9215C50.2156 35.2636 50.084 34.5399 50.084 33.8163C50.084 33.0926 50.2156 32.3689 50.4787 31.711C50.7419 31.0531 51.1366 30.461 51.6629 29.9347C52.1892 29.4084 52.7814 29.0136 53.4392 28.7505C54.0971 28.4873 54.8208 28.3557 55.5445 28.3557C56.334 28.3557 57.1892 28.4873 57.9129 28.8163C58.6366 29.1452 59.2945 29.6715 59.8866 30.2636L58.4392 31.9084C58.1103 31.4478 57.7156 31.1189 57.255 30.8557C56.7945 30.5926 56.2682 30.5268 55.6761 30.5268C54.8208 30.5268 54.0314 30.8557 53.4392 31.382C53.1103 31.6452 52.8471 32.0399 52.7156 32.4347C52.584 32.8294 52.4524 33.2899 52.5182 33.6847C52.5182 34.0794 52.584 34.5399 52.7156 34.9347C52.8471 35.3294 53.1103 35.7241 53.3735 35.9873C53.6366 36.2505 53.9656 36.5136 54.3603 36.6452C54.755 36.7768 55.084 36.9741 55.4787 36.9741ZM70.1498 37.5663C69.0971 38.5531 67.7156 39.1452 66.2682 39.1452C65.5445 39.1452 64.8208 39.0136 64.1629 38.7505C63.505 38.4873 62.9129 38.0926 62.3866 37.5663C61.3998 36.5794 60.8077 35.1978 60.8077 33.7505C60.8077 32.3031 61.3998 30.9215 62.3866 29.9347C63.4392 28.9478 64.8208 28.3557 66.2682 28.3557C66.9919 28.3557 67.7156 28.4873 68.3735 28.7505C69.0314 29.0136 69.6235 29.4084 70.1498 29.9347C71.1366 30.9215 71.7287 32.3031 71.7287 33.7505C71.7287 35.1978 71.1366 36.5794 70.1498 37.5663ZM69.4261 33.7505C69.4261 32.8952 69.1629 32.0399 68.5708 31.382C68.3077 31.0531 67.9787 30.8557 67.584 30.6584C67.1892 30.461 66.7945 30.3952 66.3998 30.3952C66.005 30.3952 65.5445 30.461 65.2156 30.6584C64.8208 30.8557 64.4919 31.1189 64.2287 31.4478C63.8998 31.7768 63.7024 32.1057 63.5708 32.5663C63.4392 32.961 63.3735 33.4215 63.3735 33.8163C63.3735 34.6715 63.7024 35.5268 64.2287 36.1847C64.4919 36.5136 64.8208 36.711 65.2156 36.9084C65.6103 37.1057 66.005 37.1715 66.3998 37.1715C66.7945 37.1715 67.255 37.1057 67.584 36.9084C67.9787 36.711 68.3077 36.4478 68.5708 36.1189C69.0971 35.5268 69.4261 34.6715 69.4261 33.7505ZM83.0445 32.4347L80.2156 38.1584H78.834L76.005 32.4347V39.0136H73.7024V28.6189H76.8603L79.5577 34.3426L82.255 28.6189H85.4129V39.0794H83.1103L83.0445 32.4347ZM95.1498 29.6057C95.5445 29.9347 95.8735 30.3952 96.0708 30.9215C96.2682 31.4478 96.334 31.9741 96.2682 32.5005C96.2682 33.8163 95.8735 34.7373 95.1498 35.3294C94.4261 35.9873 93.2419 36.1847 91.7287 36.1847H90.3471V39.0794H87.9787V28.6189H91.6629C93.2419 28.6189 94.3603 28.9478 95.1498 29.6057ZM93.4393 33.6847C93.7682 33.2899 93.8998 32.8294 93.8998 32.3031C93.8998 32.0399 93.8998 31.8426 93.7682 31.5794C93.6366 31.382 93.505 31.1847 93.3077 31.0531C92.7814 30.7899 92.1892 30.6584 91.5971 30.6584H90.2814V34.1452H91.8603C92.1235 34.1452 92.4524 34.1452 92.7156 34.0794C92.9787 33.9478 93.2419 33.8163 93.4393 33.6847ZM100.873 36.3163C101.071 36.5794 101.268 36.711 101.597 36.8426C101.86 36.9741 102.189 37.0399 102.452 37.0399C102.781 37.0399 103.045 36.9741 103.308 36.8426C103.571 36.711 103.834 36.5136 104.031 36.3163C104.426 35.7241 104.623 35.0005 104.623 34.3426V28.5531H106.926V34.3426C106.992 35.0005 106.86 35.5926 106.663 36.2505C106.466 36.8426 106.137 37.4347 105.676 37.8952C104.821 38.6847 103.637 39.0794 102.452 39.0794C101.268 39.0794 100.15 38.6189 99.2945 37.8294C98.834 37.3689 98.505 36.7768 98.3077 36.1847C98.1103 35.5926 97.9787 34.9347 98.0445 34.2768V28.4873H100.347V34.2768C100.216 35.0005 100.413 35.7241 100.873 36.3163ZM113.702 30.6584V39.0136H111.4V30.6584H108.439V28.6847H116.729V30.6584C116.663 30.6584 113.702 30.6584 113.702 30.6584ZM118.373 28.6189H120.676V39.0794H118.373V28.6189ZM130.545 28.6189H132.847V39.0794H130.545L125.61 32.5663V39.0794H123.308V28.6189H125.479L130.61 35.3294L130.545 28.6189ZM142.255 33.7505H144.558V37.4347C144.031 38.0268 143.308 38.4873 142.584 38.7505C141.86 39.0794 141.005 39.211 140.216 39.1452C138.768 39.1452 137.387 38.6189 136.334 37.632C135.808 37.1715 135.413 36.5794 135.15 35.9215C134.887 35.2636 134.755 34.5399 134.755 33.8163C134.755 33.0926 134.887 32.3689 135.15 31.711C135.413 31.0531 135.808 30.461 136.334 29.9347C136.86 29.4084 137.452 29.0136 138.11 28.7505C138.768 28.4873 139.492 28.3557 140.216 28.3557C141.663 28.3557 143.045 28.882 144.097 29.8689L142.913 31.6452C142.584 31.2505 142.123 30.9873 141.597 30.8557C141.202 30.7241 140.742 30.5926 140.347 30.5926C139.492 30.5926 138.702 30.9215 138.11 31.4478C137.781 31.7768 137.518 32.1057 137.387 32.5663C137.255 33.0268 137.123 33.4215 137.189 33.882C137.189 34.7373 137.452 35.5926 138.045 36.2505C138.308 36.5136 138.637 36.7768 138.966 36.9084C139.295 37.0399 139.689 37.1057 140.084 37.1057C140.808 37.1715 141.466 36.9741 142.058 36.6452V33.6847H142.255V33.7505ZM157.716 28.6189V30.6584H152.913V32.8952H157.452V35.0005H152.913V39.0794H150.61V28.6189C150.545 28.6189 157.716 28.6189 157.716 28.6189ZM168.505 37.5663C167.452 38.5531 166.071 39.1452 164.623 39.1452C163.9 39.1452 163.176 39.0136 162.518 38.7505C161.86 38.4873 161.268 38.0926 160.742 37.5663C159.755 36.5794 159.163 35.1978 159.163 33.7505C159.163 32.3031 159.755 30.9215 160.742 29.9347C161.795 28.9478 163.176 28.3557 164.623 28.3557C165.347 28.3557 166.071 28.4873 166.729 28.7505C167.387 29.0136 167.979 29.4084 168.505 29.9347C169.492 30.9215 170.084 32.3031 170.084 33.7505C170.084 35.1978 169.492 36.5794 168.505 37.5663ZM167.65 33.7505C167.65 32.8952 167.387 32.0399 166.795 31.382C166.531 31.0531 166.202 30.8557 165.808 30.6584C165.413 30.461 165.018 30.3952 164.623 30.3952C164.229 30.3952 163.768 30.461 163.439 30.6584C163.045 30.8557 162.716 31.1189 162.452 31.4478C162.123 31.7768 161.926 32.1057 161.795 32.5663C161.663 33.0268 161.597 33.4215 161.597 33.8163C161.597 34.6715 161.926 35.5268 162.452 36.1847C162.716 36.5136 163.045 36.711 163.439 36.9084C163.834 37.1057 164.229 37.1715 164.623 37.1715C165.018 37.1715 165.479 37.1057 165.808 36.9084C166.202 36.711 166.531 36.4478 166.795 36.1189C167.123 35.7899 167.321 35.461 167.452 35.0005C167.584 34.5399 167.716 34.211 167.65 33.7505ZM174.821 36.3163C175.018 36.5794 175.216 36.711 175.545 36.8426C175.808 36.9741 176.137 37.0399 176.4 37.0399C176.663 37.0399 176.992 36.9741 177.255 36.8426C177.518 36.711 177.781 36.5136 177.979 36.3163C178.373 35.7241 178.571 35.0005 178.571 34.3426V28.5531H180.873V34.3426C180.939 35.0005 180.808 35.5926 180.61 36.2505C180.413 36.8426 180.084 37.4347 179.623 37.8952C178.768 38.6847 177.584 39.0794 176.4 39.0794C175.216 39.0794 174.097 38.6189 173.242 37.8294C172.781 37.3689 172.452 36.7768 172.255 36.1847C172.058 35.5926 171.926 34.9347 171.992 34.2768V28.4873H174.295V34.2768C174.163 35.0005 174.36 35.7899 174.821 36.3163ZM190.545 28.6189H192.847V39.0794H190.545L185.61 32.5663V39.0794H183.308V28.6189H185.479L190.61 35.3294L190.545 28.6189ZM203.373 30.0005C203.9 30.461 204.295 31.1189 204.558 31.7768C204.821 32.4347 204.952 33.1584 204.887 33.8163C204.952 34.5399 204.821 35.1978 204.558 35.8557C204.295 36.5136 203.9 37.1057 203.439 37.632C202.518 38.5531 201.005 39.0794 198.966 39.0794H195.413V28.6189H199.097C201.005 28.6189 202.452 29.0794 203.373 30.0005ZM201.663 36.2505C201.926 35.9215 202.189 35.5926 202.321 35.1978C202.452 34.8031 202.518 34.3426 202.518 33.9478C202.518 33.4873 202.452 33.0926 202.321 32.6978C202.189 32.3031 201.926 31.9084 201.663 31.5794C201.268 31.2505 200.873 31.0531 200.413 30.9215C199.952 30.7899 199.492 30.7241 199.031 30.7899H197.716V37.1057H199.229C200.084 37.0399 201.005 36.7768 201.663 36.2505ZM214.031 39.0136L213.11 36.7768H208.702L207.781 39.0136H205.281L209.821 28.5531H212.058L216.597 39.0136H214.031ZM210.873 31.711L209.558 34.7373H212.189L210.873 31.711ZM221.4 30.6584V39.0136H219.097V30.6584H216.071V28.6847H224.36V30.6584H221.4ZM226.005 28.6189H228.308V39.0794H226.005V28.6189ZM239.689 37.5663C238.637 38.5531 237.255 39.1452 235.808 39.1452C235.084 39.1452 234.36 39.0136 233.702 38.7505C233.045 38.4873 232.452 38.0926 231.926 37.5663C230.939 36.5794 230.347 35.1978 230.347 33.7505C230.347 32.3031 230.939 30.9215 231.926 29.9347C232.979 28.9478 234.36 28.3557 235.808 28.3557C236.531 28.3557 237.255 28.4873 237.913 28.7505C238.571 29.0136 239.163 29.4084 239.689 29.9347C240.676 30.9215 241.268 32.3031 241.268 33.7505C241.268 35.1978 240.676 36.5794 239.689 37.5663ZM238.966 33.7505C238.966 32.8952 238.637 32.0399 238.11 31.382C237.847 31.0531 237.518 30.8557 237.123 30.6584C236.729 30.461 236.334 30.3952 235.939 30.3952C235.545 30.3952 235.084 30.461 234.755 30.6584C234.36 30.8557 234.031 31.1189 233.768 31.4478C233.439 31.7768 233.242 32.1057 233.11 32.5663C232.979 33.0268 232.913 33.4215 232.913 33.8163C232.913 34.6715 233.242 35.5268 233.768 36.1847C234.031 36.5136 234.36 36.711 234.755 36.9084C235.15 37.1057 235.545 37.1715 235.939 37.1715C236.334 37.1715 236.795 37.1057 237.123 36.9084C237.518 36.711 237.847 36.4478 238.11 36.1189C238.637 35.5268 238.966 34.6715 238.966 33.7505ZM250.545 28.6189H252.847V39.0794H250.545L245.61 32.5663V39.0794H243.242V28.6189H245.413L250.545 35.3294C250.61 35.3294 250.545 28.6189 250.545 28.6189Z" fill="black"/>
<path d="M5.87603 26.6455H0.152344V40.0008H13.5076V34.2771H5.87603V26.6455Z" fill="#0086FF"/>
<path d="M34.5593 26.7113V34.2771H26.9277V40.0008H40.283V26.6455L34.5593 26.7113Z" fill="#0086FF"/>
<path d="M0.152344 13.3553H5.94182L5.87603 13.2895V5.72368H13.5076V0H0.152344V13.3553Z" fill="#0086FF"/>
<path d="M26.9277 0V5.72368H34.5593V13.3553H40.283V0C40.2172 0 26.9277 0 26.9277 0Z" fill="#0086FF"/>
<path d="M26.1394 13.3553L18.5078 5.72368H26.8631V0H13.5078V5.72368L21.1394 13.3553H26.1394Z" fill="#93EAFF"/>
<path d="M19.2973 26.6455H14.2973L20.6131 32.9613L21.8631 34.2771H13.5078V40.0008H26.9289V34.2113L23.1131 30.4613L19.2973 26.6455Z" fill="#93EAFF"/>
<path d="M34.5593 13.3555V21.6449L33.2435 20.3292L26.9277 14.0134V19.0792L30.6777 22.8292L34.4935 26.6449H40.283V13.3555H34.5593Z" fill="#93EAFF"/>
<path d="M13.5076 20.9213L5.94182 13.3555H0.152344V26.6449H5.87603V18.3555L13.5076 25.987V20.9213Z" fill="#93EAFF"/>
</svg>
