<svg width="38" height="38" viewBox="0 0 38 38" fill="none" xmlns="http://www.w3.org/2000/svg">
<path opacity="0.75" d="M5.79278 32.2171V25.1634H0.5V37.5H12.8366V32.2171H5.79278ZM32.2171 25.2029V32.2171H25.2029L25.1733 32.1775V37.5H37.5V25.1634H32.1775L32.2171 25.2029ZM5.79278 12.7971V5.78289H12.7971L12.8366 5.82246V0.5H0.5V12.8366H5.83235L5.79278 12.7971ZM25.1733 0.5V5.78289H32.2171V12.8366H37.5V0.5H25.1733Z" fill="white"/>
<path d="M19.8409 12.8366H24.5203L17.4666 5.78289H25.1733V0.5H12.8366V5.82246L19.8409 12.8366ZM21.6612 28.6655L18.1591 25.1634H13.4896L19.3265 31.0102L20.5334 32.2171H12.8366V37.5H25.1733V32.1775L21.6612 28.6655ZM32.2171 18.1195V20.5334L31.0102 19.3265L25.1733 13.4896V18.1591L28.6754 21.6612L32.1775 25.1634H37.5V12.8366H32.2171V18.1195ZM5.79278 17.4666L12.8366 24.5104V19.8409L5.83235 12.8366H0.5V25.1634H5.79278V17.4666Z" fill="white"/>
</svg>
