<svg width="225" height="273" viewBox="0 0 225 273" fill="none" xmlns="http://www.w3.org/2000/svg">
<path d="M131.898 229.111C132.888 229.771 132.888 230.43 131.898 231.09C130.909 231.749 129.59 231.749 128.601 231.09C127.612 230.43 127.612 229.771 128.601 229.111C129.59 228.781 130.909 228.781 131.898 229.111Z" fill="#16110D"/>
<path d="M140.139 224.495C141.128 225.155 141.128 225.814 140.139 226.473C139.15 227.133 137.831 227.133 136.841 226.473C135.852 225.814 135.852 225.155 136.841 224.495C137.831 223.836 139.15 223.836 140.139 224.495Z" fill="#16110D"/>
<path d="M148.382 219.549C149.371 220.209 149.371 220.868 148.382 221.527C147.393 222.187 146.074 222.187 145.085 221.527C144.095 220.868 144.095 220.209 145.085 219.549C146.074 219.219 147.722 219.219 148.382 219.549Z" fill="#16110D"/>
<path d="M156.956 214.603C157.945 215.263 157.945 215.922 156.956 216.582C155.967 217.241 154.648 217.241 153.659 216.582C152.67 215.922 152.67 215.263 153.659 214.603C154.318 214.274 155.967 214.274 156.956 214.603Z" fill="#16110D"/>
<path d="M165.2 209.987C166.189 210.647 166.189 211.306 165.2 211.966C164.211 212.625 162.892 212.625 161.903 211.966C160.914 211.306 160.914 210.647 161.903 209.987C162.892 209.328 164.211 209.328 165.2 209.987Z" fill="#16110D"/>
<path d="M173.439 205.041C174.429 205.701 174.429 206.36 173.439 207.02C172.45 207.679 171.131 207.679 170.142 207.02C169.153 206.36 169.153 205.701 170.142 205.041C171.131 204.712 172.45 204.712 173.439 205.041Z" fill="#16110D"/>
<path d="M181.684 200.425C182.673 201.085 182.673 201.744 181.684 202.404C180.694 203.063 179.376 203.063 178.386 202.404C177.397 201.744 177.397 201.085 178.386 200.425C179.376 199.766 181.024 199.766 181.684 200.425Z" fill="#16110D"/>
<path d="M188.609 197.787C189.884 197.787 190.917 197.197 190.917 196.469C190.917 195.74 189.884 195.15 188.609 195.15C187.334 195.15 186.301 195.74 186.301 196.469C186.301 197.197 187.334 197.787 188.609 197.787Z" fill="#16110D"/>
<path d="M196.853 192.842C198.128 192.842 199.161 192.251 199.161 191.523C199.161 190.794 198.128 190.204 196.853 190.204C195.578 190.204 194.545 190.794 194.545 191.523C194.545 192.251 195.578 192.842 196.853 192.842Z" fill="#16110D"/>
<path d="M206.74 185.917C207.729 186.577 207.729 187.236 206.74 187.896C205.751 188.555 204.432 188.555 203.443 187.896C202.454 187.236 202.454 186.577 203.443 185.917C204.432 185.258 206.081 185.258 206.74 185.917Z" fill="#16110D"/>
<path d="M123.323 224.495C124.312 225.155 124.312 225.814 123.323 226.473C122.334 227.133 121.015 227.133 120.026 226.473C119.037 225.814 119.037 225.155 120.026 224.495C121.015 223.836 122.664 223.836 123.323 224.495Z" fill="#16110D"/>
<path d="M131.898 219.549C132.888 220.209 132.888 220.868 131.898 221.527C130.909 222.187 129.59 222.187 128.601 221.527C127.612 220.868 127.612 220.209 128.601 219.549C129.59 219.219 130.909 219.219 131.898 219.549Z" fill="#16110D"/>
<path d="M138.491 216.911C139.765 216.911 140.799 216.321 140.799 215.592C140.799 214.864 139.765 214.274 138.491 214.274C137.216 214.274 136.183 214.864 136.183 215.592C136.183 216.321 137.216 216.911 138.491 216.911Z" fill="#16110D"/>
<path d="M146.732 212.295C148.007 212.295 149.04 211.705 149.04 210.976C149.04 210.248 148.007 209.657 146.732 209.657C145.457 209.657 144.424 210.248 144.424 210.976C144.424 211.705 145.457 212.295 146.732 212.295Z" fill="#16110D"/>
<path d="M156.956 205.041C157.945 205.701 157.945 206.36 156.956 207.02C155.967 207.679 154.648 207.679 153.659 207.02C152.67 206.36 152.67 205.701 153.659 205.041C154.318 204.712 155.967 204.712 156.956 205.041Z" fill="#16110D"/>
<path d="M165.2 200.425C166.189 201.085 166.189 201.744 165.2 202.404C164.211 203.063 162.892 203.063 161.903 202.404C160.914 201.744 160.914 201.085 161.903 200.425C162.892 199.766 164.211 199.766 165.2 200.425Z" fill="#16110D"/>
<path d="M173.439 195.479C174.429 196.139 174.429 196.798 173.439 197.458C172.45 198.117 171.131 198.117 170.142 197.458C169.153 196.798 169.153 196.139 170.142 195.479C171.131 194.82 172.45 194.82 173.439 195.479Z" fill="#16110D"/>
<path d="M181.684 190.534C182.673 191.193 182.673 191.853 181.684 192.512C180.694 193.171 179.376 193.171 178.386 192.512C177.397 191.853 177.397 191.193 178.386 190.534C179.376 190.204 181.024 190.204 181.684 190.534Z" fill="#16110D"/>
<path d="M190.256 185.917C191.245 186.577 191.245 187.236 190.256 187.896C189.267 188.555 187.948 188.555 186.959 187.896C185.97 187.236 185.97 186.577 186.959 185.917C187.948 185.258 189.267 185.258 190.256 185.917Z" fill="#16110D"/>
<path d="M196.853 183.28C198.128 183.28 199.161 182.689 199.161 181.961C199.161 181.232 198.128 180.642 196.853 180.642C195.578 180.642 194.545 181.232 194.545 181.961C194.545 182.689 195.578 183.28 196.853 183.28Z" fill="#16110D"/>
<path d="M115.079 219.549C116.068 220.209 116.068 220.868 115.079 221.527C114.09 222.187 112.771 222.187 111.782 221.527C110.793 220.868 110.793 220.209 111.782 219.549C112.771 219.219 114.09 219.219 115.079 219.549Z" fill="#16110D"/>
<path d="M123.323 214.603C124.312 215.263 124.312 215.922 123.323 216.582C122.334 217.241 121.015 217.241 120.026 216.582C119.037 215.922 119.037 215.263 120.026 214.603C121.015 214.274 122.664 214.274 123.323 214.603Z" fill="#16110D"/>
<path d="M131.898 209.987C132.888 210.647 132.888 211.306 131.898 211.966C130.909 212.625 129.59 212.625 128.601 211.966C127.612 211.306 127.612 210.647 128.601 209.987C129.59 209.328 130.909 209.328 131.898 209.987Z" fill="#16110D"/>
<path d="M140.139 205.041C141.128 205.701 141.128 206.36 140.139 207.02C139.15 207.679 137.831 207.679 136.841 207.02C135.852 206.36 135.852 205.701 136.841 205.041C137.831 204.382 139.15 204.712 140.139 205.041Z" fill="#16110D"/>
<path d="M146.732 202.404C148.007 202.404 149.04 201.813 149.04 201.085C149.04 200.356 148.007 199.766 146.732 199.766C145.457 199.766 144.424 200.356 144.424 201.085C144.424 201.813 145.457 202.404 146.732 202.404Z" fill="#16110D"/>
<path d="M156.956 195.479C157.945 196.139 157.945 196.798 156.956 197.458C155.967 198.117 154.648 198.117 153.659 197.458C152.67 196.798 152.67 196.139 153.659 195.479C154.318 194.82 155.967 194.82 156.956 195.479Z" fill="#16110D"/>
<path d="M163.548 192.842C164.823 192.842 165.856 192.251 165.856 191.523C165.856 190.794 164.823 190.204 163.548 190.204C162.274 190.204 161.24 190.794 161.24 191.523C161.24 192.251 162.274 192.842 163.548 192.842Z" fill="#16110D"/>
<path d="M173.439 185.917C174.429 186.577 174.429 187.236 173.439 187.896C172.45 188.555 171.131 188.555 170.142 187.896C169.153 187.236 169.153 186.577 170.142 185.917C171.131 185.258 172.45 185.258 173.439 185.917Z" fill="#16110D"/>
<path d="M180.366 183.28C181.64 183.28 182.674 182.689 182.674 181.961C182.674 181.232 181.64 180.642 180.366 180.642C179.091 180.642 178.058 181.232 178.058 181.961C178.058 182.689 179.091 183.28 180.366 183.28Z" fill="#16110D"/>
<path d="M190.256 176.356C191.245 177.015 191.245 177.674 190.256 178.334C189.267 178.993 187.948 178.993 186.959 178.334C185.97 177.674 185.97 177.015 186.959 176.356C187.948 175.696 189.267 175.696 190.256 176.356Z" fill="#16110D"/>
<path d="M106.837 214.603C107.826 215.263 107.826 215.922 106.837 216.582C105.848 217.241 104.529 217.241 103.54 216.582C102.551 215.922 102.551 215.263 103.54 214.603C104.529 214.274 105.848 214.274 106.837 214.603Z" fill="#16110D"/>
<path d="M113.431 212.295C114.706 212.295 115.739 211.705 115.739 210.976C115.739 210.248 114.706 209.657 113.431 209.657C112.156 209.657 111.123 210.248 111.123 210.976C111.123 211.705 112.156 212.295 113.431 212.295Z" fill="#16110D"/>
<path d="M123.323 205.041C124.312 205.701 124.312 206.36 123.323 207.02C122.334 207.679 121.015 207.679 120.026 207.02C119.037 206.36 119.037 205.701 120.026 205.041C121.015 204.712 122.664 204.712 123.323 205.041Z" fill="#16110D"/>
<path d="M130.246 202.404C131.52 202.404 132.554 201.813 132.554 201.085C132.554 200.356 131.52 199.766 130.246 199.766C128.971 199.766 127.938 200.356 127.938 201.085C127.938 201.813 128.971 202.404 130.246 202.404Z" fill="#16110D"/>
<path d="M140.139 195.479C141.128 196.139 141.128 196.798 140.139 197.458C139.15 198.117 137.831 198.117 136.841 197.458C135.852 196.798 135.852 196.139 136.841 195.479C137.831 194.82 139.15 194.82 140.139 195.479Z" fill="#16110D"/>
<path d="M148.382 190.534C149.371 191.193 149.371 191.853 148.382 192.512C147.393 193.171 146.074 193.171 145.085 192.512C144.095 191.853 144.095 191.193 145.085 190.534C146.074 190.204 147.722 190.204 148.382 190.534Z" fill="#16110D"/>
<path d="M156.956 185.917C157.945 186.577 157.945 187.236 156.956 187.896C155.967 188.555 154.648 188.555 153.659 187.896C152.67 187.236 152.67 186.577 153.659 185.917C154.318 185.258 155.967 185.258 156.956 185.917Z" fill="#16110D"/>
<path d="M163.548 183.28C164.823 183.28 165.856 182.689 165.856 181.961C165.856 181.232 164.823 180.642 163.548 180.642C162.274 180.642 161.24 181.232 161.24 181.961C161.24 182.689 162.274 183.28 163.548 183.28Z" fill="#16110D"/>
<path d="M173.439 176.356C174.429 177.015 174.429 177.674 173.439 178.334C172.45 178.993 171.131 178.993 170.142 178.334C169.153 177.674 169.153 177.015 170.142 176.356C171.131 175.696 172.45 175.696 173.439 176.356Z" fill="#16110D"/>
<path d="M182.38 173.718C183.655 173.718 184.688 173.127 184.688 172.399C184.688 171.671 183.655 171.08 182.38 171.08C181.106 171.08 180.072 171.671 180.072 172.399C180.072 173.127 181.106 173.718 182.38 173.718Z" fill="#16110D"/>
<path d="M98.2657 209.987C99.2548 210.647 99.2548 211.306 98.2657 211.966C97.2765 212.625 95.9576 212.625 94.9684 211.966C93.9793 211.306 93.9793 210.647 94.9684 209.987C95.9576 209.328 97.6062 209.328 98.2657 209.987Z" fill="#16110D"/>
<path d="M106.837 205.041C107.826 205.701 107.826 206.36 106.837 207.02C105.848 207.679 104.529 207.679 103.54 207.02C102.551 206.36 102.551 205.701 103.54 205.041C104.529 204.712 105.848 204.712 106.837 205.041Z" fill="#16110D"/>
<path d="M115.079 200.425C116.068 201.085 116.068 201.744 115.079 202.404C114.09 203.063 112.771 203.063 111.782 202.404C110.793 201.744 110.793 201.085 111.782 200.425C112.771 199.766 114.09 199.766 115.079 200.425Z" fill="#16110D"/>
<path d="M88.3735 207.349C89.6482 207.349 90.6815 206.759 90.6815 206.031C90.6815 205.302 89.6482 204.712 88.3735 204.712C87.0988 204.712 86.0654 205.302 86.0654 206.031C86.0654 206.759 87.0988 207.349 88.3735 207.349Z" fill="#16110D"/>
<path d="M96.6147 202.404C97.8894 202.404 98.9227 201.813 98.9227 201.085C98.9227 200.356 97.8894 199.766 96.6147 199.766C95.34 199.766 94.3066 200.356 94.3066 201.085C94.3066 201.813 95.34 202.404 96.6147 202.404Z" fill="#16110D"/>
<path d="M81.7774 200.425C82.7665 201.085 82.7665 201.744 81.7774 202.404C80.7882 203.063 79.4693 203.063 78.4802 202.404C77.491 201.744 77.491 201.085 78.4802 200.425C79.4693 199.766 80.7882 199.766 81.7774 200.425Z" fill="#16110D"/>
<path d="M90.0215 195.479C91.0107 196.139 91.0107 196.798 90.0215 197.458C89.0323 198.117 87.7135 198.117 86.7243 197.458C85.7351 196.798 85.7351 196.139 86.7243 195.479C87.7135 194.82 89.0323 194.82 90.0215 195.479Z" fill="#16110D"/>
<path d="M73.2071 195.479C74.1962 196.139 74.1962 196.798 73.2071 197.458C72.2179 198.117 70.899 198.117 69.9098 197.458C68.9207 196.798 68.9207 196.139 69.9098 195.479C70.899 194.82 72.2179 194.82 73.2071 195.479Z" fill="#16110D"/>
<path d="M81.4502 190.534C82.4394 191.193 82.4394 191.853 81.4502 192.512C80.4611 193.171 79.1422 193.171 78.153 192.512C77.1638 191.853 77.1638 191.193 78.153 190.534C79.1422 190.204 80.7908 190.204 81.4502 190.534Z" fill="#16110D"/>
<path d="M64.9619 190.534C65.9511 191.193 65.9511 191.853 64.9619 192.512C63.9728 193.171 62.6539 193.171 61.6647 192.512C60.6756 191.853 60.6756 191.193 61.6647 190.534C62.6539 190.204 63.9728 190.204 64.9619 190.534Z" fill="#16110D"/>
<path d="M73.2071 185.917C74.1962 186.577 74.1962 187.236 73.2071 187.896C72.2179 188.555 70.899 188.555 69.9098 187.896C68.9207 187.236 68.9207 186.577 69.9098 185.917C70.899 185.258 72.2179 185.258 73.2071 185.917Z" fill="#16110D"/>
<path d="M56.7198 185.917C57.7089 186.577 57.7089 187.236 56.7198 187.896C55.7306 188.555 54.4117 188.555 53.4225 187.896C52.4334 187.236 52.4334 186.577 53.4225 185.917C54.4117 185.258 55.7306 185.258 56.7198 185.917Z" fill="#16110D"/>
<path d="M64.9619 180.972C65.9511 181.631 65.9511 182.291 64.9619 182.95C63.9728 183.609 62.6539 183.609 61.6647 182.95C60.6756 182.291 60.6756 181.631 61.6647 180.972C62.6539 180.312 63.9728 180.312 64.9619 180.972Z" fill="#16110D"/>
<path d="M56.7198 176.026C57.7089 176.685 57.7089 177.345 56.7198 178.004C55.7306 178.664 54.4117 178.664 53.4225 178.004C52.4334 177.345 52.4334 176.685 53.4225 176.026C54.4117 175.696 55.7306 175.696 56.7198 176.026C57.3792 176.685 55.7306 175.696 56.7198 176.026Z" fill="#16110D"/>
<path d="M212.019 180.972C213.008 180.312 214.327 180.312 215.316 180.972C216.305 181.631 216.305 182.291 215.316 182.95C214.327 183.609 213.008 183.609 212.019 182.95C211.36 182.291 211.36 181.631 212.019 180.972Z" fill="#16110D"/>
<path d="M221.91 178.334C223.184 178.334 224.218 177.743 224.218 177.015C224.218 176.287 223.184 175.696 221.91 175.696C220.635 175.696 219.602 176.287 219.602 177.015C219.602 177.743 220.635 178.334 221.91 178.334Z" fill="#16110D"/>
<path d="M205.424 178.334C206.699 178.334 207.732 177.743 207.732 177.015C207.732 176.287 206.699 175.696 205.424 175.696C204.15 175.696 203.116 176.287 203.116 177.015C203.116 177.743 204.15 178.334 205.424 178.334Z" fill="#16110D"/>
<path d="M215.315 171.41C216.305 172.069 216.305 172.729 215.315 173.388C214.326 174.048 213.007 174.048 212.018 173.388C211.029 172.729 211.029 172.069 212.018 171.41C213.007 171.08 214.326 171.08 215.315 171.41Z" fill="#16110D"/>
<path d="M223.56 166.464C224.549 167.123 224.549 167.783 223.56 168.442C222.57 169.102 221.252 169.102 220.262 168.442C219.273 167.783 219.273 167.123 220.262 166.464C221.252 166.134 222.9 166.134 223.56 166.464Z" fill="#16110D"/>
<path d="M195.533 171.41C196.522 170.75 197.841 170.75 198.83 171.41C199.819 172.069 199.819 172.729 198.83 173.388C197.841 174.048 196.522 174.048 195.533 173.388C194.544 172.729 194.544 172.069 195.533 171.41Z" fill="#16110D"/>
<path d="M207.072 166.464C208.061 167.123 208.061 167.783 207.072 168.442C206.083 169.102 204.764 169.102 203.775 168.442C202.786 167.783 202.786 167.123 203.775 166.464C204.764 166.134 206.083 166.134 207.072 166.464Z" fill="#16110D"/>
<path d="M213.667 164.156C214.942 164.156 215.975 163.565 215.975 162.837C215.975 162.109 214.942 161.518 213.667 161.518C212.393 161.518 211.359 162.109 211.359 162.837C211.359 163.565 212.393 164.156 213.667 164.156Z" fill="#16110D"/>
<path d="M198.5 161.848C199.489 162.507 199.489 163.167 198.5 163.826C197.511 164.486 196.192 164.486 195.203 163.826C194.214 163.167 194.214 162.507 195.203 161.848C196.192 161.188 197.841 161.188 198.5 161.848Z" fill="#16110D"/>
<path d="M207.072 156.902C208.061 157.562 208.061 158.221 207.072 158.88C206.083 159.54 204.764 159.54 203.775 158.88C202.786 158.221 202.786 157.562 203.775 156.902C204.764 156.572 206.083 156.572 207.072 156.902Z" fill="#16110D"/>
<path d="M7.00847 120.912C5.96386 120.39 4.91925 120.651 3.6135 121.956C2.83004 122.74 2.04659 124.046 1.78544 125.351C1.26314 127.18 1.78544 128.224 2.56889 128.746L2.83004 129.008L8.05307 131.88L11.9703 126.135L12.7538 124.307V124.046L7.00847 120.912Z" fill="#0066FF"/>
<path d="M2.04574 124.047L9.61913 128.225L6.74647 130.837L2.04574 128.748L1.52344 125.875L2.04574 124.047Z" fill="white"/>
<path d="M8.31458 132.404L2.3081 129.27C1.2635 128.748 0.741193 127.181 1.2635 125.353C1.52465 124.047 2.3081 122.741 3.35271 121.696C4.65846 120.391 6.22537 119.868 7.26998 120.391V120.652L7.53113 120.391L13.2765 123.263C13.2765 123.525 13.2765 124.047 13.2765 124.308L12.493 126.136L8.31458 132.404ZM6.22537 121.174C5.70307 121.174 4.91962 121.435 4.13616 122.219C3.35271 123.002 2.56925 124.308 2.3081 125.353C2.04695 126.658 2.3081 127.703 2.8304 128.225L3.09156 128.486L8.05343 131.098L11.7096 125.875L12.2319 124.569L6.74767 121.696C6.48652 121.174 6.48652 121.174 6.22537 121.174Z" fill="#16110D"/>
<path d="M13.5381 125.875C13.5381 127.964 12.2324 130.314 10.4043 131.359C8.57627 132.404 7.27051 131.62 7.27051 129.531C7.27051 127.442 8.57627 125.091 10.4043 124.047C12.2324 123.002 13.5381 123.786 13.5381 125.875Z" fill="#16110D"/>
<path d="M8.83767 132.404C8.31536 132.404 8.05421 132.404 7.79306 132.143C7.00961 131.62 6.4873 130.837 6.4873 129.531C6.4873 127.181 8.05421 124.569 9.88227 123.525C10.9269 123.002 11.9715 122.741 12.7549 123.263C13.5384 123.786 14.0607 124.569 14.0607 125.875C14.0607 128.225 12.4938 130.837 10.6657 131.881C10.1434 132.143 9.35997 132.404 8.83767 132.404ZM11.7103 124.047C11.4492 124.047 10.9269 124.047 10.6657 124.308C9.09882 125.353 7.79306 127.442 7.79306 129.27C7.79306 130.053 8.05421 130.576 8.57652 130.837C9.09882 131.098 9.62112 131.098 10.4046 130.576C11.9715 129.531 13.2772 127.442 13.2772 125.614C13.2772 124.83 13.0161 124.308 12.4938 124.047C12.2326 124.308 11.9715 124.047 11.7103 124.047Z" fill="#16110D"/>
<path d="M10.401 199.257C9.87871 198.735 9.35641 198.474 9.09525 198.735C8.8341 198.996 8.57295 198.996 8.3118 199.257C8.05065 199.257 7.52835 198.996 7.26719 198.474L7.00604 197.951C6.74489 197.168 6.74489 196.646 7.00604 196.385L7.52835 196.123C8.3118 195.601 8.57295 194.556 8.57295 193.512V190.639L6.74489 189.595L5.43913 190.378L5.96144 194.034L5.70029 194.295C4.91683 194.818 4.65568 196.123 5.17798 197.429L4.91683 198.213L7.00604 201.346L9.35641 202.391L10.401 201.608C10.1399 201.346 10.401 201.085 10.6622 201.085C10.9233 200.824 10.9233 200.041 10.401 199.257Z" fill="white"/>
<path d="M8.83508 202.392L6.48472 201.348L4.39551 197.953L4.65666 197.169C4.39551 195.602 4.65666 194.558 5.44011 194.035L5.70126 193.774L5.17896 190.118L6.74587 189.074L8.83508 190.641V193.513C8.83508 194.819 8.31278 195.864 7.52932 196.386L7.00702 196.647C6.74587 196.908 6.74587 197.43 7.00702 197.953L7.26817 198.475C7.52932 198.997 8.05163 199.258 8.05163 198.997C8.31278 198.997 8.57393 198.736 8.83508 198.475C9.09623 198.475 9.35738 198.475 9.61854 198.475C9.87969 198.475 10.402 198.736 10.6631 199.259C11.1854 200.042 11.1854 200.825 10.6631 201.087C10.402 201.348 10.1408 201.348 9.87969 201.609L8.83508 202.392ZM6.74587 201.087L8.83508 201.87L9.87969 201.348C10.1408 201.087 10.1408 201.087 10.402 200.825C10.6631 200.564 10.6631 200.042 10.1408 199.52C9.87969 199.259 9.61854 198.997 9.35738 198.997H9.09623C8.83508 199.258 8.57393 199.52 8.31278 199.52C7.79048 199.781 7.26817 199.259 7.00702 198.736L6.74587 198.214C6.22357 197.43 6.22357 196.647 6.74587 196.125L7.26817 195.864C8.05163 195.341 8.31278 194.558 8.31278 193.252V190.641L6.74587 189.596L5.70126 190.641L6.22357 194.297L5.70126 194.558C5.17896 195.08 4.91781 196.125 5.17896 197.43L4.91781 198.214L6.74587 201.087Z" fill="#16110D"/>
<path d="M7.00768 200.302C6.74653 200.302 6.22423 200.041 5.96308 199.519L5.70193 198.997C5.44077 198.213 5.44077 197.691 5.70193 197.43L6.22423 197.169C7.00768 196.646 7.26883 195.602 7.26883 194.557V191.684L5.44077 190.379V193.251C5.44077 194.035 5.17962 194.557 4.65732 194.818L4.13502 195.079C3.09041 195.863 3.09041 197.691 4.13502 199.78L4.39617 200.302C4.91847 201.347 5.70193 201.869 6.48538 202.392C7.00768 202.653 7.79114 202.914 8.31344 202.653C8.83574 202.392 9.09689 202.392 9.35805 201.869C9.6192 201.608 9.6192 200.825 9.09689 200.302C8.57459 199.78 8.05229 199.519 7.79114 199.78C7.52999 200.041 7.26883 200.041 7.00768 200.302Z" fill="white"/>
<path d="M7.79114 202.915C7.26883 202.915 7.00768 202.653 6.48538 202.392C5.44077 202.131 4.91847 201.087 4.39617 200.303L4.13502 199.781C3.09041 197.692 3.09041 195.602 4.13502 194.819L4.65732 194.558C4.91847 194.297 5.17962 193.774 5.17962 193.252V190.118L7.52998 191.424V194.297C7.52998 195.602 7.00768 196.647 6.22423 197.169L5.70193 197.43C5.44077 197.692 5.44077 198.214 5.70193 198.736L5.96308 199.258C6.22423 199.781 6.74653 200.042 6.74653 199.781C7.00768 199.781 7.26883 199.52 7.52998 199.258C7.79114 199.52 8.05229 199.258 8.05229 199.52C8.31344 199.52 8.83574 199.781 9.09689 200.303C9.6192 201.087 9.6192 201.87 9.35805 202.131C9.09689 202.392 8.57459 202.653 8.31344 202.915C8.05229 202.915 7.79114 202.915 7.79114 202.915ZM5.70193 190.902V193.252C5.70193 194.035 5.44077 194.558 4.91847 195.08L4.39617 195.341C3.35156 195.863 3.61271 197.953 4.39617 199.781L4.65732 200.303C5.17962 201.087 5.70193 201.87 6.48538 202.392C7.00768 202.653 7.52999 202.915 8.05229 202.653C8.31344 202.392 8.83574 202.392 9.09689 202.131C9.35805 201.87 9.35805 201.348 8.83574 200.825C8.57459 200.564 8.31344 200.303 8.05229 200.303H7.79114C7.52999 200.564 7.26883 200.825 7.00768 200.825C6.48538 201.087 5.96308 200.564 5.70193 200.042L5.44077 199.258C4.91847 198.475 4.91847 197.692 5.44077 197.169L5.96308 196.908C6.74653 196.386 7.00768 195.602 7.00768 194.297V191.685L5.70193 190.902Z" fill="#16110D"/>
<path d="M10.4049 199.259C10.1438 198.736 9.88262 198.475 9.36031 198.475C9.09916 198.475 8.83801 198.475 8.83801 198.736C8.57686 198.997 8.31571 198.997 8.05456 199.259C7.79341 199.259 7.53225 198.997 7.2711 198.736L7.00995 198.214C6.7488 197.431 6.7488 196.908 7.00995 196.908L7.53225 196.647C8.31571 196.125 8.83801 195.08 8.83801 193.774V190.641L6.7488 189.335L5.18189 190.379L5.70419 194.036H5.44304C4.65959 194.558 4.39844 195.864 4.65959 197.169L4.39844 197.953L6.48765 201.348L8.83801 202.392L9.88262 201.609C10.1438 201.609 10.4049 201.348 10.6661 201.087C11.1884 200.825 10.9272 200.042 10.4049 199.259ZM6.7488 189.857L8.31571 190.902L7.2711 191.685L5.70419 190.902V190.641L6.7488 189.857Z" fill="#16110D"/>
<path d="M7.00671 200.303C6.74555 200.303 6.22325 200.042 5.9621 199.52L5.4398 198.997C5.17865 198.214 5.17865 197.692 5.4398 197.43L5.9621 197.169C6.74555 196.647 7.00671 195.602 7.00671 194.558V191.685L5.4398 190.379V193.252C5.4398 194.036 5.17865 194.558 4.65634 194.819L4.13404 195.08C3.08943 195.864 3.08943 197.692 4.13404 199.781L4.39519 200.303C4.91749 201.348 5.70095 201.87 6.4844 202.392C7.00671 202.654 7.79016 202.915 8.31246 202.654C8.83477 202.392 9.09592 202.392 9.35707 201.87C9.61822 201.609 9.61822 200.825 9.09592 200.303C8.57361 199.781 8.05131 199.52 7.79016 199.781C7.52901 200.042 7.26786 200.042 7.00671 200.303Z" fill="white"/>
<path d="M7.52977 202.915C7.00747 202.915 6.74632 202.654 6.22402 202.392C5.44056 202.131 4.65711 201.087 4.1348 200.303L3.87365 199.781C2.82905 197.953 2.82905 195.864 4.1348 195.08L4.65711 194.819C4.91826 194.558 5.17941 194.036 5.17941 193.513V190.379L7.52977 191.685V194.558C7.52977 195.864 7.00747 196.908 6.22402 197.43L5.70171 197.692C5.44056 197.953 5.44056 198.475 5.70171 198.997L5.96287 199.52C6.22402 200.042 6.74632 200.303 6.74632 200.042C7.00747 200.042 7.26862 199.781 7.52977 199.52C7.79093 199.259 7.79093 199.259 8.05208 199.259C8.31323 199.259 8.83553 199.52 9.09668 200.042C9.61899 200.825 9.61899 201.609 9.35783 201.87C9.09668 202.131 8.57438 202.392 8.31323 202.654C8.05208 202.915 7.79093 202.915 7.52977 202.915ZM5.44056 190.902V193.252C5.44056 194.036 5.17941 194.558 4.65711 195.08L4.1348 195.341C3.0902 195.864 3.35135 197.953 4.1348 199.781L4.39596 200.303C4.91826 201.087 5.44056 201.87 6.22402 202.392C6.74632 202.654 7.26862 202.915 7.79093 202.654C8.05208 202.392 8.57438 202.392 8.83553 202.131C9.09668 201.87 9.09668 201.348 8.57438 200.825C8.31323 200.564 8.05208 200.303 7.79093 200.303H7.52977C7.26862 200.564 7.00747 200.825 6.74632 200.825C6.22402 201.087 5.70171 200.564 5.44056 200.042V199.259C4.91826 198.475 4.91826 197.692 5.44056 197.169L5.96287 196.908C6.74632 196.386 7.00747 195.602 7.00747 194.297V191.685L5.44056 190.902Z" fill="#16110D"/>
<path d="M7.00621 184.895C6.4839 184.633 5.70045 184.895 4.917 185.417C4.39469 185.939 3.87239 186.723 3.61124 187.506C3.35009 188.551 3.61124 189.334 4.13354 189.595H4.39469L7.78966 191.423L10.14 188.028L10.6623 186.984L7.00621 184.895Z" fill="#0066FF"/>
<path d="M7.00808 186.462C6.48578 186.201 5.70232 186.462 4.91887 186.984C4.39657 187.507 3.87426 188.29 3.61311 189.074C3.35196 190.118 4.91887 189.857 5.44117 190.118H5.70232L7.79153 191.163L9.88075 189.596L10.403 188.551L7.00808 186.462Z" fill="white"/>
<path d="M7.79141 191.946L4.13529 190.118C3.35184 189.857 3.09069 188.812 3.35184 187.768C3.61299 186.984 4.13529 186.201 4.6576 185.418C5.44105 184.634 6.48565 184.373 7.00796 184.634V184.895V184.634L10.6641 186.462C10.9252 186.462 10.9252 186.723 10.9252 186.984L10.4029 188.029L7.79141 191.946ZM6.48565 185.156C6.2245 185.156 5.7022 185.418 5.1799 185.94C4.65759 186.462 4.13529 187.246 4.13529 187.768C3.87414 188.551 4.13529 189.335 4.39644 189.335H4.6576L7.53026 190.902L9.61947 187.507L9.88062 186.723L6.48565 184.895C6.74681 185.156 6.48565 185.156 6.48565 185.156Z" fill="#16110D"/>
<path d="M10.9245 188.028C10.9245 189.334 10.1411 190.9 8.8353 191.423C7.7907 191.945 6.74609 191.423 6.74609 190.378C6.74609 189.072 7.52955 187.506 8.8353 186.983C10.1411 186.2 10.9245 186.722 10.9245 188.028Z" fill="#16110D"/>
<path d="M8.05324 191.946C7.79208 191.946 7.53093 191.946 7.26978 191.685C6.74748 191.424 6.48633 190.902 6.48633 190.118C6.48633 188.813 7.53093 186.985 8.57554 186.462C9.09784 186.201 9.8813 185.94 10.4036 186.201C10.9259 186.462 11.1871 186.985 11.1871 187.768C11.1871 189.074 10.1424 190.902 9.09784 191.424C8.83669 191.946 8.57554 191.946 8.05324 191.946ZM9.8813 186.985C9.62014 186.985 9.35899 186.985 9.09784 187.246C8.05324 187.768 7.26978 189.335 7.26978 190.379C7.26978 190.902 7.53093 191.163 7.79208 191.424C8.05324 191.685 8.31439 191.424 8.83669 191.163C9.8813 190.379 10.6647 189.074 10.6647 188.029C10.6647 187.507 10.4036 187.246 10.1424 186.985C10.1424 186.985 10.1424 186.985 9.8813 186.985Z" fill="#16110D"/>
<path d="M133.93 108.638V148.594L144.115 155.123L178.848 134.753V107.593L152.994 97.4082L133.93 108.638Z" fill="#0066FF"/>
<path d="M144.113 155.646L133.406 148.856V108.378L153.254 96.8871H153.515L179.63 107.072V135.015L144.113 155.646ZM134.451 148.334L144.113 154.34L178.324 134.493V107.855L153.254 97.9317L134.451 108.639V148.334Z" fill="#16110D"/>
<path d="M133.931 148.595L162.918 165.309V125.353L133.931 108.639V148.595Z" fill="#0066FF"/>
<path d="M163.439 166.353L133.406 149.117V107.594L163.7 124.83V166.353H163.439ZM134.451 148.334L162.394 164.264V125.614L134.451 109.684V148.334Z" fill="#16110D"/>
<path d="M152.995 97.4094L182.244 114.123L162.918 125.353L133.931 108.639L152.995 97.4094Z" fill="#0066FF"/>
<path d="M152.995 101.588L182.244 118.302L162.918 129.531L133.931 112.817L152.995 101.588Z" fill="white"/>
<path d="M173.104 172.36L162.396 165.57V124.831L182.244 113.34H182.505L208.62 123.525V151.468L173.104 172.36ZM163.441 165.048L173.104 171.054L207.315 151.207V124.569L182.244 114.646L163.441 125.353V165.048Z" fill="#16110D"/>
<path d="M162.917 125.353V165.309L173.102 171.838L207.835 151.468V124.308L182.242 114.123L162.917 125.353Z" fill="#16110D"/>
<path d="M162.918 125.875L132.624 108.639L152.994 96.8871L183.287 114.123L162.918 125.875ZM134.974 108.639L162.918 124.569L181.198 114.123L153.255 98.1928L134.974 108.639Z" fill="#16110D"/>
<path d="M178.849 107.594L207.837 124.308L182.244 114.123L152.995 97.4094L178.849 107.594Z" fill="#0066FF"/>
<path d="M207.837 124.83L182.244 114.645L152.995 97.9317L153.517 96.8871L179.371 107.072L208.62 123.786L207.837 124.83ZM159.785 100.804L182.505 113.601L201.047 120.913L178.588 108.117L159.785 100.804Z" fill="#16110D"/>
<path d="M175.972 160.086L186.157 165.831V143.633L175.972 137.627V160.086Z" fill="#0066FF"/>
<path d="M186.679 131.358L196.864 137.364L186.157 143.632L175.972 137.626L186.679 131.358Z" fill="#0066FF"/>
<path d="M186.679 135.015L196.864 141.022L186.157 147.028L175.972 141.283L186.679 135.015Z" fill="white"/>
<path d="M201.305 136.582L186.681 130.837L175.451 137.366V160.347L185.897 166.354L191.904 170.01L211.751 158.258V142.328L201.305 136.582ZM200.783 137.627L204.961 139.977L197.127 136.843L192.948 134.493L200.783 137.627ZM177.018 137.627L186.681 132.143H186.942L195.821 137.366L186.158 142.85L180.674 139.716L177.018 137.627ZM176.496 138.41L179.891 140.5L185.636 143.894V165.048L176.496 159.825V138.41ZM191.904 168.965L186.681 165.831V144.156L196.866 138.149L210.707 143.633V158.258L191.904 168.965Z" fill="#16110D"/>
<path d="M198.956 136.321L208.357 141.805L199.217 138.149L189.815 132.665L198.956 136.321Z" fill="#0066FF"/>
<path d="M186.156 143.633V165.831L191.64 169.487L211.227 158.258V142.85L196.863 137.366L186.156 143.633Z" fill="#16110D"/>
<path d="M178.584 166.615L119.564 200.564L60.5439 166.615L119.564 132.404L178.584 166.615Z" fill="#0066FF"/>
<path d="M60.5439 166.615V175.755L119.564 209.704V200.564L60.5439 166.615Z" fill="#0066FF"/>
<path d="M178.323 170.271L119.302 204.22L60.2822 170.271L119.302 136.321L178.323 170.271Z" fill="white"/>
<path d="M178.586 166.615V175.755L119.565 209.704V200.564L178.586 166.615Z" fill="#16110D"/>
<path d="M179.107 166.092L119.565 131.881L60.0225 166.092V175.755L119.565 210.227L179.107 175.755V166.092ZM61.5894 166.615L119.565 133.187L177.541 166.615L170.489 170.793L119.565 200.042L68.6405 170.532L61.5894 166.615ZM61.0671 175.233V167.398L119.043 200.825V208.66L61.0671 175.233ZM120.087 208.66V200.825L171.012 171.576L178.063 167.398V175.233L120.087 208.66Z" fill="#16110D"/>
<path d="M148.814 166.876V160.869H146.986C145.681 158.78 143.33 156.691 140.458 154.863C128.967 148.334 110.686 148.334 99.1957 154.863C96.0619 156.691 93.9727 158.78 92.6669 160.869H90.8389V166.615C90.8389 166.876 90.8389 166.876 90.8389 167.137V167.398C91.1 171.576 93.9727 175.494 99.4569 178.628C110.948 185.156 129.228 185.156 140.719 178.628C145.942 175.494 148.814 171.054 148.814 166.876Z" fill="#0066FF"/>
<path d="M119.566 184.112C111.992 184.112 104.419 182.545 98.6737 179.15C93.4506 176.016 90.3168 172.099 90.0557 167.659V167.137C90.0557 166.876 90.0557 166.876 90.0557 166.615V160.347H92.1449C93.7118 157.997 95.801 156.168 98.9348 154.34C110.425 147.812 129.228 147.812 140.719 154.34C143.592 155.907 145.942 157.997 147.509 160.347H149.598V166.876C149.598 171.576 146.464 176.016 140.719 179.15C134.713 182.545 127.139 184.112 119.566 184.112ZM90.8391 167.137C91.1003 171.315 93.9729 175.233 99.196 178.105C110.425 184.634 128.706 184.634 139.936 178.105C145.159 174.971 148.292 171.054 148.292 166.615V161.13H146.464C145.159 159.041 142.808 156.952 139.936 155.385C128.706 148.856 110.425 148.856 99.196 155.385C96.3233 156.952 94.2341 159.041 92.6672 161.13L92.406 161.392H90.8391V166.615C90.8391 166.615 90.8391 166.876 90.8391 167.137Z" fill="#16110D"/>
<path d="M140.196 149.64C151.687 156.168 151.687 166.876 140.196 173.404C128.706 179.933 110.425 179.933 98.9344 173.404C87.4437 166.876 87.4437 156.168 98.9344 149.64C110.425 142.85 128.706 142.85 140.196 149.64Z" fill="#0066FF"/>
<path d="M139.936 152.251C151.426 158.78 151.426 169.487 139.936 176.016C128.445 182.545 110.164 182.545 98.6737 176.016C87.183 169.487 87.183 158.78 98.6737 152.251C110.164 145.461 128.445 145.461 139.936 152.251Z" fill="white"/>
<path d="M119.565 178.889C111.992 178.889 104.418 177.322 98.6731 173.927C92.9278 170.532 89.7939 166.353 89.7939 161.653C89.7939 156.952 92.9278 152.512 98.6731 149.379C110.164 142.85 128.967 142.85 140.457 149.379C146.203 152.774 149.336 156.952 149.336 161.653C149.336 166.353 146.203 170.793 140.457 173.927C134.712 177.061 127.139 178.889 119.565 178.889ZM119.565 145.2C112.253 145.2 104.941 146.767 99.1954 150.162C93.9724 153.296 90.8386 157.213 90.8386 161.653C90.8386 165.831 93.7112 170.01 99.1954 173.143C110.425 179.672 128.706 179.672 139.935 173.143C145.158 170.01 148.292 166.092 148.292 161.653C148.292 157.474 145.419 153.296 139.935 150.162C134.19 146.767 126.877 145.2 119.565 145.2Z" fill="#16110D"/>
<path d="M138.89 157.473V123.523L137.584 122.479C136.54 120.912 135.234 120.651 133.145 119.606C125.571 115.167 113.297 115.167 105.724 119.606C103.635 120.651 102.329 122.218 101.284 123.523H99.9785V157.212V157.473V157.734C100.24 160.346 102.068 163.218 105.724 165.308C113.297 169.747 125.571 169.747 133.145 165.308C137.062 163.218 138.89 160.346 138.89 157.473Z" fill="#0066FF"/>
<path d="M119.565 169.226C114.603 169.226 109.38 168.182 105.724 165.831C102.329 163.742 100.24 161.13 99.9785 158.258V157.474V123.002H101.545C102.59 121.435 104.157 120.13 105.985 119.085C113.558 114.645 126.094 114.645 133.928 119.085C134.45 119.346 134.973 119.607 135.495 119.869C136.54 120.391 137.584 120.913 138.368 121.958L139.674 123.263V157.474C139.674 160.608 137.584 163.742 133.667 165.831C129.75 168.182 124.527 169.226 119.565 169.226ZM100.762 157.735C101.023 160.608 102.851 162.958 106.246 165.048C113.558 169.226 125.571 169.226 132.884 165.048C136.279 162.958 138.368 160.347 138.368 157.735V124.047L137.062 122.741C136.54 121.958 135.756 121.435 134.451 120.913C133.928 120.652 133.406 120.391 132.622 120.13C125.31 115.951 113.297 115.951 105.985 120.13C104.157 121.174 102.59 122.48 101.807 124.047L101.545 124.308H100.501V157.735H100.762Z" fill="#16110D"/>
<path d="M161.873 115.95L119.305 140.498L76.7373 115.95L119.305 91.4016L161.873 115.95Z" fill="#0066FF"/>
<path d="M76.7373 115.951V122.48L119.305 147.289V140.499L76.7373 115.951Z" fill="#0066FF"/>
<path d="M161.613 119.346L119.045 143.894L76.4775 119.346L119.045 94.7979L161.613 119.346Z" fill="white"/>
<path d="M161.872 115.951V122.48L119.305 147.289V140.499L161.872 115.951Z" fill="#16110D"/>
<path d="M162.396 115.69L119.306 90.8806L76.2158 115.69V123.002L119.306 147.812L162.396 123.002V115.69ZM119.306 92.1864L160.829 116.212L119.306 140.238L77.7827 116.212L119.306 92.1864ZM77.2604 122.219V116.996L118.783 141.022V146.245L77.2604 122.219ZM119.828 146.245V141.022L161.351 116.996V122.219L119.828 146.245Z" fill="#16110D"/>
<path d="M132.379 24.3196L130.946 24.9537L166.774 105.906L168.207 105.272L132.379 24.3196Z" fill="#16110D"/>
<path d="M160.828 107.856L132.102 77.0397L133.146 75.9951L162.395 107.333L160.828 107.856Z" fill="#16110D"/>
<path d="M116.952 5.48422L126.615 10.9684L134.972 6.26767L125.309 0.522339L116.952 5.48422Z" fill="#0066FF"/>
<path d="M116.952 8.35677L126.615 13.841L134.71 9.14023L125.309 3.3949L116.952 8.35677Z" fill="white"/>
<path d="M115.906 92.7074L106.243 87.2232L116.95 5.48279L126.613 10.967L115.906 92.7074Z" fill="#0066FF"/>
<path d="M116.168 93.7533L105.722 87.4856L116.429 4.96179L127.136 10.7071L116.168 93.7533ZM107.027 86.9633L115.645 91.9252L126.353 11.2294L117.735 6.26755L107.027 86.9633Z" fill="#16110D"/>
<path d="M106.243 117.779L115.906 123.263V92.7087L106.243 87.2245V117.779Z" fill="#0066FF"/>
<path d="M135.493 6.00648L125.308 0L115.907 5.48418L125.83 11.4907L115.123 92.1864L105.722 86.18V117.779L115.645 123.786L133.143 113.862L132.881 83.0461L135.493 6.00648ZM115.384 122.219L107.027 117.257V88.2692L115.384 93.2311V122.219ZM125.308 1.30576L133.665 6.26763L126.614 10.4461L118.257 5.48418L125.308 1.30576ZM116.429 122.48V92.9699L127.136 11.4907L134.448 7.31224L132.098 83.3073L132.359 113.601L116.429 122.48Z" fill="#16110D"/>
<path d="M126.615 10.9683L115.908 92.7087V123.263L132.883 113.862L132.361 83.3072L134.972 6.26758L126.615 10.9683Z" fill="#16110D"/>
<path d="M46.1804 41.523L33.9062 73.3835L115.908 92.1864L126.615 10.7072L46.1804 41.523ZM111.207 82.0015L45.3969 68.4216L54.0149 45.9626L119.303 20.6309L111.207 82.0015Z" fill="#16110D"/>
<path d="M116.169 92.9698L33.123 73.9058L45.6583 41.0007H45.9195L127.138 10.1848V10.9683L116.169 92.9698ZM34.69 73.1223L115.386 91.6641L126.093 11.7517L46.7029 42.0453L34.69 73.1223ZM111.468 82.7849L44.3526 68.9439L53.2317 45.7014L119.564 20.1086L111.468 82.7849ZM45.9195 67.8993L110.685 81.218L118.52 21.1532L54.2763 45.9626L45.9195 67.8993Z" fill="#16110D"/>
<path d="M24.5049 68.4217L33.9063 73.3835L46.1805 41.5231L36.779 36.3L24.5049 68.4217Z" fill="#0066FF"/>
<path d="M34.1687 74.167L23.7227 68.4217L35.9968 36.3L46.704 41.2619L34.1687 74.167ZM25.0284 68.1605L33.6464 72.8612L45.6594 41.7842L37.0414 37.0835L25.0284 68.1605Z" fill="#16110D"/>
<path d="M116.953 5.48413L126.615 10.9683L46.1807 41.523L36.7793 36.3L116.953 5.48413Z" fill="#0066FF"/>
<path d="M116.953 9.40137L122.959 12.5352L42.5246 43.0899L36.7793 40.2172L116.953 9.40137Z" fill="white"/>
<path d="M46.1817 42.0453L36.7803 35.7777L117.215 4.70068L127.139 11.2295L46.1817 42.0453ZM38.086 36.5612L46.4429 41.0007L125.311 10.9683L116.954 6.00644L38.086 36.5612Z" fill="#16110D"/>
<path d="M101.545 76.7784L111.208 82.0014L119.042 20.6309L108.335 24.8093L101.545 76.7784Z" fill="#0066FF"/>
<path d="M111.468 82.7849L101.021 77.0396L107.811 24.287L119.563 19.5863L111.468 82.7849ZM102.066 76.5173L110.684 81.218L118.519 21.4144L108.856 25.0705L102.066 76.5173Z" fill="#16110D"/>
<path d="M45.1357 68.4218L46.4415 65.288L101.544 76.7786L111.207 82.0017L45.1357 68.4218Z" fill="#0066FF"/>
<path d="M45.1357 68.9439L45.9192 66.5935L101.283 78.0842L107.029 81.218L45.1357 68.9439Z" fill="white"/>
<path d="M114.604 83.3073L44.6152 68.6828L46.1821 64.5044L102.069 76.2562L114.604 83.3073ZM45.921 67.8994L107.553 80.6958L101.285 77.3008L46.7044 65.8102L45.921 67.8994Z" fill="#16110D"/>
<path d="M4.91895 54.3195L14.3204 59.2814L46.1809 41.5231L36.7794 36.3L4.91895 54.3195Z" fill="#0066FF"/>
<path d="M0.742188 120.652L10.4048 125.875L14.3221 59.2815L4.92061 54.3196L0.742188 120.652Z" fill="#0066FF"/>
<path d="M4.91895 57.9757L14.3204 63.1987L46.1809 45.1793L36.7794 40.2174L4.91895 57.9757Z" fill="white"/>
<path d="M46.7037 41.7843L46.9648 41.262L46.1814 41.0009L36.7799 35.7778L4.39717 54.0584L0.21875 120.913L10.4037 126.397L15.1044 123.525L46.7037 41.7843ZM36.7799 37.0836L45.1368 41.5232L32.0792 48.8354L14.3209 58.7592L8.31444 55.6253L5.96408 54.3196L36.7799 37.0836ZM1.26336 120.391L5.18063 55.103L9.6202 57.4534L13.5375 59.5426L12.754 70.7721L9.88135 124.83L1.26336 120.391ZM10.926 124.83L14.3209 70.7721L15.1044 59.8038L32.3404 50.1412L45.3979 42.8289L14.0598 122.741L10.926 124.83Z" fill="#16110D"/>
<path d="M18.5006 62.9376L15.6279 106.289L19.5452 97.4095L36.7812 53.0138L18.5006 62.9376ZM18.5006 96.8872L16.9337 100.282L19.284 63.721L34.4308 55.103L18.5006 96.8872Z" fill="#16110D"/>
<path d="M21.1119 62.1541L35.7363 53.7972L18.7615 97.6707L16.4111 103.155L18.7615 68.1606L21.1119 62.1541Z" fill="#0066FF"/>
<path d="M16.9331 77.5619L31.8188 69.4662L17.7166 105.766L15.3662 111.25L16.9331 77.5619Z" fill="white"/>
<path d="M15.627 106.289L18.2385 68.1605L20.5888 61.8929L36.7802 52.7526L19.2831 97.9317L15.627 106.289ZM19.2831 68.4216L17.1939 100.021L18.2385 97.4094L34.691 54.8418L21.3723 62.154L19.2831 68.4216Z" fill="#16110D"/>
<path d="M120.349 178.366V183.589H127.661L138.368 179.933L144.375 175.494L148.031 170.793L148.814 165.831L148.292 165.048L145.419 169.226L139.413 173.404L131.578 176.799L120.349 178.366Z" fill="#16110D"/>
<path d="M122.438 145.461V168.704L127.923 167.659L132.885 165.309L136.541 162.958L138.63 159.041L138.891 136.321L122.438 145.461Z" fill="#16110D"/>
<path d="M123.482 146.506V145.2L138.629 136.582V137.888L123.482 146.506Z" fill="#0066FF"/>
<path d="M123.482 207.876V206.571L138.629 197.953V199.258L123.482 207.876Z" fill="#0066FF"/>
<path d="M14.3216 59.2814L10.4043 125.875L14.5827 123.264L46.182 41.7843L14.3216 59.2814ZM16.4108 103.155L19.0223 63.4599L35.736 54.0584L19.0223 96.8872L16.4108 103.155Z" fill="#16110D"/>
<path d="M48.0081 40.9996C47.7469 40.9996 47.7469 40.9996 48.0081 40.9996C46.9635 40.4773 45.3966 40.7384 43.8297 42.3053C42.5239 43.35 41.7405 44.9169 41.4793 46.4838C40.957 48.573 41.4793 50.1399 42.5239 50.6622L43.0462 50.9233L44.8743 51.9679L49.575 44.9169L50.3585 42.5665V42.3053L48.0081 40.9996Z" fill="#0066FF"/>
<path d="M46.1822 43.3511C45.1376 42.8288 43.5706 43.09 42.0037 44.6569C40.698 45.7015 41.2203 46.7461 40.9591 48.313C40.698 49.0965 41.2203 50.1411 42.2649 50.6634L43.3095 51.1857L44.3541 51.708L47.4879 47.2684L48.2714 44.9181V44.6569L46.1822 43.3511Z" fill="white"/>
<path d="M44.8762 52.7526L42.2647 51.1857C40.9589 50.4022 40.4366 48.8353 40.9589 46.4849C41.4812 44.918 42.2647 43.09 43.5705 42.0454C45.1374 40.4785 46.9654 39.9562 48.2712 40.4785L50.6215 41.7842C50.8827 42.0454 51.1438 42.3065 50.8827 42.5677L49.8381 45.1792L44.8762 52.7526ZM46.7043 41.2619C45.9208 41.2619 44.8762 41.7842 44.0928 42.5677C43.0481 43.6123 42.2647 45.1792 41.7424 46.4849C41.2201 48.313 41.7424 49.6188 42.5258 50.1411L44.3539 51.1857L48.7935 44.6569L49.5769 42.8288L47.4877 41.5231C47.2266 41.2619 46.9654 41.2619 46.7043 41.2619Z" fill="#16110D"/>
<path d="M51.1431 44.9165C51.1431 47.5281 49.3151 50.4007 47.2259 51.7065C45.1367 53.0122 43.3086 51.9676 43.3086 49.3561C43.3086 46.7446 45.1367 43.8719 47.2259 42.5662C49.5762 41.2604 51.1431 42.305 51.1431 44.9165Z" fill="#16110D"/>
<path d="M45.6594 52.7525C45.1371 52.7525 44.8759 52.7525 44.3536 52.4914C43.309 51.9691 43.0479 50.9245 43.0479 49.3576C43.0479 46.7461 44.8759 43.3511 47.2263 42.0453C48.532 41.2619 49.5766 41.2619 50.6212 41.7842C51.6658 42.3065 51.927 43.3511 51.927 44.918C51.927 47.5295 50.0989 50.9245 47.7486 52.2302C46.9651 52.4914 46.1817 52.7525 45.6594 52.7525ZM49.0543 42.5676C48.532 42.5676 48.0097 42.8288 47.4874 43.0899C45.3982 44.1345 43.8313 47.0072 43.8313 49.3576C43.8313 50.4022 44.0925 51.1856 44.6148 51.4468C45.1371 51.7079 45.9205 51.7079 46.9651 51.1856C49.0543 50.141 50.6212 47.2684 50.6212 44.918C50.6212 43.8734 50.3601 43.0899 49.8378 42.8288C49.5766 42.8288 49.3155 42.5676 49.0543 42.5676Z" fill="#16110D"/>
<path d="M47.4876 52.2303C49.8379 50.9245 51.666 47.7907 51.666 44.918C51.666 43.6123 51.1437 42.3065 50.3602 41.7842C50.0991 41.7842 49.8379 41.7842 49.5768 41.5231L49.0545 42.5677C49.0545 42.5677 49.0545 42.5677 49.3156 42.5677C49.5768 42.5677 49.8379 42.5677 50.0991 42.8288C50.6214 43.09 50.8825 43.8734 50.8825 44.918C50.8825 47.2684 49.3156 50.1411 47.2264 51.1857C46.443 51.708 45.6595 51.708 44.8761 51.4468C44.6149 51.1857 44.3538 50.9245 44.0926 50.6634L43.5703 51.708C43.8315 51.9691 44.0926 52.2303 44.3538 52.4914C44.6149 52.7526 45.1372 52.7526 45.6595 52.7526C46.1818 52.7526 46.9653 52.4914 47.4876 52.2303Z" fill="#0066FF"/>
<path d="M117.475 79.9112C116.43 79.3889 114.863 79.6501 113.296 81.217C111.991 82.2616 111.207 83.8285 110.946 85.3954C110.424 87.4846 110.946 89.0515 111.991 89.5738L112.513 89.835L114.341 90.8796L119.042 83.8285L119.825 81.4781V81.217L117.475 79.9112Z" fill="#0066FF"/>
<path d="M115.648 82.2628C114.603 81.7405 113.036 82.0016 111.47 83.5685C110.164 84.6131 110.686 85.6577 110.425 87.2247C110.164 88.0081 110.686 89.0527 111.731 89.575L112.775 90.0973L113.82 90.6196L116.954 86.18L117.737 83.8297V83.5685L115.648 82.2628Z" fill="white"/>
<path d="M114.343 91.6642L111.731 90.0973C110.426 89.3138 109.903 87.7469 110.426 85.3966C110.948 83.8297 111.731 82.0016 113.037 80.957C114.604 79.3901 116.432 78.8678 117.738 79.3901L120.088 80.6958C120.349 80.957 120.611 81.2181 120.349 81.4793L119.566 83.8296L114.343 91.6642ZM116.432 80.1735C115.649 80.1735 114.604 80.6958 113.821 81.4793C112.776 82.5239 111.993 84.0908 111.47 85.3966C110.948 87.2246 111.47 88.5304 112.254 89.0527L114.082 90.0973L118.521 83.5685L119.305 81.7404L117.216 80.4347C116.955 80.1735 116.693 80.1735 116.432 80.1735Z" fill="#16110D"/>
<path d="M120.873 83.8282C120.873 86.4397 119.045 89.3123 116.955 90.6181C114.866 91.9239 113.038 90.8792 113.038 88.2677C113.038 85.6562 114.866 82.7836 116.955 81.4778C119.045 80.172 120.873 81.2166 120.873 83.8282Z" fill="#16110D"/>
<path d="M115.127 91.6643C114.605 91.6643 114.344 91.6643 113.821 91.4031C112.777 90.8808 112.516 89.8362 112.516 88.2693C112.516 85.6578 114.344 82.2628 116.694 80.9571C118 80.1736 119.044 80.1736 120.089 80.6959C121.134 81.2182 121.395 82.2628 121.395 83.8297C121.395 86.4412 119.567 89.8362 117.216 91.142C116.433 91.6643 115.911 91.6643 115.127 91.6643ZM118.783 81.4794C118.261 81.4794 117.739 81.7405 117.216 82.0017C115.127 83.0463 113.56 85.9189 113.56 88.2693C113.56 89.3139 113.821 90.0974 114.344 90.3585C114.866 90.6197 115.649 90.6197 116.694 90.0974C118.783 89.0528 120.35 86.1801 120.35 83.8297C120.35 82.7851 120.089 82.0017 119.567 81.7405C119.306 81.7405 119.044 81.4794 118.783 81.4794Z" fill="#16110D"/>
<path d="M117.217 91.1419C119.567 89.8362 121.396 86.7023 121.396 83.8297C121.396 82.5239 120.873 81.2181 120.09 80.6958C119.829 80.4347 119.567 80.4347 119.306 80.4347L118.784 81.4793C118.784 81.4793 118.784 81.4793 119.045 81.4793C119.306 81.4793 119.567 81.4793 119.829 81.7404C120.351 82.0016 120.612 82.7851 120.612 83.8297C120.612 86.18 119.045 89.0527 116.956 90.0973C116.172 90.6196 115.389 90.6196 114.606 90.3584C114.344 90.0973 114.083 89.8361 113.822 89.575L113.3 90.6196C113.561 90.8808 113.822 91.1419 114.083 91.4031C114.344 91.6642 114.867 91.6642 115.389 91.6642C115.911 91.6642 116.434 91.6642 117.217 91.1419Z" fill="#0066FF"/>
<path d="M7.79265 129.531H6.74805V186.201H7.79265V129.531Z" fill="#16110D"/>
<path d="M41.3088 52.698L33.5332 72.652L34.5066 73.0313L42.2822 53.0773L41.3088 52.698Z" fill="#0066FF"/>
<path d="M125.347 12.5343L116.717 78.303L117.753 78.4389L126.382 12.6703L125.347 12.5343Z" fill="#0066FF"/>
<path d="M121.916 99.2375L128.967 94.5367V91.6641H127.923V94.0144L122.699 97.4094V95.8425H121.916V99.2375Z" fill="#0066FF"/>
<path d="M121.916 106.289L128.967 101.588V98.7152H127.923V101.066L122.699 104.461V102.894H121.916V106.289Z" fill="#0066FF"/>
<path d="M121.916 113.34L128.967 108.639V105.766H127.923V108.117L122.699 111.512V109.945H121.916V113.34Z" fill="#0066FF"/>
<path d="M132.624 162.175C134.974 160.869 136.541 159.302 137.586 157.736L136.802 156.691C136.019 158.519 134.452 160.086 132.102 161.392C130.013 162.697 127.401 163.481 124.528 164.003L124.789 165.048C127.662 164.264 130.274 163.481 132.624 162.175Z" fill="#0066FF"/>
<path d="M202.349 157.213L194.253 161.914C192.948 162.697 192.164 161.914 192.164 160.608V156.43C192.164 155.124 193.209 153.296 194.253 152.774L202.349 148.073C203.655 147.29 204.438 148.073 204.438 149.379V153.557C204.438 154.602 203.394 156.43 202.349 157.213ZM194.253 153.557C193.47 154.079 192.948 154.863 192.948 155.646V159.825C192.948 160.608 193.47 160.869 194.253 160.608L202.349 155.908C203.132 155.385 203.655 154.602 203.655 153.818V149.64C203.655 148.856 203.132 148.595 202.349 148.856L194.253 153.557Z" fill="#0066FF"/>
<path d="M10.665 126.397V124.83L12.7543 123.264V124.83L10.665 126.397Z" fill="#0066FF"/>
<path d="M77.7246 270.527C78.7138 271.186 78.7138 271.846 77.7246 272.505C76.7355 273.165 75.4166 273.165 74.4274 272.505C73.4383 271.846 73.4383 271.186 74.4274 270.527C75.4166 269.868 76.7355 269.868 77.7246 270.527Z" fill="#16110D"/>
<path d="M85.9688 265.581C86.9579 266.241 86.9579 266.9 85.9688 267.56C84.9796 268.219 83.6607 268.219 82.6716 267.56C81.6824 266.9 81.6824 266.241 82.6716 265.581C83.6607 265.252 85.3093 265.252 85.9688 265.581Z" fill="#16110D"/>
<path d="M94.5401 260.635C95.5292 261.295 95.5292 261.954 94.5401 262.614C93.5509 263.273 92.232 263.273 91.2429 262.614C90.2537 261.954 90.2537 261.295 91.2429 260.635C91.9023 260.306 93.5509 260.306 94.5401 260.635Z" fill="#16110D"/>
<path d="M102.783 256.019C103.772 256.679 103.772 257.338 102.783 257.998C101.794 258.657 100.475 258.657 99.486 257.998C98.4968 257.338 98.4968 256.679 99.486 256.019C100.475 255.36 101.794 255.36 102.783 256.019Z" fill="#16110D"/>
<path d="M60.9073 270.527C61.8964 271.186 61.8964 271.846 60.9073 272.505C59.9181 273.165 58.5992 273.165 57.61 272.505C56.6209 271.846 56.6209 271.186 57.61 270.527C58.5992 269.868 60.2478 269.868 60.9073 270.527Z" fill="#16110D"/>
<path d="M69.4825 265.581C70.4716 266.241 70.4716 266.9 69.4825 267.56C68.4933 268.219 67.1744 268.219 66.1852 267.56C65.1961 266.9 65.1961 266.241 66.1852 265.581C67.1744 265.252 68.4933 265.252 69.4825 265.581Z" fill="#16110D"/>
<path d="M76.0766 262.943C77.3513 262.943 78.3847 262.353 78.3847 261.625C78.3847 260.896 77.3513 260.306 76.0766 260.306C74.8019 260.306 73.7686 260.896 73.7686 261.625C73.7686 262.353 74.8019 262.943 76.0766 262.943Z" fill="#16110D"/>
<path d="M84.3188 258.327C85.5935 258.327 86.6269 257.737 86.6269 257.008C86.6269 256.28 85.5935 255.69 84.3188 255.69C83.0441 255.69 82.0107 256.28 82.0107 257.008C82.0107 257.737 83.0441 258.327 84.3188 258.327Z" fill="#16110D"/>
<path d="M94.5401 251.073C95.5292 251.733 95.5292 252.392 94.5401 253.052C93.5509 253.711 92.232 253.711 91.2429 253.052C90.2537 252.392 90.2537 251.733 91.2429 251.073C91.9023 250.744 93.5509 250.744 94.5401 251.073Z" fill="#16110D"/>
<path d="M102.783 246.457C103.772 247.117 103.772 247.776 102.783 248.436C101.794 249.095 100.475 249.095 99.486 248.436C98.4968 247.776 98.4968 247.117 99.486 246.457C100.475 245.798 101.794 245.798 102.783 246.457Z" fill="#16110D"/>
<path d="M52.667 265.581C53.6562 266.241 53.6562 266.9 52.667 267.56C51.6779 268.219 50.359 268.219 49.3698 267.56C48.3806 266.9 48.3806 266.241 49.3698 265.581C50.359 265.252 51.6779 265.252 52.667 265.581Z" fill="#16110D"/>
<path d="M60.9073 260.635C61.8964 261.295 61.8964 261.954 60.9073 262.614C59.9181 263.273 58.5992 263.273 57.61 262.614C56.6209 261.954 56.6209 261.295 57.61 260.635C58.5992 260.306 60.2478 260.306 60.9073 260.635Z" fill="#16110D"/>
<path d="M69.4825 256.019C70.4716 256.679 70.4716 257.338 69.4825 257.998C68.4933 258.657 67.1744 258.657 66.1852 257.998C65.1961 257.338 65.1961 256.679 66.1852 256.019C67.1744 255.36 68.4933 255.36 69.4825 256.019Z" fill="#16110D"/>
<path d="M44.4229 260.635C45.412 261.295 45.412 261.954 44.4229 262.614C43.4337 263.273 42.1148 263.273 41.1257 262.614C40.1365 261.954 40.1365 261.295 41.1257 260.635C42.1148 260.306 43.4337 260.306 44.4229 260.635Z" fill="#16110D"/>
<path d="M51.0161 258.327C52.2908 258.327 53.3241 257.737 53.3241 257.008C53.3241 256.28 52.2908 255.69 51.0161 255.69C49.7414 255.69 48.708 256.28 48.708 257.008C48.708 257.737 49.7414 258.327 51.0161 258.327Z" fill="#16110D"/>
<path d="M60.9073 251.073C61.8964 251.733 61.8964 252.392 60.9073 253.052C59.9181 253.711 58.5992 253.711 57.61 253.052C56.6209 252.392 56.6209 251.733 57.61 251.073C58.5992 250.744 60.2478 250.744 60.9073 251.073Z" fill="#16110D"/>
<path d="M77.7246 241.512C78.7138 242.171 78.7138 242.83 77.7246 243.49C76.7355 244.149 75.4166 244.149 74.4274 243.49C73.4383 242.83 73.4383 242.171 74.4274 241.512C75.4166 240.852 76.7355 240.852 77.7246 241.512Z" fill="#16110D"/>
<path d="M85.9688 236.566C86.9579 237.225 86.9579 237.885 85.9688 238.544C84.9796 239.203 83.6607 239.203 82.6716 238.544C81.6824 237.885 81.6824 237.225 82.6716 236.566C83.6607 236.236 85.3093 236.236 85.9688 236.566Z" fill="#16110D"/>
<path d="M94.5401 231.95C95.5292 232.609 95.5292 233.268 94.5401 233.928C93.5509 234.587 92.232 234.587 91.2429 233.928C90.2537 233.268 90.2537 232.609 91.2429 231.95C91.9023 231.29 93.5509 231.29 94.5401 231.95Z" fill="#16110D"/>
<path d="M35.8496 256.019C36.8388 256.679 36.8388 257.338 35.8496 257.998C34.8605 258.657 33.5416 258.657 32.5524 257.998C31.5633 257.338 31.5633 256.679 32.5524 256.019C33.5416 255.36 35.1902 255.36 35.8496 256.019Z" fill="#16110D"/>
<path d="M44.4229 251.073C45.412 251.733 45.412 252.392 44.4229 253.052C43.4337 253.711 42.1148 253.711 41.1257 253.052C40.1365 252.392 40.1365 251.733 41.1257 251.073C42.1148 250.744 43.4337 250.744 44.4229 251.073Z" fill="#16110D"/>
<path d="M52.667 246.457C53.6562 247.117 53.6562 247.776 52.667 248.436C51.6779 249.095 50.359 249.095 49.3698 248.436C48.3806 247.776 48.3806 247.117 49.3698 246.457C50.359 245.798 51.6779 245.798 52.667 246.457Z" fill="#16110D"/>
<path d="M25.9584 253.381C27.2331 253.381 28.2665 252.791 28.2665 252.063C28.2665 251.334 27.2331 250.744 25.9584 250.744C24.6837 250.744 23.6504 251.334 23.6504 252.063C23.6504 252.791 24.6837 253.381 25.9584 253.381Z" fill="#16110D"/>
<path d="M34.2006 248.436C35.4753 248.436 36.5087 247.845 36.5087 247.117C36.5087 246.388 35.4753 245.798 34.2006 245.798C32.9259 245.798 31.8926 246.388 31.8926 247.117C31.8926 247.845 32.9259 248.436 34.2006 248.436Z" fill="#16110D"/>
<path d="M19.3614 246.457C20.3505 247.117 20.3505 247.776 19.3614 248.436C18.3722 249.095 17.0533 249.095 16.0641 248.436C15.075 247.776 15.075 247.117 16.0641 246.457C17.0533 245.798 18.3722 245.798 19.3614 246.457Z" fill="#16110D"/>
<path d="M27.6065 241.512C28.5956 242.171 28.5956 242.83 27.6065 243.49C26.6173 244.149 25.2984 244.149 24.3093 243.49C23.3201 242.83 23.3201 242.171 24.3093 241.512C25.2984 240.852 26.6173 240.852 27.6065 241.512Z" fill="#16110D"/>
<path d="M10.7901 241.512C11.7792 242.171 11.7792 242.83 10.7901 243.49C9.8009 244.149 8.48202 244.149 7.49285 243.49C6.50369 242.83 6.50369 242.171 7.49285 241.512C8.48202 240.852 9.8009 240.852 10.7901 241.512Z" fill="#16110D"/>
<path d="M19.0342 236.566C20.0234 237.225 20.0234 237.885 19.0342 238.544C18.045 239.203 16.7262 239.203 15.737 238.544C14.7478 237.885 14.7478 237.225 15.737 236.566C16.7262 236.236 18.3748 236.236 19.0342 236.566Z" fill="#16110D"/>
<path d="M10.791 231.95C11.7802 232.609 11.7802 233.268 10.791 233.928C9.80188 234.587 8.48299 234.587 7.49383 233.928C6.50466 233.268 6.50466 232.609 7.49383 231.95C8.48299 231.29 9.80188 231.29 10.791 231.95Z" fill="#16110D"/>
<path d="M73.7639 196.227L44.5137 179.336L14.8516 196.227V230.421L44.5137 247.311V213.53L73.7639 196.227Z" fill="white"/>
<path d="M14.8516 230.42L44.5137 247.311V213.118L14.8516 196.227V230.42Z" fill="#0066FF"/>
<path d="M74.5877 195.815L44.5136 178.512L14.4395 195.815V196.639V230.832L44.1016 247.723L44.5136 248.135L44.9256 247.723L74.1757 230.832H74.5877V196.639V195.815ZM44.5136 180.16L58.5207 187.987L30.0945 204.466L16.0873 196.639L44.5136 180.16ZM43.6896 246.487L15.2634 230.009V197.463L43.6896 213.942V246.487ZM56.4608 205.702L44.5136 212.706L30.5065 204.878L58.9327 188.399L72.9398 196.227L56.4608 205.702Z" fill="#16110D"/>
<path d="M32.5668 213.529L27.2111 210.234C26.7991 209.822 25.9752 209.822 25.5632 210.234C25.1512 210.646 24.7393 211.058 24.7393 212.294C24.7393 213.941 25.5632 215.589 26.7991 216.001L32.1548 219.297C32.5668 219.297 32.9787 219.709 32.9787 219.709C33.3907 219.709 33.3907 219.709 33.8027 219.709C34.2147 219.297 34.6266 218.885 34.6266 217.649C34.6266 215.589 33.8027 213.941 32.5668 213.529ZM33.3907 218.061H32.9787L27.6231 214.765C26.7991 214.353 26.3872 213.117 26.3872 211.882C26.3872 211.47 26.3872 211.058 26.7991 211.058H27.2111L27.6231 211.47C27.6231 212.706 28.447 213.941 29.271 214.765L33.3907 217.237C33.3907 217.649 33.3907 218.061 33.3907 218.061Z" fill="#16110D"/>
<path d="M76.6484 253.079L58.5215 242.78V221.769L76.6484 232.068V253.079Z" fill="#0066FF"/>
<path d="M94.7752 221.769L76.6484 232.068L58.5215 221.769L76.6484 211.47L94.7752 221.769Z" fill="#0066FF"/>
<path d="M94.7767 223.829L78.2978 233.304L60.1709 222.593L76.6499 213.53L94.7767 223.829Z" fill="white"/>
<path d="M76.6472 210.646L58.5204 220.945L58.1084 221.357V242.78L76.2353 253.079L76.6472 253.491L77.0592 253.079L95.1861 242.78V222.181V221.769L76.6472 210.646ZM76.6472 211.882L93.5382 221.769L84.8867 226.713L76.2353 231.656L73.3515 230.008L58.9323 221.769L76.6472 211.882ZM58.9323 242.368V222.593L75.8233 232.48V252.255L58.9323 242.368Z" fill="#16110D"/>
<path d="M72.1169 246.899L69.2331 245.251C68.8212 244.839 68.4092 244.427 68.4092 243.604V240.72C68.4092 240.308 68.8212 239.896 69.2331 240.308L72.1169 241.956C72.5289 242.368 72.9409 242.78 72.9409 243.604V246.487C72.9409 246.899 72.5289 247.311 72.1169 246.899Z" fill="#16110D"/>
</svg>
