<svg width="103" height="40" viewBox="0 0 1709 200" fill="none" xmlns="http://www.w3.org/2000/svg">
    <g clip-path="url(#clip0_4067_80)">
        <path d="M332.299 99.7457C332.299 44.761 287.538 6.10352e-05 232.553 6.10352e-05H187.843V43.4385H232.553C263.581 43.4385 288.81 68.6674 288.81 99.7457C288.81 130.824 263.581 156.002 232.553 156.002H187.843V199.441H232.553C287.538 199.441 332.299 154.68 332.299 99.6949V99.7457Z" fill="black"/>
        <path d="M144.405 43.4385V0H99.6948C44.7609 0 0 44.7609 0 99.7457C0 154.73 44.7609 199.491 99.7457 199.491H144.456V156.053H99.7457C68.7182 156.053 43.4893 130.824 43.4893 99.7457C43.4893 68.6674 68.7182 43.4893 99.7457 43.4893H144.456L144.405 43.4385Z" fill="black"/>
        <path d="M950 0.00012207V199.491H906.867V40.0815H825.229L816.022 126.501C810.682 176.043 788.047 200 746.134 200H735.046V157.833H746.338C761.953 157.833 770.499 148.423 772.787 128.535L787.589 0.00012207H950.051L950 0.00012207Z" fill="black"/>
        <path d="M1461.24 0.00012207V199.491H1418.11V116.989H1313.28V199.491H1270.14V0.00012207H1313.28V76.8567H1418.11V0.00012207H1461.24Z" fill="black"/>
        <path d="M1708.49 40.0815H1628.23V199.491H1585.1V40.0815H1504.83V0.00012207H1708.55V40.0815H1708.49Z" fill="black"/>
        <path d="M1146.54 0.00012207H1072.43L994.252 199.491H1040.03L1053.71 161.699H1165.21L1178.89 199.491H1224.67L1146.54 0.00012207ZM1067.19 124.059L1097.86 40.0815H1121.11L1151.78 124.059H1067.19Z" fill="black"/>
        <path d="M633.469 6.10352e-05H500.254C454.374 6.10352e-05 417.141 37.233 417.141 83.1638C417.141 129.095 454.374 166.328 500.305 166.328H545.32V199.491H588.454V166.328H633.469C679.4 166.328 716.633 129.095 716.633 83.1638C716.633 37.233 679.4 6.10352e-05 633.469 6.10352e-05ZM460.275 83.1638C460.275 59.41 479.552 40.1323 503.306 40.1323H546.338V126.246H503.306C479.552 126.246 460.275 106.969 460.275 83.2147V83.1638ZM630.417 126.195H587.386V40.0814H630.417C654.171 40.0814 673.449 59.3592 673.449 83.113C673.449 106.867 654.171 126.145 630.417 126.145V126.195Z" fill="black"/>
    </g>
    <defs>
        <clipPath id="clip0_4067_80">
            <rect width="1708.49" height="200" fill="white"/>
        </clipPath>
    </defs>
</svg>
