<svg width="103" height="40" viewBox="0 0 1543 200" fill="none" xmlns="http://www.w3.org/2000/svg">
    <g clip-path="url(#clip0_7494_14)">
        <path d="M333.16 100C333.16 44.8751 288.283 0 233.156 0H188.33V43.5492H233.156C264.264 43.5492 289.558 68.8424 289.558 100C289.558 131.158 264.264 156.4 233.156 156.4H188.33V199.949H233.156C288.283 199.949 333.16 155.074 333.16 99.949V100Z" fill="#262429"/>
        <path d="M144.779 43.5492V0H99.9531C44.8769 0 0 44.8751 0 100C0 155.125 44.8769 200 100.004 200H144.83V156.451H100.004C68.8962 156.451 43.602 131.158 43.602 100C43.602 68.8424 68.8962 43.6002 100.004 43.6002H144.83L144.779 43.5492Z" fill="#262429"/>
        <path d="M1543 40.1836H1462.53V200H1419.28V40.1836H1338.81V0H1543.05V40.1836H1543Z" fill="#262429"/>
        <path d="M979.591 0H905.289L826.908 200H872.805L886.523 162.111H998.307L1012.02 200H1057.92L979.591 0ZM900.037 124.375L930.788 40.1836H954.093L984.844 124.375H900.037Z" fill="#262429"/>
        <path d="M475.848 40.1836V94.1356H586.969V133.299H475.848V199.949H432.603V0H594.415V40.1836H475.848Z" fill="#262429"/>
        <path d="M1295.11 0V200H1258.9L1145.89 65.0688V200H1103.41V0H1142.47L1252.58 131.922V0H1295.06H1295.11Z" fill="#262429"/>
        <path d="M699.926 0H656.63V200H788.252L804.01 159.816H699.926V0Z" fill="#262429"/>
    </g>
    <defs>
        <clipPath id="clip0_7494_14">
            <rect width="1543" height="200" fill="white"/>
        </clipPath>
    </defs>
</svg>
