<svg width="102" height="40" viewBox="0 0 102 40" fill="none" xmlns="http://www.w3.org/2000/svg">
<path fill-rule="evenodd" clip-rule="evenodd" d="M33.3782 23.091C33.0622 24.8289 32.6672 26.0139 32.0353 27.4359C31.1663 29.0158 30.5343 30.8328 28.8753 29.5688C27.7694 28.6208 26.7424 27.7519 25.9524 26.6459C25.0835 25.4609 24.2145 23.96 23.5825 22.854C22.6345 21.1161 22.8715 20.9581 21.0546 20.4841L19.4746 20.0101C19.6326 19.2991 19.7116 18.5091 19.7116 17.6401C19.7116 17.5612 19.7116 17.3242 19.7116 17.1662L23.0295 16.5342C23.0295 16.5342 30.1393 20.8001 32.4302 20.5631C34.2472 20.4841 33.6942 21.511 33.3782 23.091Z" fill="#3A545B"/>
<path fill-rule="evenodd" clip-rule="evenodd" d="M32.667 4.92227C33.694 7.05521 35.7479 18.1939 32.114 18.8259C31.3241 18.9839 30.0601 18.9839 28.6381 18.6679C27.6902 18.4309 26.7422 17.7989 25.7152 17.1669C23.9773 16.061 23.4243 15.666 21.4493 15.824L19.6324 15.982C19.5534 15.508 19.4744 15.034 19.3164 14.639C25.3202 11.2421 25.4782 9.89913 29.5071 4.92227C30.6131 3.34232 31.956 3.34232 32.667 4.92227Z" fill="#A1DAF8"/>
<path fill-rule="evenodd" clip-rule="evenodd" d="M23.3452 0.34049C25.4781 0.656481 26.9001 1.05147 28.164 1.52546C29.981 2.39443 29.744 2.47343 28.638 3.89539C27.611 5.23835 26.7421 6.42332 26.0311 7.84528C25.0831 9.58323 25.1621 10.2942 23.4242 11.1632L18.8423 13.4541C18.5263 12.8221 18.1313 12.3482 17.7363 12.1112C19.7113 12.0322 21.2912 11.1632 21.2912 8.95125C21.2912 7.45029 20.5013 5.63334 19.3953 4.36938C19.6323 2.86842 20.3433 1.60445 21.0542 0.814476C21.7652 0.0244985 22.3972 0.261492 23.3452 0.34049Z" fill="#247B86"/>
<path fill-rule="evenodd" clip-rule="evenodd" d="M14.9724 0.0240469C15.6834 0.0240469 16.4734 0.0240469 17.1053 0.0240469C17.5793 0.0240469 18.1323 0.0240469 18.6063 0.0240469C20.4232 0.0240469 20.5022 -0.291944 19.7913 1.36701C19.4753 2.15699 19.0803 3.02596 18.7643 3.81594C18.2903 3.34195 17.6583 3.02596 17.1053 2.86797C16.4734 3.10496 15.8414 3.49995 15.2884 3.97394C14.9724 3.10496 14.5774 2.23598 14.1824 1.44601C13.6294 0.0240469 13.3924 0.103045 14.9724 0.0240469Z" fill="#008BD2"/>
<path fill-rule="evenodd" clip-rule="evenodd" d="M5.09789 1.28744C6.67784 0.576456 8.2578 0.813449 10.8647 0.260465C12.9187 -0.213522 14.4196 2.6304 14.8146 4.52634C13.7086 5.79031 12.9977 7.44926 12.9977 8.95022C12.9977 11.0832 14.3406 11.8731 16.2366 12.1101C15.7626 12.4261 15.4466 12.8211 15.1306 13.4531L10.3117 11.0832C9.20577 10.5302 9.20577 10.3722 8.73178 9.34521C7.70481 7.21227 6.67784 5.47432 5.25588 3.65737C4.5449 2.7094 3.99192 1.91942 5.09789 1.28744Z" fill="#49388A"/>
<path fill-rule="evenodd" clip-rule="evenodd" d="M1.77966 4.52701C2.33265 3.42104 3.35962 3.65803 4.30759 4.843C6.51953 7.60792 7.94149 11.1628 11.2594 12.5848C12.3654 13.0588 13.6293 13.9277 14.7353 14.4807C14.5773 14.9547 14.4983 15.4287 14.4193 15.9027L9.28445 15.8237C7.23051 16.7717 6.99352 17.9566 5.41356 18.3516C3.9126 18.6676 2.56964 18.8256 1.85866 18.6676C-1.30125 17.5616 0.357704 6.73895 1.77966 4.52701Z" fill="#A1DAF8"/>
<path fill-rule="evenodd" clip-rule="evenodd" d="M2.72697 27.8311C1.85799 26.0931 1.22601 24.1182 0.910018 21.9062C0.752022 20.8003 0.594027 20.0103 1.85799 20.1683C4.14893 20.3263 9.52078 16.6924 9.52078 16.6924L14.2606 17.1664C14.2606 17.3244 14.2606 17.4824 14.2606 17.6404C14.2606 18.5093 14.3396 19.2993 14.4976 20.0103L12.9967 20.4053C10.4687 21.0373 9.59977 24.9871 8.17781 27.1201C7.46683 28.2261 6.43986 29.174 5.2549 29.411C3.35895 29.885 3.43795 29.411 2.72697 27.8311Z" fill="#336759"/>
<path fill-rule="evenodd" clip-rule="evenodd" d="M17.4215 35.9679C20.0284 34.6249 22.3193 30.596 22.3193 27.2781C22.3193 24.2762 20.5814 23.0913 18.2114 22.7753C18.6064 22.3803 18.9224 21.8273 19.1594 21.1953L22.3983 22.0643C22.3983 22.0643 24.7683 27.9891 28.0072 31.07C29.6661 32.571 27.6912 33.361 26.6642 34.6249C24.6893 37.0739 21.8453 38.4168 19.6334 39.2068C17.5005 39.9178 17.3425 40.7868 17.4215 38.6538C17.4215 37.6269 17.4215 36.6789 17.4215 35.9679Z" fill="#743981"/>
<path fill-rule="evenodd" clip-rule="evenodd" d="M15.9205 39.8389C13.9456 39.1279 9.91669 37.153 6.51979 33.4401C4.54484 31.3071 5.57181 31.7811 7.15177 29.8852C8.81072 27.9102 10.1537 25.3033 10.9437 23.7233C11.6546 22.1434 11.4176 22.1434 12.9976 21.7484L14.8146 21.2744C15.1305 21.9854 15.4465 22.5384 15.8415 22.9334C13.6296 23.2494 12.0496 24.4343 12.0496 27.3572C12.0496 30.5962 14.1826 34.467 16.6315 35.889C16.6315 37.074 16.3945 38.5749 15.9205 39.8389Z" fill="#1B597B"/>
<path fill-rule="evenodd" clip-rule="evenodd" d="M49.0212 16.9294C48.8632 16.9294 48.6262 16.9294 48.4682 16.9294C48.4682 16.1394 48.7052 15.9814 47.8363 15.9814C47.6783 15.9814 47.4413 15.9814 47.2833 15.9814C46.3353 15.9814 46.4933 15.9814 46.4933 16.9294C46.3353 16.9294 46.1773 16.9294 46.0193 16.9294C41.8324 16.9294 41.5954 26.2512 45.9403 26.2512C46.0983 26.2512 46.2563 26.2512 46.4143 26.2512C46.4143 26.9621 46.1773 27.1991 46.8883 27.1991C47.2043 27.1991 47.3623 27.1991 47.5993 27.1991C48.5472 27.1991 48.3102 27.1201 48.3102 26.2512C48.4682 26.2512 48.7052 26.2512 48.8632 26.2512C53.3661 26.2512 53.2081 16.9294 49.0212 16.9294ZM48.8632 24.4342C48.7052 24.4342 48.5472 24.4342 48.3892 24.4342C48.3892 22.6963 48.4682 20.6423 48.4682 18.8254C48.6262 18.8254 48.7842 18.8254 48.9422 18.8254C50.5222 18.7464 50.7592 24.3552 48.8632 24.4342ZM46.4933 24.4342C46.3353 24.4342 46.1773 24.4342 46.0193 24.4342C44.3604 24.4342 44.5973 18.8254 46.0193 18.8254C46.7303 18.8254 46.4933 18.9834 46.4933 19.6153C46.4933 21.1163 46.4933 22.9332 46.4933 24.4342ZM64.6628 26.0142C64.5838 23.2492 64.5838 20.3263 64.6628 17.2454C64.7418 16.1394 64.6628 16.3764 63.5568 16.3764C62.4508 16.3764 61.3449 16.3764 60.2389 16.3764C59.7649 16.6924 59.3699 16.8504 59.2119 17.7194C59.2909 19.8523 59.5279 22.4593 58.9749 24.5132C58.8959 24.8292 58.7379 25.1452 58.422 25.0662C57.632 24.9872 56.921 27.1991 58.264 27.1991C60.3969 27.1991 61.1079 25.6192 61.1869 23.1702C61.1869 21.5113 61.2659 19.8523 61.2659 18.1934C62.5298 18.1934 62.7668 17.8774 62.7668 19.1414C62.7668 21.5113 62.6878 23.9602 62.6878 26.3302C62.6878 27.1991 62.6088 27.1991 63.3988 27.1991C64.8208 27.2781 64.7418 27.3571 64.6628 26.0142ZM77.2234 24.9872C76.7494 22.6173 76.1175 20.3263 75.5645 17.9564C75.2485 16.6134 75.4855 16.3764 74.0635 16.3764C73.1155 16.3764 73.3525 16.8504 73.1155 17.7194C72.8785 18.5884 72.0886 21.9063 71.6146 24.1972C71.2196 26.0932 70.9826 27.1201 71.6936 27.1991C73.0365 27.2781 73.0365 27.5151 73.1155 26.2512C73.1155 25.9352 73.1945 25.6982 73.2735 25.3822C73.9845 25.3822 74.6955 25.3822 75.4065 25.3822C75.4855 25.6982 75.4855 25.9352 75.5645 26.2512C75.8015 27.2781 75.7225 27.1991 76.7494 27.1991C78.4084 27.2781 77.5394 26.4092 77.2234 24.9872ZM75.0905 23.8022C74.6165 23.8022 74.0635 23.8022 73.5895 23.8022L74.0635 21.1163C74.1425 20.7213 74.2215 20.3263 74.3005 19.9313C74.3795 20.3263 74.3795 20.7213 74.4585 21.1163C74.6955 21.9853 74.9325 22.9332 75.0905 23.8022ZM89.7841 24.5132C89.7051 22.4593 89.7051 20.3263 89.7841 18.1144C89.8631 16.7714 90.2581 16.3764 88.8361 16.3764C87.1771 16.3764 87.8091 17.4034 87.8091 18.9044C87.8091 19.5363 87.8091 20.2473 87.8091 20.8003C87.1771 20.8003 86.6242 20.8003 85.9922 20.8003C85.9922 19.4573 85.9922 18.0354 85.9922 16.6134C85.9922 16.1394 85.4392 16.2974 85.0442 16.2974C83.6222 16.2974 83.9382 16.6134 84.0172 18.0354C84.1752 20.4843 84.0962 23.0122 84.0962 25.4612C84.0172 26.9621 83.6222 27.1991 85.2022 27.1991C86.5452 27.1991 86.0712 26.4881 86.0712 25.2242C86.0712 24.3552 86.0712 23.4862 86.0712 22.6963C86.7032 22.6963 87.2561 22.6963 87.8881 22.6963C87.8881 23.7232 87.8881 24.7502 87.8881 25.8562C87.8881 27.1201 87.5721 27.2781 88.9151 27.2781C90.495 27.2781 89.9421 26.0142 89.7841 24.5132ZM101.95 17.3244C101.95 16.2184 101.95 16.3764 100.844 16.3764C99.6588 16.3764 98.4738 16.3764 97.2889 16.3764C96.1829 16.3764 96.3409 16.2184 96.1829 17.3244C95.9459 18.8254 96.4989 18.3514 98.0788 18.2724C98.2368 19.9313 98.2368 21.6693 98.0788 23.6442C97.9998 25.5402 97.6049 27.5941 99.1848 27.4361C100.844 27.2781 100.133 26.3302 100.133 24.6712C100.133 22.5383 100.133 20.4053 100.133 18.2724C101.318 18.1934 101.95 18.7464 101.95 17.3244Z" fill="black"/>
</svg>
