<svg width="103" height="40" viewBox="0 0 103 40" fill="none" xmlns="http://www.w3.org/2000/svg">
<path fill-rule="evenodd" clip-rule="evenodd" d="M45.2528 17.1416C45.2528 17.0983 49.7608 17.0551 49.775 16.9975C50.1174 16.1189 49.9605 15.1826 49.0332 15.1826C48.8335 15.1826 44.0831 15.1826 43.8833 15.1826C42.7849 15.1826 42.9846 15.269 42.9703 16.2341C42.9703 17.1992 42.9275 26.4321 42.899 26.9506C42.8705 27.4692 42.6422 28.0021 43.4839 28.0021C43.812 28.0021 44.0688 28.0021 44.3256 28.0021C45.424 28.0021 45.1672 28.0021 45.1672 26.9506C45.2671 26.9506 45.3527 22.6438 45.3527 22.6438C45.3527 22.6438 47.9633 22.7015 48.0489 22.5286C48.1345 22.3558 48.7622 20.6129 47.1502 20.5409C45.5382 20.4833 45.3527 20.3968 45.3527 20.3968C45.3527 20.3968 45.3242 17.1416 45.2528 17.1416ZM57.4072 25.7119C57.4072 25.7119 57.2788 20.08 57.4072 16.551C57.4785 15.3123 57.4072 15.5715 56.1803 15.5715C54.9535 15.5715 55.2673 17.2712 55.2673 18.7692C55.2673 21.5203 55.1389 24.3291 55.1389 27.0659C55.1389 28.0453 55.0105 27.9877 55.9806 27.9877C56.5512 27.9877 61.2874 28.1461 61.6298 27.9733C61.9579 27.8005 62.0863 26.3024 61.9151 25.8559C61.7439 25.4094 57.4072 25.7119 57.4072 25.7119ZM74.4118 25.5102C73.8269 22.8311 73.1849 20.08 72.5287 17.4008C72.1436 15.8308 72.4574 15.5715 70.8454 15.5715C69.7469 15.5715 70.0037 16.0324 69.7469 17.1416C69.4901 18.0634 68.5771 21.9092 67.9923 24.5884C67.5358 26.749 67.279 27.9877 68.0636 27.9877C69.5472 28.1173 69.6185 28.3766 69.6899 27.0082C69.6899 26.6769 69.8183 26.3601 69.8896 26.0288C70.7313 26.0288 71.5016 26.0288 72.3433 26.0288C72.4146 26.3601 72.4717 26.6769 72.543 27.0082C72.7998 28.1894 72.7427 27.9877 73.8982 27.9877C75.767 28.0021 74.797 27.0803 74.4118 25.5102ZM71.9438 24.1419C71.3589 24.1419 70.7741 24.1419 70.2605 24.1419L70.8454 21.0018C70.9024 20.5409 71.0451 20.08 71.1022 19.6334C71.1735 20.0944 71.2306 20.5553 71.3019 21.0018C71.5587 22.0533 71.7584 23.0904 71.9438 24.1419ZM88.7202 24.9341C88.6489 22.5862 88.6489 20.0944 88.7202 17.6169C88.7915 16.0469 89.2338 15.5859 87.6218 15.5859C85.7387 15.5859 86.452 16.767 86.452 18.4667C86.452 19.1869 86.452 22.8743 86.452 22.8743C86.452 22.8743 84.0126 17.4872 84.0126 15.9172C84.0126 15.3267 83.3706 15.5859 82.9141 15.5859C81.3021 15.5859 81.6159 15.9748 81.7443 17.5449C81.944 20.3536 81.8727 23.2344 81.8156 26.0432C81.7443 27.7428 81.3021 28.0021 83.0425 28.0021C84.5974 28.0021 84.0126 27.2243 84.0126 25.7839C84.0126 24.8044 84.0126 22.4854 84.0126 22.4854C84.0126 22.4854 85.9527 26.8498 86.2665 27.3539C86.5804 27.8581 86.1239 28.0021 87.6075 28.0021C89.4906 28.0021 88.8486 26.6193 88.7202 24.9341ZM102.501 16.623C102.501 15.3123 102.501 15.5715 101.203 15.5715C99.8474 15.5715 98.5492 15.5715 97.194 15.5715C95.9672 15.5715 96.1526 15.3699 95.9672 16.623C95.7104 18.3227 96.3523 17.8041 98.107 17.6745C98.3067 19.5758 98.3067 21.5924 98.107 23.825C97.9786 26.0432 97.5934 28.4054 99.3338 28.2038C101.217 27.9445 100.375 26.965 100.375 25.0061C100.375 22.5286 100.375 20.1088 100.375 17.6889C101.859 17.6745 102.501 18.193 102.501 16.623Z" fill="black"/>
<path fill-rule="evenodd" clip-rule="evenodd" d="M33.5985 23.1199C33.2562 24.8916 32.9281 26.0872 32.2433 27.5131C31.4016 29.112 30.7169 30.9269 29.1334 29.6161C28.0635 28.7087 27.0506 27.7868 26.2517 26.6489C25.4101 25.4534 24.5541 23.9698 23.9407 22.8319C22.9849 21.1178 23.2702 20.8873 21.4585 20.4408L19.875 19.9799C20.0462 19.2885 20.1032 18.4963 20.1032 17.6465C20.1032 17.5312 20.1032 17.3584 20.1032 17.1855L23.4414 16.5518C23.4414 16.5518 30.5029 20.8297 32.7569 20.5993C34.4973 20.4984 33.8839 21.5211 33.5985 23.1199Z" fill="#39585E"/>
<path fill-rule="evenodd" clip-rule="evenodd" d="M32.9141 4.92774C33.927 7.03072 35.967 18.2658 32.3435 18.8419C31.5589 19.0148 30.3178 19.0148 28.9055 18.6691C28.0067 18.4386 27.0367 17.8193 26.0238 17.1279C24.3262 16.0476 23.7698 15.6443 21.7869 15.7595L19.9752 15.9323C19.9181 15.4138 19.804 15.0249 19.6328 14.564C25.6244 11.1502 25.7385 9.82508 29.7471 4.81251C30.8884 3.34331 32.1866 3.34331 32.9141 4.92774Z" fill="#8ED8F8"/>
<path fill-rule="evenodd" clip-rule="evenodd" d="M23.6542 0.318262C25.737 0.663956 27.2063 1.05286 28.4475 1.51379C30.2592 2.36362 30.0309 2.42123 28.961 3.84722C27.9482 5.15798 27.0922 6.41112 26.3647 7.83711C25.4659 9.55117 25.523 10.2858 23.7683 11.2076L19.1891 13.4834C18.9038 12.8497 18.5043 12.4032 18.1191 12.1727C20.1021 12.0575 21.6142 11.2076 21.6142 8.97502C21.6142 7.4338 20.8296 5.6045 19.6884 4.35136C19.9166 2.81014 20.6442 1.557 21.386 0.822399C22.1278 0.087799 22.6984 0.20303 23.6542 0.318262Z" fill="#2B7E87"/>
<path fill-rule="evenodd" clip-rule="evenodd" d="M15.352 0.0299778C16.0795 0.0299778 16.8213 0.0299778 17.4918 0.0299778C18.0054 0.0299778 18.5047 0.0299778 18.9612 0.0299778C20.7729 0.0299778 20.8871 -0.315716 20.1452 1.34073C19.8029 2.13295 19.4605 2.99719 19.1324 3.7894C18.6188 3.32848 18.0625 2.99719 17.4918 2.82434C16.8641 3.0548 16.2507 3.45811 15.6801 3.96225C15.3377 3.11242 15.0096 2.24818 14.6102 1.45597C13.9968 -0.0276379 13.7114 0.0875934 15.352 0.0299778Z" fill="#0095DA"/>
<path fill-rule="evenodd" clip-rule="evenodd" d="M5.53746 1.28315C7.12095 0.606167 8.70443 0.76461 11.3008 0.260473C13.3265 -0.200453 14.8529 2.59391 15.1953 4.53844C14.1254 5.79158 13.3836 7.50565 13.3836 8.98925C13.3836 11.0922 14.7388 11.9565 16.6076 12.1293C16.1511 12.4174 15.823 12.8639 15.4806 13.4401L10.6731 11.0346C9.60317 10.4584 9.60317 10.3576 9.0896 9.26292C8.13381 7.21757 7.04962 5.44588 5.63732 3.61659C4.96684 2.70914 4.45327 1.91692 5.53746 1.28315Z" fill="#484395"/>
<path fill-rule="evenodd" clip-rule="evenodd" d="M2.19894 4.53794C2.76956 3.45765 3.78242 3.68811 4.68116 4.82602C6.87806 7.56276 8.29036 11.1493 11.5715 12.5753C12.6984 13.0362 13.8825 13.8861 15.0095 14.5198C14.8383 14.9808 14.7812 15.4273 14.6671 15.9458L9.64559 15.8306C7.60561 16.7381 7.39162 17.9912 5.80814 18.3945C4.28172 18.7402 2.98355 18.913 2.256 18.6826C-0.853903 17.5879 0.843705 6.75614 2.19894 4.53794Z" fill="#8ED8F8"/>
<path fill-rule="evenodd" clip-rule="evenodd" d="M3.15566 27.8581C2.31399 26.0864 1.6863 24.1419 1.35819 21.9237C1.187 20.8434 1.07288 20.0368 2.25692 20.152C4.51089 20.3249 9.87477 16.6807 9.87477 16.6807L14.5682 17.1992C14.5682 17.3721 14.5682 17.4873 14.5682 17.6601C14.5682 18.51 14.6252 19.3166 14.7964 20.0512L13.3271 20.4545C10.7878 21.0883 9.93183 25.0782 8.5338 27.1811C7.80625 28.2614 6.83619 29.2265 5.65214 29.4569C3.78335 29.9035 3.89747 29.4569 3.15566 27.8581Z" fill="#356B5F"/>
<path fill-rule="evenodd" clip-rule="evenodd" d="M17.7773 36.0108C20.3737 34.7001 22.6277 30.6526 22.6277 27.2821C22.6277 24.2572 20.873 23.0617 18.562 22.7736C18.9614 22.3703 19.2895 21.8662 19.5178 21.1748L22.756 22.039C22.756 22.039 25.0671 27.9735 28.2911 31.0991C29.9317 32.6403 27.9487 33.3749 26.9929 34.6281C25.01 37.0767 22.1997 38.4451 19.9885 39.1941C17.9057 39.9287 17.7345 40.7929 17.7916 38.6179C17.7773 37.7105 17.7773 36.7454 17.7773 36.0108Z" fill="#74428A"/>
<path fill-rule="evenodd" clip-rule="evenodd" d="M16.2647 39.8857C14.2818 39.1511 10.2732 37.2066 6.94929 33.4472C4.96637 31.3442 6.05055 31.7907 7.57697 29.9182C9.21752 27.9161 10.5728 25.3522 11.3003 23.7101C12.0278 22.1113 11.7568 22.1113 13.326 21.708L15.1377 21.1895C15.4231 21.8808 15.7654 22.4426 16.1506 22.8459C13.9537 23.1916 12.3702 24.3871 12.3702 27.2967C12.3702 30.552 14.453 34.4267 16.9495 35.8526C16.9923 37.149 16.764 38.6326 16.2647 39.8857Z" fill="#1B607E"/>
</svg>
