<svg width="499" height="376" viewBox="0 0 499 376" fill="none" xmlns="http://www.w3.org/2000/svg">
<rect x="1" y="151" width="178.189" height="73.4717" rx="11" stroke="black" stroke-width="2"/>
<path fill-rule="evenodd" clip-rule="evenodd" d="M69.2529 186.796L70.9112 191.691L73.8048 186.796H69.2529ZM68.9509 176.211V185.264H73.8609L68.9509 176.211ZM67.3988 181.322V174.011H64.9219L67.3988 181.322ZM61.9972 165.379L64.4022 172.477H66.9259L62.8298 164.926L62.2102 165.263L61.9972 165.378V165.379ZM58.6159 204.804H62.2976L60.9086 202.275L60.4482 202.769C59.9019 203.426 59.2932 204.106 58.6159 204.804ZM56.8132 202.498L56.8757 187.751C56.4793 187.979 55.9096 188.332 55.2393 188.794C55.3025 190.614 55.5982 196.815 56.8132 202.498ZM52.6126 190.818C52.6688 191.984 53.0199 196.172 55.2034 200.73C54.416 196.266 54.1296 191.844 54.0297 189.671C53.546 190.039 53.0735 190.422 52.6126 190.818ZM51.2688 204.804H55.1004L54.8077 204.465C54.0884 203.706 53.4041 202.916 52.7569 202.097L51.2688 204.803V204.804ZM50.0436 193.35C50.1818 194.173 51.2594 197.274 53.9376 200.966C52.174 197.188 51.6145 193.729 51.4389 191.885C50.9523 192.353 50.4865 192.842 50.0429 193.35H50.0436ZM51.9797 185.746V189.254C52.6024 188.722 53.2528 188.224 53.9283 187.76C55.6458 186.503 56.345 186.245 56.7859 186.217H56.7836V185.746H51.9797ZM39.7616 186.796L42.855 192.028L44.9838 186.796H39.7616ZM45.3568 178.489L40.0004 185.263H45.356V178.489H45.3568ZM46.9097 176.525V182.065L50.6765 172.806L50.1732 172.397L46.9089 176.525H46.9097ZM71.9358 193H75.0549L75.8313 193.767V205.569L75.0549 206.337H38.5115L37.7358 205.571V193.768L38.5115 193.001H41.6314L37.739 186.418L37.7967 185.559L49.4396 170.835L50.497 170.719L50.5165 170.693L55.7473 174.569L54.8155 175.796L51.9875 173.699L43.846 193.706L49.9391 204.009L51.7425 200.73C48.6874 196.346 48.465 193.327 48.4541 193.157L48.6359 192.617C49.2051 191.948 49.8026 191.304 50.4268 190.684V184.98L51.204 184.213H62.3631L63.1396 184.98V190.506C63.7748 191.125 64.4366 191.825 65.1124 192.618L65.2934 193.157C65.284 193.329 65.0554 196.413 61.9043 200.875L63.6289 204.009L69.8702 193.453L60.6159 166.131L58.0774 167.515L57.3283 166.172L62.7666 163.208L63.8263 163.517L75.8415 185.668L75.8274 186.418L71.9342 193.001L71.9358 193ZM107.364 192.997L102.861 206.338H99.7087L96.3118 196.253L93.0788 206.338H89.9262L85.4235 192.998H88.5504L91.5953 203.67L94.9649 192.998H97.8218L101.164 203.67L104.237 192.998H107.363L107.364 192.997ZM120.906 199.267C120.906 199.783 120.87 200.272 120.799 200.734H110.933C111.096 201.908 111.518 202.802 112.201 203.415C112.884 204.029 113.764 204.336 114.842 204.336C115.722 204.336 116.454 204.18 117.038 203.869C117.623 203.557 118.021 203.109 118.238 202.522L120.636 203.509C119.63 205.572 117.699 206.604 114.842 206.604C112.721 206.604 111.064 205.99 109.869 204.763C108.674 203.536 108.077 201.837 108.077 199.667C108.077 197.48 108.652 195.777 109.801 194.558C110.951 193.34 112.568 192.73 114.653 192.73C116.63 192.73 118.165 193.326 119.262 194.518C120.359 195.71 120.906 197.292 120.906 199.267ZM114.653 194.998C113.611 194.998 112.771 195.3 112.133 195.906C111.495 196.51 111.095 197.39 110.933 198.547H118.211C118.067 197.426 117.686 196.555 117.065 195.933C116.446 195.31 115.641 194.998 114.653 194.998ZM129.974 192.73C130.603 192.73 131.098 192.819 131.457 192.997L130.998 195.611C130.585 195.381 130.019 195.265 129.3 195.265C128.725 195.265 128.182 195.415 127.67 195.718C127.158 196.021 126.736 196.474 126.402 197.079C126.071 197.684 125.904 198.412 125.904 199.267V206.336H123.02V192.998H125.473L125.715 195.399C126.47 193.62 127.89 192.732 129.974 192.732V192.73ZM138.006 192.997H142.373V195.238H138.088V206.338H135.203V195.239H132.669V192.998H135.203V191.078C135.203 189.726 135.615 188.676 136.443 187.929C137.269 187.182 138.429 186.809 139.92 186.809C140.458 186.809 140.952 186.866 141.402 186.982C141.851 187.098 142.202 187.253 142.453 187.449L141.914 189.53C141.5 189.263 140.988 189.129 140.378 189.129C138.796 189.129 138.006 189.85 138.006 191.29V192.998L138.006 192.997Z" fill="#0066FF"/>
<rect x="319" y="62" width="178.189" height="73.4717" rx="11" stroke="black" stroke-width="2"/>
<path d="M421.176 85.0795C421.948 84.5339 422.796 83.6548 423.553 82.5636C425.142 80.2902 425.732 77.9714 424.87 77.3652C424.007 76.7589 422.024 78.1078 420.435 80.3812C419.723 81.3966 419.209 82.4272 418.936 83.3062C418.573 83.0637 418.21 82.8364 417.846 82.6242C415.546 81.2905 412.987 80.4569 410.339 80.1841C410.611 79.3203 410.762 78.2139 410.762 77.0166C410.762 74.2431 409.915 72 408.855 72C407.796 72 406.948 74.2431 406.948 77.0166C406.948 78.1836 407.099 79.2596 407.357 80.1084C404.223 80.2751 401.242 81.2147 398.623 82.7909C398.335 82.0331 397.881 81.1996 397.306 80.3812C395.717 78.1078 393.734 76.7589 392.871 77.3652C392.008 77.9714 392.599 80.2902 394.188 82.5636C394.778 83.4123 395.429 84.1247 396.05 84.6551C394.718 85.8069 393.552 87.1407 392.553 88.6562H396.322C399.334 85.1552 403.694 83.1092 408.371 83.1092C413.078 83.1092 417.422 85.1401 420.435 88.6562H424.219C423.356 87.3377 422.327 86.1404 421.176 85.0795Z" fill="#0F1689"/>
<path d="M422.811 114.436C422.221 113.603 421.585 112.875 420.964 112.345C422.312 111.178 423.507 109.814 424.506 108.268H420.752C417.74 111.83 413.351 113.906 408.628 113.906C403.875 113.906 399.501 111.845 396.489 108.268H392.735C393.613 109.617 394.657 110.845 395.838 111.936C395.066 112.481 394.218 113.36 393.461 114.436C391.872 116.71 391.282 119.029 392.145 119.635C393.007 120.241 394.99 118.892 396.58 116.619C397.291 115.603 397.79 114.573 398.063 113.694C398.426 113.936 398.789 114.164 399.168 114.391C401.469 115.725 404.027 116.558 406.66 116.831C406.388 117.695 406.237 118.786 406.237 119.984C406.237 122.757 407.099 125 408.144 125C409.188 125 410.051 122.772 410.051 119.999C410.051 118.832 409.9 117.756 409.642 116.907C412.776 116.74 415.773 115.801 418.376 114.224C418.664 114.982 419.118 115.801 419.693 116.619C421.282 118.892 423.265 120.241 424.128 119.635C424.991 119.029 424.4 116.71 422.811 114.436Z" fill="#0F1689"/>
<path fill-rule="evenodd" clip-rule="evenodd" d="M385.227 92.4453H388.224V96.5071H391.842V92.4453H394.839V103.858H391.842V99.5079H388.224V103.858H385.227V92.4453ZM398.275 103.843V92.4302H405.359V94.9157H401.272V96.7647H404.89V99.2958H401.272V101.387H405.359V103.843H398.275ZM408.628 103.843V92.4302H411.625V100.826H415.727V103.843H408.628ZM420.374 92.4453L425.021 96.6738L429.653 92.4453H431V103.858H427.988V98.0075L425.006 100.736L422.009 98.0227V103.858H418.997V92.4453H420.374Z" fill="#0F1689"/>
<rect x="319" y="233" width="178.189" height="73.4717" rx="11" stroke="black" stroke-width="2"/>
<path d="M404.798 261.314C404.142 261.295 403.592 261.807 403.573 262.456C403.573 262.481 403.573 262.506 403.573 262.538V268.418C400.73 266.14 396.581 266.589 394.301 269.429C393.357 270.603 392.845 272.057 392.845 273.562C392.782 277.201 395.688 280.204 399.325 280.267C402.967 280.329 405.973 277.426 406.035 273.793C406.035 273.718 406.035 273.643 406.035 273.568V262.544C406.048 262.213 405.917 261.895 405.673 261.664C405.435 261.439 405.123 261.314 404.798 261.314ZM403.248 275.148C402.83 276.14 402.043 276.927 401.055 277.357C400.018 277.794 398.85 277.794 397.819 277.357C396.831 276.933 396.05 276.146 395.632 275.154C395.201 274.13 395.201 272.975 395.632 271.951C396.05 270.965 396.831 270.178 397.819 269.76C398.856 269.323 400.024 269.323 401.055 269.76C402.043 270.185 402.83 270.978 403.248 271.97C403.68 272.988 403.68 274.143 403.248 275.16" fill="#2496ED"/>
<path d="M418.563 268.898C415.989 266.326 411.809 266.326 409.234 268.905C407.997 270.141 407.304 271.814 407.304 273.562C407.241 277.201 410.147 280.204 413.783 280.266C417.426 280.329 420.431 277.426 420.494 273.793C420.494 273.718 420.494 273.643 420.494 273.568C420.494 272.7 420.332 271.845 420.007 271.04C419.675 270.228 419.188 269.504 418.563 268.898ZM417.713 275.141C417.501 275.628 417.201 276.077 416.826 276.452C416.451 276.833 416.001 277.132 415.514 277.345C414.477 277.782 413.308 277.782 412.277 277.345C411.29 276.92 410.509 276.134 410.09 275.141C409.659 274.117 409.659 272.962 410.09 271.939C410.509 270.952 411.29 270.172 412.277 269.754C413.315 269.317 414.483 269.317 415.514 269.754C416.001 269.966 416.451 270.272 416.826 270.646C417.201 271.027 417.501 271.47 417.713 271.957C418.145 272.975 418.145 274.123 417.713 275.147" fill="#2496ED"/>
<path d="M445.831 268.193C445.831 268.031 445.8 267.869 445.731 267.725C445.663 267.581 445.575 267.45 445.463 267.338C445.356 267.226 445.225 267.132 445.075 267.076C444.925 267.013 444.757 266.982 444.594 266.982C444.363 266.982 444.132 267.045 443.932 267.176L436.89 271.751V262.556C436.896 262.225 436.765 261.913 436.528 261.682C436.303 261.445 435.984 261.314 435.659 261.32C434.978 261.314 434.428 261.863 434.422 262.537C434.422 262.544 434.422 262.55 434.422 262.55V278.905C434.416 279.23 434.547 279.548 434.784 279.773C435.015 280.01 435.328 280.141 435.659 280.135C435.984 280.141 436.303 280.01 436.528 279.773C436.759 279.542 436.89 279.23 436.89 278.905V274.667L438.327 273.724L443.769 279.829C443.988 280.042 444.288 280.154 444.594 280.148C444.763 280.148 444.925 280.117 445.075 280.054C445.219 279.992 445.35 279.904 445.463 279.792C445.575 279.68 445.663 279.542 445.731 279.399C445.794 279.249 445.831 279.093 445.831 278.93C445.831 278.612 445.713 278.306 445.494 278.069L440.433 272.376L445.363 269.173C445.681 268.949 445.863 268.58 445.831 268.193Z" fill="#2496ED"/>
<path d="M425.405 270.634C425.786 270.259 426.236 269.96 426.724 269.747C427.236 269.529 427.78 269.423 428.336 269.423C428.829 269.416 429.31 269.504 429.773 269.679C430.235 269.866 430.66 270.122 431.035 270.446C431.26 270.628 431.547 270.721 431.835 270.721C432.166 270.734 432.491 270.609 432.722 270.378C432.953 270.141 433.078 269.822 433.072 269.491C433.078 269.136 432.922 268.792 432.647 268.561C431.466 267.506 429.929 266.932 428.348 266.963C424.705 266.963 421.75 269.916 421.75 273.555C421.744 277.189 424.68 280.141 428.317 280.154C429.904 280.16 431.441 279.586 432.641 278.549C432.891 278.312 433.028 277.988 433.028 277.644C433.047 276.989 432.535 276.439 431.885 276.421C431.86 276.421 431.835 276.421 431.804 276.421C431.522 276.421 431.254 276.514 431.023 276.677C430.654 277.001 430.229 277.257 429.773 277.438C429.317 277.613 428.829 277.694 428.336 277.694C427.78 277.7 427.23 277.588 426.724 277.37C426.23 277.164 425.786 276.864 425.405 276.483C423.787 274.879 423.781 272.269 425.387 270.653C425.399 270.653 425.405 270.646 425.405 270.634Z" fill="#2496ED"/>
<path d="M470.3 267.794C470.062 267.569 469.781 267.4 469.469 267.294C469.113 267.169 468.75 267.082 468.375 267.038C468.007 266.995 467.632 266.97 467.263 266.97C466.507 266.97 465.757 267.095 465.051 267.357C464.358 267.613 463.708 267.975 463.127 268.443V268.2C463.102 267.519 462.527 266.988 461.846 267.02C461.202 267.045 460.69 267.557 460.665 268.2V278.931C460.69 279.611 461.265 280.142 461.946 280.11C462.589 280.085 463.102 279.574 463.127 278.931V273.568C463.12 273.013 463.233 272.463 463.452 271.958C463.658 271.471 463.958 271.021 464.333 270.647C464.707 270.272 465.157 269.972 465.645 269.76C466.157 269.542 466.707 269.436 467.257 269.436C467.807 269.429 468.357 269.529 468.869 269.729C469.031 269.81 469.206 269.854 469.388 269.86C469.55 269.86 469.719 269.829 469.869 269.766C470.012 269.704 470.144 269.617 470.256 269.504C470.368 269.392 470.456 269.261 470.518 269.117C470.587 268.967 470.618 268.799 470.618 268.637C470.631 268.324 470.512 268.025 470.287 267.812" fill="#2496ED"/>
<path d="M458.853 271.04C457.803 268.593 455.404 267.001 452.742 266.989C449.099 266.989 446.15 269.935 446.144 273.575C446.144 277.214 449.099 280.167 452.742 280.167C454.323 280.167 455.854 279.599 457.053 278.569C457.072 278.55 457.097 278.531 457.103 278.525C457.209 278.438 457.303 278.338 457.384 278.219C457.778 277.651 457.641 276.865 457.072 276.471C456.597 276.159 455.966 276.215 455.554 276.609C455.516 276.646 455.397 276.752 455.379 276.771L455.36 276.783C455.01 277.083 454.61 277.314 454.173 277.476C453.717 277.639 453.235 277.72 452.748 277.714C452.298 277.714 451.855 277.645 451.436 277.501C451.024 277.364 450.636 277.164 450.28 276.908C449.93 276.652 449.624 276.34 449.368 275.991C449.105 275.629 448.912 275.229 448.78 274.805H458.097C458.422 274.811 458.74 274.686 458.971 274.455C459.209 274.23 459.34 273.912 459.334 273.581C459.34 272.707 459.178 271.846 458.853 271.04ZM448.768 272.351C448.893 271.927 449.087 271.527 449.343 271.165C449.599 270.815 449.911 270.503 450.261 270.247C450.617 269.991 451.011 269.792 451.43 269.654C451.848 269.517 452.292 269.442 452.736 269.442C453.179 269.442 453.617 269.511 454.035 269.654C454.866 269.929 455.591 270.46 456.11 271.165C456.372 271.521 456.572 271.92 456.703 272.351H448.768Z" fill="#2496ED"/>
<path d="M466.088 278.362C465.62 278.369 465.239 278.756 465.251 279.23C465.264 279.704 465.645 280.079 466.12 280.067C466.588 280.06 466.963 279.673 466.957 279.205C466.951 278.737 466.563 278.362 466.088 278.362ZM466.088 279.886C465.713 279.904 465.401 279.611 465.382 279.243C465.363 278.868 465.657 278.556 466.026 278.537C466.401 278.518 466.713 278.812 466.732 279.18C466.732 279.193 466.732 279.205 466.732 279.218C466.744 279.573 466.463 279.873 466.107 279.886C466.107 279.886 466.101 279.886 466.088 279.886Z" fill="#2496ED"/>
<path d="M466.288 279.237V279.224C466.382 279.205 466.457 279.13 466.463 279.031C466.47 278.956 466.438 278.887 466.382 278.837C466.295 278.787 466.188 278.768 466.088 278.775C465.982 278.775 465.87 278.781 465.763 278.8V279.655H465.957V279.318H466.051C466.163 279.318 466.213 279.355 466.226 279.455C466.238 279.524 466.257 279.599 466.288 279.661H466.501C466.47 279.592 466.445 279.524 466.438 279.449C466.426 279.349 466.37 279.274 466.288 279.237ZM466.051 279.174H465.957V278.931C465.995 278.924 466.032 278.924 466.07 278.931C466.195 278.931 466.251 278.981 466.251 279.062C466.251 279.143 466.163 279.187 466.057 279.187" fill="#2496ED"/>
<path d="M390.583 264.085C390.465 263.992 389.334 263.136 386.947 263.136C386.316 263.136 385.691 263.193 385.066 263.299C384.604 260.14 381.992 258.598 381.873 258.529L381.236 258.161L380.817 258.767C380.292 259.584 379.905 260.483 379.68 261.426C379.255 263.23 379.511 264.922 380.43 266.37C379.324 266.988 377.543 267.138 377.187 267.15H347.776C347.007 267.15 346.382 267.775 346.382 268.536C346.351 271.108 346.782 273.668 347.67 276.084C348.682 278.737 350.188 280.691 352.15 281.889C354.349 283.231 357.917 283.999 361.966 283.999C363.797 284.006 365.621 283.837 367.414 283.506C369.914 283.05 372.319 282.176 374.525 280.922C376.343 279.867 377.987 278.525 379.38 276.951C381.711 274.317 383.098 271.383 384.129 268.774C384.266 268.774 384.404 268.774 384.541 268.774C387.09 268.774 388.659 267.756 389.527 266.901C390.102 266.358 390.552 265.69 390.839 264.953L391.021 264.416L390.583 264.085Z" fill="#2496ED"/>
<path d="M350.5 266.289H354.443C354.63 266.289 354.786 266.133 354.786 265.946V262.438C354.786 262.25 354.636 262.094 354.443 262.094H350.5C350.312 262.094 350.156 262.25 350.156 262.438V265.946C350.156 266.133 350.312 266.289 350.5 266.289Z" fill="#2496ED"/>
<path d="M355.93 266.289H359.873C360.06 266.289 360.216 266.133 360.216 265.946V262.438C360.216 262.25 360.066 262.094 359.873 262.094H355.93C355.736 262.094 355.586 262.25 355.586 262.438V265.946C355.586 266.133 355.742 266.289 355.93 266.289Z" fill="#2496ED"/>
<path d="M361.447 266.289H365.39C365.578 266.289 365.734 266.133 365.734 265.946V262.438C365.734 262.25 365.584 262.094 365.39 262.094H361.447C361.26 262.094 361.104 262.25 361.104 262.438V265.946C361.097 266.133 361.254 266.289 361.447 266.289Z" fill="#2496ED"/>
<path d="M366.889 266.289H370.832C371.019 266.289 371.176 266.133 371.176 265.946V262.438C371.176 262.244 371.019 262.094 370.832 262.094H366.889C366.702 262.094 366.546 262.25 366.546 262.438V265.946C366.546 266.133 366.702 266.289 366.889 266.289Z" fill="#2496ED"/>
<path d="M355.93 261.245H359.873C360.06 261.245 360.216 261.089 360.216 260.902V257.394C360.216 257.206 360.06 257.05 359.873 257.05H355.93C355.742 257.05 355.586 257.206 355.586 257.394V260.902C355.586 261.089 355.742 261.245 355.93 261.245Z" fill="#2496ED"/>
<path d="M361.447 261.245H365.39C365.578 261.245 365.734 261.089 365.734 260.902V257.394C365.734 257.206 365.578 257.05 365.39 257.05H361.447C361.26 257.05 361.104 257.206 361.104 257.394V260.902C361.097 261.089 361.254 261.245 361.447 261.245Z" fill="#2496ED"/>
<path d="M366.889 261.245H370.832C371.026 261.245 371.176 261.089 371.176 260.902V257.394C371.176 257.206 371.019 257.05 370.832 257.05H366.889C366.702 257.05 366.546 257.206 366.546 257.394V260.902C366.546 261.089 366.702 261.245 366.889 261.245Z" fill="#2496ED"/>
<path d="M366.889 256.195H370.832C371.019 256.195 371.176 256.039 371.176 255.852V252.343C371.176 252.156 371.019 252 370.832 252H366.889C366.702 252 366.546 252.156 366.546 252.343V255.852C366.546 256.045 366.702 256.195 366.889 256.195Z" fill="#2496ED"/>
<path d="M372.388 266.289H376.331C376.518 266.289 376.674 266.133 376.674 265.946V262.438C376.674 262.244 376.518 262.094 376.331 262.094H372.388C372.201 262.094 372.044 262.25 372.044 262.438V265.946C372.044 266.133 372.201 266.289 372.388 266.289Z" fill="#2496ED"/>
<rect x="1" y="301" width="178.189" height="73.4717" rx="11" stroke="black" stroke-width="2"/>
<path d="M43.8254 329.567C43.6927 329.143 43.3742 328.785 42.9629 328.572L34.7884 324.661C34.5761 324.555 34.3372 324.528 34.1116 324.528C33.8993 324.528 33.6605 324.528 33.4349 324.581L25.2737 328.519C24.8756 328.705 24.5704 329.05 24.4642 329.514L22.4604 338.318C22.3808 338.769 22.487 339.233 22.7524 339.604L28.4055 346.605C28.724 346.923 29.1884 347.135 29.6396 347.162H38.65C39.1278 347.215 39.5922 347.003 39.8842 346.605L45.5373 339.617C45.8027 339.246 45.9088 338.782 45.8558 338.331L43.8254 329.567Z" fill="#326DE6"/>
<path d="M42.5643 337.973C42.5378 337.973 42.5112 337.973 42.5112 337.947C42.5112 337.92 42.4582 337.92 42.4051 337.92C42.2989 337.894 42.1928 337.894 42.0866 337.894C42.0335 337.894 41.9804 337.894 41.9274 337.867H41.9008C41.6089 337.841 41.2904 337.788 40.9852 337.708C40.9056 337.682 40.8259 337.602 40.7994 337.523C40.8259 337.523 40.7994 337.523 40.7994 337.523L40.5871 337.47C40.6932 336.687 40.6402 335.892 40.4809 335.109C40.2951 334.327 39.9766 333.585 39.5387 332.908L39.698 332.749V332.723C39.698 332.643 39.7245 332.537 39.7776 332.484C40.0165 332.272 40.2553 332.113 40.534 331.954C40.5871 331.927 40.6402 331.901 40.6932 331.874C40.7994 331.821 40.879 331.768 40.9852 331.715C41.0117 331.689 41.0383 331.689 41.0648 331.662C41.0913 331.635 41.0648 331.635 41.0648 331.609C41.3037 331.423 41.3567 331.105 41.171 330.853C41.0913 330.747 40.9321 330.668 40.7994 330.668C40.6667 330.668 40.534 330.721 40.4278 330.8L40.4013 330.827C40.3747 330.853 40.3482 330.88 40.3217 330.88C40.242 330.959 40.1624 331.039 40.1093 331.118C40.0828 331.171 40.0297 331.198 40.0032 331.224C39.8174 331.437 39.5785 331.649 39.3264 331.808C39.2733 331.834 39.2202 331.861 39.1672 331.861C39.1406 331.861 39.0875 331.861 39.061 331.834H39.0212L38.8089 331.967C38.5965 331.755 38.3577 331.543 38.1321 331.331C37.1368 330.548 35.9027 330.071 34.642 329.938L34.6155 329.726V329.753C34.5359 329.7 34.5093 329.62 34.4828 329.541C34.4828 329.249 34.4828 328.957 34.5359 328.626V328.599C34.5359 328.546 34.5624 328.493 34.5624 328.44C34.589 328.334 34.589 328.228 34.6155 328.122V327.963C34.642 327.697 34.4297 327.432 34.1643 327.406C34.0183 327.366 33.8458 327.446 33.7131 327.578C33.607 327.684 33.5539 327.817 33.5539 327.949V328.082C33.5539 328.188 33.5804 328.294 33.607 328.4C33.6335 328.453 33.6335 328.506 33.6335 328.559V328.586C33.6866 328.878 33.6866 329.169 33.6866 329.501C33.66 329.58 33.6335 329.66 33.5539 329.713V329.766L33.5273 329.978C33.2354 330.005 32.9434 330.058 32.6117 330.111C31.351 330.376 30.1965 331.052 29.3207 331.98L29.1614 331.874H29.1349C29.1084 331.874 29.0818 331.901 29.0287 331.901C28.9757 331.901 28.9226 331.874 28.8695 331.848C28.6306 331.662 28.3918 331.45 28.1927 331.238C28.1662 331.185 28.1131 331.158 28.0866 331.132C28.0069 331.052 27.9539 330.973 27.8742 330.893C27.8477 330.866 27.8212 330.866 27.7946 330.84C27.7681 330.813 27.7681 330.813 27.7681 330.813C27.6619 330.734 27.5292 330.681 27.3965 330.681C27.2373 330.681 27.1046 330.734 27.0249 330.866C26.8657 331.105 26.9188 331.423 27.1311 331.622C27.1577 331.622 27.1576 331.649 27.1576 331.649C27.1576 331.649 27.2107 331.702 27.2373 331.702C27.3169 331.755 27.4231 331.808 27.5292 331.861C27.5823 331.887 27.6354 331.914 27.6885 331.94C27.9539 332.1 28.2193 332.259 28.4449 332.471C28.4979 332.524 28.551 332.63 28.5245 332.709V332.683L28.6837 332.842C28.6572 332.895 28.6306 332.922 28.6041 332.975C27.7681 334.287 27.4231 335.839 27.6619 337.363L27.4496 337.416C27.4496 337.443 27.4231 337.443 27.4231 337.443C27.3965 337.523 27.3169 337.576 27.2373 337.629C26.9453 337.708 26.6534 337.761 26.3216 337.788C26.2685 337.788 26.2155 337.788 26.1624 337.814C26.0562 337.814 25.9501 337.841 25.8439 337.841C25.8174 337.841 25.7908 337.867 25.7377 337.867C25.7112 337.867 25.7112 337.867 25.6847 337.894C25.3927 337.947 25.2069 338.212 25.26 338.504C25.3131 338.742 25.552 338.902 25.7908 338.875C25.8439 338.875 25.8704 338.875 25.9235 338.848C25.9501 338.848 25.9501 338.848 25.9501 338.822C25.9501 338.795 26.0297 338.822 26.0562 338.822C26.1624 338.795 26.2685 338.742 26.3482 338.716C26.4012 338.689 26.4543 338.663 26.5074 338.663H26.534C26.8259 338.557 27.0913 338.477 27.4231 338.424H27.4496C27.5292 338.424 27.6088 338.451 27.6619 338.504C27.6885 338.504 27.6885 338.53 27.6885 338.53L27.9273 338.504C28.3254 339.737 29.0818 340.837 30.1302 341.633C30.369 341.819 30.5814 341.978 30.86 342.11L30.7273 342.296C30.7273 342.322 30.7539 342.322 30.7539 342.322C30.807 342.402 30.807 342.508 30.7804 342.588C30.6742 342.853 30.515 343.118 30.3558 343.37V343.396C30.3292 343.449 30.3027 343.476 30.2496 343.529C30.1965 343.582 30.1434 343.688 30.0638 343.794C30.0373 343.821 30.0373 343.847 30.0107 343.874C30.0107 343.874 30.0107 343.9 29.9842 343.9C29.8515 344.165 29.9577 344.484 30.1965 344.629C30.2496 344.656 30.3292 344.683 30.3823 344.683C30.5946 344.683 30.7804 344.55 30.8866 344.364C30.8866 344.364 30.8866 344.338 30.9131 344.338C30.9131 344.311 30.9397 344.285 30.9662 344.258C30.9927 344.152 31.0458 344.073 31.0724 343.967L31.1254 343.807C31.2051 343.516 31.3378 343.251 31.4705 342.972C31.5235 342.893 31.6032 342.84 31.6828 342.813C31.7093 342.813 31.7093 342.813 31.7093 342.786L31.8155 342.574C32.5719 342.866 33.3416 342.999 34.151 342.999C34.6288 342.999 35.1198 342.946 35.5975 342.813C35.8894 342.76 36.1814 342.654 36.46 342.574L36.5662 342.76C36.5927 342.76 36.5927 342.76 36.5927 342.786C36.6724 342.813 36.752 342.866 36.8051 342.946C36.9378 343.211 37.0705 343.476 37.1501 343.781V343.807L37.2032 343.967C37.2297 344.073 37.2563 344.179 37.3093 344.258C37.3359 344.285 37.3359 344.311 37.3624 344.338C37.3624 344.338 37.3624 344.364 37.389 344.364C37.4951 344.55 37.6809 344.683 37.8932 344.683C37.9728 344.683 38.0259 344.656 38.1055 344.629C38.2117 344.576 38.3179 344.47 38.3444 344.338C38.371 344.205 38.371 344.073 38.3179 343.94C38.3179 343.914 38.2913 343.914 38.2913 343.914C38.2913 343.887 38.2648 343.86 38.2382 343.834C38.1852 343.728 38.1321 343.648 38.0525 343.569C38.0259 343.516 37.9994 343.489 37.9463 343.436V343.383C37.7605 343.144 37.6278 342.879 37.5217 342.601C37.4951 342.521 37.4951 342.415 37.5482 342.336C37.5482 342.309 37.5747 342.309 37.5747 342.309L37.4951 342.097C38.8619 341.262 39.9103 339.976 40.388 338.451L40.6003 338.477C40.6269 338.477 40.6269 338.451 40.6269 338.451C40.68 338.398 40.7596 338.371 40.8392 338.371H40.8657C41.1577 338.424 41.4496 338.504 41.7283 338.61H41.7548C41.8079 338.636 41.861 338.663 41.9141 338.663C42.0203 338.716 42.0999 338.769 42.206 338.795C42.2326 338.795 42.2591 338.822 42.3122 338.822C42.3387 338.822 42.3387 338.822 42.3653 338.848C42.4184 338.875 42.4449 338.875 42.498 338.875C42.7368 338.875 42.9492 338.716 43.0288 338.504C43.0155 338.239 42.8032 338.026 42.5643 337.973ZM34.8145 337.138L34.0847 337.483L33.3548 337.138L33.1823 336.369L33.6866 335.733H34.4961L35.0003 336.369L34.8145 337.138ZM39.1804 335.401C39.3131 335.958 39.3397 336.528 39.2866 337.085L36.7387 336.356C36.4999 336.303 36.3672 336.064 36.4202 335.825C36.4468 335.746 36.4733 335.693 36.5264 335.64L38.5435 333.823C38.8354 334.301 39.0477 334.844 39.1804 335.401ZM37.734 332.829L35.5444 334.38C35.3586 334.486 35.0932 334.46 34.9605 334.274C34.9074 334.221 34.8809 334.168 34.8809 334.088L34.7217 331.384C35.8894 331.516 36.9378 332.033 37.734 332.829ZM32.8904 331.463L33.4212 331.357L33.2885 334.035C33.2885 334.274 33.0762 334.46 32.8373 334.46C32.7577 334.46 32.7046 334.433 32.625 334.407L30.3956 332.829C31.0856 332.166 31.9482 331.675 32.8904 331.463ZM29.6126 333.823L31.5899 335.587C31.7757 335.746 31.8022 336.011 31.643 336.197C31.5899 336.276 31.5368 336.303 31.4306 336.329L28.8297 337.085C28.7633 335.971 29.0287 334.818 29.6126 333.823ZM29.1614 338.345L31.8155 337.894C32.0278 337.894 32.2401 338.026 32.2667 338.239C32.2932 338.318 32.2932 338.424 32.2401 338.504L31.2316 340.97C30.2894 340.36 29.533 339.419 29.1614 338.345ZM35.2525 341.673C34.8809 341.752 34.4961 341.805 34.098 341.805C33.5406 341.805 32.9434 341.699 32.4126 341.54L33.7264 339.153C33.8591 338.994 34.0714 338.941 34.2572 339.047C34.3368 339.1 34.3899 339.153 34.4695 339.233L35.7567 341.567C35.5975 341.593 35.4382 341.62 35.2525 341.673ZM38.5169 339.339C38.1188 339.976 37.5482 340.546 36.9112 340.943L35.8629 338.424C35.8098 338.212 35.916 338 36.1018 337.92C36.1814 337.894 36.261 337.867 36.3406 337.867L39.0212 338.318C38.8885 338.703 38.7292 339.047 38.5169 339.339Z" fill="white"/>
<path d="M152.309 341.275C152.681 341.301 153.092 341.248 153.437 341.116C153.649 341.01 153.782 340.771 153.755 340.532C153.729 340.267 153.57 340.028 153.331 339.949C152.933 339.71 152.468 339.498 152.017 339.365C151.566 339.206 151.155 339.021 150.783 338.835C150.438 338.676 150.146 338.464 149.841 338.199C149.575 337.933 149.39 337.642 149.257 337.284C149.098 336.886 149.045 336.448 149.045 336.024C149.018 335.136 149.416 334.287 150.119 333.744C150.849 333.187 151.805 332.908 153.039 332.908C153.623 332.908 154.246 332.961 154.83 333.094C155.282 333.173 155.746 333.279 156.197 333.439L155.693 335.719C155.321 335.587 154.963 335.507 154.592 335.401C154.167 335.295 153.702 335.268 153.278 335.268C152.362 335.268 151.911 335.507 151.911 336.024C151.911 336.13 151.937 336.236 151.964 336.342C152.017 336.448 152.097 336.528 152.203 336.608C152.309 336.687 152.468 336.767 152.654 336.873C152.84 336.979 153.105 337.085 153.437 337.191C153.968 337.377 154.512 337.615 154.99 337.894C155.361 338.079 155.693 338.318 155.958 338.649C156.197 338.888 156.356 339.18 156.463 339.538C156.569 339.909 156.622 340.294 156.622 340.665C156.675 341.58 156.25 342.455 155.467 342.972C154.711 343.476 153.649 343.754 152.256 343.754C151.473 343.781 150.73 343.701 149.973 343.516C149.549 343.41 149.137 343.277 148.739 343.144L149.217 340.784C149.695 340.97 150.212 341.129 150.717 341.235C151.261 341.208 151.778 341.275 152.309 341.275ZM137.539 338.318C137.513 337.509 137.672 336.714 137.937 335.958C138.176 335.321 138.548 334.751 139.039 334.247C139.49 333.797 140.008 333.439 140.591 333.226C141.175 332.988 141.799 332.882 142.409 332.882C143.856 332.882 145.01 333.333 145.846 334.221C146.682 335.109 147.107 336.422 147.107 338.132C147.107 338.291 147.107 338.477 147.081 338.689C147.081 338.901 147.054 339.061 147.054 339.22H140.512C140.565 339.776 140.857 340.32 141.348 340.638C141.932 341.01 142.635 341.195 143.325 341.169C143.829 341.169 144.373 341.116 144.878 341.036C145.302 340.957 145.74 340.824 146.138 340.638L146.537 342.998C146.351 343.105 146.138 343.158 145.926 343.237C145.634 343.317 145.342 343.396 145.037 343.423C144.719 343.476 144.4 343.529 144.015 343.582C143.67 343.608 143.285 343.635 142.914 343.635C142.078 343.661 141.282 343.529 140.499 343.237C139.862 342.998 139.291 342.627 138.813 342.137C138.362 341.659 138.03 341.063 137.818 340.453C137.646 339.737 137.539 339.021 137.539 338.318ZM144.32 337.217C144.32 336.979 144.267 336.74 144.188 336.488C144.135 336.25 144.002 336.064 143.869 335.878C143.71 335.693 143.524 335.534 143.312 335.427C143.046 335.295 142.781 335.242 142.476 335.242C142.184 335.242 141.918 335.295 141.64 335.427C141.427 335.534 141.215 335.666 141.056 335.852C140.897 336.037 140.764 336.25 140.684 336.488C140.605 336.727 140.552 336.966 140.525 337.217H144.32ZM129.683 330.588L132.576 330.137V333.134H136.066V335.534H132.576V339.127C132.55 339.631 132.656 340.148 132.895 340.572C133.107 340.917 133.532 341.102 134.209 341.102C134.527 341.102 134.845 341.076 135.151 341.023C135.469 340.97 135.761 340.89 136.066 340.784L136.464 343.038C136.093 343.197 135.682 343.303 135.283 343.41C134.779 343.516 134.235 343.569 133.704 343.569C133.027 343.595 132.364 343.489 131.754 343.25C131.276 343.065 130.838 342.747 130.519 342.362C130.201 341.964 129.989 341.474 129.843 340.97C129.71 340.386 129.657 339.763 129.683 339.18V330.588ZM117.966 338.318C117.939 337.509 118.099 336.714 118.364 335.958C118.603 335.321 118.974 334.751 119.465 334.247C119.917 333.797 120.434 333.439 121.018 333.226C121.602 332.988 122.226 332.882 122.836 332.882C124.282 332.882 125.437 333.333 126.273 334.221C127.109 335.109 127.534 336.422 127.534 338.132C127.534 338.291 127.534 338.477 127.507 338.689C127.481 338.901 127.481 339.061 127.481 339.22H120.912C120.965 339.776 121.257 340.32 121.748 340.638C122.332 341.01 123.035 341.195 123.725 341.169C124.229 341.169 124.773 341.116 125.278 341.036C125.702 340.957 126.14 340.824 126.565 340.638L126.963 342.998C126.777 343.105 126.565 343.158 126.353 343.237C126.061 343.317 125.769 343.396 125.463 343.423C125.145 343.476 124.827 343.529 124.442 343.582C124.097 343.608 123.712 343.635 123.34 343.635C122.504 343.661 121.708 343.529 120.925 343.237C120.288 342.998 119.717 342.627 119.24 342.137C118.789 341.659 118.457 341.063 118.244 340.453C118.045 339.737 117.939 339.021 117.966 338.318ZM124.747 337.217C124.747 336.979 124.694 336.74 124.614 336.488C124.561 336.25 124.428 336.064 124.296 335.878C124.136 335.693 123.951 335.534 123.738 335.427C123.473 335.295 123.208 335.242 122.902 335.242C122.597 335.242 122.345 335.295 122.066 335.427C121.854 335.534 121.668 335.666 121.509 335.852C121.35 336.037 121.217 336.25 121.137 336.488C121.058 336.727 121.005 336.966 120.978 337.217H124.747ZM106.978 333.478C107.589 333.319 108.239 333.187 108.876 333.081C109.685 332.948 110.508 332.895 111.317 332.895C112.047 332.868 112.764 333.001 113.467 333.24C113.998 333.425 114.489 333.744 114.834 334.181C115.179 334.605 115.418 335.123 115.564 335.653C115.723 336.263 115.776 336.913 115.776 337.549V343.303H112.91V337.92C112.91 336.979 112.777 336.342 112.538 335.945C112.299 335.573 111.835 335.361 111.171 335.361C110.959 335.361 110.747 335.361 110.495 335.388C110.256 335.388 110.07 335.414 109.884 335.441V343.317H106.991L106.978 333.478ZM104.948 335.693C104.682 335.64 104.39 335.56 104.032 335.507C103.661 335.427 103.276 335.401 102.904 335.401C102.692 335.401 102.48 335.427 102.227 335.454C102.042 335.481 101.856 335.507 101.67 335.56V343.356H98.7771V333.664C99.361 333.452 99.9847 333.293 100.595 333.16C101.378 332.975 102.174 332.895 102.957 332.921C103.143 332.921 103.329 332.948 103.515 332.948C103.727 332.948 103.939 332.975 104.191 333.028C104.404 333.054 104.616 333.081 104.868 333.134C105.054 333.16 105.24 333.213 105.426 333.293L104.948 335.693ZM86.9534 338.318C86.9269 337.509 87.0861 336.714 87.3515 335.958C87.5904 335.321 87.962 334.751 88.453 334.247C88.9041 333.797 89.4217 333.439 90.0056 333.226C90.5895 332.988 91.2132 332.882 91.8236 332.882C93.27 332.882 94.4245 333.333 95.2606 334.221C96.0966 335.109 96.5212 336.422 96.5212 338.106C96.5212 338.265 96.5212 338.451 96.4947 338.663C96.4681 338.875 96.4681 339.034 96.4681 339.193H89.8994C89.9525 339.75 90.2444 340.294 90.7354 340.612C91.3193 340.983 92.0226 341.169 92.7127 341.142C93.2169 341.142 93.761 341.089 94.2653 341.01C94.6899 340.93 95.1278 340.797 95.526 340.638L95.9241 342.998C95.7383 343.105 95.526 343.158 95.3136 343.237C95.0217 343.317 94.7297 343.396 94.4245 343.423C94.106 343.476 93.7876 343.529 93.4027 343.582C93.0577 343.608 92.6729 343.635 92.3013 343.635C91.4653 343.661 90.6691 343.529 89.8861 343.237C89.2492 342.998 88.6785 342.627 88.2008 342.137C87.7496 341.659 87.4179 341.063 87.2056 340.453C87.0596 339.737 86.9534 339.047 86.9534 338.318ZM93.761 337.217C93.761 336.979 93.7079 336.74 93.6283 336.488C93.5752 336.25 93.4425 336.064 93.3098 335.878C93.1506 335.693 92.9648 335.534 92.7525 335.427C92.4871 335.295 92.2217 335.242 91.9165 335.242C91.6113 335.242 91.3591 335.295 91.0804 335.427C90.8681 335.534 90.6558 335.666 90.4966 335.852C90.3373 336.037 90.2046 336.25 90.125 336.488C90.0454 336.727 89.9923 336.966 89.9657 337.217H93.761ZM82.269 338.159C82.269 336.289 81.5657 335.374 80.1989 335.374C79.907 335.374 79.615 335.401 79.3098 335.481C79.0709 335.534 78.8321 335.64 78.6065 335.772V341.023C78.7392 341.049 78.925 341.076 79.1373 341.102C79.3496 341.129 79.5885 341.129 79.8671 341.129C80.5705 341.182 81.234 340.89 81.6586 340.32C82.0833 339.684 82.2956 338.941 82.269 338.159ZM85.215 338.265C85.215 339.021 85.1089 339.763 84.8435 340.492C84.6311 341.129 84.2861 341.699 83.8217 342.176C83.3439 342.654 82.7733 343.038 82.1629 343.277C81.433 343.542 80.6899 343.648 79.907 343.648C79.5619 343.648 79.1771 343.622 78.8055 343.595C78.434 343.569 78.0491 343.516 77.6776 343.489C77.3325 343.436 76.9742 343.383 76.6292 343.303C76.2842 343.25 75.9923 343.171 75.7401 343.065V328.732L78.633 328.281V333.372C78.9515 333.24 79.3098 333.134 79.6548 333.054C80.0264 332.975 80.4112 332.948 80.7828 332.948C81.4596 332.948 82.0965 333.054 82.707 333.346C83.2378 333.584 83.7288 333.956 84.1003 334.42C84.4984 334.924 84.8037 335.494 84.9629 336.104C85.1354 336.767 85.215 337.522 85.215 338.265ZM72.9932 342.985C72.3828 343.144 71.7325 343.277 71.0956 343.356C70.2861 343.489 69.4633 343.542 68.6538 343.542C67.8974 343.569 67.1809 343.436 66.4775 343.197C65.9467 342.985 65.4823 342.667 65.1107 342.229C64.7657 341.779 64.5268 341.262 64.3809 340.705C64.2216 340.095 64.1685 339.418 64.1685 338.782V333.12H67.0614V338.451C67.0614 339.392 67.1941 340.055 67.433 340.466C67.6719 340.864 68.1363 341.076 68.7998 341.076C69.0121 341.076 69.2245 341.076 69.4766 341.049C69.7155 341.023 69.9012 341.023 70.087 340.97V333.12H72.9932V342.985ZM56.1003 336.82C56.3922 336.501 56.6576 336.183 56.9894 335.852C57.2813 335.507 57.5733 335.176 57.8785 334.857C58.1704 334.513 58.4358 334.221 58.6879 333.916C58.9268 333.624 59.1657 333.359 59.3647 333.134H62.7752C62.0718 333.916 61.4083 334.685 60.7581 335.414C60.0813 336.143 59.3913 336.886 58.6083 337.642C59.033 338.04 59.4443 338.451 59.8159 338.901C60.214 339.379 60.6254 339.869 61.0235 340.4C61.3951 340.904 61.7799 341.447 62.0984 341.951C62.4169 342.455 62.6823 342.945 62.9079 343.37H59.5903C59.378 343.025 59.1391 342.667 58.8605 342.269C58.5951 341.871 58.3031 341.46 58.0244 341.036C57.7325 340.638 57.414 340.227 57.0557 339.856C56.7638 339.511 56.4453 339.18 56.087 338.915V343.383H53.1941V328.732L56.087 328.281L56.1003 336.82Z" fill="black"/>
<rect x="1" y="1" width="178.189" height="73.4717" rx="11" stroke="black" stroke-width="2"/>
<path d="M98.254 33.0374C96.5543 33.0374 95.3079 33.8588 95.3079 35.8698C95.3079 37.3709 96.1294 38.4189 98.1691 38.4189C99.8971 38.4189 101.059 37.3993 101.059 35.8131C101.059 34.0004 100.01 33.0374 98.254 33.0374ZM94.8546 47.1708C94.458 47.6523 94.0614 48.1905 94.0614 48.8136C94.0614 50.0315 95.6195 50.428 97.8008 50.428C99.5855 50.428 102.022 50.3147 102.022 48.6437C102.022 47.6523 100.86 47.5957 99.3589 47.5107L94.8546 47.1708ZM103.976 33.1224C104.543 33.8305 105.11 34.8218 105.11 36.238C105.11 39.6651 102.418 41.6478 98.5373 41.6478C97.5458 41.6478 96.6676 41.5345 96.1011 41.3645L95.0812 43.0073L98.1124 43.2056C103.438 43.5454 106.583 43.6871 106.583 47.794C106.583 51.3344 103.467 53.3454 98.1124 53.3454C92.5316 53.3454 90.407 51.9292 90.407 49.4934C90.407 48.1055 91.0302 47.3691 92.1067 46.3495C91.0869 45.9246 90.7469 45.1599 90.7469 44.3102C90.7469 43.6304 91.0869 43.0073 91.6534 42.4408C92.22 41.846 92.8149 41.2796 93.5515 40.5998C92.05 39.8634 90.8886 38.249 90.8886 35.9831C90.8886 32.4427 93.2399 30.0068 97.9424 30.0068C99.2739 30.0068 100.067 30.1201 100.775 30.3184H106.781V32.9242L103.976 33.1224Z" fill="#413000"/>
<path d="M112.248 27.5426C110.492 27.5426 109.472 26.523 109.472 24.7669C109.472 23.0108 110.492 22.0479 112.248 22.0479C114.033 22.0479 115.053 23.0108 115.053 24.7669C115.053 26.523 114.033 27.5426 112.248 27.5426ZM108.254 46.0378V43.602L109.84 43.3754C110.265 43.3188 110.322 43.2338 110.322 42.7523V33.6888C110.322 33.3489 110.237 33.1223 109.925 33.0374L108.254 32.4426L108.594 29.9501H114.968V42.724C114.968 43.2055 114.996 43.2904 115.449 43.3471L117.007 43.5737V46.0095L108.254 46.0378Z" fill="#413000"/>
<path d="M129.245 44.8484C127.914 45.4998 125.987 46.0663 124.231 46.0663C120.577 46.0663 119.188 44.5935 119.188 41.1097V33.0658C119.188 32.8676 119.188 32.7543 118.934 32.7543H116.781V30.0069C119.5 29.6953 120.577 28.3358 120.917 24.9937H123.834V29.3838C123.834 29.6104 123.834 29.6953 124.089 29.6953H128.395V32.7826H123.806V40.1467C123.806 41.9594 124.231 42.6675 125.902 42.6675C126.752 42.6675 127.659 42.4409 128.395 42.186L129.245 44.8484Z" fill="#413000"/>
<path d="M83.5795 36.7758L69.4718 22.6707C68.6502 21.8493 67.3471 21.8493 66.5256 22.6707L63.6077 25.6164L67.3188 29.3267C68.1686 29.0435 69.1602 29.2418 69.8684 29.9215C70.5483 30.6013 70.7466 31.6209 70.4633 32.4706L74.0327 36.0394C74.9109 35.7278 75.9024 35.9261 76.5823 36.6342C77.5454 37.5972 77.5454 39.155 76.5823 40.118C75.6191 41.081 74.061 41.081 73.0978 40.118C72.3613 39.3816 72.1913 38.3336 72.5596 37.4272L69.2168 34.1134V42.8937C69.4434 43.007 69.6701 43.1769 69.8684 43.3752C70.8315 44.3382 70.8315 45.896 69.8684 46.859C68.9052 47.8219 67.3471 47.8219 66.3839 46.859C65.4208 45.896 65.4208 44.3382 66.3839 43.3752C66.6106 43.1486 66.8939 42.9503 67.2055 42.837V33.9435C66.9222 33.8302 66.6389 33.6319 66.3839 33.4053C65.6474 32.6689 65.4774 31.5926 65.8457 30.7146L62.1913 27.0325L52.5029 36.6908C51.6813 37.5122 51.6813 38.8151 52.5029 39.6365L66.5822 53.7132C67.4038 54.5346 68.7069 54.5346 69.5284 53.7132L83.5511 39.6931C84.3727 38.9001 84.3727 37.5689 83.5795 36.7758Z" fill="#F05133"/>
<path d="M318 94L307.859 88.4786L308.148 100.022L318 94ZM178.807 159.591C195.214 137.209 243.492 98.5101 309.058 95.2238L308.958 93.2264C242.707 96.547 193.904 135.613 177.193 158.409L178.807 159.591Z" fill="black"/>
<path d="M180 174L190.843 170.031L181.984 162.625L180 174ZM186.512 167.768C207.617 144.387 255.507 108 318 108V106C254.744 106 206.355 142.8 185.028 166.428L186.512 167.768Z" fill="black"/>
<path d="M319 276L308.686 270.808L309.347 282.336L319 276ZM310.005 275.515C279.24 275.826 222.744 263.33 177.707 218.293L176.293 219.707C221.776 265.191 278.825 277.83 310.026 277.515L310.005 275.515Z" fill="black"/>
<path d="M179.32 202.551L182.18 213.738L190.438 205.667L179.32 202.551ZM319.387 261.235C293.903 262.639 233.035 253.721 186.305 208.268L184.911 209.702C232.139 255.639 293.606 264.658 319.497 263.232L319.387 261.235Z" fill="black"/>
<path d="M91 150L96.7735 140L85.2265 140L91 150ZM90 75L90 141L92 141L92 75L90 75Z" fill="black"/>
<path d="M91 300L96.7735 290L85.2265 290L91 300ZM90 225L90 291L92 291L92 225L90 225Z" fill="black"/>
</svg>
