<svg width="572" height="458" viewBox="0 0 572 458" fill="none" xmlns="http://www.w3.org/2000/svg">
<rect x="224.115" y="1" width="116.88" height="62.6084" rx="11" stroke="black" stroke-width="2"/>
<path d="M288.901 28.4598C287.436 28.4598 286.363 29.1674 286.363 30.8997C286.363 32.1929 287.07 33.0957 288.827 33.0957C290.316 33.0957 291.317 32.2173 291.317 30.8509C291.317 29.2894 290.414 28.4598 288.901 28.4598ZM285.972 40.635C285.631 41.0498 285.289 41.5134 285.289 42.0501C285.289 43.0993 286.631 43.4409 288.51 43.4409C290.048 43.4409 292.146 43.3433 292.146 41.9037C292.146 41.0498 291.146 41.001 289.852 40.9278L285.972 40.635ZM293.83 28.533C294.318 29.143 294.806 29.997 294.806 31.2169C294.806 34.1692 292.488 35.8772 289.145 35.8772C288.291 35.8772 287.534 35.7796 287.046 35.6332L286.167 37.0483L288.779 37.2191C293.367 37.5119 296.075 37.6339 296.075 41.1718C296.075 44.2217 293.391 45.954 288.779 45.954C283.971 45.954 282.141 44.734 282.141 42.6357C282.141 41.4402 282.678 40.8058 283.605 39.9274C282.727 39.5614 282.434 38.9026 282.434 38.1707C282.434 37.5851 282.727 37.0483 283.215 36.5603C283.703 36.048 284.215 35.56 284.85 34.9744C283.556 34.34 282.556 32.9493 282.556 30.9973C282.556 27.9474 284.581 25.8491 288.632 25.8491C289.779 25.8491 290.463 25.9467 291.073 26.1175H296.246V28.3622L293.83 28.533Z" fill="#413000"/>
<path d="M300.956 23.7266C299.443 23.7266 298.564 22.8482 298.564 21.3355C298.564 19.8227 299.443 18.9932 300.956 18.9932C302.493 18.9932 303.372 19.8227 303.372 21.3355C303.372 22.8482 302.493 23.7266 300.956 23.7266ZM297.515 39.6592V37.5609L298.882 37.3657C299.248 37.3169 299.297 37.2437 299.297 36.8289V29.0212C299.297 28.7284 299.223 28.5332 298.955 28.46L297.515 27.9476L297.808 25.8005H303.299V36.8045C303.299 37.2193 303.323 37.2925 303.714 37.3413L305.056 37.5365V39.6348L297.515 39.6592Z" fill="#413000"/>
<path d="M315.598 38.6345C314.451 39.1957 312.792 39.6837 311.279 39.6837C308.13 39.6837 306.935 38.415 306.935 35.4139V28.4845C306.935 28.3137 306.935 28.2161 306.715 28.2161H304.86V25.8494C307.203 25.581 308.13 24.4099 308.423 21.5308H310.937V25.3126C310.937 25.5078 310.937 25.581 311.156 25.581H314.866V28.2405H310.912V34.5843C310.912 36.1458 311.279 36.7558 312.718 36.7558C313.45 36.7558 314.231 36.5606 314.866 36.341L315.598 38.6345Z" fill="#413000"/>
<path d="M276.259 31.6805L264.106 19.5297C263.399 18.8221 262.276 18.8221 261.568 19.5297L259.055 22.0672L262.252 25.2635C262.984 25.0195 263.838 25.1903 264.448 25.7759C265.034 26.3615 265.204 27.2398 264.96 27.9718L268.035 31.0461C268.792 30.7777 269.646 30.9485 270.232 31.5585C271.061 32.388 271.061 33.73 270.232 34.5596C269.402 35.3891 268.06 35.3891 267.23 34.5596C266.596 33.9252 266.449 33.0224 266.766 32.2416L263.887 29.3869V36.9507C264.082 37.0483 264.277 37.1947 264.448 37.3655C265.278 38.195 265.278 39.537 264.448 40.3666C263.618 41.1961 262.276 41.1961 261.446 40.3666C260.617 39.537 260.617 38.195 261.446 37.3655C261.642 37.1703 261.886 36.9995 262.154 36.9019V29.2406C261.91 29.143 261.666 28.9722 261.446 28.777C260.812 28.1426 260.665 27.2154 260.983 26.4591L257.835 23.2872L249.489 31.6073C248.781 32.3148 248.781 33.4372 249.489 34.1448L261.617 46.2711C262.325 46.9787 263.447 46.9787 264.155 46.2711L276.235 34.1936C276.943 33.5104 276.943 32.3636 276.259 31.6805Z" fill="#F05133"/>
<rect x="224.115" y="100.066" width="116.88" height="62.6084" rx="11" stroke="black" stroke-width="2"/>
<path d="M239.413 134.525H236.557L236.149 136.325H234.493L236.497 127.925H239.473L241.477 136.325H239.821L239.413 134.525ZM236.893 133.013H239.065L238.093 128.717H237.877L236.893 133.013ZM244.109 136.325H242.597V130.373H244.109V131.261H244.325C244.461 130.925 244.681 130.665 244.985 130.481C245.289 130.297 245.645 130.205 246.053 130.205C246.341 130.205 246.609 130.253 246.857 130.349C247.113 130.437 247.337 130.577 247.529 130.769C247.721 130.961 247.869 131.205 247.973 131.501C248.085 131.797 248.141 132.149 248.141 132.557V136.325H246.629V132.941C246.629 132.517 246.525 132.185 246.317 131.945C246.117 131.697 245.825 131.573 245.441 131.573C244.993 131.573 244.657 131.725 244.433 132.029C244.217 132.325 244.109 132.725 244.109 133.229V136.325ZM253.977 130.373H255.489V137.789C255.489 138.061 255.401 138.285 255.225 138.461C255.057 138.637 254.837 138.725 254.565 138.725H251.025V137.285H253.653C253.869 137.285 253.977 137.165 253.977 136.925V135.461H253.761C253.497 136.149 252.929 136.493 252.057 136.493C251.761 136.493 251.485 136.445 251.229 136.349C250.973 136.253 250.749 136.105 250.557 135.905C250.365 135.705 250.213 135.457 250.101 135.161C249.997 134.857 249.945 134.501 249.945 134.093V130.373H251.457V133.781C251.457 134.205 251.557 134.537 251.757 134.777C251.957 135.009 252.257 135.125 252.657 135.125C253.113 135.125 253.445 134.981 253.653 134.693C253.869 134.397 253.977 133.997 253.977 133.493V130.373ZM267.4 135.053C267.704 135.053 267.952 135.009 268.144 134.921C268.344 134.825 268.496 134.701 268.6 134.549C268.712 134.389 268.788 134.209 268.828 134.009C268.868 133.801 268.888 133.589 268.888 133.373V133.157H270.472V133.373C270.472 134.373 270.208 135.145 269.68 135.689C269.16 136.225 268.4 136.493 267.4 136.493C266.44 136.493 265.68 136.201 265.12 135.617C264.56 135.033 264.28 134.181 264.28 133.061V131.189C264.28 130.653 264.352 130.173 264.496 129.749C264.64 129.317 264.848 128.957 265.12 128.669C265.392 128.373 265.72 128.149 266.104 127.997C266.488 127.837 266.92 127.757 267.4 127.757C267.896 127.757 268.336 127.829 268.72 127.973C269.104 128.117 269.424 128.325 269.68 128.597C269.944 128.869 270.14 129.197 270.268 129.581C270.404 129.965 270.472 130.397 270.472 130.877V131.093H268.888V130.877C268.888 130.677 268.864 130.477 268.816 130.277C268.768 130.077 268.688 129.897 268.576 129.737C268.464 129.577 268.312 129.449 268.12 129.353C267.928 129.249 267.688 129.197 267.4 129.197C267.136 129.197 266.908 129.249 266.716 129.353C266.524 129.449 266.364 129.585 266.236 129.761C266.108 129.929 266.012 130.129 265.948 130.361C265.892 130.585 265.864 130.821 265.864 131.069V133.181C265.864 133.453 265.892 133.705 265.948 133.937C266.004 134.161 266.092 134.357 266.212 134.525C266.332 134.693 266.488 134.825 266.68 134.921C266.88 135.009 267.12 135.053 267.4 135.053ZM271.916 127.925H277.532V129.437H275.516V134.813H277.532V136.325H271.916V134.813H273.932V129.437H271.916V127.925ZM288.579 132.053C288.579 132.245 288.679 132.385 288.879 132.473C289.079 132.553 289.443 132.621 289.971 132.677C290.579 132.741 291.075 132.925 291.459 133.229C291.843 133.525 292.035 133.941 292.035 134.477V134.549C292.035 135.141 291.819 135.613 291.387 135.965C290.955 136.317 290.347 136.493 289.563 136.493C289.099 136.493 288.703 136.433 288.375 136.313C288.047 136.193 287.775 136.045 287.559 135.869C287.343 135.685 287.175 135.485 287.055 135.269C286.943 135.045 286.867 134.829 286.827 134.621L288.219 134.165C288.283 134.421 288.415 134.645 288.615 134.837C288.823 135.029 289.139 135.125 289.563 135.125C289.939 135.125 290.195 135.069 290.331 134.957C290.475 134.837 290.547 134.709 290.547 134.573C290.547 134.493 290.527 134.421 290.487 134.357C290.455 134.285 290.391 134.221 290.295 134.165C290.199 134.101 290.067 134.049 289.899 134.009C289.739 133.969 289.535 133.937 289.287 133.913C288.615 133.857 288.079 133.685 287.679 133.397C287.287 133.101 287.091 132.669 287.091 132.101V132.029C287.091 131.733 287.155 131.473 287.283 131.249C287.411 131.025 287.579 130.837 287.787 130.685C287.995 130.525 288.235 130.405 288.507 130.325C288.779 130.245 289.059 130.205 289.347 130.205C289.723 130.205 290.047 130.253 290.319 130.349C290.599 130.437 290.835 130.557 291.027 130.709C291.219 130.853 291.375 131.017 291.495 131.201C291.615 131.377 291.707 131.549 291.771 131.717L290.403 132.269C290.331 132.053 290.207 131.885 290.031 131.765C289.855 131.637 289.627 131.573 289.347 131.573C289.091 131.573 288.899 131.621 288.771 131.717C288.643 131.805 288.579 131.917 288.579 132.053ZM298.062 130.373H299.574V137.789C299.574 138.061 299.486 138.285 299.31 138.461C299.142 138.637 298.922 138.725 298.65 138.725H295.11V137.285H297.738C297.954 137.285 298.062 137.165 298.062 136.925V135.461H297.846C297.582 136.149 297.014 136.493 296.142 136.493C295.846 136.493 295.57 136.445 295.314 136.349C295.058 136.253 294.834 136.105 294.642 135.905C294.45 135.705 294.298 135.457 294.186 135.161C294.082 134.857 294.03 134.501 294.03 134.093V130.373H295.542V133.781C295.542 134.205 295.642 134.537 295.842 134.777C296.042 135.009 296.342 135.125 296.742 135.125C297.198 135.125 297.53 134.981 297.738 134.693C297.954 134.397 298.062 133.997 298.062 133.493V130.373ZM303.274 132.053C303.274 132.245 303.374 132.385 303.574 132.473C303.774 132.553 304.138 132.621 304.666 132.677C305.274 132.741 305.77 132.925 306.154 133.229C306.538 133.525 306.73 133.941 306.73 134.477V134.549C306.73 135.141 306.514 135.613 306.082 135.965C305.65 136.317 305.042 136.493 304.258 136.493C303.794 136.493 303.398 136.433 303.07 136.313C302.742 136.193 302.47 136.045 302.254 135.869C302.038 135.685 301.87 135.485 301.75 135.269C301.638 135.045 301.562 134.829 301.522 134.621L302.914 134.165C302.978 134.421 303.11 134.645 303.31 134.837C303.518 135.029 303.834 135.125 304.258 135.125C304.634 135.125 304.89 135.069 305.026 134.957C305.17 134.837 305.242 134.709 305.242 134.573C305.242 134.493 305.222 134.421 305.182 134.357C305.15 134.285 305.086 134.221 304.99 134.165C304.894 134.101 304.762 134.049 304.594 134.009C304.434 133.969 304.23 133.937 303.982 133.913C303.31 133.857 302.774 133.685 302.374 133.397C301.982 133.101 301.786 132.669 301.786 132.101V132.029C301.786 131.733 301.85 131.473 301.978 131.249C302.106 131.025 302.274 130.837 302.482 130.685C302.69 130.525 302.93 130.405 303.202 130.325C303.474 130.245 303.754 130.205 304.042 130.205C304.418 130.205 304.742 130.253 305.014 130.349C305.294 130.437 305.53 130.557 305.722 130.709C305.914 130.853 306.07 131.017 306.19 131.201C306.31 131.377 306.402 131.549 306.466 131.717L305.098 132.269C305.026 132.053 304.902 131.885 304.726 131.765C304.55 131.637 304.322 131.573 304.042 131.573C303.786 131.573 303.594 131.621 303.466 131.717C303.338 131.805 303.274 131.917 303.274 132.053ZM308.558 130.373H310.322V127.925H311.834V130.373H313.982V131.813H311.834V134.525C311.834 134.765 311.942 134.885 312.158 134.885H313.766V136.325H311.246C310.974 136.325 310.75 136.237 310.574 136.061C310.406 135.885 310.322 135.661 310.322 135.389V131.813H308.558V130.373ZM317.405 133.841C317.413 134.017 317.453 134.181 317.525 134.333C317.605 134.477 317.709 134.605 317.837 134.717C317.973 134.821 318.125 134.905 318.293 134.969C318.469 135.025 318.653 135.053 318.845 135.053C319.221 135.053 319.509 134.989 319.709 134.861C319.909 134.725 320.053 134.565 320.141 134.381L321.437 135.101C321.365 135.253 321.265 135.413 321.137 135.581C321.009 135.741 320.841 135.889 320.633 136.025C320.433 136.161 320.185 136.273 319.889 136.361C319.601 136.449 319.261 136.493 318.869 136.493C318.421 136.493 318.013 136.421 317.645 136.277C317.277 136.133 316.957 135.925 316.685 135.653C316.421 135.381 316.213 135.049 316.061 134.657C315.917 134.265 315.845 133.821 315.845 133.325V133.253C315.845 132.797 315.921 132.381 316.073 132.005C316.233 131.629 316.449 131.309 316.721 131.045C316.993 130.781 317.309 130.577 317.669 130.433C318.037 130.281 318.429 130.205 318.845 130.205C319.357 130.205 319.797 130.297 320.165 130.481C320.533 130.657 320.837 130.885 321.077 131.165C321.317 131.437 321.493 131.741 321.605 132.077C321.717 132.405 321.773 132.725 321.773 133.037V133.841H317.405ZM318.833 131.573C318.449 131.573 318.137 131.673 317.897 131.873C317.657 132.065 317.501 132.289 317.429 132.545H320.237C320.189 132.265 320.037 132.033 319.781 131.849C319.533 131.665 319.217 131.573 318.833 131.573ZM329.397 136.325H327.885V132.149C327.885 131.981 327.841 131.857 327.753 131.777C327.673 131.689 327.565 131.645 327.429 131.645C327.269 131.645 327.141 131.693 327.045 131.789C326.957 131.885 326.913 132.029 326.913 132.221V136.325H325.401V132.149C325.401 131.981 325.353 131.857 325.257 131.777C325.169 131.689 325.061 131.645 324.933 131.645C324.789 131.645 324.669 131.693 324.573 131.789C324.477 131.885 324.429 132.029 324.429 132.221V136.325H322.917V130.373H324.429V130.949H324.645C324.693 130.733 324.801 130.557 324.969 130.421C325.145 130.277 325.373 130.205 325.653 130.205C325.917 130.205 326.141 130.277 326.325 130.421C326.509 130.557 326.633 130.733 326.697 130.949H326.913C326.977 130.733 327.109 130.557 327.309 130.421C327.517 130.277 327.773 130.205 328.077 130.205C328.477 130.205 328.797 130.341 329.037 130.613C329.277 130.877 329.397 131.245 329.397 131.717V136.325Z" fill="black"/>
<rect x="141.416" y="374.868" width="116.88" height="62.6084" rx="11" stroke="black" stroke-width="2"/>
<path d="M157.581 399.2H154.725L154.317 401H152.661L154.665 392.6H157.641L159.645 401H157.989L157.581 399.2ZM155.061 397.688H157.233L156.261 393.392H156.045L155.061 397.688ZM162.277 401H160.765V395.048H162.277V395.936H162.493C162.629 395.6 162.849 395.34 163.153 395.156C163.457 394.972 163.813 394.88 164.221 394.88C164.509 394.88 164.777 394.928 165.025 395.024C165.281 395.112 165.505 395.252 165.697 395.444C165.889 395.636 166.037 395.88 166.141 396.176C166.253 396.472 166.309 396.824 166.309 397.232V401H164.797V397.616C164.797 397.192 164.693 396.86 164.485 396.62C164.285 396.372 163.993 396.248 163.609 396.248C163.161 396.248 162.825 396.4 162.601 396.704C162.385 397 162.277 397.4 162.277 397.904V401ZM172.145 395.048H173.657V402.464C173.657 402.736 173.569 402.96 173.393 403.136C173.225 403.312 173.005 403.4 172.733 403.4H169.193V401.96H171.821C172.037 401.96 172.145 401.84 172.145 401.6V400.136H171.929C171.665 400.824 171.097 401.168 170.225 401.168C169.929 401.168 169.653 401.12 169.397 401.024C169.141 400.928 168.917 400.78 168.725 400.58C168.533 400.38 168.381 400.132 168.269 399.836C168.165 399.532 168.113 399.176 168.113 398.768V395.048H169.625V398.456C169.625 398.88 169.725 399.212 169.925 399.452C170.125 399.684 170.425 399.8 170.825 399.8C171.281 399.8 171.613 399.656 171.821 399.368C172.037 399.072 172.145 398.672 172.145 398.168V395.048ZM188.616 398.816C188.48 399.52 188.156 400.088 187.644 400.52C187.14 400.952 186.464 401.168 185.616 401.168C185.176 401.168 184.764 401.1 184.38 400.964C184.004 400.828 183.676 400.632 183.396 400.376C183.116 400.12 182.896 399.804 182.736 399.428C182.576 399.052 182.496 398.624 182.496 398.144V398C182.496 397.52 182.576 397.088 182.736 396.704C182.896 396.32 183.116 395.992 183.396 395.72C183.684 395.448 184.016 395.24 184.392 395.096C184.776 394.952 185.184 394.88 185.616 394.88C186.448 394.88 187.12 395.096 187.632 395.528C188.152 395.96 188.48 396.528 188.616 397.232L187.128 397.616C187.08 397.264 186.928 396.96 186.672 396.704C186.416 396.448 186.056 396.32 185.592 396.32C185.376 396.32 185.172 396.36 184.98 396.44C184.788 396.52 184.62 396.636 184.476 396.788C184.332 396.932 184.216 397.112 184.128 397.328C184.048 397.536 184.008 397.772 184.008 398.036V398.108C184.008 398.372 184.048 398.608 184.128 398.816C184.216 399.016 184.332 399.184 184.476 399.32C184.62 399.456 184.788 399.56 184.98 399.632C185.172 399.696 185.376 399.728 185.592 399.728C186.056 399.728 186.408 399.612 186.648 399.38C186.896 399.148 187.056 398.836 187.128 398.444L188.616 398.816ZM195.987 398.096C195.987 398.592 195.903 399.032 195.735 399.416C195.567 399.792 195.339 400.112 195.051 400.376C194.763 400.632 194.431 400.828 194.055 400.964C193.687 401.1 193.299 401.168 192.891 401.168C192.483 401.168 192.091 401.1 191.715 400.964C191.347 400.828 191.019 400.632 190.731 400.376C190.443 400.112 190.215 399.792 190.047 399.416C189.879 399.032 189.795 398.592 189.795 398.096V397.952C189.795 397.464 189.879 397.032 190.047 396.656C190.215 396.272 190.443 395.948 190.731 395.684C191.019 395.42 191.347 395.22 191.715 395.084C192.091 394.948 192.483 394.88 192.891 394.88C193.299 394.88 193.687 394.948 194.055 395.084C194.431 395.22 194.763 395.42 195.051 395.684C195.339 395.948 195.567 396.272 195.735 396.656C195.903 397.032 195.987 397.464 195.987 397.952V398.096ZM192.891 399.728C193.107 399.728 193.311 399.692 193.503 399.62C193.695 399.548 193.863 399.444 194.007 399.308C194.151 399.172 194.263 399.008 194.343 398.816C194.431 398.616 194.475 398.392 194.475 398.144V397.904C194.475 397.656 194.431 397.436 194.343 397.244C194.263 397.044 194.151 396.876 194.007 396.74C193.863 396.604 193.695 396.5 193.503 396.428C193.311 396.356 193.107 396.32 192.891 396.32C192.675 396.32 192.471 396.356 192.279 396.428C192.087 396.5 191.919 396.604 191.775 396.74C191.631 396.876 191.515 397.044 191.427 397.244C191.347 397.436 191.307 397.656 191.307 397.904V398.144C191.307 398.392 191.347 398.616 191.427 398.816C191.515 399.008 191.631 399.172 191.775 399.308C191.919 399.444 192.087 399.548 192.279 399.62C192.471 399.692 192.675 399.728 192.891 399.728ZM199.015 401H197.503V395.048H199.015V395.936H199.231C199.367 395.6 199.587 395.34 199.891 395.156C200.195 394.972 200.551 394.88 200.959 394.88C201.247 394.88 201.515 394.928 201.763 395.024C202.019 395.112 202.243 395.252 202.435 395.444C202.627 395.636 202.775 395.88 202.879 396.176C202.991 396.472 203.047 396.824 203.047 397.232V401H201.535V397.616C201.535 397.192 201.431 396.86 201.223 396.62C201.023 396.372 200.731 396.248 200.347 396.248C199.899 396.248 199.563 396.4 199.339 396.704C199.123 397 199.015 397.4 199.015 397.904V401ZM204.683 395.048H206.447V392.6H207.959V395.048H210.107V396.488H207.959V399.2C207.959 399.44 208.067 399.56 208.283 399.56H209.891V401H207.371C207.099 401 206.875 400.912 206.699 400.736C206.531 400.56 206.447 400.336 206.447 400.064V396.488H204.683V395.048ZM216.05 400.136C215.89 400.512 215.666 400.78 215.378 400.94C215.09 401.092 214.754 401.168 214.37 401.168C214.01 401.168 213.67 401.1 213.35 400.964C213.038 400.828 212.762 400.628 212.522 400.364C212.282 400.1 212.09 399.78 211.946 399.404C211.81 399.028 211.742 398.6 211.742 398.12V397.928C211.742 397.456 211.81 397.032 211.946 396.656C212.082 396.28 212.266 395.96 212.498 395.696C212.73 395.432 212.998 395.232 213.302 395.096C213.614 394.952 213.946 394.88 214.298 394.88C214.722 394.88 215.062 394.952 215.318 395.096C215.582 395.24 215.79 395.464 215.942 395.768H216.158V395.048H217.67V399.2C217.67 399.44 217.778 399.56 217.994 399.56H218.222V401H217.19C216.918 401 216.694 400.92 216.518 400.76C216.35 400.6 216.266 400.392 216.266 400.136H216.05ZM214.706 399.728C215.146 399.728 215.498 399.584 215.762 399.296C216.026 399 216.158 398.6 216.158 398.096V397.952C216.158 397.448 216.026 397.052 215.762 396.764C215.498 396.468 215.146 396.32 214.706 396.32C214.266 396.32 213.914 396.468 213.65 396.764C213.386 397.052 213.254 397.448 213.254 397.952V398.096C213.254 398.6 213.386 399 213.65 399.296C213.914 399.584 214.266 399.728 214.706 399.728ZM219.654 399.56H221.67V396.488H219.798V395.048H223.182V399.56H224.91V401H219.654V399.56ZM223.554 393.284C223.554 393.444 223.522 393.596 223.458 393.74C223.402 393.876 223.322 393.996 223.218 394.1C223.114 394.196 222.99 394.276 222.846 394.34C222.71 394.396 222.566 394.424 222.414 394.424C222.254 394.424 222.106 394.396 221.97 394.34C221.834 394.276 221.714 394.196 221.61 394.1C221.506 393.996 221.422 393.876 221.358 393.74C221.302 393.596 221.274 393.444 221.274 393.284C221.274 393.124 221.302 392.976 221.358 392.84C221.422 392.696 221.506 392.576 221.61 392.48C221.714 392.376 221.834 392.296 221.97 392.24C222.106 392.176 222.254 392.144 222.414 392.144C222.566 392.144 222.71 392.176 222.846 392.24C222.99 392.296 223.114 392.376 223.218 392.48C223.322 392.576 223.402 392.696 223.458 392.84C223.522 392.976 223.554 393.124 223.554 393.284ZM228.406 401H226.894V395.048H228.406V395.936H228.622C228.758 395.6 228.978 395.34 229.282 395.156C229.586 394.972 229.942 394.88 230.35 394.88C230.638 394.88 230.906 394.928 231.154 395.024C231.41 395.112 231.634 395.252 231.826 395.444C232.018 395.636 232.166 395.88 232.27 396.176C232.382 396.472 232.438 396.824 232.438 397.232V401H230.926V397.616C230.926 397.192 230.822 396.86 230.614 396.62C230.414 396.372 230.122 396.248 229.738 396.248C229.29 396.248 228.954 396.4 228.73 396.704C228.514 397 228.406 397.4 228.406 397.904V401ZM235.573 398.516C235.581 398.692 235.621 398.856 235.693 399.008C235.773 399.152 235.877 399.28 236.005 399.392C236.141 399.496 236.293 399.58 236.461 399.644C236.637 399.7 236.821 399.728 237.013 399.728C237.389 399.728 237.677 399.664 237.877 399.536C238.077 399.4 238.221 399.24 238.309 399.056L239.605 399.776C239.533 399.928 239.433 400.088 239.305 400.256C239.177 400.416 239.009 400.564 238.801 400.7C238.601 400.836 238.353 400.948 238.057 401.036C237.769 401.124 237.429 401.168 237.037 401.168C236.589 401.168 236.181 401.096 235.813 400.952C235.445 400.808 235.125 400.6 234.853 400.328C234.589 400.056 234.381 399.724 234.229 399.332C234.085 398.94 234.013 398.496 234.013 398V397.928C234.013 397.472 234.089 397.056 234.241 396.68C234.401 396.304 234.617 395.984 234.889 395.72C235.161 395.456 235.477 395.252 235.837 395.108C236.205 394.956 236.597 394.88 237.013 394.88C237.525 394.88 237.965 394.972 238.333 395.156C238.701 395.332 239.005 395.56 239.245 395.84C239.485 396.112 239.661 396.416 239.773 396.752C239.885 397.08 239.941 397.4 239.941 397.712V398.516H235.573ZM237.001 396.248C236.617 396.248 236.305 396.348 236.065 396.548C235.825 396.74 235.669 396.964 235.597 397.22H238.405C238.357 396.94 238.205 396.708 237.949 396.524C237.701 396.34 237.385 396.248 237.001 396.248ZM241.301 395.048H243.821V395.912H244.037C244.149 395.584 244.337 395.332 244.601 395.156C244.873 394.972 245.197 394.88 245.573 394.88C246.165 394.88 246.641 395.068 247.001 395.444C247.361 395.812 247.541 396.376 247.541 397.136V397.4L245.981 397.544V397.376C245.981 397.048 245.897 396.788 245.729 396.596C245.561 396.396 245.309 396.296 244.973 396.296C244.637 396.296 244.373 396.412 244.181 396.644C243.989 396.876 243.893 397.208 243.893 397.64V399.56H245.261V401H241.157V399.56H242.381V396.488H241.301V395.048ZM171.498 413.048H174.018V413.912H174.234C174.346 413.584 174.534 413.332 174.798 413.156C175.07 412.972 175.394 412.88 175.77 412.88C176.362 412.88 176.838 413.068 177.198 413.444C177.558 413.812 177.738 414.376 177.738 415.136V415.4L176.178 415.544V415.376C176.178 415.048 176.094 414.788 175.926 414.596C175.758 414.396 175.506 414.296 175.17 414.296C174.834 414.296 174.57 414.412 174.378 414.644C174.186 414.876 174.09 415.208 174.09 415.64V417.56H175.458V419H171.354V417.56H172.578V414.488H171.498V413.048ZM180.466 416.516C180.474 416.692 180.514 416.856 180.586 417.008C180.666 417.152 180.77 417.28 180.898 417.392C181.034 417.496 181.186 417.58 181.354 417.644C181.53 417.7 181.714 417.728 181.906 417.728C182.282 417.728 182.57 417.664 182.77 417.536C182.97 417.4 183.114 417.24 183.202 417.056L184.498 417.776C184.426 417.928 184.326 418.088 184.198 418.256C184.07 418.416 183.902 418.564 183.694 418.7C183.494 418.836 183.246 418.948 182.95 419.036C182.662 419.124 182.322 419.168 181.93 419.168C181.482 419.168 181.074 419.096 180.706 418.952C180.338 418.808 180.018 418.6 179.746 418.328C179.482 418.056 179.274 417.724 179.122 417.332C178.978 416.94 178.906 416.496 178.906 416V415.928C178.906 415.472 178.982 415.056 179.134 414.68C179.294 414.304 179.51 413.984 179.782 413.72C180.054 413.456 180.37 413.252 180.73 413.108C181.098 412.956 181.49 412.88 181.906 412.88C182.418 412.88 182.858 412.972 183.226 413.156C183.594 413.332 183.898 413.56 184.138 413.84C184.378 414.112 184.554 414.416 184.666 414.752C184.778 415.08 184.834 415.4 184.834 415.712V416.516H180.466ZM181.894 414.248C181.51 414.248 181.198 414.348 180.958 414.548C180.718 414.74 180.562 414.964 180.49 415.22H183.298C183.25 414.94 183.098 414.708 182.842 414.524C182.594 414.34 182.278 414.248 181.894 414.248ZM190.73 418.136H190.514C190.45 418.272 190.37 418.404 190.274 418.532C190.186 418.652 190.066 418.76 189.914 418.856C189.77 418.952 189.594 419.028 189.386 419.084C189.186 419.14 188.942 419.168 188.654 419.168C188.286 419.168 187.942 419.104 187.622 418.976C187.31 418.84 187.034 418.644 186.794 418.388C186.562 418.124 186.378 417.804 186.242 417.428C186.114 417.052 186.05 416.62 186.05 416.132V415.916C186.05 415.436 186.118 415.008 186.254 414.632C186.398 414.256 186.59 413.94 186.83 413.684C187.078 413.42 187.362 413.22 187.682 413.084C188.01 412.948 188.354 412.88 188.714 412.88C189.194 412.88 189.574 412.972 189.854 413.156C190.134 413.332 190.354 413.584 190.514 413.912H190.73V413.048H192.242V420.464C192.242 420.736 192.154 420.96 191.978 421.136C191.81 421.312 191.59 421.4 191.318 421.4H187.31V419.96H190.406C190.622 419.96 190.73 419.84 190.73 419.6V418.136ZM189.146 417.728C189.618 417.728 189.998 417.58 190.286 417.284C190.582 416.98 190.73 416.584 190.73 416.096V415.952C190.73 415.464 190.582 415.072 190.286 414.776C189.998 414.472 189.618 414.32 189.146 414.32C188.674 414.32 188.29 414.468 187.994 414.764C187.706 415.052 187.562 415.448 187.562 415.952V416.096C187.562 416.6 187.706 417 187.994 417.296C188.29 417.584 188.674 417.728 189.146 417.728ZM193.937 417.56H195.953V414.488H194.081V413.048H197.465V417.56H199.193V419H193.937V417.56ZM197.837 411.284C197.837 411.444 197.805 411.596 197.741 411.74C197.685 411.876 197.605 411.996 197.501 412.1C197.397 412.196 197.273 412.276 197.129 412.34C196.993 412.396 196.849 412.424 196.697 412.424C196.537 412.424 196.389 412.396 196.253 412.34C196.117 412.276 195.997 412.196 195.893 412.1C195.789 411.996 195.705 411.876 195.641 411.74C195.585 411.596 195.557 411.444 195.557 411.284C195.557 411.124 195.585 410.976 195.641 410.84C195.705 410.696 195.789 410.576 195.893 410.48C195.997 410.376 196.117 410.296 196.253 410.24C196.389 410.176 196.537 410.144 196.697 410.144C196.849 410.144 196.993 410.176 197.129 410.24C197.273 410.296 197.397 410.376 197.501 410.48C197.605 410.576 197.685 410.696 197.741 410.84C197.805 410.976 197.837 411.124 197.837 411.284ZM203.073 414.728C203.073 414.92 203.173 415.06 203.373 415.148C203.573 415.228 203.937 415.296 204.465 415.352C205.073 415.416 205.569 415.6 205.953 415.904C206.337 416.2 206.529 416.616 206.529 417.152V417.224C206.529 417.816 206.313 418.288 205.881 418.64C205.449 418.992 204.841 419.168 204.057 419.168C203.593 419.168 203.197 419.108 202.869 418.988C202.541 418.868 202.269 418.72 202.053 418.544C201.837 418.36 201.669 418.16 201.549 417.944C201.437 417.72 201.361 417.504 201.321 417.296L202.713 416.84C202.777 417.096 202.909 417.32 203.109 417.512C203.317 417.704 203.633 417.8 204.057 417.8C204.433 417.8 204.689 417.744 204.825 417.632C204.969 417.512 205.041 417.384 205.041 417.248C205.041 417.168 205.021 417.096 204.981 417.032C204.949 416.96 204.885 416.896 204.789 416.84C204.693 416.776 204.561 416.724 204.393 416.684C204.233 416.644 204.029 416.612 203.781 416.588C203.109 416.532 202.573 416.36 202.173 416.072C201.781 415.776 201.585 415.344 201.585 414.776V414.704C201.585 414.408 201.649 414.148 201.777 413.924C201.905 413.7 202.073 413.512 202.281 413.36C202.489 413.2 202.729 413.08 203.001 413C203.273 412.92 203.553 412.88 203.841 412.88C204.217 412.88 204.541 412.928 204.813 413.024C205.093 413.112 205.329 413.232 205.521 413.384C205.713 413.528 205.869 413.692 205.989 413.876C206.109 414.052 206.201 414.224 206.265 414.392L204.897 414.944C204.825 414.728 204.701 414.56 204.525 414.44C204.349 414.312 204.121 414.248 203.841 414.248C203.585 414.248 203.393 414.296 203.265 414.392C203.137 414.48 203.073 414.592 203.073 414.728ZM208.357 413.048H210.121V410.6H211.633V413.048H213.781V414.488H211.633V417.2C211.633 417.44 211.741 417.56 211.957 417.56H213.565V419H211.045C210.773 419 210.549 418.912 210.373 418.736C210.205 418.56 210.121 418.336 210.121 418.064V414.488H208.357V413.048ZM215.584 413.048H218.104V413.912H218.32C218.432 413.584 218.62 413.332 218.884 413.156C219.156 412.972 219.48 412.88 219.856 412.88C220.448 412.88 220.924 413.068 221.284 413.444C221.644 413.812 221.824 414.376 221.824 415.136V415.4L220.264 415.544V415.376C220.264 415.048 220.18 414.788 220.012 414.596C219.844 414.396 219.592 414.296 219.256 414.296C218.92 414.296 218.656 414.412 218.464 414.644C218.272 414.876 218.176 415.208 218.176 415.64V417.56H219.544V419H215.44V417.56H216.664V414.488H215.584V413.048ZM227.252 413.048H228.764V420.464C228.764 420.736 228.676 420.96 228.5 421.136C228.332 421.312 228.112 421.4 227.84 421.4H224.3V419.96H226.928C227.144 419.96 227.252 419.84 227.252 419.6V418.136H227.036C226.772 418.824 226.204 419.168 225.332 419.168C225.036 419.168 224.76 419.12 224.504 419.024C224.248 418.928 224.024 418.78 223.832 418.58C223.64 418.38 223.488 418.132 223.376 417.836C223.272 417.532 223.22 417.176 223.22 416.768V413.048H224.732V416.456C224.732 416.88 224.832 417.212 225.032 417.452C225.232 417.684 225.532 417.8 225.932 417.8C226.388 417.8 226.72 417.656 226.928 417.368C227.144 417.072 227.252 416.672 227.252 416.168V413.048Z" fill="black"/>
<rect x="306.813" y="374.868" width="116.88" height="62.6084" rx="11" stroke="black" stroke-width="2"/>
<path d="M332.979 402.096C332.885 401.796 332.66 401.543 332.369 401.393L326.597 398.631C326.447 398.556 326.279 398.538 326.119 398.538C325.969 398.538 325.801 398.538 325.641 398.575L319.878 401.356C319.597 401.487 319.382 401.73 319.307 402.058L317.892 408.275C317.836 408.593 317.911 408.921 318.098 409.183L322.09 414.127C322.315 414.352 322.643 414.501 322.961 414.52H329.324C329.661 414.558 329.989 414.408 330.195 414.127L334.187 409.193C334.375 408.93 334.45 408.603 334.412 408.284L332.979 402.096Z" fill="#326DE6"/>
<path d="M332.088 408.032C332.069 408.032 332.051 408.032 332.051 408.013C332.051 407.994 332.013 407.994 331.976 407.994C331.901 407.975 331.826 407.975 331.751 407.975C331.713 407.975 331.676 407.975 331.638 407.957H331.62C331.413 407.938 331.188 407.9 330.973 407.844C330.917 407.826 330.86 407.769 330.842 407.713C330.86 407.713 330.842 407.713 330.842 407.713L330.692 407.676C330.767 407.123 330.729 406.562 330.617 406.009C330.486 405.457 330.261 404.932 329.952 404.455L330.064 404.343V404.324C330.064 404.268 330.083 404.193 330.12 404.155C330.289 404.005 330.458 403.893 330.654 403.781C330.692 403.762 330.729 403.743 330.767 403.725C330.842 403.687 330.898 403.65 330.973 403.612C330.992 403.593 331.01 403.593 331.029 403.575C331.048 403.556 331.029 403.556 331.029 403.537C331.198 403.406 331.235 403.182 331.104 403.004C331.048 402.929 330.935 402.873 330.842 402.873C330.748 402.873 330.654 402.91 330.579 402.966L330.561 402.985C330.542 403.004 330.523 403.022 330.504 403.022C330.448 403.079 330.392 403.135 330.354 403.191C330.336 403.228 330.298 403.247 330.28 403.266C330.148 403.416 329.98 403.565 329.802 403.678C329.764 403.696 329.727 403.715 329.689 403.715C329.67 403.715 329.633 403.715 329.614 403.696H329.586L329.436 403.79C329.286 403.64 329.118 403.491 328.958 403.341C328.255 402.788 327.384 402.451 326.494 402.358L326.475 402.208V402.227C326.419 402.189 326.4 402.133 326.381 402.077C326.381 401.871 326.381 401.665 326.419 401.431V401.412C326.419 401.374 326.438 401.337 326.438 401.3C326.456 401.225 326.456 401.15 326.475 401.075V400.963C326.494 400.775 326.344 400.588 326.156 400.569C326.053 400.541 325.932 400.597 325.838 400.691C325.763 400.766 325.725 400.86 325.725 400.953V401.047C325.725 401.122 325.744 401.197 325.763 401.271C325.782 401.309 325.782 401.346 325.782 401.384V401.403C325.819 401.609 325.819 401.815 325.819 402.049C325.8 402.105 325.782 402.161 325.725 402.198V402.236L325.707 402.386C325.5 402.404 325.294 402.442 325.06 402.479C324.17 402.667 323.355 403.144 322.736 403.799L322.624 403.725H322.605C322.586 403.725 322.567 403.743 322.53 403.743C322.492 403.743 322.455 403.725 322.418 403.706C322.249 403.575 322.08 403.425 321.94 403.275C321.921 403.238 321.883 403.219 321.865 403.2C321.808 403.144 321.771 403.088 321.715 403.032C321.696 403.013 321.677 403.013 321.658 402.994C321.64 402.976 321.64 402.976 321.64 402.976C321.565 402.919 321.471 402.882 321.377 402.882C321.265 402.882 321.171 402.919 321.115 403.013C321.003 403.182 321.04 403.406 321.19 403.547C321.209 403.547 321.209 403.565 321.209 403.565C321.209 403.565 321.246 403.603 321.265 403.603C321.321 403.64 321.396 403.678 321.471 403.715C321.509 403.734 321.546 403.753 321.584 403.771C321.771 403.884 321.958 403.996 322.118 404.146C322.155 404.183 322.193 404.258 322.174 404.314V404.296L322.286 404.408C322.268 404.446 322.249 404.464 322.23 404.502C321.64 405.429 321.396 406.524 321.565 407.601L321.415 407.638C321.415 407.657 321.396 407.657 321.396 407.657C321.377 407.713 321.321 407.751 321.265 407.788C321.059 407.844 320.853 407.882 320.618 407.9C320.581 407.9 320.543 407.9 320.506 407.919C320.431 407.919 320.356 407.938 320.281 407.938C320.262 407.938 320.244 407.957 320.206 407.957C320.187 407.957 320.187 407.957 320.169 407.975C319.962 408.013 319.831 408.2 319.869 408.406C319.906 408.575 320.075 408.687 320.244 408.668C320.281 408.668 320.3 408.668 320.337 408.649C320.356 408.649 320.356 408.649 320.356 408.631C320.356 408.612 320.412 408.631 320.431 408.631C320.506 408.612 320.581 408.575 320.637 408.556C320.675 408.537 320.712 408.518 320.75 408.518H320.768C320.974 408.443 321.162 408.387 321.396 408.35H321.415C321.471 408.35 321.527 408.369 321.565 408.406C321.584 408.406 321.584 408.425 321.584 408.425L321.752 408.406C322.033 409.277 322.567 410.054 323.308 410.616C323.476 410.747 323.626 410.859 323.823 410.953L323.729 411.084C323.729 411.103 323.748 411.103 323.748 411.103C323.786 411.159 323.786 411.234 323.767 411.29C323.692 411.477 323.579 411.664 323.467 411.842V411.861C323.448 411.898 323.43 411.917 323.392 411.955C323.355 411.992 323.317 412.067 323.261 412.142C323.242 412.161 323.242 412.179 323.223 412.198C323.223 412.198 323.223 412.217 323.205 412.217C323.111 412.404 323.186 412.629 323.355 412.732C323.392 412.75 323.448 412.769 323.486 412.769C323.636 412.769 323.767 412.676 323.842 412.544C323.842 412.544 323.842 412.526 323.861 412.526C323.861 412.507 323.879 412.488 323.898 412.47C323.917 412.395 323.954 412.338 323.973 412.264L324.011 412.151C324.067 411.945 324.16 411.758 324.254 411.561C324.292 411.505 324.348 411.468 324.404 411.449C324.423 411.449 324.423 411.449 324.423 411.43L324.498 411.28C325.032 411.486 325.575 411.58 326.147 411.58C326.484 411.58 326.831 411.543 327.168 411.449C327.375 411.412 327.581 411.337 327.778 411.28L327.853 411.412C327.871 411.412 327.871 411.412 327.871 411.43C327.927 411.449 327.984 411.486 328.021 411.543C328.115 411.73 328.209 411.917 328.265 412.132V412.151L328.302 412.264C328.321 412.338 328.34 412.413 328.377 412.47C328.396 412.488 328.396 412.507 328.415 412.526C328.415 412.526 328.415 412.544 328.433 412.544C328.508 412.676 328.64 412.769 328.79 412.769C328.846 412.769 328.883 412.75 328.94 412.732C329.014 412.694 329.089 412.619 329.108 412.526C329.127 412.432 329.127 412.338 329.089 412.245C329.089 412.226 329.071 412.226 329.071 412.226C329.071 412.207 329.052 412.189 329.033 412.17C328.996 412.095 328.958 412.039 328.902 411.983C328.883 411.945 328.865 411.927 328.827 411.889V411.852C328.696 411.683 328.602 411.496 328.527 411.299C328.508 411.243 328.508 411.168 328.546 411.112C328.546 411.093 328.565 411.093 328.565 411.093L328.508 410.943C329.474 410.354 330.214 409.445 330.551 408.369L330.701 408.387C330.72 408.387 330.72 408.369 330.72 408.369C330.757 408.331 330.814 408.312 330.87 408.312H330.889C331.095 408.35 331.301 408.406 331.498 408.481H331.516C331.554 408.5 331.591 408.518 331.629 408.518C331.704 408.556 331.76 408.593 331.835 408.612C331.854 408.612 331.873 408.631 331.91 408.631C331.929 408.631 331.929 408.631 331.947 408.649C331.985 408.668 332.004 408.668 332.041 408.668C332.21 408.668 332.36 408.556 332.416 408.406C332.407 408.219 332.257 408.069 332.088 408.032ZM326.616 407.442L326.1 407.685L325.585 407.442L325.463 406.899L325.819 406.449H326.391L326.747 406.899L326.616 407.442ZM329.699 406.215C329.792 406.608 329.811 407.011 329.773 407.404L327.974 406.889C327.806 406.852 327.712 406.683 327.749 406.515C327.768 406.459 327.787 406.421 327.824 406.384L329.249 405.101C329.455 405.438 329.605 405.822 329.699 406.215ZM328.677 404.399L327.131 405.494C327 405.569 326.812 405.55 326.719 405.419C326.681 405.382 326.662 405.344 326.662 405.288L326.55 403.378C327.375 403.472 328.115 403.837 328.677 404.399ZM325.257 403.434L325.632 403.359L325.538 405.251C325.538 405.419 325.388 405.55 325.219 405.55C325.163 405.55 325.126 405.532 325.069 405.513L323.495 404.399C323.982 403.931 324.592 403.584 325.257 403.434ZM322.942 405.101L324.338 406.346C324.47 406.459 324.488 406.646 324.376 406.777C324.338 406.833 324.301 406.852 324.226 406.871L322.389 407.404C322.343 406.618 322.53 405.803 322.942 405.101ZM322.624 408.294L324.498 407.975C324.648 407.975 324.798 408.069 324.816 408.219C324.835 408.275 324.835 408.35 324.798 408.406L324.085 410.148C323.42 409.717 322.886 409.052 322.624 408.294ZM326.925 410.644C326.662 410.7 326.391 410.737 326.11 410.737C325.716 410.737 325.294 410.663 324.919 410.55L325.847 408.865C325.941 408.752 326.091 408.715 326.222 408.79C326.278 408.827 326.316 408.865 326.372 408.921L327.281 410.569C327.168 410.588 327.056 410.606 326.925 410.644ZM329.23 408.996C328.949 409.445 328.546 409.848 328.096 410.129L327.356 408.35C327.318 408.2 327.393 408.05 327.525 407.994C327.581 407.975 327.637 407.957 327.693 407.957L329.586 408.275C329.492 408.546 329.38 408.79 329.23 408.996Z" fill="white"/>
<path d="M409.584 410.363C409.846 410.382 410.137 410.344 410.381 410.251C410.53 410.176 410.624 410.007 410.605 409.839C410.587 409.652 410.474 409.483 410.306 409.427C410.024 409.258 409.696 409.109 409.378 409.015C409.059 408.903 408.769 408.771 408.506 408.64C408.263 408.528 408.057 408.378 407.841 408.191C407.654 408.004 407.522 407.798 407.429 407.545C407.316 407.264 407.279 406.955 407.279 406.655C407.26 406.028 407.541 405.429 408.038 405.045C408.553 404.652 409.228 404.455 410.099 404.455C410.512 404.455 410.952 404.493 411.364 404.586C411.683 404.642 412.011 404.717 412.33 404.83L411.974 406.44C411.711 406.346 411.458 406.29 411.196 406.215C410.896 406.14 410.568 406.122 410.268 406.122C409.622 406.122 409.303 406.29 409.303 406.655C409.303 406.73 409.322 406.805 409.34 406.88C409.378 406.955 409.434 407.011 409.509 407.067C409.584 407.124 409.696 407.18 409.828 407.255C409.959 407.33 410.146 407.404 410.381 407.479C410.755 407.61 411.14 407.779 411.477 407.976C411.739 408.107 411.974 408.275 412.161 408.509C412.33 408.678 412.442 408.884 412.517 409.137C412.592 409.399 412.63 409.67 412.63 409.932C412.667 410.579 412.367 411.196 411.814 411.562C411.28 411.917 410.53 412.114 409.547 412.114C408.994 412.133 408.469 412.077 407.935 411.946C407.635 411.871 407.344 411.777 407.063 411.683L407.401 410.017C407.738 410.148 408.103 410.26 408.46 410.335C408.844 410.316 409.209 410.363 409.584 410.363ZM399.154 408.275C399.136 407.704 399.248 407.142 399.436 406.609C399.604 406.159 399.867 405.757 400.213 405.401C400.532 405.082 400.897 404.83 401.31 404.68C401.722 404.511 402.162 404.436 402.594 404.436C403.615 404.436 404.43 404.755 405.021 405.382C405.611 406.009 405.911 406.936 405.911 408.144C405.911 408.257 405.911 408.388 405.892 408.537C405.892 408.687 405.873 408.8 405.873 408.912H401.254C401.291 409.305 401.497 409.689 401.844 409.914C402.256 410.176 402.753 410.307 403.24 410.288C403.596 410.288 403.98 410.251 404.336 410.195C404.636 410.138 404.946 410.045 405.227 409.914L405.508 411.58C405.377 411.655 405.227 411.693 405.077 411.749C404.871 411.805 404.664 411.861 404.449 411.88C404.224 411.917 403.999 411.955 403.727 411.992C403.484 412.011 403.212 412.03 402.95 412.03C402.359 412.048 401.797 411.955 401.244 411.749C400.794 411.58 400.391 411.318 400.054 410.972C399.735 410.635 399.501 410.213 399.351 409.783C399.229 409.277 399.154 408.771 399.154 408.275ZM403.943 407.498C403.943 407.33 403.905 407.161 403.849 406.983C403.812 406.815 403.718 406.684 403.624 406.552C403.512 406.421 403.381 406.309 403.231 406.234C403.043 406.14 402.856 406.103 402.64 406.103C402.434 406.103 402.247 406.14 402.05 406.234C401.9 406.309 401.75 406.403 401.638 406.534C401.525 406.665 401.432 406.815 401.375 406.983C401.319 407.152 401.282 407.32 401.263 407.498H403.943ZM393.607 402.817L395.65 402.498V404.614H398.114V406.309H395.65V408.846C395.631 409.202 395.706 409.567 395.875 409.867C396.025 410.11 396.325 410.241 396.802 410.241C397.027 410.241 397.252 410.223 397.468 410.185C397.693 410.148 397.899 410.092 398.114 410.017L398.395 411.608C398.133 411.721 397.843 411.796 397.561 411.871C397.205 411.946 396.821 411.983 396.446 411.983C395.968 412.002 395.5 411.927 395.069 411.758C394.732 411.627 394.422 411.402 394.197 411.131C393.973 410.85 393.823 410.504 393.72 410.148C393.626 409.736 393.588 409.296 393.607 408.884V402.817ZM385.333 408.275C385.314 407.704 385.426 407.142 385.614 406.609C385.783 406.159 386.045 405.757 386.392 405.401C386.71 405.082 387.076 404.83 387.488 404.68C387.9 404.511 388.341 404.436 388.772 404.436C389.793 404.436 390.608 404.755 391.199 405.382C391.789 406.009 392.089 406.936 392.089 408.144C392.089 408.257 392.089 408.388 392.07 408.537C392.052 408.687 392.052 408.8 392.052 408.912H387.413C387.451 409.305 387.657 409.689 388.003 409.914C388.416 410.176 388.912 410.307 389.4 410.288C389.756 410.288 390.14 410.251 390.496 410.195C390.796 410.138 391.105 410.045 391.405 409.914L391.686 411.58C391.555 411.655 391.405 411.693 391.255 411.749C391.049 411.805 390.843 411.861 390.627 411.88C390.402 411.917 390.177 411.955 389.906 411.992C389.662 412.011 389.39 412.03 389.128 412.03C388.538 412.048 387.975 411.955 387.422 411.749C386.973 411.58 386.57 411.318 386.232 410.972C385.914 410.635 385.679 410.213 385.53 409.783C385.389 409.277 385.314 408.771 385.333 408.275ZM390.121 407.498C390.121 407.33 390.084 407.161 390.027 406.983C389.99 406.815 389.896 406.684 389.803 406.552C389.69 406.421 389.559 406.309 389.409 406.234C389.222 406.14 389.034 406.103 388.819 406.103C388.603 406.103 388.425 406.14 388.228 406.234C388.078 406.309 387.947 406.403 387.835 406.534C387.722 406.665 387.629 406.815 387.572 406.983C387.516 407.152 387.479 407.32 387.46 407.498H390.121ZM377.574 404.858C378.005 404.745 378.464 404.652 378.914 404.577C379.485 404.483 380.066 404.446 380.638 404.446C381.153 404.427 381.659 404.521 382.156 404.689C382.531 404.82 382.878 405.045 383.121 405.354C383.365 405.654 383.534 406.019 383.637 406.393C383.749 406.824 383.787 407.283 383.787 407.732V411.796H381.763V407.994C381.763 407.33 381.669 406.88 381.5 406.599C381.331 406.337 381.003 406.187 380.535 406.187C380.385 406.187 380.235 406.187 380.057 406.206C379.888 406.206 379.757 406.225 379.626 406.243V411.805H377.583L377.574 404.858ZM376.14 406.421C375.953 406.384 375.747 406.328 375.494 406.29C375.231 406.234 374.959 406.215 374.697 406.215C374.547 406.215 374.397 406.234 374.219 406.253C374.088 406.272 373.957 406.29 373.826 406.328V411.833H371.783V404.989C372.195 404.839 372.635 404.727 373.067 404.633C373.619 404.502 374.182 404.446 374.735 404.465C374.866 404.465 374.997 404.483 375.128 404.483C375.278 404.483 375.428 404.502 375.606 404.539C375.756 404.558 375.906 404.577 376.084 404.614C376.215 404.633 376.346 404.671 376.477 404.727L376.14 406.421ZM363.433 408.275C363.415 407.704 363.527 407.142 363.715 406.609C363.883 406.159 364.146 405.757 364.492 405.401C364.811 405.082 365.176 404.83 365.589 404.68C366.001 404.511 366.441 404.436 366.873 404.436C367.894 404.436 368.709 404.755 369.3 405.382C369.89 406.009 370.19 406.936 370.19 408.125C370.19 408.238 370.19 408.369 370.171 408.519C370.152 408.668 370.152 408.781 370.152 408.893H365.514C365.551 409.286 365.757 409.67 366.104 409.895C366.516 410.157 367.013 410.288 367.5 410.27C367.856 410.27 368.241 410.232 368.597 410.176C368.897 410.12 369.206 410.026 369.487 409.914L369.768 411.58C369.637 411.655 369.487 411.693 369.337 411.749C369.131 411.805 368.925 411.861 368.709 411.88C368.484 411.917 368.259 411.955 367.988 411.992C367.744 412.011 367.472 412.03 367.21 412.03C366.62 412.048 366.057 411.955 365.504 411.749C365.055 411.58 364.652 411.318 364.314 410.972C363.996 410.635 363.761 410.213 363.612 409.783C363.508 409.277 363.433 408.79 363.433 408.275ZM368.241 407.498C368.241 407.33 368.203 407.161 368.147 406.983C368.109 406.815 368.016 406.684 367.922 406.552C367.81 406.421 367.678 406.309 367.528 406.234C367.341 406.14 367.154 406.103 366.938 406.103C366.723 406.103 366.545 406.14 366.348 406.234C366.198 406.309 366.048 406.403 365.935 406.534C365.823 406.665 365.729 406.815 365.673 406.983C365.617 407.152 365.579 407.32 365.561 407.498H368.241ZM360.126 408.163C360.126 406.843 359.629 406.197 358.664 406.197C358.458 406.197 358.251 406.215 358.036 406.272C357.867 406.309 357.699 406.384 357.539 406.478V410.185C357.633 410.204 357.764 410.223 357.914 410.241C358.064 410.26 358.233 410.26 358.43 410.26C358.926 410.298 359.395 410.092 359.695 409.689C359.994 409.24 360.144 408.715 360.126 408.163ZM362.206 408.238C362.206 408.771 362.131 409.296 361.944 409.811C361.794 410.26 361.55 410.663 361.222 411C360.885 411.337 360.482 411.608 360.051 411.777C359.535 411.964 359.011 412.039 358.458 412.039C358.214 412.039 357.942 412.02 357.68 412.002C357.418 411.983 357.146 411.946 356.883 411.927C356.64 411.889 356.387 411.852 356.143 411.796C355.899 411.758 355.693 411.702 355.515 411.627V401.506L357.558 401.188V404.783C357.783 404.689 358.036 404.614 358.28 404.558C358.542 404.502 358.814 404.483 359.076 404.483C359.554 404.483 360.004 404.558 360.435 404.764C360.81 404.933 361.156 405.195 361.419 405.523C361.7 405.878 361.915 406.281 362.028 406.712C362.15 407.18 362.206 407.713 362.206 408.238ZM353.576 411.571C353.144 411.683 352.685 411.777 352.236 411.833C351.664 411.927 351.083 411.964 350.511 411.964C349.977 411.983 349.471 411.889 348.975 411.721C348.6 411.571 348.272 411.346 348.009 411.037C347.766 410.719 347.597 410.354 347.494 409.961C347.382 409.53 347.344 409.052 347.344 408.603V404.605H349.387V408.369C349.387 409.034 349.481 409.502 349.649 409.792C349.818 410.073 350.146 410.223 350.614 410.223C350.764 410.223 350.914 410.223 351.092 410.204C351.261 410.185 351.392 410.185 351.523 410.148V404.605H353.576V411.571ZM341.647 407.217C341.853 406.993 342.04 406.768 342.274 406.534C342.481 406.29 342.687 406.056 342.902 405.832C343.108 405.588 343.296 405.382 343.474 405.167C343.643 404.961 343.811 404.774 343.952 404.614H346.36C345.863 405.167 345.395 405.71 344.936 406.225C344.458 406.74 343.971 407.264 343.418 407.798C343.718 408.079 344.008 408.369 344.27 408.687C344.552 409.024 344.842 409.371 345.123 409.745C345.386 410.101 345.657 410.485 345.882 410.841C346.107 411.196 346.295 411.543 346.454 411.843H344.111C343.961 411.599 343.793 411.346 343.596 411.065C343.408 410.785 343.202 410.494 343.005 410.195C342.799 409.914 342.574 409.623 342.321 409.361C342.115 409.118 341.89 408.884 341.637 408.697V411.852H339.594V401.506L341.637 401.188L341.647 407.217Z" fill="black"/>
<rect x="90.9519" y="357.139" width="380.62" height="99.7892" stroke="black" stroke-dasharray="8 8"/>
<path d="M305.813 406.603L295.813 400.829L295.813 412.376L305.813 406.603ZM258.434 407.603L296.813 407.603L296.813 405.603L258.434 405.603L258.434 407.603Z" fill="black"/>
<path d="M282.554 99.0662L288.328 89.0662L276.781 89.0662L282.554 99.0662ZM281.554 64.6084L281.554 90.0662L283.554 90.0662L283.554 64.6084L281.554 64.6084Z" fill="black"/>
<path d="M282.554 198.133L288.328 188.133L276.781 188.133L282.554 198.133ZM281.554 163.675L281.554 189.133L283.554 189.133L283.554 163.675L281.554 163.675Z" fill="black"/>
<path d="M532.373 246.374L538.147 236.374L526.6 236.374L532.373 246.374ZM532.373 130.94L533.373 130.94L533.373 129.94L532.373 129.94L532.373 130.94ZM341.994 131.94L532.373 131.94L532.373 129.94L341.994 129.94L341.994 131.94ZM531.373 130.94L531.373 237.374L533.373 237.374L533.373 130.94L531.373 130.94Z" fill="black"/>
<path d="M223.114 32.735L213.114 26.9615L213.114 38.5085L223.114 32.735ZM32.7349 32.7351L32.7349 31.7351L31.7349 31.7351L31.7349 32.7351L32.7349 32.7351ZM33.7349 246.374L33.7349 32.7351L31.7349 32.7351L31.7349 246.374L33.7349 246.374ZM32.7349 33.7351L214.114 33.735L214.114 31.735L32.7349 31.7351L32.7349 33.7351Z" fill="black"/>
<path d="M472.072 406.603L482.072 400.829L482.072 412.376L472.072 406.603ZM532.373 288.584L538.147 298.584L526.6 298.584L532.373 288.584ZM532.373 406.603L533.373 406.603L533.373 407.603L532.373 407.603L532.373 406.603ZM481.072 405.603L532.373 405.603L532.373 407.603L481.072 407.603L481.072 405.603ZM531.373 406.603L531.373 297.584L533.373 297.584L533.373 406.603L531.373 406.603Z" fill="black"/>
<path d="M90.4519 406.603L80.4519 400.829L80.4519 412.376L90.4519 406.603ZM30.1507 288.584L24.3772 298.584L35.9242 298.584L30.1507 288.584ZM30.1507 406.603L29.1507 406.603L29.1507 407.603L30.1507 407.603L30.1507 406.603ZM85.9293 405.603L82.9143 405.603L82.9143 407.603L85.9293 407.603L85.9293 405.603ZM79.8992 405.603L76.8841 405.603L76.8841 407.603L79.8992 407.603L79.8992 405.603ZM73.8691 405.603L70.854 405.603L70.854 407.603L73.8691 407.603L73.8691 405.603ZM67.839 405.603L64.8239 405.603L64.8239 407.603L67.839 407.603L67.839 405.603ZM61.8088 405.603L58.7938 405.603L58.7938 407.603L61.8088 407.603L61.8088 405.603ZM55.7787 405.603L52.7637 405.603L52.7637 407.603L55.7787 407.603L55.7787 405.603ZM49.7486 405.603L46.7335 405.603L46.7335 407.603L49.7486 407.603L49.7486 405.603ZM43.7185 405.603L40.7034 405.603L40.7034 407.603L43.7185 407.603L43.7185 405.603ZM37.6884 405.603L34.6733 405.603L34.6733 407.603L37.6884 407.603L37.6884 405.603ZM31.6582 405.603L30.1507 405.603L30.1507 407.603L31.6582 407.603L31.6582 405.603ZM31.1507 406.603L31.1507 405.127L29.1507 405.127L29.1507 406.603L31.1507 406.603ZM31.1507 402.177L31.1507 399.226L29.1507 399.226L29.1507 402.177L31.1507 402.177ZM31.1507 396.276L31.1507 393.326L29.1507 393.326L29.1507 396.276L31.1507 396.276ZM31.1507 390.375L31.1507 387.425L29.1507 387.425L29.1507 390.375L31.1507 390.375ZM31.1507 384.474L31.1507 381.524L29.1507 381.524L29.1507 384.474L31.1507 384.474ZM31.1507 378.573L31.1507 375.623L29.1507 375.623L29.1507 378.573L31.1507 378.573ZM31.1507 372.672L31.1507 369.722L29.1507 369.722L29.1507 372.672L31.1507 372.672ZM31.1507 366.771L31.1507 363.821L29.1507 363.821L29.1507 366.771L31.1507 366.771ZM31.1507 360.871L31.1507 357.92L29.1507 357.92L29.1507 360.871L31.1507 360.871ZM31.1507 354.97L31.1507 352.019L29.1507 352.019L29.1507 354.97L31.1507 354.97ZM31.1507 349.069L31.1507 346.118L29.1507 346.118L29.1507 349.069L31.1507 349.069ZM31.1507 343.168L31.1507 340.217L29.1507 340.217L29.1507 343.168L31.1507 343.168ZM31.1507 337.267L31.1507 334.316L29.1507 334.316L29.1507 337.267L31.1507 337.267ZM31.1507 331.366L31.1507 328.416L29.1507 328.416L29.1507 331.366L31.1507 331.366ZM31.1507 325.465L31.1507 322.515L29.1507 322.515L29.1507 325.465L31.1507 325.465ZM31.1507 319.564L31.1507 316.614L29.1507 316.614L29.1507 319.564L31.1507 319.564ZM31.1507 313.663L31.1507 310.713L29.1507 310.713L29.1507 313.663L31.1507 313.663ZM31.1507 307.762L31.1507 304.812L29.1507 304.812L29.1507 307.762L31.1507 307.762ZM31.1507 301.861L31.1507 298.911L29.1507 298.911L29.1507 301.861L31.1507 301.861ZM31.1507 295.961L31.1507 293.01L29.1507 293.01L29.1507 295.961L31.1507 295.961Z" fill="black"/>
<path d="M297.199 356.638L302.972 346.638L291.425 346.638L297.199 356.638ZM296.199 322.181L296.199 347.638L298.199 347.638L298.199 322.181L296.199 322.181Z" fill="black"/>
<path d="M270.494 322.181L264.72 332.181L276.267 332.181L270.494 322.181ZM271.494 356.639L271.494 331.181L269.494 331.181L269.494 356.639L271.494 356.639Z" fill="black"/>
<path d="M24.8343 268.527C24.6983 269.231 24.3743 269.799 23.8623 270.231C23.3583 270.663 22.6823 270.879 21.8343 270.879C21.3943 270.879 20.9823 270.811 20.5983 270.675C20.2223 270.539 19.8943 270.343 19.6143 270.087C19.3343 269.831 19.1143 269.515 18.9543 269.139C18.7943 268.763 18.7143 268.335 18.7143 267.855V267.711C18.7143 267.231 18.7943 266.799 18.9543 266.415C19.1143 266.031 19.3343 265.703 19.6143 265.431C19.9023 265.159 20.2343 264.951 20.6103 264.807C20.9943 264.663 21.4023 264.591 21.8343 264.591C22.6663 264.591 23.3383 264.807 23.8503 265.239C24.3703 265.671 24.6983 266.239 24.8343 266.943L23.3463 267.327C23.2983 266.975 23.1463 266.671 22.8903 266.415C22.6343 266.159 22.2743 266.031 21.8103 266.031C21.5943 266.031 21.3903 266.071 21.1983 266.151C21.0063 266.231 20.8383 266.347 20.6943 266.499C20.5503 266.643 20.4343 266.823 20.3463 267.039C20.2663 267.247 20.2263 267.483 20.2263 267.747V267.819C20.2263 268.083 20.2663 268.319 20.3463 268.527C20.4343 268.727 20.5503 268.895 20.6943 269.031C20.8383 269.167 21.0063 269.271 21.1983 269.343C21.3903 269.407 21.5943 269.439 21.8103 269.439C22.2743 269.439 22.6263 269.323 22.8663 269.091C23.1143 268.859 23.2743 268.547 23.3463 268.155L24.8343 268.527ZM32.206 267.807C32.206 268.303 32.122 268.743 31.954 269.127C31.786 269.503 31.558 269.823 31.27 270.087C30.982 270.343 30.65 270.539 30.274 270.675C29.906 270.811 29.518 270.879 29.11 270.879C28.702 270.879 28.31 270.811 27.934 270.675C27.566 270.539 27.238 270.343 26.95 270.087C26.662 269.823 26.434 269.503 26.266 269.127C26.098 268.743 26.014 268.303 26.014 267.807V267.663C26.014 267.175 26.098 266.743 26.266 266.367C26.434 265.983 26.662 265.659 26.95 265.395C27.238 265.131 27.566 264.931 27.934 264.795C28.31 264.659 28.702 264.591 29.11 264.591C29.518 264.591 29.906 264.659 30.274 264.795C30.65 264.931 30.982 265.131 31.27 265.395C31.558 265.659 31.786 265.983 31.954 266.367C32.122 266.743 32.206 267.175 32.206 267.663V267.807ZM29.11 269.439C29.326 269.439 29.53 269.403 29.722 269.331C29.914 269.259 30.082 269.155 30.226 269.019C30.37 268.883 30.482 268.719 30.562 268.527C30.65 268.327 30.694 268.103 30.694 267.855V267.615C30.694 267.367 30.65 267.147 30.562 266.955C30.482 266.755 30.37 266.587 30.226 266.451C30.082 266.315 29.914 266.211 29.722 266.139C29.53 266.067 29.326 266.031 29.11 266.031C28.894 266.031 28.69 266.067 28.498 266.139C28.306 266.211 28.138 266.315 27.994 266.451C27.85 266.587 27.734 266.755 27.646 266.955C27.566 267.147 27.526 267.367 27.526 267.615V267.855C27.526 268.103 27.566 268.327 27.646 268.527C27.734 268.719 27.85 268.883 27.994 269.019C28.138 269.155 28.306 269.259 28.498 269.331C28.69 269.403 28.894 269.439 29.11 269.439ZM37.9936 269.847H37.7776C37.7136 269.983 37.6336 270.115 37.5376 270.243C37.4496 270.363 37.3296 270.471 37.1776 270.567C37.0336 270.663 36.8576 270.739 36.6496 270.795C36.4496 270.851 36.2056 270.879 35.9176 270.879C35.5496 270.879 35.2056 270.815 34.8856 270.687C34.5736 270.551 34.2976 270.355 34.0576 270.099C33.8256 269.835 33.6416 269.515 33.5056 269.139C33.3776 268.763 33.3136 268.331 33.3136 267.843V267.627C33.3136 267.147 33.3816 266.719 33.5176 266.343C33.6616 265.967 33.8536 265.651 34.0936 265.395C34.3416 265.131 34.6256 264.931 34.9456 264.795C35.2736 264.659 35.6176 264.591 35.9776 264.591C36.4576 264.591 36.8376 264.683 37.1176 264.867C37.3976 265.043 37.6176 265.295 37.7776 265.623H37.9936V262.311H39.5056V270.711H37.9936V269.847ZM36.4096 269.439C36.8816 269.439 37.2616 269.291 37.5496 268.995C37.8456 268.691 37.9936 268.295 37.9936 267.807V267.663C37.9936 267.175 37.8456 266.783 37.5496 266.487C37.2616 266.183 36.8816 266.031 36.4096 266.031C35.9376 266.031 35.5536 266.179 35.2576 266.475C34.9696 266.763 34.8256 267.159 34.8256 267.663V267.807C34.8256 268.311 34.9696 268.711 35.2576 269.007C35.5536 269.295 35.9376 269.439 36.4096 269.439ZM42.4013 268.227C42.4093 268.403 42.4493 268.567 42.5213 268.719C42.6013 268.863 42.7053 268.991 42.8333 269.103C42.9693 269.207 43.1213 269.291 43.2893 269.355C43.4653 269.411 43.6493 269.439 43.8413 269.439C44.2173 269.439 44.5053 269.375 44.7053 269.247C44.9053 269.111 45.0493 268.951 45.1373 268.767L46.4333 269.487C46.3613 269.639 46.2613 269.799 46.1333 269.967C46.0053 270.127 45.8373 270.275 45.6293 270.411C45.4293 270.547 45.1813 270.659 44.8853 270.747C44.5973 270.835 44.2573 270.879 43.8653 270.879C43.4173 270.879 43.0093 270.807 42.6413 270.663C42.2733 270.519 41.9533 270.311 41.6813 270.039C41.4173 269.767 41.2093 269.435 41.0573 269.043C40.9133 268.651 40.8413 268.207 40.8413 267.711V267.639C40.8413 267.183 40.9173 266.767 41.0693 266.391C41.2293 266.015 41.4453 265.695 41.7173 265.431C41.9893 265.167 42.3053 264.963 42.6653 264.819C43.0333 264.667 43.4253 264.591 43.8413 264.591C44.3533 264.591 44.7933 264.683 45.1613 264.867C45.5293 265.043 45.8333 265.271 46.0733 265.551C46.3133 265.823 46.4893 266.127 46.6013 266.463C46.7133 266.791 46.7693 267.111 46.7693 267.423V268.227H42.4013ZM43.8293 265.959C43.4453 265.959 43.1333 266.059 42.8933 266.259C42.6533 266.451 42.4973 266.675 42.4253 266.931H45.2333C45.1853 266.651 45.0333 266.419 44.7773 266.235C44.5293 266.051 44.2133 265.959 43.8293 265.959Z" fill="#0066FF"/>
<rect x="1" y="246.512" width="64.3313" height="41.0723" stroke="#0066FF" stroke-width="2"/>
<circle cx="60.7319" cy="285.569" r="12.491" fill="#0066FF"/>
<path fill-rule="evenodd" clip-rule="evenodd" d="M64.9585 284.924L65.5208 286.488L66.502 284.924H64.9585ZM64.8561 281.541V284.434H66.5211L64.8561 281.541ZM64.3298 283.175V280.838H63.4898L64.3298 283.175ZM62.498 278.08L63.3136 280.348H64.1694L62.7804 277.935L62.5703 278.043L62.498 278.08ZM61.3514 290.679H62.5999L62.1289 289.871L61.9728 290.029C61.7875 290.239 61.5811 290.456 61.3514 290.679ZM60.7402 289.942L60.7613 285.229C60.6269 285.302 60.4337 285.415 60.2064 285.562C60.2279 286.144 60.3282 288.126 60.7402 289.942ZM59.3157 286.209C59.3348 286.582 59.4539 287.92 60.1943 289.377C59.9273 287.95 59.8301 286.537 59.7963 285.843C59.6323 285.961 59.472 286.083 59.3157 286.209ZM58.86 290.679H60.1593L60.0601 290.57C59.8162 290.328 59.5841 290.076 59.3647 289.814L58.86 290.679ZM58.4446 287.019C58.4914 287.281 58.8569 288.273 59.765 289.453C59.167 288.245 58.9773 287.14 58.9177 286.551C58.7527 286.7 58.595 286.856 58.4446 287.019ZM59.1011 284.589V285.709C59.3123 285.54 59.5328 285.38 59.7619 285.232C60.3443 284.83 60.5814 284.748 60.7309 284.739H60.7301V284.589H59.1011ZM54.958 284.924L56.0069 286.596L56.7288 284.924H54.958ZM56.8553 282.269L55.0389 284.434H56.855L56.8553 282.269ZM57.3819 281.642V283.412L58.6592 280.453L58.4885 280.323L57.3819 281.642ZM65.8683 286.907H66.9259L67.1892 287.152V290.924L66.9259 291.169H54.534L54.271 290.924V287.152L54.534 286.907H55.592L54.2721 284.803L54.2916 284.529L58.2398 279.823L58.5983 279.786L58.605 279.778L60.3787 281.016L60.0627 281.409L59.1038 280.739L56.343 287.132L58.4091 290.425L59.0207 289.377C57.9847 287.976 57.9093 287.011 57.9056 286.957L57.9672 286.784C58.1603 286.571 58.3629 286.365 58.5745 286.167V284.344L58.8381 284.099H62.6222L62.8855 284.344V286.11C63.1009 286.307 63.3253 286.531 63.5544 286.785L63.6158 286.957C63.6126 287.012 63.5351 287.997 62.4666 289.423L63.0514 290.425L65.1678 287.051L62.0297 278.32L61.1689 278.762L60.9148 278.333L62.759 277.386L63.1183 277.485L67.1927 284.564L67.1879 284.803L65.8683 286.907Z" fill="white"/>
<path d="M512.413 268.527C512.277 269.231 511.953 269.799 511.441 270.231C510.937 270.663 510.261 270.879 509.413 270.879C508.973 270.879 508.561 270.811 508.177 270.675C507.801 270.539 507.473 270.343 507.193 270.087C506.913 269.831 506.693 269.515 506.533 269.139C506.373 268.763 506.293 268.335 506.293 267.855V267.711C506.293 267.231 506.373 266.799 506.533 266.415C506.693 266.031 506.913 265.703 507.193 265.431C507.481 265.159 507.813 264.951 508.189 264.807C508.573 264.663 508.981 264.591 509.413 264.591C510.245 264.591 510.917 264.807 511.429 265.239C511.949 265.671 512.277 266.239 512.413 266.943L510.925 267.327C510.877 266.975 510.725 266.671 510.469 266.415C510.213 266.159 509.853 266.031 509.389 266.031C509.173 266.031 508.969 266.071 508.777 266.151C508.585 266.231 508.417 266.347 508.273 266.499C508.129 266.643 508.013 266.823 507.925 267.039C507.845 267.247 507.805 267.483 507.805 267.747V267.819C507.805 268.083 507.845 268.319 507.925 268.527C508.013 268.727 508.129 268.895 508.273 269.031C508.417 269.167 508.585 269.271 508.777 269.343C508.969 269.407 509.173 269.439 509.389 269.439C509.853 269.439 510.205 269.323 510.445 269.091C510.693 268.859 510.853 268.547 510.925 268.155L512.413 268.527ZM513.916 269.271H516.004V263.751H513.988V262.311H517.516V269.271H519.46V270.711H513.916V269.271ZM522.632 268.227C522.64 268.403 522.68 268.567 522.752 268.719C522.832 268.863 522.936 268.991 523.064 269.103C523.2 269.207 523.352 269.291 523.52 269.355C523.696 269.411 523.88 269.439 524.072 269.439C524.448 269.439 524.736 269.375 524.936 269.247C525.136 269.111 525.28 268.951 525.368 268.767L526.664 269.487C526.592 269.639 526.492 269.799 526.364 269.967C526.236 270.127 526.068 270.275 525.86 270.411C525.66 270.547 525.412 270.659 525.116 270.747C524.828 270.835 524.488 270.879 524.096 270.879C523.648 270.879 523.24 270.807 522.872 270.663C522.504 270.519 522.184 270.311 521.912 270.039C521.648 269.767 521.44 269.435 521.288 269.043C521.144 268.651 521.072 268.207 521.072 267.711V267.639C521.072 267.183 521.148 266.767 521.3 266.391C521.46 266.015 521.676 265.695 521.948 265.431C522.22 265.167 522.536 264.963 522.896 264.819C523.264 264.667 523.656 264.591 524.072 264.591C524.584 264.591 525.024 264.683 525.392 264.867C525.76 265.043 526.064 265.271 526.304 265.551C526.544 265.823 526.72 266.127 526.832 266.463C526.944 266.791 527 267.111 527 267.423V268.227H522.632ZM524.06 265.959C523.676 265.959 523.364 266.059 523.124 266.259C522.884 266.451 522.728 266.675 522.656 266.931H525.464C525.416 266.651 525.264 266.419 525.008 266.235C524.76 266.051 524.444 265.959 524.06 265.959ZM532.5 269.847C532.34 270.223 532.116 270.491 531.828 270.651C531.54 270.803 531.204 270.879 530.82 270.879C530.46 270.879 530.12 270.811 529.8 270.675C529.488 270.539 529.212 270.339 528.972 270.075C528.732 269.811 528.54 269.491 528.396 269.115C528.26 268.739 528.192 268.311 528.192 267.831V267.639C528.192 267.167 528.26 266.743 528.396 266.367C528.532 265.991 528.716 265.671 528.948 265.407C529.18 265.143 529.448 264.943 529.752 264.807C530.064 264.663 530.396 264.591 530.748 264.591C531.172 264.591 531.512 264.663 531.768 264.807C532.032 264.951 532.24 265.175 532.392 265.479H532.608V264.759H534.12V268.911C534.12 269.151 534.228 269.271 534.444 269.271H534.672V270.711H533.64C533.368 270.711 533.144 270.631 532.968 270.471C532.8 270.311 532.716 270.103 532.716 269.847H532.5ZM531.156 269.439C531.596 269.439 531.948 269.295 532.212 269.007C532.476 268.711 532.608 268.311 532.608 267.807V267.663C532.608 267.159 532.476 266.763 532.212 266.475C531.948 266.179 531.596 266.031 531.156 266.031C530.716 266.031 530.364 266.179 530.1 266.475C529.836 266.763 529.704 267.159 529.704 267.663V267.807C529.704 268.311 529.836 268.711 530.1 269.007C530.364 269.295 530.716 269.439 531.156 269.439ZM537.507 270.711H535.995V264.759H537.507V265.647H537.723C537.859 265.311 538.079 265.051 538.383 264.867C538.687 264.683 539.043 264.591 539.451 264.591C539.739 264.591 540.007 264.639 540.255 264.735C540.511 264.823 540.735 264.963 540.927 265.155C541.119 265.347 541.267 265.591 541.371 265.887C541.483 266.183 541.539 266.535 541.539 266.943V270.711H540.027V267.327C540.027 266.903 539.923 266.571 539.715 266.331C539.515 266.083 539.223 265.959 538.839 265.959C538.391 265.959 538.055 266.111 537.831 266.415C537.615 266.711 537.507 267.111 537.507 267.615V270.711ZM547.375 264.759H548.887V270.711H547.375V269.847H547.159C546.895 270.535 546.327 270.879 545.455 270.879C545.159 270.879 544.883 270.831 544.627 270.735C544.371 270.639 544.147 270.491 543.955 270.291C543.763 270.091 543.611 269.843 543.499 269.547C543.395 269.243 543.343 268.887 543.343 268.479V264.759H544.855V268.167C544.855 268.591 544.955 268.923 545.155 269.163C545.355 269.395 545.655 269.511 546.055 269.511C546.511 269.511 546.843 269.367 547.051 269.079C547.267 268.783 547.375 268.383 547.375 267.879V264.759ZM551.891 273.111H550.379V264.759H551.891V265.623H552.107C552.267 265.295 552.499 265.043 552.803 264.867C553.107 264.683 553.495 264.591 553.967 264.591C554.319 264.591 554.651 264.659 554.963 264.795C555.283 264.931 555.559 265.131 555.791 265.395C556.031 265.651 556.219 265.967 556.355 266.343C556.499 266.719 556.571 267.147 556.571 267.627V267.843C556.571 268.331 556.503 268.763 556.367 269.139C556.231 269.515 556.047 269.835 555.815 270.099C555.583 270.355 555.307 270.551 554.987 270.687C554.675 270.815 554.335 270.879 553.967 270.879C553.695 270.879 553.459 270.851 553.259 270.795C553.059 270.739 552.883 270.663 552.731 270.567C552.587 270.471 552.463 270.363 552.359 270.243C552.263 270.115 552.179 269.983 552.107 269.847H551.891V273.111ZM553.475 269.439C553.947 269.439 554.327 269.295 554.615 269.007C554.911 268.711 555.059 268.311 555.059 267.807V267.663C555.059 267.159 554.911 266.763 554.615 266.475C554.327 266.179 553.947 266.031 553.475 266.031C553.003 266.031 552.619 266.183 552.323 266.487C552.035 266.783 551.891 267.175 551.891 267.663V267.807C551.891 268.295 552.035 268.691 552.323 268.995C552.619 269.291 553.003 269.439 553.475 269.439Z" fill="#0066FF"/>
<rect x="499.777" y="246.512" width="64.3313" height="41.0723" stroke="#0066FF" stroke-width="2"/>
<circle cx="559.509" cy="285.569" r="12.491" fill="#0066FF"/>
<path fill-rule="evenodd" clip-rule="evenodd" d="M563.736 284.924L564.298 286.488L565.279 284.924H563.736ZM563.633 281.541V284.434H565.298L563.633 281.541ZM563.107 283.175V280.838H562.267L563.107 283.175ZM561.275 278.08L562.091 280.348H562.946L561.557 277.935L561.347 278.043L561.275 278.08ZM560.129 290.679H561.377L560.906 289.871L560.75 290.029C560.565 290.239 560.358 290.456 560.129 290.679ZM559.517 289.942L559.538 285.229C559.404 285.302 559.211 285.415 558.984 285.562C559.005 286.144 559.105 288.126 559.517 289.942ZM558.093 286.209C558.112 286.582 558.231 287.92 558.971 289.377C558.704 287.95 558.607 286.537 558.573 285.843C558.409 285.961 558.249 286.083 558.093 286.209ZM557.637 290.679H558.936L558.837 290.57C558.593 290.328 558.361 290.076 558.142 289.814L557.637 290.679ZM557.222 287.019C557.269 287.281 557.634 288.273 558.542 289.453C557.944 288.245 557.754 287.14 557.695 286.551C557.53 286.7 557.372 286.856 557.222 287.019ZM557.878 284.589V285.709C558.089 285.54 558.31 285.38 558.539 285.232C559.121 284.83 559.359 284.748 559.508 284.739H559.507V284.589H557.878ZM553.735 284.924L554.784 286.596L555.506 284.924H553.735ZM555.632 282.269L553.816 284.434H555.632L555.632 282.269ZM556.159 281.642V283.412L557.436 280.453L557.266 280.323L556.159 281.642ZM564.645 286.907H565.703L565.966 287.152V290.924L565.703 291.169H553.311L553.048 290.924V287.152L553.311 286.907H554.369L553.049 284.803L553.069 284.529L557.017 279.823L557.375 279.786L557.382 279.778L559.156 281.016L558.84 281.409L557.881 280.739L555.12 287.132L557.186 290.425L557.798 289.377C556.762 287.976 556.686 287.011 556.683 286.957L556.744 286.784C556.937 286.571 557.14 286.365 557.352 286.167V284.344L557.615 284.099H561.399L561.663 284.344V286.11C561.878 286.307 562.102 286.531 562.332 286.785L562.393 286.957C562.39 287.012 562.312 287.997 561.244 289.423L561.828 290.425L563.945 287.051L560.807 278.32L559.946 278.762L559.692 278.333L561.536 277.386L561.895 277.485L565.97 284.564L565.965 284.803L564.645 286.907Z" fill="white"/>
<circle cx="559.509" cy="245.081" r="12.491" fill="#0066FF"/>
<rect x="90.9519" y="198.632" width="380.62" height="123.048" stroke="black" stroke-dasharray="8 8"/>
<path d="M148.642 270.711H147.13V262.311H148.642V265.623H148.858C149.018 265.295 149.25 265.043 149.554 264.867C149.858 264.683 150.246 264.591 150.718 264.591C151.07 264.591 151.402 264.659 151.714 264.795C152.034 264.931 152.31 265.131 152.542 265.395C152.782 265.651 152.97 265.967 153.106 266.343C153.25 266.719 153.322 267.147 153.322 267.627V267.843C153.322 268.331 153.254 268.763 153.118 269.139C152.982 269.515 152.798 269.835 152.566 270.099C152.334 270.355 152.058 270.551 151.738 270.687C151.426 270.815 151.086 270.879 150.718 270.879C150.446 270.879 150.21 270.851 150.01 270.795C149.81 270.739 149.634 270.663 149.482 270.567C149.338 270.471 149.214 270.363 149.11 270.243C149.014 270.115 148.93 269.983 148.858 269.847H148.642V270.711ZM150.226 269.439C150.698 269.439 151.078 269.295 151.366 269.007C151.662 268.711 151.81 268.311 151.81 267.807V267.663C151.81 267.159 151.662 266.763 151.366 266.475C151.078 266.179 150.698 266.031 150.226 266.031C149.754 266.031 149.37 266.183 149.074 266.487C148.786 266.783 148.642 267.175 148.642 267.663V267.807C148.642 268.295 148.786 268.691 149.074 268.995C149.37 269.291 149.754 269.439 150.226 269.439ZM158.761 264.759H160.273V270.711H158.761V269.847H158.545C158.281 270.535 157.713 270.879 156.841 270.879C156.545 270.879 156.269 270.831 156.013 270.735C155.757 270.639 155.533 270.491 155.341 270.291C155.149 270.091 154.997 269.843 154.885 269.547C154.781 269.243 154.729 268.887 154.729 268.479V264.759H156.241V268.167C156.241 268.591 156.341 268.923 156.541 269.163C156.741 269.395 157.041 269.511 157.441 269.511C157.897 269.511 158.229 269.367 158.437 269.079C158.653 268.783 158.761 268.383 158.761 267.879V264.759ZM162.185 269.271H164.201V266.199H162.329V264.759H165.713V269.271H167.441V270.711H162.185V269.271ZM166.085 262.995C166.085 263.155 166.053 263.307 165.989 263.451C165.933 263.587 165.853 263.707 165.749 263.811C165.645 263.907 165.521 263.987 165.377 264.051C165.241 264.107 165.097 264.135 164.945 264.135C164.785 264.135 164.637 264.107 164.501 264.051C164.365 263.987 164.245 263.907 164.141 263.811C164.037 263.707 163.953 263.587 163.889 263.451C163.833 263.307 163.805 263.155 163.805 262.995C163.805 262.835 163.833 262.687 163.889 262.551C163.953 262.407 164.037 262.287 164.141 262.191C164.245 262.087 164.365 262.007 164.501 261.951C164.637 261.887 164.785 261.855 164.945 261.855C165.097 261.855 165.241 261.887 165.377 261.951C165.521 262.007 165.645 262.087 165.749 262.191C165.853 262.287 165.933 262.407 165.989 262.551C166.053 262.687 166.085 262.835 166.085 262.995ZM169.389 269.271H171.477V263.751H169.461V262.311H172.989V269.271H174.933V270.711H169.389V269.271ZM181.044 269.847H180.828C180.764 269.983 180.684 270.115 180.588 270.243C180.5 270.363 180.38 270.471 180.228 270.567C180.084 270.663 179.908 270.739 179.7 270.795C179.5 270.851 179.256 270.879 178.968 270.879C178.6 270.879 178.256 270.815 177.936 270.687C177.624 270.551 177.348 270.355 177.108 270.099C176.876 269.835 176.692 269.515 176.556 269.139C176.428 268.763 176.364 268.331 176.364 267.843V267.627C176.364 267.147 176.432 266.719 176.568 266.343C176.712 265.967 176.904 265.651 177.144 265.395C177.392 265.131 177.676 264.931 177.996 264.795C178.324 264.659 178.668 264.591 179.028 264.591C179.508 264.591 179.888 264.683 180.168 264.867C180.448 265.043 180.668 265.295 180.828 265.623H181.044V262.311H182.556V270.711H181.044V269.847ZM179.46 269.439C179.932 269.439 180.312 269.291 180.6 268.995C180.896 268.691 181.044 268.295 181.044 267.807V267.663C181.044 267.175 180.896 266.783 180.6 266.487C180.312 266.183 179.932 266.031 179.46 266.031C178.988 266.031 178.604 266.179 178.308 266.475C178.02 266.763 177.876 267.159 177.876 267.663V267.807C177.876 268.311 178.02 268.711 178.308 269.007C178.604 269.295 178.988 269.439 179.46 269.439Z" fill="#0066FF"/>
<rect x="132.801" y="246.512" width="64.3313" height="41.0723" stroke="#0066FF" stroke-width="2"/>
<circle cx="192.533" cy="285.569" r="12.491" fill="#0066FF"/>
<path fill-rule="evenodd" clip-rule="evenodd" d="M196.76 284.924L197.322 286.488L198.303 284.924H196.76ZM196.657 281.541V284.434H198.322L196.657 281.541ZM196.131 283.175V280.838H195.291L196.131 283.175ZM194.299 278.08L195.115 280.348H195.971L194.582 277.935L194.372 278.043L194.299 278.08ZM193.153 290.679H194.401L193.93 289.871L193.774 290.029C193.589 290.239 193.382 290.456 193.153 290.679ZM192.541 289.942L192.563 285.229C192.428 285.302 192.235 285.415 192.008 285.562C192.029 286.144 192.129 288.126 192.541 289.942ZM191.117 286.209C191.136 286.582 191.255 287.92 191.996 289.377C191.729 287.95 191.631 286.537 191.598 285.843C191.434 285.961 191.273 286.083 191.117 286.209ZM190.661 290.679H191.961L191.861 290.57C191.617 290.328 191.385 290.076 191.166 289.814L190.661 290.679ZM190.246 287.019C190.293 287.281 190.658 288.273 191.566 289.453C190.968 288.245 190.779 287.14 190.719 286.551C190.554 286.7 190.396 286.856 190.246 287.019ZM190.902 284.589V285.709C191.114 285.54 191.334 285.38 191.563 285.232C192.146 284.83 192.383 284.748 192.532 284.739H192.531V284.589H190.902ZM186.759 284.924L187.808 286.596L188.53 284.924H186.759ZM188.657 282.269L186.84 284.434H188.656L188.657 282.269ZM189.183 281.642V283.412L190.46 280.453L190.29 280.323L189.183 281.642ZM197.67 286.907H198.727L198.991 287.152V290.924L198.727 291.169H186.335L186.072 290.924V287.152L186.335 286.907H187.393L186.073 284.803L186.093 284.529L190.041 279.823L190.4 279.786L190.406 279.778L192.18 281.016L191.864 281.409L190.905 280.739L188.144 287.132L190.21 290.425L190.822 289.377C189.786 287.976 189.711 287.011 189.707 286.957L189.768 286.784C189.962 286.571 190.164 286.365 190.376 286.167V284.344L190.639 284.099H194.423L194.687 284.344V286.11C194.902 286.307 195.127 286.531 195.356 286.785L195.417 286.957C195.414 287.012 195.336 287.997 194.268 289.423L194.853 290.425L196.969 287.051L193.831 278.32L192.97 278.762L192.716 278.333L194.56 277.386L194.92 277.485L198.994 284.564L198.989 284.803L197.67 286.907Z" fill="white"/>
<path d="M264.37 264.759H266.134V262.311H267.646V264.759H269.794V266.199H267.646V268.911C267.646 269.151 267.754 269.271 267.97 269.271H269.578V270.711H267.058C266.786 270.711 266.562 270.623 266.386 270.447C266.218 270.271 266.134 270.047 266.134 269.775V266.199H264.37V264.759ZM273.218 268.227C273.226 268.403 273.266 268.567 273.338 268.719C273.418 268.863 273.522 268.991 273.65 269.103C273.786 269.207 273.938 269.291 274.106 269.355C274.282 269.411 274.466 269.439 274.658 269.439C275.034 269.439 275.322 269.375 275.522 269.247C275.722 269.111 275.866 268.951 275.954 268.767L277.25 269.487C277.178 269.639 277.078 269.799 276.95 269.967C276.822 270.127 276.654 270.275 276.446 270.411C276.246 270.547 275.998 270.659 275.702 270.747C275.414 270.835 275.074 270.879 274.682 270.879C274.234 270.879 273.826 270.807 273.458 270.663C273.09 270.519 272.77 270.311 272.498 270.039C272.234 269.767 272.026 269.435 271.874 269.043C271.73 268.651 271.658 268.207 271.658 267.711V267.639C271.658 267.183 271.734 266.767 271.886 266.391C272.046 266.015 272.262 265.695 272.534 265.431C272.806 265.167 273.122 264.963 273.482 264.819C273.85 264.667 274.242 264.591 274.658 264.591C275.17 264.591 275.61 264.683 275.978 264.867C276.346 265.043 276.65 265.271 276.89 265.551C277.13 265.823 277.306 266.127 277.418 266.463C277.53 266.791 277.586 267.111 277.586 267.423V268.227H273.218ZM274.646 265.959C274.262 265.959 273.95 266.059 273.71 266.259C273.47 266.451 273.314 266.675 273.242 266.931H276.05C276.002 266.651 275.85 266.419 275.594 266.235C275.346 266.051 275.03 265.959 274.646 265.959ZM281.13 266.439C281.13 266.631 281.23 266.771 281.43 266.859C281.63 266.939 281.994 267.007 282.522 267.063C283.13 267.127 283.626 267.311 284.01 267.615C284.394 267.911 284.586 268.327 284.586 268.863V268.935C284.586 269.527 284.37 269.999 283.938 270.351C283.506 270.703 282.898 270.879 282.114 270.879C281.65 270.879 281.254 270.819 280.926 270.699C280.598 270.579 280.326 270.431 280.11 270.255C279.894 270.071 279.726 269.871 279.606 269.655C279.494 269.431 279.418 269.215 279.378 269.007L280.77 268.551C280.834 268.807 280.966 269.031 281.166 269.223C281.374 269.415 281.69 269.511 282.114 269.511C282.49 269.511 282.746 269.455 282.882 269.343C283.026 269.223 283.098 269.095 283.098 268.959C283.098 268.879 283.078 268.807 283.038 268.743C283.006 268.671 282.942 268.607 282.846 268.551C282.75 268.487 282.618 268.435 282.45 268.395C282.29 268.355 282.086 268.323 281.838 268.299C281.166 268.243 280.63 268.071 280.23 267.783C279.838 267.487 279.642 267.055 279.642 266.487V266.415C279.642 266.119 279.706 265.859 279.834 265.635C279.962 265.411 280.13 265.223 280.338 265.071C280.546 264.911 280.786 264.791 281.058 264.711C281.33 264.631 281.61 264.591 281.898 264.591C282.274 264.591 282.598 264.639 282.87 264.735C283.15 264.823 283.386 264.943 283.578 265.095C283.77 265.239 283.926 265.403 284.046 265.587C284.166 265.763 284.258 265.935 284.322 266.103L282.954 266.655C282.882 266.439 282.758 266.271 282.582 266.151C282.406 266.023 282.178 265.959 281.898 265.959C281.642 265.959 281.45 266.007 281.322 266.103C281.194 266.191 281.13 266.303 281.13 266.439ZM286.413 264.759H288.177V262.311H289.689V264.759H291.837V266.199H289.689V268.911C289.689 269.151 289.797 269.271 290.013 269.271H291.621V270.711H289.101C288.829 270.711 288.605 270.623 288.429 270.447C288.261 270.271 288.177 270.047 288.177 269.775V266.199H286.413V264.759Z" fill="#0066FF"/>
<rect x="247.374" y="246.512" width="64.3313" height="41.0723" stroke="#0066FF" stroke-width="2"/>
<circle cx="307.105" cy="285.569" r="12.491" fill="#0066FF"/>
<path fill-rule="evenodd" clip-rule="evenodd" d="M311.332 284.924L311.894 286.488L312.876 284.924H311.332ZM311.23 281.541V284.434H312.895L311.23 281.541ZM310.703 283.175V280.838H309.863L310.703 283.175ZM308.872 278.08L309.687 280.348H310.543L309.154 277.935L308.944 278.043L308.872 278.08ZM307.725 290.679H308.973L308.502 289.871L308.346 290.029C308.161 290.239 307.955 290.456 307.725 290.679ZM307.114 289.942L307.135 285.229C307 285.302 306.807 285.415 306.58 285.562C306.601 286.144 306.702 288.126 307.114 289.942ZM305.689 286.209C305.708 286.582 305.827 287.92 306.568 289.377C306.301 287.95 306.204 286.537 306.17 285.843C306.006 285.961 305.846 286.083 305.689 286.209ZM305.234 290.679H306.533L306.434 290.57C306.19 290.328 305.958 290.076 305.738 289.814L305.234 290.679ZM304.818 287.019C304.865 287.281 305.23 288.273 306.139 289.453C305.541 288.245 305.351 287.14 305.291 286.551C305.126 286.7 304.969 286.856 304.818 287.019ZM305.475 284.589V285.709C305.686 285.54 305.906 285.38 306.135 285.232C306.718 284.83 306.955 284.748 307.104 284.739H307.104V284.589H305.475ZM301.331 284.924L302.38 286.596L303.102 284.924H301.331ZM303.229 282.269L301.412 284.434H303.229L303.229 282.269ZM303.755 281.642V283.412L305.033 280.453L304.862 280.323L303.755 281.642ZM312.242 286.907H313.299L313.563 287.152V290.924L313.299 291.169H300.908L300.645 290.924V287.152L300.908 286.907H301.966L300.646 284.803L300.665 284.529L304.613 279.823L304.972 279.786L304.978 279.778L306.752 281.016L306.436 281.409L305.477 280.739L302.717 287.132L304.783 290.425L305.394 289.377C304.358 287.976 304.283 287.011 304.279 286.957L304.341 286.784C304.534 286.571 304.736 286.365 304.948 286.167V284.344L305.212 284.099H308.996L309.259 284.344V286.11C309.474 286.307 309.699 286.531 309.928 286.785L309.989 286.957C309.986 287.012 309.909 287.997 308.84 289.423L309.425 290.425L311.541 287.051L308.403 278.32L307.542 278.762L307.288 278.333L309.133 277.386L309.492 277.485L313.566 284.564L313.561 284.803L312.242 286.907Z" fill="white"/>
<path d="M376.491 269.847H376.275C376.211 269.983 376.131 270.115 376.035 270.243C375.947 270.363 375.827 270.471 375.675 270.567C375.531 270.663 375.355 270.739 375.147 270.795C374.947 270.851 374.703 270.879 374.415 270.879C374.047 270.879 373.703 270.815 373.383 270.687C373.071 270.551 372.795 270.355 372.555 270.099C372.323 269.835 372.139 269.515 372.003 269.139C371.875 268.763 371.811 268.331 371.811 267.843V267.627C371.811 267.147 371.879 266.719 372.015 266.343C372.159 265.967 372.351 265.651 372.591 265.395C372.839 265.131 373.123 264.931 373.443 264.795C373.771 264.659 374.115 264.591 374.475 264.591C374.955 264.591 375.335 264.683 375.615 264.867C375.895 265.043 376.115 265.295 376.275 265.623H376.491V262.311H378.003V270.711H376.491V269.847ZM374.907 269.439C375.379 269.439 375.759 269.291 376.047 268.995C376.343 268.691 376.491 268.295 376.491 267.807V267.663C376.491 267.175 376.343 266.783 376.047 266.487C375.759 266.183 375.379 266.031 374.907 266.031C374.435 266.031 374.051 266.179 373.755 266.475C373.467 266.763 373.323 267.159 373.323 267.663V267.807C373.323 268.311 373.467 268.711 373.755 269.007C374.051 269.295 374.435 269.439 374.907 269.439ZM380.899 268.227C380.907 268.403 380.947 268.567 381.019 268.719C381.099 268.863 381.203 268.991 381.331 269.103C381.467 269.207 381.619 269.291 381.787 269.355C381.963 269.411 382.147 269.439 382.339 269.439C382.715 269.439 383.003 269.375 383.203 269.247C383.403 269.111 383.547 268.951 383.635 268.767L384.931 269.487C384.859 269.639 384.759 269.799 384.631 269.967C384.503 270.127 384.335 270.275 384.127 270.411C383.927 270.547 383.679 270.659 383.383 270.747C383.095 270.835 382.755 270.879 382.363 270.879C381.915 270.879 381.507 270.807 381.139 270.663C380.771 270.519 380.451 270.311 380.179 270.039C379.915 269.767 379.707 269.435 379.555 269.043C379.411 268.651 379.339 268.207 379.339 267.711V267.639C379.339 267.183 379.415 266.767 379.567 266.391C379.727 266.015 379.943 265.695 380.215 265.431C380.487 265.167 380.803 264.963 381.163 264.819C381.531 264.667 381.923 264.591 382.339 264.591C382.851 264.591 383.291 264.683 383.659 264.867C384.027 265.043 384.331 265.271 384.571 265.551C384.811 265.823 384.987 266.127 385.099 266.463C385.211 266.791 385.267 267.111 385.267 267.423V268.227H380.899ZM382.327 265.959C381.943 265.959 381.631 266.059 381.391 266.259C381.151 266.451 380.995 266.675 380.923 266.931H383.731C383.683 266.651 383.531 266.419 383.275 266.235C383.027 266.051 382.711 265.959 382.327 265.959ZM388.115 273.111H386.603V264.759H388.115V265.623H388.331C388.491 265.295 388.723 265.043 389.027 264.867C389.331 264.683 389.719 264.591 390.191 264.591C390.543 264.591 390.875 264.659 391.187 264.795C391.507 264.931 391.783 265.131 392.015 265.395C392.255 265.651 392.443 265.967 392.579 266.343C392.723 266.719 392.795 267.147 392.795 267.627V267.843C392.795 268.331 392.727 268.763 392.591 269.139C392.455 269.515 392.271 269.835 392.039 270.099C391.807 270.355 391.531 270.551 391.211 270.687C390.899 270.815 390.559 270.879 390.191 270.879C389.919 270.879 389.683 270.851 389.483 270.795C389.283 270.739 389.107 270.663 388.955 270.567C388.811 270.471 388.687 270.363 388.583 270.243C388.487 270.115 388.403 269.983 388.331 269.847H388.115V273.111ZM389.699 269.439C390.171 269.439 390.551 269.295 390.839 269.007C391.135 268.711 391.283 268.311 391.283 267.807V267.663C391.283 267.159 391.135 266.763 390.839 266.475C390.551 266.179 390.171 266.031 389.699 266.031C389.227 266.031 388.843 266.183 388.547 266.487C388.259 266.783 388.115 267.175 388.115 267.663V267.807C388.115 268.295 388.259 268.691 388.547 268.995C388.843 269.291 389.227 269.439 389.699 269.439ZM394.226 269.271H396.314V263.751H394.298V262.311H397.826V269.271H399.77V270.711H394.226V269.271ZM407.442 267.807C407.442 268.303 407.358 268.743 407.19 269.127C407.022 269.503 406.794 269.823 406.506 270.087C406.218 270.343 405.886 270.539 405.51 270.675C405.142 270.811 404.754 270.879 404.346 270.879C403.938 270.879 403.546 270.811 403.17 270.675C402.802 270.539 402.474 270.343 402.186 270.087C401.898 269.823 401.67 269.503 401.502 269.127C401.334 268.743 401.25 268.303 401.25 267.807V267.663C401.25 267.175 401.334 266.743 401.502 266.367C401.67 265.983 401.898 265.659 402.186 265.395C402.474 265.131 402.802 264.931 403.17 264.795C403.546 264.659 403.938 264.591 404.346 264.591C404.754 264.591 405.142 264.659 405.51 264.795C405.886 264.931 406.218 265.131 406.506 265.395C406.794 265.659 407.022 265.983 407.19 266.367C407.358 266.743 407.442 267.175 407.442 267.663V267.807ZM404.346 269.439C404.562 269.439 404.766 269.403 404.958 269.331C405.15 269.259 405.318 269.155 405.462 269.019C405.606 268.883 405.718 268.719 405.798 268.527C405.886 268.327 405.93 268.103 405.93 267.855V267.615C405.93 267.367 405.886 267.147 405.798 266.955C405.718 266.755 405.606 266.587 405.462 266.451C405.318 266.315 405.15 266.211 404.958 266.139C404.766 266.067 404.562 266.031 404.346 266.031C404.13 266.031 403.926 266.067 403.734 266.139C403.542 266.211 403.374 266.315 403.23 266.451C403.086 266.587 402.97 266.755 402.882 266.955C402.802 267.147 402.762 267.367 402.762 267.615V267.855C402.762 268.103 402.802 268.327 402.882 268.527C402.97 268.719 403.086 268.883 403.23 269.019C403.374 269.155 403.542 269.259 403.734 269.331C403.926 269.403 404.13 269.439 404.346 269.439ZM412.989 264.759H414.501V272.175C414.501 272.447 414.413 272.671 414.237 272.847C414.069 273.023 413.849 273.111 413.577 273.111H410.037V271.671H412.665C412.881 271.671 412.989 271.551 412.989 271.311V269.847H412.773C412.509 270.535 411.941 270.879 411.069 270.879C410.773 270.879 410.497 270.831 410.241 270.735C409.985 270.639 409.761 270.491 409.569 270.291C409.377 270.091 409.225 269.843 409.113 269.547C409.009 269.243 408.957 268.887 408.957 268.479V264.759H410.469V268.167C410.469 268.591 410.569 268.923 410.769 269.163C410.969 269.395 411.269 269.511 411.669 269.511C412.125 269.511 412.457 269.367 412.665 269.079C412.881 268.783 412.989 268.383 412.989 267.879V264.759Z" fill="#0066FF"/>
<rect x="361.084" y="246.512" width="64.3313" height="41.0723" stroke="#0066FF" stroke-width="2"/>
<circle cx="420.816" cy="285.569" r="12.491" fill="#0066FF"/>
<path fill-rule="evenodd" clip-rule="evenodd" d="M425.043 284.924L425.605 286.488L426.586 284.924H425.043ZM424.941 281.541V284.434H426.606L424.941 281.541ZM424.414 283.175V280.838H423.574L424.414 283.175ZM422.583 278.08L423.398 280.348H424.254L422.865 277.935L422.655 278.043L422.583 278.08ZM421.436 290.679H422.684L422.213 289.871L422.057 290.029C421.872 290.239 421.666 290.456 421.436 290.679ZM420.825 289.942L420.846 285.229C420.711 285.302 420.518 285.415 420.291 285.562C420.312 286.144 420.413 288.126 420.825 289.942ZM419.4 286.209C419.419 286.582 419.538 287.92 420.279 289.377C420.012 287.95 419.915 286.537 419.881 285.843C419.717 285.961 419.556 286.083 419.4 286.209ZM418.945 290.679H420.244L420.145 290.57C419.901 290.328 419.669 290.076 419.449 289.814L418.945 290.679ZM418.529 287.019C418.576 287.281 418.941 288.273 419.85 289.453C419.251 288.245 419.062 287.14 419.002 286.551C418.837 286.7 418.68 286.856 418.529 287.019ZM419.186 284.589V285.709C419.397 285.54 419.617 285.38 419.846 285.232C420.429 284.83 420.666 284.748 420.815 284.739H420.815V284.589H419.186ZM415.042 284.924L416.091 286.596L416.813 284.924H415.042ZM416.94 282.269L415.123 284.434H416.939L416.94 282.269ZM417.466 281.642V283.412L418.744 280.453L418.573 280.323L417.466 281.642ZM425.953 286.907H427.01L427.274 287.152V290.924L427.01 291.169H414.619L414.355 290.924V287.152L414.619 286.907H415.676L414.357 284.803L414.376 284.529L418.324 279.823L418.683 279.786L418.689 279.778L420.463 281.016L420.147 281.409L419.188 280.739L416.427 287.132L418.494 290.425L419.105 289.377C418.069 287.976 417.994 287.011 417.99 286.957L418.052 286.784C418.245 286.571 418.447 286.365 418.659 286.167V284.344L418.923 284.099H422.707L422.97 284.344V286.11C423.185 286.307 423.41 286.531 423.639 286.785L423.7 286.957C423.697 287.012 423.62 287.997 422.551 289.423L423.136 290.425L425.252 287.051L422.114 278.32L421.253 278.762L420.999 278.333L422.843 277.386L423.203 277.485L427.277 284.564L427.272 284.803L425.953 286.907Z" fill="white"/>
<path d="M246.373 266.187L236.373 260.413L236.373 271.96L246.373 266.187ZM198.994 267.187L237.373 267.187L237.373 265.187L198.994 265.187L198.994 267.187Z" fill="black"/>
<path d="M360.084 266.187L350.084 260.413L350.084 271.96L360.084 266.187ZM312.705 267.187L351.084 267.187L351.084 265.187L312.705 265.187L312.705 267.187Z" fill="black"/>
<path d="M110.515 220.336C110.819 220.336 111.067 220.292 111.259 220.204C111.459 220.108 111.611 219.984 111.715 219.832C111.827 219.672 111.903 219.492 111.943 219.292C111.983 219.084 112.003 218.872 112.003 218.656V218.44H113.587V218.656C113.587 219.656 113.323 220.428 112.795 220.972C112.275 221.508 111.515 221.776 110.515 221.776C109.555 221.776 108.795 221.484 108.235 220.9C107.675 220.316 107.395 219.464 107.395 218.344V216.472C107.395 215.936 107.467 215.456 107.611 215.032C107.755 214.6 107.963 214.24 108.235 213.952C108.507 213.656 108.835 213.432 109.219 213.28C109.603 213.12 110.035 213.04 110.515 213.04C111.011 213.04 111.451 213.112 111.835 213.256C112.219 213.4 112.539 213.608 112.795 213.88C113.059 214.152 113.255 214.48 113.383 214.864C113.519 215.248 113.587 215.68 113.587 216.16V216.376H112.003V216.16C112.003 215.96 111.979 215.76 111.931 215.56C111.883 215.36 111.803 215.18 111.691 215.02C111.579 214.86 111.427 214.732 111.235 214.636C111.043 214.532 110.803 214.48 110.515 214.48C110.251 214.48 110.023 214.532 109.831 214.636C109.639 214.732 109.479 214.868 109.351 215.044C109.223 215.212 109.127 215.412 109.063 215.644C109.007 215.868 108.979 216.104 108.979 216.352V218.464C108.979 218.736 109.007 218.988 109.063 219.22C109.119 219.444 109.207 219.64 109.327 219.808C109.447 219.976 109.603 220.108 109.795 220.204C109.995 220.292 110.235 220.336 110.515 220.336ZM115.031 213.208H120.647V214.72H118.631V220.096H120.647V221.608H115.031V220.096H117.047V214.72H115.031V213.208ZM126.303 211.708L127.671 212.14L124.083 223.108L122.703 222.676L126.303 211.708ZM132.558 220.336C132.862 220.336 133.11 220.292 133.302 220.204C133.502 220.108 133.654 219.984 133.758 219.832C133.87 219.672 133.946 219.492 133.986 219.292C134.026 219.084 134.046 218.872 134.046 218.656V218.44H135.63V218.656C135.63 219.656 135.366 220.428 134.838 220.972C134.318 221.508 133.558 221.776 132.558 221.776C131.598 221.776 130.838 221.484 130.278 220.9C129.718 220.316 129.438 219.464 129.438 218.344V216.472C129.438 215.936 129.51 215.456 129.654 215.032C129.798 214.6 130.006 214.24 130.278 213.952C130.55 213.656 130.878 213.432 131.262 213.28C131.646 213.12 132.078 213.04 132.558 213.04C133.054 213.04 133.494 213.112 133.878 213.256C134.262 213.4 134.582 213.608 134.838 213.88C135.102 214.152 135.298 214.48 135.426 214.864C135.562 215.248 135.63 215.68 135.63 216.16V216.376H134.046V216.16C134.046 215.96 134.022 215.76 133.974 215.56C133.926 215.36 133.846 215.18 133.734 215.02C133.622 214.86 133.47 214.732 133.278 214.636C133.086 214.532 132.846 214.48 132.558 214.48C132.294 214.48 132.066 214.532 131.874 214.636C131.682 214.732 131.522 214.868 131.394 215.044C131.266 215.212 131.17 215.412 131.106 215.644C131.05 215.868 131.022 216.104 131.022 216.352V218.464C131.022 218.736 131.05 218.988 131.106 219.22C131.162 219.444 131.25 219.64 131.37 219.808C131.49 219.976 131.646 220.108 131.838 220.204C132.038 220.292 132.278 220.336 132.558 220.336ZM136.762 213.208H139.81C140.85 213.208 141.622 213.452 142.126 213.94C142.63 214.42 142.882 215.168 142.882 216.184V218.632C142.882 219.648 142.63 220.4 142.126 220.888C141.622 221.368 140.85 221.608 139.81 221.608H136.762V220.084H137.554V214.72H136.762V213.208ZM139.81 220.096C140.362 220.096 140.746 219.968 140.962 219.712C141.186 219.448 141.298 219.04 141.298 218.488V216.184C141.298 215.704 141.186 215.34 140.962 215.092C140.746 214.844 140.362 214.72 139.81 214.72H139.138V220.096H139.81ZM153.041 224.008H151.529V215.656H153.041V216.52H153.257C153.417 216.192 153.649 215.94 153.953 215.764C154.257 215.58 154.645 215.488 155.117 215.488C155.469 215.488 155.801 215.556 156.113 215.692C156.433 215.828 156.709 216.028 156.941 216.292C157.181 216.548 157.369 216.864 157.505 217.24C157.649 217.616 157.721 218.044 157.721 218.524V218.74C157.721 219.228 157.653 219.66 157.517 220.036C157.381 220.412 157.197 220.732 156.965 220.996C156.733 221.252 156.457 221.448 156.137 221.584C155.825 221.712 155.485 221.776 155.117 221.776C154.845 221.776 154.609 221.748 154.409 221.692C154.209 221.636 154.033 221.56 153.881 221.464C153.737 221.368 153.613 221.26 153.509 221.14C153.413 221.012 153.329 220.88 153.257 220.744H153.041V224.008ZM154.625 220.336C155.097 220.336 155.477 220.192 155.765 219.904C156.061 219.608 156.209 219.208 156.209 218.704V218.56C156.209 218.056 156.061 217.66 155.765 217.372C155.477 217.076 155.097 216.928 154.625 216.928C154.153 216.928 153.769 217.08 153.473 217.384C153.185 217.68 153.041 218.072 153.041 218.56V218.704C153.041 219.192 153.185 219.588 153.473 219.892C153.769 220.188 154.153 220.336 154.625 220.336ZM159.297 220.168H161.313V217.096H159.441V215.656H162.825V220.168H164.553V221.608H159.297V220.168ZM163.197 213.892C163.197 214.052 163.165 214.204 163.101 214.348C163.045 214.484 162.965 214.604 162.861 214.708C162.757 214.804 162.633 214.884 162.489 214.948C162.353 215.004 162.209 215.032 162.057 215.032C161.897 215.032 161.749 215.004 161.613 214.948C161.477 214.884 161.357 214.804 161.253 214.708C161.149 214.604 161.065 214.484 161.001 214.348C160.945 214.204 160.917 214.052 160.917 213.892C160.917 213.732 160.945 213.584 161.001 213.448C161.065 213.304 161.149 213.184 161.253 213.088C161.357 212.984 161.477 212.904 161.613 212.848C161.749 212.784 161.897 212.752 162.057 212.752C162.209 212.752 162.353 212.784 162.489 212.848C162.633 212.904 162.757 212.984 162.861 213.088C162.965 213.184 163.045 213.304 163.101 213.448C163.165 213.584 163.197 213.732 163.197 213.892ZM167.737 224.008H166.225V215.656H167.737V216.52H167.953C168.113 216.192 168.345 215.94 168.649 215.764C168.953 215.58 169.341 215.488 169.813 215.488C170.165 215.488 170.497 215.556 170.809 215.692C171.129 215.828 171.405 216.028 171.637 216.292C171.877 216.548 172.065 216.864 172.201 217.24C172.345 217.616 172.417 218.044 172.417 218.524V218.74C172.417 219.228 172.349 219.66 172.213 220.036C172.077 220.412 171.893 220.732 171.661 220.996C171.429 221.252 171.153 221.448 170.833 221.584C170.521 221.712 170.181 221.776 169.813 221.776C169.541 221.776 169.305 221.748 169.105 221.692C168.905 221.636 168.729 221.56 168.577 221.464C168.433 221.368 168.309 221.26 168.205 221.14C168.109 221.012 168.025 220.88 167.953 220.744H167.737V224.008ZM169.321 220.336C169.793 220.336 170.173 220.192 170.461 219.904C170.757 219.608 170.905 219.208 170.905 218.704V218.56C170.905 218.056 170.757 217.66 170.461 217.372C170.173 217.076 169.793 216.928 169.321 216.928C168.849 216.928 168.465 217.08 168.169 217.384C167.881 217.68 167.737 218.072 167.737 218.56V218.704C167.737 219.192 167.881 219.588 168.169 219.892C168.465 220.188 168.849 220.336 169.321 220.336ZM175.216 219.124C175.224 219.3 175.264 219.464 175.336 219.616C175.416 219.76 175.52 219.888 175.648 220C175.784 220.104 175.936 220.188 176.104 220.252C176.28 220.308 176.464 220.336 176.656 220.336C177.032 220.336 177.32 220.272 177.52 220.144C177.72 220.008 177.864 219.848 177.952 219.664L179.248 220.384C179.176 220.536 179.076 220.696 178.948 220.864C178.82 221.024 178.652 221.172 178.444 221.308C178.244 221.444 177.996 221.556 177.7 221.644C177.412 221.732 177.072 221.776 176.68 221.776C176.232 221.776 175.824 221.704 175.456 221.56C175.088 221.416 174.768 221.208 174.496 220.936C174.232 220.664 174.024 220.332 173.872 219.94C173.728 219.548 173.656 219.104 173.656 218.608V218.536C173.656 218.08 173.732 217.664 173.884 217.288C174.044 216.912 174.26 216.592 174.532 216.328C174.804 216.064 175.12 215.86 175.48 215.716C175.848 215.564 176.24 215.488 176.656 215.488C177.168 215.488 177.608 215.58 177.976 215.764C178.344 215.94 178.648 216.168 178.888 216.448C179.128 216.72 179.304 217.024 179.416 217.36C179.528 217.688 179.584 218.008 179.584 218.32V219.124H175.216ZM176.644 216.856C176.26 216.856 175.948 216.956 175.708 217.156C175.468 217.348 175.312 217.572 175.24 217.828H178.048C178 217.548 177.848 217.316 177.592 217.132C177.344 216.948 177.028 216.856 176.644 216.856ZM181.196 220.168H183.284V214.648H181.268V213.208H184.796V220.168H186.74V221.608H181.196V220.168ZM188.688 220.168H190.704V217.096H188.832V215.656H192.216V220.168H193.944V221.608H188.688V220.168ZM192.588 213.892C192.588 214.052 192.556 214.204 192.492 214.348C192.436 214.484 192.356 214.604 192.252 214.708C192.148 214.804 192.024 214.884 191.88 214.948C191.744 215.004 191.6 215.032 191.448 215.032C191.288 215.032 191.14 215.004 191.004 214.948C190.868 214.884 190.748 214.804 190.644 214.708C190.54 214.604 190.456 214.484 190.392 214.348C190.336 214.204 190.308 214.052 190.308 213.892C190.308 213.732 190.336 213.584 190.392 213.448C190.456 213.304 190.54 213.184 190.644 213.088C190.748 212.984 190.868 212.904 191.004 212.848C191.14 212.784 191.288 212.752 191.448 212.752C191.6 212.752 191.744 212.784 191.88 212.848C192.024 212.904 192.148 212.984 192.252 213.088C192.356 213.184 192.436 213.304 192.492 213.448C192.556 213.584 192.588 213.732 192.588 213.892ZM197.439 221.608H195.927V215.656H197.439V216.544H197.655C197.791 216.208 198.011 215.948 198.315 215.764C198.619 215.58 198.975 215.488 199.383 215.488C199.671 215.488 199.939 215.536 200.187 215.632C200.443 215.72 200.667 215.86 200.859 216.052C201.051 216.244 201.199 216.488 201.303 216.784C201.415 217.08 201.471 217.432 201.471 217.84V221.608H199.959V218.224C199.959 217.8 199.855 217.468 199.647 217.228C199.447 216.98 199.155 216.856 198.771 216.856C198.323 216.856 197.987 217.008 197.763 217.312C197.547 217.608 197.439 218.008 197.439 218.512V221.608ZM204.607 219.124C204.615 219.3 204.655 219.464 204.727 219.616C204.807 219.76 204.911 219.888 205.039 220C205.175 220.104 205.327 220.188 205.495 220.252C205.671 220.308 205.855 220.336 206.047 220.336C206.423 220.336 206.711 220.272 206.911 220.144C207.111 220.008 207.255 219.848 207.343 219.664L208.639 220.384C208.567 220.536 208.467 220.696 208.339 220.864C208.211 221.024 208.043 221.172 207.835 221.308C207.635 221.444 207.387 221.556 207.091 221.644C206.803 221.732 206.463 221.776 206.071 221.776C205.623 221.776 205.215 221.704 204.847 221.56C204.479 221.416 204.159 221.208 203.887 220.936C203.623 220.664 203.415 220.332 203.263 219.94C203.119 219.548 203.047 219.104 203.047 218.608V218.536C203.047 218.08 203.123 217.664 203.275 217.288C203.435 216.912 203.651 216.592 203.923 216.328C204.195 216.064 204.511 215.86 204.871 215.716C205.239 215.564 205.631 215.488 206.047 215.488C206.559 215.488 206.999 215.58 207.367 215.764C207.735 215.94 208.039 216.168 208.279 216.448C208.519 216.72 208.695 217.024 208.807 217.36C208.919 217.688 208.975 218.008 208.975 218.32V219.124H204.607ZM206.035 216.856C205.651 216.856 205.339 216.956 205.099 217.156C204.859 217.348 204.703 217.572 204.631 217.828H207.439C207.391 217.548 207.239 217.316 206.983 217.132C206.735 216.948 206.419 216.856 206.035 216.856Z" fill="black"/>
</svg>
