<svg width="296" height="185" viewBox="0 0 296 185" fill="none" xmlns="http://www.w3.org/2000/svg">
<path fill-rule="evenodd" clip-rule="evenodd" d="M164.444 184.281C214.874 184.281 230.222 126.476 230.222 80.2655C230.222 34.0551 188.563 1.11957 138.316 1.11957C88.0692 1.11957 0 54.3874 0 100.598C0 146.808 114.198 184.281 164.444 184.281Z" fill="#F2F7FF"/>
<path d="M89.0467 136.253C90.0624 136.942 90.0624 137.631 89.0467 138.32C88.0309 139.009 86.6766 139.009 85.6609 138.32C84.9838 137.631 84.9838 136.598 85.9995 136.253C86.6766 135.564 88.3695 135.564 89.0467 136.253Z" fill="#16110D"/>
<path d="M97.8498 131.087C98.527 131.776 98.527 132.465 97.8498 133.153C96.8341 133.842 95.4798 133.842 94.4641 133.153C93.4484 132.465 93.4484 131.776 94.4641 131.087C95.4798 130.742 96.8341 130.742 97.8498 131.087Z" fill="#16110D"/>
<path d="M106.314 126.266C107.33 126.955 107.33 127.644 106.314 128.333C105.298 129.022 103.944 129.022 102.928 128.333C101.913 127.644 101.913 126.955 102.928 126.266C103.944 125.577 105.298 125.577 106.314 126.266Z" fill="#16110D"/>
<path d="M114.777 121.099C115.793 121.788 115.793 122.477 114.777 123.166C113.762 123.855 112.407 123.855 111.392 123.166C110.376 122.477 110.376 121.788 111.392 121.099C112.407 120.755 114.1 120.755 114.777 121.099C115.793 121.788 114.1 120.755 114.777 121.099Z" fill="#16110D"/>
<path d="M78.888 133.499C80.1969 133.499 81.258 132.882 81.258 132.121C81.258 131.36 80.1969 130.743 78.888 130.743C77.579 130.743 76.5179 131.36 76.5179 132.121C76.5179 132.882 77.579 133.499 78.888 133.499Z" fill="#16110D"/>
<path d="M89.0466 126.266C90.0623 126.955 90.0623 127.644 89.0466 128.333C88.0309 129.022 86.6766 129.022 85.6609 128.333C84.9837 127.644 84.9837 126.611 85.9994 126.266C86.6766 125.577 88.3695 125.577 89.0466 126.266Z" fill="#16110D"/>
<path d="M96.1573 123.508C97.4662 123.508 98.5273 122.891 98.5273 122.13C98.5273 121.369 97.4662 120.752 96.1573 120.752C94.8484 120.752 93.7873 121.369 93.7873 122.13C93.7873 122.891 94.8484 123.508 96.1573 123.508Z" fill="#16110D"/>
<path d="M104.62 118.342C105.929 118.342 106.99 117.725 106.99 116.964C106.99 116.203 105.929 115.586 104.62 115.586C103.311 115.586 102.25 116.203 102.25 116.964C102.25 117.725 103.311 118.342 104.62 118.342Z" fill="#16110D"/>
<path d="M72.1171 126.266C73.1328 126.955 73.1328 127.644 72.1171 128.333C71.1014 129.022 69.7471 129.022 68.7313 128.333C67.7156 127.644 67.7156 126.955 68.7313 126.266C69.7471 125.577 71.1014 125.577 72.1171 126.266Z" fill="#16110D"/>
<path d="M80.5814 121.099C81.5971 121.788 81.5971 122.477 80.5814 123.166C79.5656 123.855 78.2114 123.855 77.1956 123.166C76.1799 122.477 76.1799 121.788 77.1956 121.099C78.2114 120.755 79.5656 120.755 80.5814 121.099Z" fill="#16110D"/>
<path d="M89.0466 115.932C90.0623 116.62 90.0623 117.309 89.0466 117.998C88.0309 118.687 86.6766 118.687 85.6609 117.998C84.9837 117.654 84.9837 116.62 85.9994 115.932C86.6766 115.587 88.3695 115.587 89.0466 115.932Z" fill="#16110D"/>
<path d="M97.8498 112.828C96.8341 113.517 95.4798 113.517 94.4641 112.828C93.4484 112.139 93.4484 111.45 94.4641 110.762C95.4798 110.417 98.527 112.484 97.8498 112.828Z" fill="#16110D"/>
<path d="M72.1171 115.932C73.1328 116.62 73.1328 117.309 72.1171 117.998C71.1014 118.687 69.7471 118.687 68.7313 117.998C67.7156 117.309 67.7156 116.62 68.7313 115.932C69.7471 115.587 71.1014 115.587 72.1171 115.932Z" fill="#16110D"/>
<path d="M78.888 113.519C80.1969 113.519 81.258 112.902 81.258 112.141C81.258 111.38 80.1969 110.763 78.888 110.763C77.579 110.763 76.5179 111.38 76.5179 112.141C76.5179 112.902 77.579 113.519 78.888 113.519Z" fill="#16110D"/>
<path d="M89.0457 108.01C88.0299 108.699 86.6756 108.699 85.6599 108.01C84.6442 107.321 84.6442 106.632 85.6599 105.943C86.6756 105.599 90.0614 107.321 89.0457 108.01Z" fill="#16110D"/>
<path d="M201.114 180.691C202.13 181.38 202.13 182.069 201.114 182.758C200.099 183.447 198.744 183.447 197.729 182.758C196.713 182.069 196.713 181.38 197.729 180.691C198.744 180.347 200.099 180.347 201.114 180.691Z" fill="#16110D"/>
<path d="M209.58 175.869C210.596 176.558 210.596 177.247 209.58 177.936C208.565 178.624 207.21 178.624 206.195 177.936C205.179 177.247 205.179 176.558 206.195 175.869C207.21 175.18 208.565 175.18 209.58 175.869Z" fill="#16110D"/>
<path d="M218.043 170.7C219.059 171.389 219.059 172.078 218.043 172.767C217.027 173.456 215.673 173.456 214.657 172.767C213.641 172.078 213.641 171.389 214.657 170.7C215.673 170.356 217.366 170.356 218.043 170.7Z" fill="#16110D"/>
<path d="M226.844 165.532C227.86 166.221 227.86 166.91 226.844 167.599C225.829 168.288 224.474 168.288 223.459 167.599C222.443 166.91 222.443 166.221 223.459 165.532C224.136 165.188 225.829 165.188 226.844 165.532Z" fill="#16110D"/>
<path d="M235.31 160.714C236.325 161.403 236.325 162.091 235.31 162.78C234.294 163.469 232.94 163.469 231.924 162.78C230.908 162.091 230.908 161.403 231.924 160.714C232.94 160.025 234.294 160.025 235.31 160.714Z" fill="#16110D"/>
<path d="M243.775 155.545C244.79 156.234 244.79 156.923 243.775 157.612C242.759 158.301 241.405 158.301 240.389 157.612C239.373 156.923 239.373 156.234 240.389 155.545C241.405 155.201 242.759 155.201 243.775 155.545Z" fill="#16110D"/>
<path d="M252.24 150.721C253.256 151.41 253.256 152.099 252.24 152.788C251.224 153.476 249.87 153.476 248.854 152.788C247.838 152.099 247.838 151.41 248.854 150.721C249.87 150.032 251.563 150.032 252.24 150.721Z" fill="#16110D"/>
<path d="M259.349 147.966C260.658 147.966 261.719 147.349 261.719 146.588C261.719 145.827 260.658 145.21 259.349 145.21C258.04 145.21 256.979 145.827 256.979 146.588C256.979 147.349 258.04 147.966 259.349 147.966Z" fill="#16110D"/>
<path d="M267.813 142.8C269.122 142.8 270.183 142.183 270.183 141.422C270.183 140.661 269.122 140.044 267.813 140.044C266.504 140.044 265.443 140.661 265.443 141.422C265.443 142.183 266.504 142.8 267.813 142.8Z" fill="#16110D"/>
<path d="M277.972 135.564C278.987 136.253 278.987 136.941 277.972 137.63C276.956 138.319 275.602 138.319 274.586 137.63C273.57 136.941 273.57 136.253 274.586 135.564C275.602 134.875 277.294 134.875 277.972 135.564Z" fill="#16110D"/>
<path d="M183.846 180.691C184.862 181.38 184.862 182.069 183.846 182.758C182.83 183.447 181.476 183.447 180.46 182.758C179.444 182.069 179.444 181.38 180.46 180.691C181.476 180.347 182.83 180.347 183.846 180.691Z" fill="#16110D"/>
<path d="M192.312 175.869C193.328 176.558 193.328 177.247 192.312 177.936C191.296 178.624 189.942 178.624 188.926 177.936C187.91 177.247 187.91 176.558 188.926 175.869C189.942 175.18 191.635 175.18 192.312 175.869Z" fill="#16110D"/>
<path d="M201.114 170.7C202.13 171.389 202.13 172.078 201.114 172.767C200.099 173.456 198.744 173.456 197.729 172.767C196.713 172.078 196.713 171.389 197.729 170.7C198.744 170.356 200.099 170.356 201.114 170.7Z" fill="#16110D"/>
<path d="M207.887 167.946C209.196 167.946 210.257 167.329 210.257 166.568C210.257 165.807 209.196 165.191 207.887 165.191C206.578 165.191 205.517 165.807 205.517 166.568C205.517 167.329 206.578 167.946 207.887 167.946Z" fill="#16110D"/>
<path d="M216.35 163.125C217.659 163.125 218.72 162.508 218.72 161.747C218.72 160.986 217.659 160.369 216.35 160.369C215.041 160.369 213.98 160.986 213.98 161.747C213.98 162.508 215.041 163.125 216.35 163.125Z" fill="#16110D"/>
<path d="M226.845 155.545C227.861 156.234 227.861 156.923 226.845 157.612C225.83 158.301 224.475 158.301 223.46 157.612C222.444 156.923 222.444 156.234 223.46 155.545C224.137 155.201 225.83 155.201 226.845 155.545Z" fill="#16110D"/>
<path d="M235.31 150.721C236.325 151.41 236.325 152.099 235.31 152.788C234.294 153.476 232.94 153.476 231.924 152.788C230.908 152.099 230.908 151.41 231.924 150.721C232.94 150.032 234.294 150.032 235.31 150.721Z" fill="#16110D"/>
<path d="M243.775 145.555C244.79 146.244 244.79 146.933 243.775 147.621C242.759 148.31 241.405 148.31 240.389 147.621C239.373 146.933 239.373 146.244 240.389 145.555C241.405 144.866 242.759 144.866 243.775 145.555Z" fill="#16110D"/>
<path d="M252.24 140.388C253.256 141.077 253.256 141.766 252.24 142.455C251.224 143.144 249.87 143.144 248.854 142.455C247.838 141.766 247.838 141.077 248.854 140.388C249.87 140.043 251.563 140.043 252.24 140.388Z" fill="#16110D"/>
<path d="M261.04 135.564C262.056 136.253 262.056 136.941 261.04 137.63C260.025 138.319 258.67 138.319 257.655 137.63C256.639 136.941 256.639 136.253 257.655 135.564C258.67 134.875 260.025 134.875 261.04 135.564Z" fill="#16110D"/>
<path d="M267.813 132.809C269.122 132.809 270.183 132.192 270.183 131.431C270.183 130.67 269.122 130.053 267.813 130.053C266.504 130.053 265.443 130.67 265.443 131.431C265.443 132.192 266.504 132.809 267.813 132.809Z" fill="#16110D"/>
<path d="M164.887 183.101C166.196 183.101 167.257 182.485 167.257 181.724C167.257 180.963 166.196 180.346 164.887 180.346C163.578 180.346 162.517 180.963 162.517 181.724C162.517 182.485 163.578 183.101 164.887 183.101Z" fill="#16110D"/>
<path d="M175.383 175.869C176.399 176.558 176.399 177.247 175.383 177.936C174.368 178.624 173.013 178.624 171.998 177.936C170.982 177.247 170.982 176.558 171.998 175.869C173.013 175.18 174.368 175.18 175.383 175.869Z" fill="#16110D"/>
<path d="M183.846 170.7C184.862 171.389 184.862 172.078 183.846 172.767C182.83 173.456 181.476 173.456 180.46 172.767C179.444 172.078 179.444 171.389 180.46 170.7C181.476 170.356 182.83 170.356 183.846 170.7Z" fill="#16110D"/>
<path d="M192.312 165.532C193.328 166.221 193.328 166.91 192.312 167.599C191.296 168.288 189.942 168.288 188.926 167.599C187.91 166.91 187.91 166.221 188.926 165.532C189.942 165.188 191.635 165.188 192.312 165.532Z" fill="#16110D"/>
<path d="M201.114 160.714C202.13 161.403 202.13 162.091 201.114 162.78C200.099 163.469 198.744 163.469 197.729 162.78C196.713 162.091 196.713 161.403 197.729 160.714C198.744 160.025 200.099 160.025 201.114 160.714Z" fill="#16110D"/>
<path d="M209.58 155.546C210.596 156.235 210.596 156.924 209.58 157.613C208.565 158.302 207.21 158.302 206.195 157.613C205.179 156.924 205.179 156.235 206.195 155.546C207.21 154.857 208.565 155.202 209.58 155.546Z" fill="#16110D"/>
<path d="M216.35 152.787C217.659 152.787 218.72 152.17 218.72 151.409C218.72 150.649 217.659 150.032 216.35 150.032C215.041 150.032 213.98 150.649 213.98 151.409C213.98 152.17 215.041 152.787 216.35 152.787Z" fill="#16110D"/>
<path d="M226.845 145.555C227.861 146.244 227.861 146.933 226.845 147.621C225.83 148.31 224.475 148.31 223.459 147.621C222.444 146.933 222.444 146.244 223.459 145.555C224.137 144.866 225.83 144.866 226.845 145.555Z" fill="#16110D"/>
<path d="M233.617 142.8C234.926 142.8 235.987 142.183 235.987 141.422C235.987 140.661 234.926 140.044 233.617 140.044C232.308 140.044 231.247 140.661 231.247 141.422C231.247 142.183 232.308 142.8 233.617 142.8Z" fill="#16110D"/>
<path d="M243.775 135.564C244.79 136.253 244.79 136.941 243.775 137.63C242.759 138.319 241.405 138.319 240.389 137.63C239.373 136.941 239.373 136.253 240.389 135.564C241.405 134.875 242.759 134.875 243.775 135.564Z" fill="#16110D"/>
<path d="M250.884 132.809C252.193 132.809 253.254 132.192 253.254 131.431C253.254 130.67 252.193 130.053 250.884 130.053C249.575 130.053 248.514 130.67 248.514 131.431C248.514 132.192 249.575 132.809 250.884 132.809Z" fill="#16110D"/>
<path d="M261.04 125.576C262.056 126.265 262.056 126.954 261.04 127.643C260.025 128.332 258.67 128.332 257.655 127.643C256.639 126.954 256.639 126.265 257.655 125.576C258.67 124.887 260.025 124.887 261.04 125.576Z" fill="#16110D"/>
<path d="M158.116 175.869C159.132 176.558 159.132 177.247 158.116 177.936C157.1 178.624 155.746 178.624 154.73 177.936C153.714 177.247 153.714 176.558 154.73 175.869C155.746 175.18 157.1 175.18 158.116 175.869Z" fill="#16110D"/>
<path d="M164.887 173.112C166.196 173.112 167.257 172.495 167.257 171.734C167.257 170.973 166.196 170.357 164.887 170.357C163.578 170.357 162.517 170.973 162.517 171.734C162.517 172.495 163.578 173.112 164.887 173.112Z" fill="#16110D"/>
<path d="M175.383 165.532C176.399 166.221 176.399 166.91 175.383 167.599C174.368 168.288 173.013 168.288 171.998 167.599C170.982 166.91 170.982 166.221 171.998 165.532C173.013 165.188 174.368 165.188 175.383 165.532Z" fill="#16110D"/>
<path d="M182.154 163.125C183.463 163.125 184.524 162.508 184.524 161.747C184.524 160.986 183.463 160.369 182.154 160.369C180.845 160.369 179.784 160.986 179.784 161.747C179.784 162.508 180.845 163.125 182.154 163.125Z" fill="#16110D"/>
<path d="M192.312 155.545C193.328 156.234 193.328 156.923 192.312 157.612C191.296 158.301 189.942 158.301 188.926 157.612C187.911 156.923 187.911 156.234 188.926 155.545C189.942 155.201 191.635 155.201 192.312 155.545Z" fill="#16110D"/>
<path d="M199.423 152.787C200.731 152.787 201.793 152.17 201.793 151.409C201.793 150.648 200.731 150.031 199.423 150.031C198.114 150.031 197.052 150.648 197.052 151.409C197.052 152.17 198.114 152.787 199.423 152.787Z" fill="#16110D"/>
<path d="M209.58 145.555C210.596 146.244 210.596 146.933 209.58 147.621C208.565 148.31 207.21 148.31 206.195 147.621C205.179 146.933 205.179 146.244 206.195 145.555C207.21 144.866 208.565 144.866 209.58 145.555Z" fill="#16110D"/>
<path d="M218.043 140.388C219.059 141.077 219.059 141.766 218.043 142.455C217.027 143.144 215.673 143.144 214.657 142.455C213.641 141.766 213.641 141.077 214.657 140.388C215.673 140.043 217.366 140.043 218.043 140.388Z" fill="#16110D"/>
<path d="M226.845 135.564C227.861 136.253 227.861 136.941 226.845 137.63C225.83 138.319 224.475 138.319 223.459 137.63C222.444 136.941 222.444 136.253 223.459 135.564C224.137 134.875 225.83 134.875 226.845 135.564Z" fill="#16110D"/>
<path d="M233.617 132.809C234.926 132.809 235.987 132.192 235.987 131.431C235.987 130.67 234.926 130.053 233.617 130.053C232.308 130.053 231.247 130.67 231.247 131.431C231.247 132.192 232.308 132.809 233.617 132.809Z" fill="#16110D"/>
<path d="M243.775 125.576C244.79 126.265 244.79 126.954 243.775 127.643C242.759 128.332 241.405 128.332 240.389 127.643C239.373 126.954 239.373 126.265 240.389 125.576C241.405 124.887 242.759 124.887 243.775 125.576Z" fill="#16110D"/>
<path d="M250.884 122.82C252.193 122.82 253.254 122.203 253.254 121.442C253.254 120.681 252.193 120.064 250.884 120.064C249.575 120.064 248.514 120.681 248.514 121.442C248.514 122.203 249.575 122.82 250.884 122.82Z" fill="#16110D"/>
<path d="M147.959 173.112C149.268 173.112 150.329 172.495 150.329 171.734C150.329 170.973 149.268 170.357 147.959 170.357C146.65 170.357 145.589 170.973 145.589 171.734C145.589 172.495 146.65 173.112 147.959 173.112Z" fill="#16110D"/>
<path d="M158.116 165.532C159.132 166.221 159.132 166.91 158.116 167.599C157.1 168.288 155.746 168.288 154.73 167.599C153.714 166.91 153.714 166.221 154.73 165.532C155.746 165.188 157.1 165.188 158.116 165.532Z" fill="#16110D"/>
<path d="M166.579 160.714C167.595 161.403 167.595 162.091 166.579 162.78C165.564 163.469 164.209 163.469 163.193 162.78C162.178 162.091 162.178 161.403 163.193 160.714C164.209 160.025 165.902 160.025 166.579 160.714Z" fill="#16110D"/>
<path d="M175.383 155.545C176.399 156.234 176.399 156.923 175.383 157.612C174.368 158.301 173.013 158.301 171.998 157.612C170.982 156.923 170.982 156.234 171.998 155.545C173.013 155.201 174.368 155.201 175.383 155.545Z" fill="#16110D"/>
<path d="M183.846 150.721C184.862 151.41 184.862 152.099 183.846 152.788C182.83 153.476 181.476 153.476 180.46 152.788C179.444 152.099 179.444 151.41 180.46 150.721C181.476 150.032 182.83 150.032 183.846 150.721Z" fill="#16110D"/>
<path d="M140.847 165.532C141.863 166.221 141.863 166.91 140.847 167.599C139.832 168.288 138.477 168.288 137.462 167.599C136.446 166.91 136.446 166.221 137.462 165.532C138.477 165.188 140.17 165.188 140.847 165.532Z" fill="#16110D"/>
<path d="M149.651 160.714C150.666 161.403 150.666 162.091 149.651 162.78C148.635 163.469 147.281 163.469 146.265 162.78C145.249 162.091 145.249 161.403 146.265 160.714C147.281 160.025 148.635 160.025 149.651 160.714Z" fill="#16110D"/>
<path d="M156.422 157.953C157.731 157.953 158.792 157.337 158.792 156.576C158.792 155.815 157.731 155.198 156.422 155.198C155.113 155.198 154.052 155.815 154.052 156.576C154.052 157.337 155.113 157.953 156.422 157.953Z" fill="#16110D"/>
<path d="M164.886 152.787C166.195 152.787 167.256 152.17 167.256 151.409C167.256 150.648 166.195 150.031 164.886 150.031C163.578 150.031 162.516 150.648 162.516 151.409C162.516 152.17 163.578 152.787 164.886 152.787Z" fill="#16110D"/>
<path d="M130.691 163.125C132 163.125 133.061 162.508 133.061 161.747C133.061 160.986 132 160.369 130.691 160.369C129.382 160.369 128.321 160.986 128.321 161.747C128.321 162.508 129.382 163.125 130.691 163.125Z" fill="#16110D"/>
<path d="M140.847 155.545C141.863 156.234 141.863 156.923 140.847 157.612C139.832 158.301 138.477 158.301 137.462 157.612C136.446 156.923 136.446 156.234 137.462 155.545C138.477 155.201 140.17 155.201 140.847 155.545Z" fill="#16110D"/>
<path d="M149.652 150.721C150.667 151.41 150.667 152.099 149.652 152.788C148.636 153.476 147.281 153.476 146.266 152.788C145.25 152.099 145.25 151.41 146.266 150.721C147.281 150.032 148.636 150.032 149.652 150.721Z" fill="#16110D"/>
<path d="M158.116 145.555C159.132 146.244 159.132 146.933 158.116 147.621C157.1 148.31 155.746 148.31 154.73 147.621C153.714 146.933 153.714 146.244 154.73 145.555C155.746 144.866 157.1 144.866 158.116 145.555Z" fill="#16110D"/>
<path d="M123.92 155.545C124.935 156.234 124.935 156.923 123.92 157.612C122.904 158.301 121.55 158.301 120.534 157.612C119.518 156.923 119.518 156.234 120.534 155.545C121.55 155.201 122.904 155.201 123.92 155.545Z" fill="#16110D"/>
<path d="M132.384 150.377C133.4 151.066 133.4 151.755 132.384 152.444C131.368 153.133 130.014 153.133 128.998 152.444C127.983 151.755 127.983 151.066 128.998 150.377C130.014 150.033 131.368 150.033 132.384 150.377Z" fill="#16110D"/>
<path d="M140.847 145.555C141.863 146.244 141.863 146.933 140.847 147.621C139.832 148.31 138.477 148.31 137.462 147.621C136.446 146.933 136.446 146.244 137.462 145.555C138.477 144.866 139.832 144.866 140.847 145.555Z" fill="#16110D"/>
<path d="M149.313 140.388C150.328 141.077 150.328 141.766 149.313 142.455C148.297 143.144 146.942 143.144 145.927 142.455C144.911 141.766 144.911 141.077 145.927 140.388C146.942 140.043 148.635 140.043 149.313 140.388Z" fill="#16110D"/>
<path d="M115.116 150.377C116.132 151.066 116.132 151.755 115.116 152.444C114.101 153.133 112.746 153.133 111.731 152.444C110.715 151.755 110.715 151.066 111.731 150.377C112.746 150.033 114.439 150.033 115.116 150.377Z" fill="#16110D"/>
<path d="M123.92 145.555C124.935 146.244 124.935 146.933 123.92 147.621C122.904 148.31 121.55 148.31 120.534 147.621C119.518 146.933 119.518 146.244 120.534 145.555C121.55 144.866 122.904 144.866 123.92 145.555Z" fill="#16110D"/>
<path d="M132.384 140.388C133.4 141.077 133.4 141.766 132.384 142.455C131.368 143.144 130.014 143.144 128.998 142.455C127.983 141.766 127.983 141.077 128.998 140.388C130.014 140.043 131.368 140.043 132.384 140.388Z" fill="#16110D"/>
<path d="M140.847 135.564C141.863 136.253 141.863 136.941 140.847 137.63C139.832 138.319 138.477 138.319 137.462 137.63C136.446 136.941 136.446 136.253 137.462 135.564C138.477 134.875 139.832 134.875 140.847 135.564Z" fill="#16110D"/>
<path d="M106.652 145.555C107.668 146.244 107.668 146.933 106.652 147.621C105.636 148.31 104.282 148.31 103.266 147.621C102.251 146.933 102.251 146.244 103.266 145.555C104.282 144.866 105.636 144.866 106.652 145.555Z" fill="#16110D"/>
<path d="M115.116 140.388C116.132 141.077 116.132 141.766 115.116 142.455C114.101 143.144 112.746 143.144 111.731 142.455C110.715 141.766 110.715 141.077 111.731 140.388C112.746 140.043 114.439 140.043 115.116 140.388Z" fill="#16110D"/>
<path d="M123.92 135.564C124.935 136.253 124.935 136.941 123.92 137.63C122.904 138.319 121.55 138.319 120.534 137.63C119.518 136.941 119.518 136.253 120.534 135.564C121.55 134.875 122.904 134.875 123.92 135.564Z" fill="#16110D"/>
<path d="M132.384 130.399C133.4 131.088 133.4 131.777 132.384 132.466C131.368 133.155 130.014 133.155 128.998 132.466C127.983 131.777 127.983 131.088 128.998 130.399C130.014 129.71 131.368 129.71 132.384 130.399Z" fill="#16110D"/>
<path d="M98.188 140.388C99.2037 141.077 99.2037 141.766 98.188 142.455C97.1722 143.144 95.8179 143.144 94.8022 142.455C93.7865 141.766 93.7865 141.077 94.8022 140.388C95.8179 140.043 97.1722 140.043 98.188 140.388Z" fill="#16110D"/>
<path d="M104.957 137.63C106.266 137.63 107.327 137.013 107.327 136.252C107.327 135.491 106.266 134.874 104.957 134.874C103.648 134.874 102.587 135.491 102.587 136.252C102.587 137.013 103.648 137.63 104.957 137.63Z" fill="#16110D"/>
<path d="M115.117 130.399C116.132 131.088 116.132 131.777 115.117 132.466C114.101 133.155 112.747 133.155 111.731 132.466C110.715 131.777 110.715 131.088 111.731 130.399C112.747 129.71 114.439 129.71 115.117 130.399Z" fill="#16110D"/>
<path d="M123.92 125.235C124.935 125.923 124.935 126.612 123.92 127.301C122.904 127.99 121.55 127.99 120.534 127.301C119.518 126.612 119.518 125.923 120.534 125.235C121.55 124.89 122.904 124.89 123.92 125.235C124.597 125.923 122.904 124.89 123.92 125.235Z" fill="#16110D"/>
<path d="M283.387 130.399C284.402 129.71 285.757 129.71 286.772 130.399C287.788 131.088 287.788 131.777 286.772 132.466C285.757 133.155 284.402 133.155 283.387 132.466C282.709 131.777 282.709 131.088 283.387 130.399Z" fill="#16110D"/>
<path d="M293.544 127.643C294.853 127.643 295.914 127.026 295.914 126.265C295.914 125.504 294.853 124.887 293.544 124.887C292.235 124.887 291.174 125.504 291.174 126.265C291.174 127.026 292.235 127.643 293.544 127.643Z" fill="#16110D"/>
<path d="M276.616 127.643C277.925 127.643 278.986 127.026 278.986 126.265C278.986 125.504 277.925 124.887 276.616 124.887C275.307 124.887 274.246 125.504 274.246 126.265C274.246 127.026 275.307 127.643 276.616 127.643Z" fill="#16110D"/>
<path d="M286.772 120.408C287.788 121.097 287.788 121.786 286.772 122.475C285.756 123.164 284.402 123.164 283.386 122.475C282.371 121.786 282.371 121.097 283.386 120.408C284.402 120.063 285.756 120.063 286.772 120.408Z" fill="#16110D"/>
<path d="M295.237 115.24C296.252 115.929 296.252 116.618 295.237 117.307C294.221 117.996 292.866 117.996 291.851 117.307C290.835 116.618 290.835 115.929 291.851 115.24C292.866 114.895 294.559 114.895 295.237 115.24Z" fill="#16110D"/>
<path d="M266.46 120.408C267.475 119.719 268.83 119.719 269.845 120.408C270.861 121.097 270.861 121.786 269.845 122.475C268.83 123.164 267.475 123.164 266.46 122.475C265.444 121.786 265.444 121.097 266.46 120.408Z" fill="#16110D"/>
<path d="M278.31 115.24C279.325 115.929 279.325 116.618 278.31 117.307C277.294 117.996 275.94 117.996 274.924 117.307C273.908 116.618 273.908 115.929 274.924 115.24C275.94 114.895 277.294 114.895 278.31 115.24Z" fill="#16110D"/>
<path d="M285.08 112.833C286.389 112.833 287.45 112.216 287.45 111.455C287.45 110.694 286.389 110.077 285.08 110.077C283.771 110.077 282.71 110.694 282.71 111.455C282.71 112.216 283.771 112.833 285.08 112.833Z" fill="#16110D"/>
<path d="M257.656 115.242C258.671 114.553 260.026 114.553 261.041 115.242C262.057 115.931 262.057 116.62 261.041 117.309C260.026 117.998 258.671 117.998 257.656 117.309C256.978 116.965 256.978 115.931 257.656 115.242Z" fill="#16110D"/>
<path d="M269.506 110.419C270.521 111.108 270.521 111.797 269.506 112.486C268.49 113.175 267.136 113.175 266.12 112.486C265.104 111.797 265.104 111.108 266.12 110.419C267.136 109.73 268.828 109.73 269.506 110.419Z" fill="#16110D"/>
<path d="M278.31 105.252C279.325 105.941 279.325 106.63 278.31 107.319C277.294 108.008 275.939 108.008 274.924 107.319C273.908 106.63 273.908 105.941 274.924 105.252C275.939 104.908 277.294 104.908 278.31 105.252Z" fill="#16110D"/>
<path d="M43.3396 72.6922C44.3553 73.3812 44.3553 74.0701 43.3396 74.759C42.3239 75.448 40.9696 75.448 39.9538 74.759C38.9381 74.0701 38.9381 73.3812 39.9538 72.6922C40.9696 72.0033 42.3239 72.0033 43.3396 72.6922Z" fill="#16110D"/>
<path d="M32.8429 69.9394C34.1518 69.9394 35.2129 69.3226 35.2129 68.5616C35.2129 67.8006 34.1518 67.1837 32.8429 67.1837C31.534 67.1837 30.4729 67.8006 30.4729 68.5616C30.4729 69.3226 31.534 69.9394 32.8429 69.9394Z" fill="#16110D"/>
<path d="M26.072 62.3594C27.0877 63.0484 27.0877 63.7373 26.072 64.4262C25.0563 65.1152 23.702 65.1152 22.6863 64.4262C21.6705 63.7373 21.6705 63.0484 22.6863 62.3594C23.702 62.015 25.0563 62.015 26.072 62.3594Z" fill="#16110D"/>
<path d="M99.88 69.5928C98.8642 68.9039 98.8642 68.215 99.88 67.526C100.896 66.8371 102.25 66.8371 103.266 67.526C104.281 68.215 100.896 69.9373 99.88 69.5928Z" fill="#16110D"/>
<path d="M108.684 64.425C107.668 63.7361 107.668 63.0471 108.684 62.3582C109.7 61.6693 111.054 61.6693 112.07 62.3582C112.747 63.0471 109.361 65.1139 108.684 64.425Z" fill="#16110D"/>
<path d="M117.149 59.6017C116.133 58.9128 116.133 58.2239 117.149 57.5349C118.165 56.846 119.519 56.846 120.535 57.5349C121.212 58.2239 118.165 59.9462 117.149 59.6017Z" fill="#16110D"/>
<path d="M77.5365 72.6922C78.5523 73.3812 78.5523 74.0701 77.5365 74.759C76.5208 75.448 75.1665 75.448 74.1508 74.759C73.1351 74.0701 73.1351 73.3812 74.1508 72.6922C75.1665 72.0033 76.5208 72.0033 77.5365 72.6922Z" fill="#16110D"/>
<path d="M86.0008 67.5273C87.0166 68.2162 87.0166 68.9051 86.0008 69.5941C84.9851 70.283 83.6308 70.283 82.6151 69.5941C81.5994 68.9051 81.5994 68.2162 82.6151 67.5273C83.6308 67.1828 85.3237 67.1828 86.0008 67.5273Z" fill="#16110D"/>
<path d="M93.1088 64.7678C94.4178 64.7678 95.4789 64.1509 95.4789 63.3899C95.4789 62.629 94.4178 62.0121 93.1088 62.0121C91.7999 62.0121 90.7388 62.629 90.7388 63.3899C90.7388 64.1509 91.7999 64.7678 93.1088 64.7678Z" fill="#16110D"/>
<path d="M101.575 59.9447C102.884 59.9447 103.945 59.3278 103.945 58.5668C103.945 57.8059 102.884 57.189 101.575 57.189C100.266 57.189 99.2049 57.8059 99.2049 58.5668C99.2049 59.3278 100.266 59.9447 101.575 59.9447Z" fill="#16110D"/>
<path d="M111.732 52.3665C112.747 53.0554 112.747 53.7444 111.732 54.4333C110.716 55.1222 109.362 55.1222 108.346 54.4333C107.33 53.7444 107.33 53.0554 108.346 52.3665C109.362 52.022 111.055 52.022 111.732 52.3665Z" fill="#16110D"/>
<path d="M118.841 49.9574C120.15 49.9574 121.211 49.3405 121.211 48.5795C121.211 47.8186 120.15 47.2017 118.841 47.2017C117.533 47.2017 116.471 47.8186 116.471 48.5795C116.471 49.3405 117.533 49.9574 118.841 49.9574Z" fill="#16110D"/>
<path d="M57.2213 72.6922C58.237 72.0033 59.5913 72.0033 60.6071 72.6922C61.6228 73.3812 61.6228 74.0701 60.6071 74.759C59.5913 75.448 58.237 75.448 57.2213 74.759C56.2056 74.0701 56.2056 73.0367 57.2213 72.6922Z" fill="#16110D"/>
<path d="M67.3788 69.9394C68.6878 69.9394 69.7489 69.3226 69.7489 68.5616C69.7489 67.8006 68.6878 67.1837 67.3788 67.1837C66.0699 67.1837 65.0088 67.8006 65.0088 68.5616C65.0088 69.3226 66.0699 69.9394 67.3788 69.9394Z" fill="#16110D"/>
<path d="M77.5365 62.6993C78.5523 63.3883 78.5523 64.0772 77.5365 64.7661C76.5208 65.455 75.1665 65.455 74.1508 64.7661C73.1351 64.0772 73.1351 63.3883 74.1508 62.6993C75.1665 62.0104 76.5208 62.0104 77.5365 62.6993Z" fill="#16110D"/>
<path d="M86.0007 57.5349C87.0164 58.2239 87.0164 58.9128 86.0007 59.6017C84.985 60.2907 83.6307 60.2907 82.615 59.6017C81.5992 58.9128 81.5992 58.2239 82.615 57.5349C83.6307 56.846 85.3236 56.846 86.0007 57.5349Z" fill="#16110D"/>
<path d="M94.8014 52.3665C95.8171 53.0554 95.8171 53.7444 94.8014 54.4333C93.7857 55.1222 92.4314 55.1222 91.4157 54.4333C90.3999 53.7444 90.3999 53.0554 91.4157 52.3665C92.4314 52.022 93.7857 52.022 94.8014 52.3665Z" fill="#16110D"/>
<path d="M103.266 47.5496C104.281 48.2385 104.281 48.9275 103.266 49.6164C102.25 50.3053 100.896 50.3053 99.88 49.6164C98.8642 48.9275 98.8642 48.2385 99.88 47.5496C100.896 46.8607 102.25 46.8607 103.266 47.5496Z" fill="#16110D"/>
<path d="M111.732 42.3792C112.747 43.0681 112.747 43.7571 111.732 44.446C110.716 45.1349 109.362 45.1349 108.346 44.446C107.33 43.7571 107.33 43.0681 108.346 42.3792C109.362 42.0347 111.055 42.0347 111.732 42.3792Z" fill="#16110D"/>
<path d="M48.4191 67.526C49.4348 66.8371 50.7891 66.8371 51.8049 67.526C52.8206 68.215 52.8206 68.9039 51.8049 69.5928C50.7891 70.2818 49.4348 70.2818 48.4191 69.5928C47.742 68.9039 47.742 68.215 48.4191 67.526Z" fill="#16110D"/>
<path d="M60.2682 62.6993C61.2839 63.3883 61.2839 64.0772 60.2682 64.7661C59.2524 65.455 57.8981 65.455 56.8824 64.7661C55.8667 64.0772 55.8667 63.3883 56.8824 62.6993C57.8981 62.0104 59.591 62.0104 60.2682 62.6993Z" fill="#16110D"/>
<path d="M67.3788 59.9447C68.6878 59.9447 69.7489 59.3278 69.7489 58.5668C69.7489 57.8059 68.6878 57.189 67.3788 57.189C66.0699 57.189 65.0088 57.8059 65.0088 58.5668C65.0088 59.3278 66.0699 59.9447 67.3788 59.9447Z" fill="#16110D"/>
<path d="M77.5357 52.3665C78.5514 53.0554 78.5514 53.7444 77.5357 54.4333C76.5199 55.1222 75.1656 55.1222 74.1499 54.4333C73.1342 53.7444 73.1342 53.0554 74.1499 52.3665C75.1656 52.022 76.5199 52.022 77.5357 52.3665Z" fill="#16110D"/>
<path d="M82.9532 47.5496C83.969 46.8607 85.3232 46.8607 86.339 47.5496C87.3547 48.2385 87.3547 48.9275 86.339 49.6164C85.3232 50.3053 83.969 50.3053 82.9532 49.6164C81.9375 48.9275 81.9375 47.8941 82.9532 47.5496C83.6304 46.8607 81.9375 47.8941 82.9532 47.5496Z" fill="#16110D"/>
<path d="M94.8039 42.3782C95.8196 43.0672 95.8196 43.7561 94.8039 44.445C93.7882 45.134 92.4339 45.134 91.4182 44.445C90.4024 43.7561 93.7882 42.0338 94.8039 42.3782Z" fill="#16110D"/>
<path d="M103.266 37.5582C104.282 38.2471 104.282 38.936 103.266 39.625C102.25 40.3139 100.896 40.3139 99.8802 39.625C99.203 38.936 102.25 36.8692 103.266 37.5582Z" fill="#16110D"/>
<path d="M39.9538 62.6993C40.9696 62.0104 42.3239 62.0104 43.3396 62.6993C44.3553 63.3883 44.3553 64.0772 43.3396 64.7661C42.3239 65.455 40.9696 65.455 39.9538 64.7661C38.9381 64.0772 38.9381 63.0438 39.9538 62.6993Z" fill="#16110D"/>
<path d="M50.1114 59.9447C51.4203 59.9447 52.4814 59.3278 52.4814 58.5668C52.4814 57.8059 51.4203 57.189 50.1114 57.189C48.8024 57.189 47.7413 57.8059 47.7413 58.5668C47.7413 59.3278 48.8024 59.9447 50.1114 59.9447Z" fill="#16110D"/>
<path d="M60.2682 52.3665C61.2839 53.0554 61.2839 53.7444 60.2682 54.4333C59.2524 55.1222 57.8981 55.1222 56.8824 54.4333C55.8667 53.7444 55.8667 53.0554 56.8824 52.3665C57.8981 52.022 59.591 52.022 60.2682 52.3665C61.2839 53.0554 59.591 52.022 60.2682 52.3665Z" fill="#16110D"/>
<path d="M31.4888 57.5349C32.5045 56.846 33.8588 56.846 34.8745 57.5349C35.8902 58.2239 35.8902 58.9128 34.8745 59.6017C33.8588 60.2907 32.5045 60.2907 31.4888 59.6017C30.4731 58.9128 30.4731 58.2239 31.4888 57.5349Z" fill="#16110D"/>
<path d="M41.6462 54.7769C42.9551 54.7769 44.0162 54.16 44.0162 53.399C44.0162 52.638 42.9551 52.0211 41.6462 52.0211C40.3372 52.0211 39.2762 52.638 39.2762 53.399C39.2762 54.16 40.3372 54.7769 41.6462 54.7769Z" fill="#16110D"/>
<path d="M51.8039 49.2689C50.7882 49.9578 49.4339 49.9578 48.4181 49.2689C47.4024 48.5799 47.4024 47.891 48.4181 47.2021C49.4339 46.8576 52.8196 48.9244 51.8039 49.2689Z" fill="#16110D"/>
<path d="M22.6855 52.3689C23.7012 51.68 25.0555 51.68 26.0712 52.3689C27.087 53.0579 27.087 53.7468 26.0712 54.4357C25.0555 55.1247 23.7012 55.1247 22.6855 54.4357C22.0084 53.7468 22.0084 53.0579 22.6855 52.3689Z" fill="#16110D"/>
<path d="M34.5363 47.5496C35.552 48.2385 35.552 48.9275 34.5363 49.6164C33.5206 50.3053 32.1663 50.3053 31.1506 49.6164C30.1348 48.9275 30.1348 48.2385 31.1506 47.5496C32.1663 46.8607 33.8591 46.8607 34.5363 47.5496Z" fill="#16110D"/>
<path d="M43.3396 44.4443C42.3239 45.1332 40.9696 45.1332 39.9538 44.4443C38.9381 43.7554 38.9381 43.0664 39.9538 42.3775C40.9696 41.6886 44.0167 43.7554 43.3396 44.4443Z" fill="#16110D"/>
<path d="M80.581 98.3635L80.9196 73.2175H285.757L285.418 97.6746C285.418 98.3635 285.418 97.6746 285.418 98.3635C285.08 102.153 282.033 105.597 276.954 108.698L200.436 153.478C190.279 159.334 174.705 160.023 165.902 154.856L86.6754 108.009C82.2739 105.597 80.2425 101.808 80.581 98.3635Z" fill="#0066FF"/>
<path d="M80.581 98.3635L80.9196 73.2175H285.757L285.418 97.6746C285.418 98.3635 285.418 97.6746 285.418 98.3635C285.08 102.153 282.033 105.597 276.954 108.698L200.436 153.478C190.279 159.334 174.705 160.023 165.902 154.856L86.6754 108.009C82.2739 105.597 80.2425 102.153 80.581 98.3635Z" fill="#0066FF"/>
<path d="M181.137 160.021C175.381 160.021 169.625 158.988 165.562 156.232L85.9976 109.385C81.2575 106.629 78.8875 102.495 79.5647 98.3618L79.9032 73.9047L287.449 71.8379L287.111 97.6729C287.111 98.0173 287.111 98.3618 287.111 98.7063C286.433 102.84 283.386 106.973 277.969 110.074L201.451 154.854C195.696 158.299 188.247 160.021 181.137 160.021ZM82.2733 74.2492L81.9347 98.3618C81.5961 101.462 83.289 104.562 87.0133 106.973L166.917 153.821C175.381 158.643 190.278 158.299 200.097 152.443L276.615 107.662C281.016 104.907 283.725 101.806 284.402 98.3618V98.0173L284.741 74.9381H82.2733V74.2492Z" fill="#16110D"/>
<path d="M87.0121 83.5481L166.577 130.396C175.38 135.563 190.954 134.874 201.112 129.018L277.629 84.2371C287.787 78.3811 288.802 69.0805 279.999 63.9135L200.096 17.0661C191.293 11.8991 175.719 12.588 165.561 18.4439L89.0436 63.2246C79.2249 69.425 77.8706 78.3811 87.0121 83.5481Z" fill="#0066FF"/>
<path d="M85.9968 92.8493L165.562 139.697C174.365 144.864 189.939 144.175 200.096 138.319L276.614 93.5383C286.771 87.6824 287.787 78.3817 278.984 73.2147L199.419 26.3673C190.616 21.2003 175.042 21.8892 164.885 27.7451L88.3668 72.5258C78.2096 78.7262 77.1938 87.6824 85.9968 92.8493Z" fill="white"/>
<path d="M181.475 135.217C175.719 135.217 169.963 134.183 165.9 131.428L86.3354 84.5801C81.934 82.1688 79.5639 78.3797 79.5639 74.5905C79.5639 70.1125 82.9497 65.2899 88.7054 61.8453L165.223 17.0646C175.719 10.8642 191.97 10.1753 201.112 15.6867L280.677 62.5342C285.078 64.9455 287.448 68.7346 287.448 72.5237C287.448 77.0018 284.063 81.8243 278.307 85.269L201.789 130.05C196.033 133.494 188.585 135.217 181.475 135.217ZM185.199 14.6533C178.766 14.6533 171.656 16.3757 166.239 19.4759L89.7212 64.2565C84.9811 67.3567 82.2725 71.1459 82.2725 74.5905C82.2725 77.3463 84.304 80.102 87.6897 82.1688L167.255 129.016C175.719 133.839 190.616 133.494 200.435 127.638L276.953 82.8577C282.031 80.102 284.74 76.3129 284.74 72.5237C284.74 69.768 282.708 67.0123 279.323 64.9455L199.419 18.098C195.695 15.6867 190.616 14.6533 185.199 14.6533Z" fill="#16110D"/>
<path d="M181.814 133.842V158.643L193.664 156.576L208.9 149.343L281.355 105.94L285.757 100.084V72.8711L283.048 80.7938L267.135 90.0944L194.003 132.119L181.814 133.842Z" fill="#16110D"/>
<path d="M169.626 132.12V156.577L160.823 152.444V127.987L169.626 132.12Z" fill="#16110D"/>
<path d="M85.3202 83.2052V106.629L81.9344 103.873L79.5644 88.0277L80.5801 74.249L85.3202 83.2052Z" fill="#16110D"/>
<path d="M105.974 23.7793L101.234 25.5016C99.8799 24.1237 98.187 22.7459 96.1555 21.368C95.817 21.0235 95.4784 20.6791 94.8012 20.3346C95.1398 19.3012 95.4784 17.9233 95.4784 17.2344C95.1398 15.5121 84.3055 8.62272 80.9197 6.55592C77.534 4.83359 61.2824 4.14465 61.2824 4.14465L43.338 17.2344L46.0466 18.9567C45.0309 19.3012 44.0151 19.9901 42.9994 20.3346C41.3066 21.368 39.9523 22.4014 38.2594 23.4348H30.8108V37.2135C31.1493 42.3805 34.1965 47.5475 40.6294 51.681C54.5109 60.6372 78.5497 60.9817 93.7855 52.7145C101.573 48.2364 105.974 42.3805 105.974 36.869V23.7793ZM60.6053 40.6581L50.7866 30.6686C51.8023 29.6352 53.1566 28.6018 54.5109 27.9129C62.6367 23.4348 75.8411 23.4348 83.2897 28.2573C85.6597 29.6352 87.3526 31.3575 88.0298 33.4243L60.6053 40.6581Z" fill="#0066FF"/>
<path d="M67.7141 59.9465C57.5569 59.9465 47.0611 57.5353 39.6124 52.7127C33.1795 48.5791 29.4552 43.4121 29.1166 37.9007V37.2117V22.0552H37.581C38.9353 21.0218 40.6282 19.9884 41.9825 19.2995C41.9825 19.2995 42.321 19.2995 42.321 18.955L40.6282 17.5771L60.9426 2.76508H61.6198C63.3126 2.76508 78.2099 3.45401 81.9342 5.52081C81.9342 5.52081 96.8315 14.1325 97.17 17.2327C97.17 17.5771 97.17 18.2661 96.8315 19.9884L97.17 20.3329C98.8629 21.3663 100.556 22.7441 101.91 23.7775L108.004 21.7107V37.9007C107.327 44.4455 102.926 50.3015 95.1386 54.4351C87.0128 58.2242 77.5327 59.9465 67.7141 59.9465ZM32.5024 37.2117C32.841 42.0343 35.8881 46.8568 41.6439 50.3015C55.1868 58.9131 78.2099 59.2576 93.4457 50.9904C100.556 47.2013 104.619 42.0343 104.957 36.1783V35.4894V25.8443L101.233 27.2222L100.556 26.5333C98.8629 25.1554 97.17 23.7775 95.4772 22.7441C95.1386 22.3997 94.8 22.3997 94.4614 22.0552L92.7686 21.0218L93.1071 19.6439C93.7843 17.9216 93.4457 17.2327 93.4457 17.2327C92.7686 16.1993 83.2885 9.65441 79.9027 7.93208C77.8713 6.89867 67.7141 5.86528 61.6198 5.52081L46.3839 17.2327L49.7697 19.2995L47.0611 20.6773C45.7068 21.0218 44.691 21.3663 44.0139 21.7107C42.321 22.7441 40.6282 23.7775 39.2739 24.8109L38.9353 25.1554H32.5024V37.2117ZM59.9269 42.3787L48.4154 30.6669L49.4311 29.6335C50.4468 28.6001 52.1397 27.5667 53.494 26.5333C62.2969 21.7107 75.8399 22.0552 83.9656 26.8777C86.6742 28.6001 88.3671 30.3224 89.3828 32.7337L90.06 34.456L59.9269 42.3787ZM53.1554 30.6669L60.9426 38.5896L85.6585 32.0447C84.9814 31.0113 83.9656 30.3224 82.6113 29.289C75.5013 24.8109 63.3126 24.4665 55.5254 28.9445C54.5097 29.6335 53.8325 30.3224 53.1554 30.6669Z" fill="#16110D"/>
<path d="M93.7864 39.6251C78.5506 47.8923 54.8504 47.5478 40.6303 38.9362C26.7487 29.98 27.7645 15.8569 43.0003 7.58971C58.2361 -0.677487 82.2749 -0.33302 96.1564 8.62311C110.377 17.2348 109.361 31.3579 93.7864 39.6251ZM54.8504 14.8235C46.7246 19.3016 46.0475 26.8798 53.4961 31.7024C60.9447 36.5249 73.8105 36.5249 82.2749 32.0468C90.4007 27.5688 91.0778 19.9905 83.6292 15.168C75.842 10.6899 62.9762 10.3454 54.8504 14.8235Z" fill="#0066FF"/>
<path d="M96.4958 12.7541C82.6143 3.79794 58.5755 3.45347 43.3397 12.0651C37.9225 14.8209 34.1982 18.61 32.5053 22.3991V34.111C33.8596 37.2112 36.9068 40.3114 40.9697 43.0671C54.8512 52.0233 78.89 52.3677 94.1258 44.1005C109.362 35.8333 110.377 21.7102 96.4958 12.7541ZM82.6143 36.5223C74.4885 41.0003 61.2841 41.0003 53.8355 36.1778C46.3868 31.3553 46.7254 23.777 55.1898 19.2989C63.3156 14.8209 76.5199 14.8209 83.9686 19.6434C91.4172 24.4659 90.7401 32.0442 82.6143 36.5223Z" fill="white"/>
<path d="M67.7161 47.2019C57.5588 47.2019 47.063 44.7906 39.6144 39.9681C32.5044 35.49 28.78 29.6341 29.1186 23.4337C29.4572 16.5443 33.8587 10.6884 42.323 6.21034C58.236 -2.40133 82.6133 -2.05686 97.172 7.24374C104.282 11.7218 108.006 17.5777 107.668 23.7781C107.329 30.6675 102.928 36.5234 94.4634 41.0015C87.0148 45.1351 77.5347 47.2019 67.7161 47.2019ZM69.0704 3.11014C59.9289 3.11014 50.7874 5.17694 43.6773 8.96607C36.9058 12.7552 32.5044 18.2667 32.5044 23.7781C32.5044 28.9451 35.5515 33.7677 41.6459 37.5568C55.1888 46.1685 78.2119 46.5129 93.4477 38.2457C100.558 34.4566 104.621 28.9451 104.959 23.4337C104.959 18.2667 101.912 13.4441 95.8177 9.655C88.3691 5.5214 78.889 3.11014 69.0704 3.11014ZM68.0546 37.2123C62.2989 37.2123 56.5431 35.8345 52.4802 33.4232C48.4173 31.0119 46.3859 27.5673 46.3859 23.7781C46.3859 19.989 49.0945 16.1999 53.8345 13.7886C62.6375 8.96607 76.1804 9.31054 84.3062 14.4775C88.3691 16.8888 90.4005 20.3335 90.4005 24.1226C90.4005 27.9117 87.6919 31.7009 82.9519 34.1121C78.889 36.1789 73.4718 37.2123 68.0546 37.2123ZM68.7318 13.4441C63.9917 13.4441 59.2517 14.4775 55.5274 16.5443C51.8031 18.6111 49.7716 21.0224 49.7716 23.7781C49.7716 26.1894 51.4645 28.6007 54.1731 30.6675C61.2832 35.1455 73.4718 35.49 81.259 31.0119C84.9833 28.9451 87.0148 26.5339 87.0148 23.7781C87.0148 21.3669 85.3219 18.9556 82.6133 16.8888C78.889 14.4775 73.8104 13.4441 68.7318 13.4441Z" fill="#16110D"/>
<path d="M71.4413 12.4106V24.8114L55.1897 26.8782L51.4654 29.6339L48.0797 24.4669L52.1425 15.8553L66.3627 12.4106H71.4413Z" fill="#16110D"/>
<path d="M61.2845 45.1341V58.5683L88.3704 55.8126L104.622 44.1007L106.653 29.2886L103.606 31.3554L93.7876 39.6226L78.2132 45.823L61.2845 45.1341Z" fill="#16110D"/>
<path d="M184.752 73.277L202.035 63.1113C203.479 62.2624 203.485 60.8889 202.049 60.0445C200.613 59.2 198.278 59.2036 196.835 60.0526L178.609 70.7799C178.013 71.1306 177.616 71.6014 177.539 72.132L186.447 89.7124C186.981 90.8021 187.774 91.9476 189.796 92.0434C191.819 92.14 193.226 90.359 193.399 89.1676L184.75 73.2777L184.752 73.277Z" fill="#16110D"/>
<path fill-rule="evenodd" clip-rule="evenodd" d="M227.708 96.6723L224.514 94.7934C242.035 82.6386 241.13 64.4531 221.731 53.0432C201.29 41.0203 168.055 41.0727 147.506 53.1585C126.958 65.2444 126.869 84.7907 147.311 96.8143L152.276 93.8945L152.261 93.8856C134.533 83.4589 134.608 66.5167 152.428 56.0355C170.246 45.5557 199.053 45.5087 216.781 55.9354C233.47 65.7514 234.375 81.3425 219.558 91.8786L216.448 90.0494C214.918 89.1493 213 90.5562 212.991 91.0584L211.209 98.4575C211.202 99.0475 212.008 99.5217 213.01 99.5172L225.591 98.4709C226.691 98.4655 229.405 97.6718 227.706 96.6723L227.708 96.6723Z" fill="#0066FF" stroke="#0066FF" stroke-linejoin="round"/>
</svg>
