<svg width="36" height="31" viewBox="0 0 36 31" fill="none" xmlns="http://www.w3.org/2000/svg">
<path fill-rule="evenodd" clip-rule="evenodd" d="M33.6522 2.87908H2.34783L2.34783 27.9226H33.6522V2.87908ZM2.34783 0.53125C1.05116 0.53125 0 1.58241 0 2.87908V27.9226C0 29.2192 1.05116 30.2704 2.34783 30.2704H33.6522C34.9488 30.2704 36 29.2192 36 27.9226V2.87908C36 1.58241 34.9488 0.53125 33.6522 0.53125H2.34783Z" fill="black"/>
<path fill-rule="evenodd" clip-rule="evenodd" d="M21.913 2.87908H2.34783V27.9226H21.913V2.87908ZM2.34783 0.53125C1.05116 0.53125 0 1.58241 0 2.87908V27.9226C0 29.2192 1.05116 30.2704 2.34783 30.2704H21.913C23.2097 30.2704 24.2609 29.2192 24.2609 27.9226V2.87908C24.2609 1.58241 23.2097 0.53125 21.913 0.53125H2.34783Z" fill="black"/>
<path fill-rule="evenodd" clip-rule="evenodd" d="M13.3052 3.66168H9.39215V8.35734H13.3052V3.66168ZM6.26172 0.53125V9.13995C6.26172 10.4366 7.31288 11.4878 8.60954 11.4878H14.0878C15.3845 11.4878 16.4356 10.4366 16.4356 9.13994V0.53125H6.26172Z" fill="#0066FF"/>
</svg>
