<svg width="46" height="39" viewBox="0 0 46 39" fill="none" xmlns="http://www.w3.org/2000/svg">
<path fill-rule="evenodd" clip-rule="evenodd" d="M43 3.53125H3L3 35.5312H43V3.53125ZM3 0.53125C1.34315 0.53125 0 1.8744 0 3.53125V35.5312C0 37.1881 1.34315 38.5312 3 38.5312H43C44.6569 38.5312 46 37.1881 46 35.5312V3.53125C46 1.8744 44.6569 0.53125 43 0.53125H3Z" fill="black"/>
<path fill-rule="evenodd" clip-rule="evenodd" d="M28 3.53125H3V35.5312H28V3.53125ZM3 0.53125C1.34315 0.53125 0 1.8744 0 3.53125V35.5312C0 37.1881 1.34315 38.5312 3 38.5312H28C29.6569 38.5312 31 37.1881 31 35.5312V3.53125C31 1.8744 29.6569 0.53125 28 0.53125H3Z" fill="black"/>
<path fill-rule="evenodd" clip-rule="evenodd" d="M17 4.53125H12V10.5313H17V4.53125ZM8 0.53125V11.5313C8 13.1881 9.34315 14.5313 11 14.5313H18C19.6569 14.5313 21 13.1881 21 11.5312V0.53125H8Z" fill="#0066FF"/>
</svg>
