<svg width="37" height="40" viewBox="0 0 37 40" fill="none" xmlns="http://www.w3.org/2000/svg">
<path d="M8.16797 23.459L1.86506 33.8143C1.47268 34.4589 1.92878 35.254 2.69902 35.268L5.87367 35.3258C6.22687 35.3323 6.54682 35.5132 6.71957 35.8041L8.06523 38.0706C8.45011 38.7189 9.43515 38.7059 9.83603 38.0472L16.1015 27.7534" stroke="#0066FF" stroke-width="2.5" stroke-linecap="round"/>
<path d="M29.0156 23.459L35.3185 33.8143C35.7109 34.4589 35.2548 35.254 34.4846 35.268L31.3099 35.3258C30.9567 35.3323 30.6368 35.5132 30.464 35.8041L29.1184 38.0706C28.7335 38.7189 27.7484 38.7059 27.3476 38.0472L21.0821 27.7534" stroke="#0066FF" stroke-width="2.5" stroke-linecap="round"/>
<path d="M17.2386 27.6099L17.6298 28.7971L17.2386 27.6099L13.751 28.7591C12.8503 29.0559 11.8763 28.5868 11.5468 27.6977L10.2708 24.2543C9.95377 23.399 9.37073 22.6679 8.60734 22.1685L5.5343 20.1582C4.74074 19.6391 4.50018 18.5852 4.98992 17.7731L6.88641 14.6286C7.35753 13.8475 7.56562 12.9358 7.48008 12.0276L7.13575 8.37163C7.04683 7.42753 7.72087 6.58232 8.66108 6.45893L12.302 5.98109C13.2065 5.86239 14.049 5.45666 14.7057 4.82353L17.3494 2.27486C18.0321 1.61671 19.1131 1.61671 19.7958 2.27486L22.4395 4.82353C23.0962 5.45666 23.9387 5.86239 24.8432 5.98109L28.4841 6.45893C29.4243 6.58232 30.0984 7.42753 30.0094 8.37163L29.6651 12.0276C29.5796 12.9358 29.7877 13.8475 30.2588 14.6286L32.1553 17.7731C32.645 18.5852 32.4044 19.6391 31.6109 20.1582L28.5379 22.1685C27.7745 22.6679 27.1914 23.399 26.8744 24.2543L25.5984 27.6977C25.2689 28.5868 24.2949 29.0559 23.3942 28.7591L19.9066 27.6099C19.0402 27.3244 18.105 27.3244 17.2386 27.6099Z" stroke="black" stroke-width="2.5"/>
</svg>
