<svg width="25" height="39" viewBox="0 0 25 39" fill="none" xmlns="http://www.w3.org/2000/svg">
<path fill-rule="evenodd" clip-rule="evenodd" d="M19.9888 3.21061C20.234 3.38452 20.4566 3.58242 20.6519 3.80099C21.0461 4.24236 21.3184 4.75621 21.4477 5.30305C21.4639 5.37191 21.4779 5.44106 21.4895 5.51043C21.6202 6.28915 22.0521 7.10297 22.8223 7.27675C23.52 7.43415 24.2414 7.02244 24.2786 6.30816C24.3044 5.81222 24.2597 5.31379 24.144 4.82428C23.9302 3.92013 23.4801 3.07049 22.8281 2.34071C22.4075 1.8699 21.9102 1.45707 21.3534 1.1144C21.0471 0.925917 20.7228 0.758661 20.3834 0.614664C20.2983 0.578595 20.2126 0.544071 20.1261 0.511103C19.2402 0.173292 18.2818 -0.00114571 17.3119 5.66279e-06C17.3115 6.0746e-06 17.3112 6.50888e-06 17.3108 6.96562e-06C16.3411 0.00128374 15.3834 0.178066 14.4987 0.517984C14.4119 0.55134 14.3258 0.586266 14.2405 0.622752C13.9079 0.764919 13.59 0.92944 13.2895 1.11439C12.7268 1.46062 12.225 1.87844 11.8017 2.35523C11.1524 3.08672 10.7052 3.93754 10.4946 4.84226C10.3805 5.33254 10.3375 5.83158 10.3653 6.32793C10.4052 7.0415 11.1271 7.4506 11.8239 7.29146C12.5939 7.11557 13.0234 6.3001 13.1516 5.52074C13.1629 5.45157 13.1766 5.3826 13.1926 5.31391C13.3199 4.76674 13.5904 4.25217 13.9831 3.80977C14.1802 3.58774 14.4055 3.38686 14.654 3.2106C14.8271 3.0879 15.0113 2.97714 15.2053 2.87949C15.2878 2.83791 15.3721 2.79871 15.4581 2.76197C16.0354 2.51517 16.6703 2.38633 17.314 2.38534C17.3143 2.38534 17.3147 2.38534 17.315 2.38534C17.9591 2.38449 18.5948 2.51166 19.1733 2.75708C19.2589 2.79339 19.3429 2.83215 19.4251 2.87327C19.6236 2.97242 19.8121 3.08529 19.9888 3.21061Z" fill="#0066FF"/>
<path fill-rule="evenodd" clip-rule="evenodd" d="M17.2744 4.75C19.244 4.75 20.7243 6.41666 20.7243 8.325V21.1015L23.4328 24.9184C24.6106 26.5782 24.5075 28.8772 23.1734 30.4156L17.6241 36.8138C16.84 37.7177 15.7168 38.25 14.5189 38.25H7.74187C3.39026 38.25 0.625671 34.4393 0.625671 30.7995V17.5143L0.625685 17.5102C0.626514 16.3609 0.988901 15.3774 1.64841 14.6693C2.30325 13.9663 3.1874 13.607 4.07551 13.607C4.52739 13.607 4.97823 13.7 5.39838 13.884C5.56359 13.5152 5.78157 13.1841 6.04806 12.898C6.7029 12.1949 7.58704 11.8356 8.47515 11.8356C9.01193 11.8356 9.54726 11.9669 10.0314 12.226C10.1531 12.0297 10.2921 11.8474 10.4477 11.6803C11.1025 10.9772 11.9867 10.618 12.8748 10.618C13.1954 10.618 13.5156 10.6648 13.8246 10.7578V8.32344C13.8246 6.41397 15.3059 4.75 17.2744 4.75ZM16.3059 18.6164C16.311 18.5872 16.3151 18.5577 16.3182 18.5278C16.3224 18.4858 16.3246 18.4431 16.3246 18.4V8.32344C16.3246 7.66477 16.8131 7.25 17.2744 7.25C17.7347 7.25 18.2243 7.66521 18.2243 8.325V21.4855C18.2241 21.4959 18.2241 21.5063 18.2243 21.5167V26.15C18.2243 26.8404 18.7839 27.4 19.4743 27.4C20.1646 27.4 20.7243 26.8404 20.7243 26.15V25.4214L21.3939 26.3652L21.2847 28.7776L15.7354 35.1758C15.4084 35.5528 14.9653 35.75 14.5189 35.75H7.74187C5.05404 35.75 3.12567 33.3601 3.12567 30.7999C3.12567 30.8 3.12567 30.8 1.87567 30.8C0.625671 30.8 0.625671 30.7996 0.625671 30.7995L1.87567 30.8L3.12567 30.7999V17.5196L3.12568 17.5141C3.12568 16.8937 3.31318 16.55 3.47784 16.3732C3.64794 16.1906 3.8637 16.107 4.07551 16.107C4.28731 16.107 4.50308 16.1906 4.67317 16.3732C4.83741 16.5496 5.02435 16.892 5.02533 17.5093V18.3992C5.02533 18.4423 5.02751 18.485 5.03178 18.527C5.09579 19.1574 5.62812 19.6499 6.27533 19.6499C6.82587 19.6499 7.29329 19.294 7.46003 18.7997C7.50237 18.6742 7.52533 18.5397 7.52533 18.3999V15.7428C7.52533 15.1224 7.71282 14.7787 7.87748 14.6019C8.04758 14.4192 8.26334 14.3356 8.47515 14.3356C8.68695 14.3356 8.90272 14.4192 9.07281 14.6019C9.23619 14.7773 9.42204 15.117 9.42494 15.7283V18.3995C9.42494 19.0898 9.98458 19.6502 10.6749 19.6502C11.3128 19.6502 11.839 19.1725 11.9154 18.5553C11.9217 18.5044 11.925 18.4525 11.925 18.3999V15.7428L11.9249 15.7234V14.5251C11.9249 13.9047 12.1124 13.561 12.2771 13.3842C12.4472 13.2016 12.663 13.118 12.8748 13.118C13.0866 13.118 13.3023 13.2016 13.4724 13.3842C13.6371 13.561 13.8246 13.9047 13.8246 14.5251V18.3998C13.8246 19.0902 14.3842 19.6502 15.0746 19.6502C15.6912 19.6502 16.2035 19.2037 16.3059 18.6164Z" fill="black"/>
</svg>
