<svg width="26" height="39" viewBox="0 0 26 39" fill="none" xmlns="http://www.w3.org/2000/svg">
<mask id="path-1-inside-1_1475_679" fill="white">
<path d="M20.8223 7.27675C21.52 7.43415 22.2414 7.02244 22.2786 6.30816C22.3044 5.81222 22.2597 5.31379 22.144 4.82428C21.9302 3.92013 21.4801 3.07049 20.8281 2.34071C20.1762 1.61093 19.3398 1.02045 18.3834 0.614664C17.4269 0.20888 16.3758 -0.0013951 15.3108 6.96446e-06C14.2459 0.00140903 13.1955 0.214451 12.2405 0.622752C11.2854 1.03105 10.4511 1.62374 9.80174 2.35523C9.15236 3.08672 8.70519 3.93754 8.49462 4.84226C8.38051 5.33254 8.33752 5.83158 8.36528 6.32793C8.40519 7.0415 9.12712 7.4506 9.82385 7.29146C10.5939 7.11557 11.0234 6.3001 11.1515 5.52074C11.1629 5.45157 11.1766 5.3826 11.1926 5.31391C11.3199 4.76674 11.5904 4.25217 11.9831 3.80977C12.3759 3.36736 12.8804 3.00891 13.4581 2.76197C14.0357 2.51503 14.6709 2.38619 15.315 2.38534C15.9591 2.38449 16.5948 2.51166 17.1733 2.75708C17.7517 3.0025 18.2576 3.35962 18.6519 3.80099C19.0461 4.24236 19.3184 4.75621 19.4477 5.30305C19.4639 5.37191 19.4779 5.44106 19.4895 5.51043C19.6202 6.28915 20.0521 7.10297 20.8223 7.27675Z"/>
</mask>
<path d="M20.8223 7.27675C21.52 7.43415 22.2414 7.02244 22.2786 6.30816C22.3044 5.81222 22.2597 5.31379 22.144 4.82428C21.9302 3.92013 21.4801 3.07049 20.8281 2.34071C20.1762 1.61093 19.3398 1.02045 18.3834 0.614664C17.4269 0.20888 16.3758 -0.0013951 15.3108 6.96446e-06C14.2459 0.00140903 13.1955 0.214451 12.2405 0.622752C11.2854 1.03105 10.4511 1.62374 9.80174 2.35523C9.15236 3.08672 8.70519 3.93754 8.49462 4.84226C8.38051 5.33254 8.33752 5.83158 8.36528 6.32793C8.40519 7.0415 9.12712 7.4506 9.82385 7.29146C10.5939 7.11557 11.0234 6.3001 11.1515 5.52074C11.1629 5.45157 11.1766 5.3826 11.1926 5.31391C11.3199 4.76674 11.5904 4.25217 11.9831 3.80977C12.3759 3.36736 12.8804 3.00891 13.4581 2.76197C14.0357 2.51503 14.6709 2.38619 15.315 2.38534C15.9591 2.38449 16.5948 2.51166 17.1733 2.75708C17.7517 3.0025 18.2576 3.35962 18.6519 3.80099C19.0461 4.24236 19.3184 4.75621 19.4477 5.30305C19.4639 5.37191 19.4779 5.44106 19.4895 5.51043C19.6202 6.28915 20.0521 7.10297 20.8223 7.27675Z" stroke="#0066FF" stroke-width="5" mask="url(#path-1-inside-1_1475_679)"/>
<path d="M18.4644 21.8649C17.9232 21.7148 17.5485 21.2221 17.5485 20.6604V15.1158V9.57131C17.5485 9.06462 17.5666 8.64434 17.5823 8.27845C17.623 7.33257 17.648 6.75008 17.3049 5.97756C16.6578 5.21388 16.0848 5.00134 15.6645 4.96903C15.1919 4.93269 14.6848 5.10773 14.2112 5.45993L18.4644 21.8649ZM18.4644 21.8649C19.0056 22.015 19.5805 21.7857 19.8699 21.3043M18.4644 21.8649L19.8699 21.3043M19.8699 21.3043C20.064 20.9814 20.2605 20.635 20.4313 20.334C20.5348 20.1514 20.6289 19.9856 20.7072 19.8518C20.9468 19.4427 21.1303 19.1679 21.3108 18.9674C21.4764 18.7835 21.6304 18.6728 21.8129 18.5976C22.006 18.5181 22.2982 18.4512 22.7727 18.4512C23.5141 18.4512 23.6483 18.6754 23.6873 18.7407L23.6875 18.741C23.7934 18.918 23.8777 19.3141 23.7746 20.0244C23.5727 21.4142 22.8028 23.0742 22.3749 23.9504C21.8721 24.9801 21.3021 25.9028 20.703 26.8728C20.5238 27.163 20.3419 27.4574 20.1584 27.7602C19.38 29.0449 18.6059 30.4322 18.0916 32.069L18.0914 32.0693C17.2197 34.8462 16.4566 36.5468 14.1924 37.1263L14.1923 37.1263C11.8166 37.7346 9.4087 37.8998 6.97207 37.6135C4.96451 37.3776 3.75568 36.8159 3.14956 35.3607L3.14955 35.3606C2.34862 33.4378 2.03638 31.2391 1.79826 28.9891L1.79825 28.989C1.73063 28.3503 1.65 27.7353 1.57161 27.1374C1.35531 25.4876 1.15611 23.9683 1.29446 22.4413L1.29448 22.441C1.39233 21.3589 1.62753 20.5009 2.11624 20.004M19.8699 21.3043L13.5529 8.84793M13.5529 8.84793L13.5529 8.84819C13.5669 9.56529 13.5885 10.2978 13.6104 11.0376C13.6484 12.3244 13.687 13.6331 13.687 14.9205C13.687 15.4403 13.3654 15.9058 12.8792 16.0897C12.3931 16.2736 11.8439 16.1374 11.4999 15.7478C11.3131 15.5362 10.863 15.3786 10.1872 15.6392C9.50277 15.9031 9.16736 16.3847 9.13594 16.6955C9.08602 17.1893 8.74871 17.6067 8.27644 17.7593C7.80416 17.9118 7.28638 17.7705 6.95708 17.3991C6.72555 17.1381 6.54966 17.0879 6.45118 17.0769C6.33414 17.0637 6.16184 17.0901 5.94121 17.2219C5.45755 17.5108 5.05928 18.1178 4.99014 18.6374C4.92574 19.1214 4.58545 19.5236 4.11882 19.6672C3.75808 19.7783 3.37287 19.7191 3.06626 19.5183C3.01716 19.5296 2.952 19.5481 2.87075 19.5781C2.70366 19.6397 2.52644 19.7283 2.37172 19.8228C2.29583 19.8691 2.23239 19.9125 2.18416 19.9488C2.14114 19.9812 2.12046 20.0001 2.11676 20.0035C2.11618 20.004 2.11602 20.0042 2.11624 20.004M13.5529 8.84793C13.5472 8.55716 13.5365 8.29866 13.5266 8.06225M13.5529 8.84793L13.5266 8.06225M2.11624 20.004C2.11641 20.0038 2.11657 20.0036 2.11673 20.0035L1.22774 19.1285L2.11651 20.0037C2.11639 20.0038 2.1163 20.0039 2.11624 20.004ZM13.5266 8.06225C13.5038 7.51262 13.4859 7.08232 13.5478 6.64328M13.5266 8.06225L13.5478 6.64328M13.5478 6.64328C13.6196 6.1339 13.7885 5.77438 14.2111 5.45999L13.5478 6.64328Z" stroke="black" stroke-width="2.5" stroke-linejoin="round"/>
</svg>
