<svg width="32" height="40" viewBox="0 0 32 40" fill="none" xmlns="http://www.w3.org/2000/svg">
<path fill-rule="evenodd" clip-rule="evenodd" d="M19.5918 9.41712C19.5655 9.41357 19.5387 9.41526 19.5132 9.42205C19.4876 9.42884 19.464 9.44051 19.4437 9.4561C19.4234 9.47167 19.4068 9.49078 19.3947 9.51207L18.5807 10.9303C18.2246 11.5509 17.5425 11.8499 16.8898 11.7814C16.3001 11.7196 15.7054 11.7197 15.1157 11.7818C14.4671 11.8502 13.7889 11.5557 13.4305 10.9416L12.5981 9.51538C12.586 9.49427 12.5695 9.47533 12.5493 9.45989C12.5291 9.44444 12.5057 9.43285 12.4803 9.42607C12.4549 9.41929 12.4284 9.41754 12.4022 9.42096C12.3764 9.42432 12.3518 9.4326 12.3298 9.4451C12.3294 9.4453 12.3291 9.4455 12.3287 9.4457L8.54769 11.6395C8.50292 11.6653 8.47203 11.7064 8.45949 11.7524C8.44715 11.7977 8.45295 11.8462 8.47637 11.888L9.29459 13.2949C9.65355 13.9121 9.57348 14.6518 9.18772 15.1835C8.83603 15.6682 8.53576 16.1862 8.29116 16.7333C8.02418 17.3304 7.42678 17.7693 6.71452 17.7693H5.07829C4.96535 17.7693 4.88406 17.8591 4.88406 17.9559V22.344C4.88406 22.4309 4.95542 22.5216 5.07829 22.5216H6.71253C7.42726 22.5216 8.02526 22.9633 8.29137 23.5617C8.53455 24.1086 8.83576 24.6283 9.18992 25.1121C9.5789 25.6433 9.66323 26.3865 9.30239 27.0077L8.47724 28.4284C8.47697 28.4288 8.4767 28.4293 8.47644 28.4298C8.45296 28.4716 8.44713 28.5201 8.45949 28.5655C8.47203 28.6115 8.50292 28.6527 8.54769 28.6784L8.54847 28.6789L12.3342 30.8611C12.379 30.8857 12.4325 30.8924 12.4828 30.8788C12.5338 30.8651 12.5754 30.8325 12.6 30.7902L13.4305 29.3672C13.7889 28.7532 14.4671 28.4587 15.1157 28.5271C15.7054 28.5892 16.3001 28.5893 16.8898 28.5274C17.5425 28.459 18.2246 28.758 18.5807 29.3786L19.3947 30.7968C19.4068 30.8181 19.4234 30.8372 19.4437 30.8528C19.464 30.8684 19.4876 30.88 19.5132 30.8868C19.5387 30.8936 19.5655 30.8953 19.5918 30.8918C19.6182 30.8882 19.6433 30.8795 19.6656 30.8664L19.6692 30.8644L23.4507 28.6793L23.4523 28.6784C23.4971 28.6527 23.528 28.6115 23.5405 28.5655C23.5529 28.5198 23.547 28.471 23.5231 28.429C23.523 28.4288 23.5232 28.4292 23.5231 28.429L22.7018 27.0031C22.345 26.3835 22.4294 25.6444 22.8158 25.115C23.1676 24.6332 23.4668 24.1157 23.7086 23.5714C23.9745 22.9726 24.5727 22.5306 25.2877 22.5306H26.9217C27.0346 22.5306 27.1159 22.4407 27.1159 22.344V17.9649C27.1159 17.8779 27.0446 17.7873 26.9217 17.7873H25.2888C24.5726 17.7873 23.9737 17.3438 23.7084 16.7436C23.4137 16.077 23.033 15.4504 22.5752 14.88C22.3001 14.5926 22.2108 14.1393 22.4383 13.7476L23.5228 11.8805C23.523 11.88 23.5233 11.8795 23.5236 11.8791C23.547 11.8372 23.5529 11.7887 23.5405 11.7434C23.528 11.6974 23.4971 11.6562 23.4523 11.6305L23.4507 11.6295L19.6692 9.4445L19.6656 9.44243C19.6433 9.42936 19.6182 9.42067 19.5918 9.41712ZM19.0294 7.60115C19.2948 7.53064 19.5716 7.51327 19.8437 7.54997C20.115 7.58657 20.3766 7.67624 20.6133 7.81404C20.614 7.81445 20.6147 7.81486 20.6154 7.81527L24.3917 9.99729C24.3921 9.99754 24.3925 9.99778 24.393 9.99803C24.8665 10.2709 25.2143 10.7196 25.3583 11.2482C25.5025 11.7774 25.43 12.3415 25.1575 12.8171L25.1547 12.822L24.3842 14.1485C24.7787 14.699 25.1177 15.2867 25.3965 15.9033H26.9217C28.0533 15.9033 29 16.8058 29 17.9649V22.344C29 23.4932 28.0632 24.4146 26.9217 24.4146H25.3952C25.1173 25.0264 24.78 25.6096 24.3881 26.156L25.1575 27.4917C25.43 27.9674 25.5025 28.5315 25.3583 29.0607C25.2143 29.5892 24.8666 30.038 24.393 30.3108C24.3925 30.3111 24.3921 30.3113 24.3917 30.3116L20.6154 32.4936C20.6146 32.494 20.6139 32.4945 20.6132 32.4949C20.3765 32.6327 20.1149 32.7223 19.8437 32.7589C19.5716 32.7956 19.2948 32.7782 19.0294 32.7077C18.764 32.6372 18.515 32.5149 18.297 32.3477C18.0792 32.1806 17.8966 31.972 17.76 31.7336M17.7594 31.7326L17.0003 30.4099C16.3364 30.4739 15.6677 30.4738 15.0038 30.4094L14.2277 31.7391C14.2276 31.7393 14.2278 31.739 14.2277 31.7391C13.9518 32.2122 13.4997 32.5565 12.9719 32.6983C12.4441 32.8402 11.881 32.7692 11.405 32.5001L11.3981 32.4962L7.60833 30.3116C7.13407 30.0388 6.78579 29.5897 6.64168 29.0607C6.49752 28.5315 6.56999 27.9674 6.84249 27.4917L6.84526 27.4869L7.61889 26.155C7.22421 25.6063 6.88463 25.0204 6.60509 24.4056H5.07829C3.94672 24.4056 3 23.503 3 22.344V17.9559C3 16.8066 3.9368 15.8852 5.07829 15.8852H6.60693C6.88638 15.2739 7.2228 14.6934 7.61144 14.1484L6.84247 12.8262C6.56997 12.3506 6.49752 11.7864 6.64168 11.2572C6.78561 10.7288 7.1332 10.2802 7.60654 10.0073C7.60714 10.007 7.60773 10.0067 7.60833 10.0063L11.3902 7.81199C11.6268 7.6761 11.8878 7.58809 12.1581 7.55277C12.4285 7.51745 12.7032 7.53548 12.9667 7.60587C13.2301 7.67627 13.4774 7.79772 13.6941 7.96355C13.9102 8.12891 14.0919 8.3352 14.2284 8.57089C14.2288 8.57159 14.2292 8.57229 14.2296 8.57299L15.0038 9.89948C15.6677 9.83509 16.3364 9.83493 17.0003 9.899L17.7594 8.5763C17.7596 8.57603 17.7597 8.57577 17.7599 8.5755C17.7599 8.57543 17.7598 8.57558 17.7599 8.5755C17.8965 8.33713 18.0792 8.12828 18.297 7.96122C18.515 7.79395 18.764 7.67165 19.0294 7.60115M23.2565 13.2848C23.4492 13.2848 23.6226 13.3405 23.7664 13.434C23.6159 13.3377 23.4393 13.2848 23.2565 13.2848Z" fill="#16110D"/>
<path d="M19.0294 7.60115C19.2948 7.53064 19.5716 7.51327 19.8437 7.54997C20.115 7.58657 20.3766 7.67624 20.6133 7.81404C20.614 7.81445 20.6147 7.81486 20.6154 7.81527L24.3917 9.99729C24.3921 9.99754 24.3925 9.99778 24.393 9.99803C24.8665 10.2709 25.2143 10.7196 25.3583 11.2482C25.5025 11.7774 25.43 12.3415 25.1575 12.8171L25.1547 12.822L24.3842 14.1485C24.7787 14.699 25.1177 15.2867 25.3965 15.9033H26.9217C28.0533 15.9033 29 16.8058 29 17.9649V22.344C29 23.4932 28.0632 24.4146 26.9217 24.4146H25.3952C25.1173 25.0264 24.78 25.6096 24.3881 26.156L25.1575 27.4917C25.43 27.9674 25.5025 28.5315 25.3583 29.0607C25.2143 29.5892 24.8666 30.038 24.393 30.3108C24.3925 30.3111 24.3921 30.3113 24.3917 30.3116L20.6154 32.4936C20.6146 32.494 20.6139 32.4945 20.6132 32.4949C20.3765 32.6327 20.1149 32.7223 19.8437 32.7589C19.5716 32.7956 19.2948 32.7782 19.0294 32.7077C18.764 32.6372 18.515 32.5149 18.297 32.3477C18.0792 32.1806 17.8966 31.972 17.76 31.7336M17.7594 31.7326L17.0003 30.4099C16.3364 30.4739 15.6677 30.4738 15.0038 30.4094L14.2277 31.7391C14.2276 31.7393 14.2278 31.739 14.2277 31.7391C13.9518 32.2122 13.4997 32.5565 12.9719 32.6983C12.4441 32.8402 11.881 32.7692 11.405 32.5001L11.3981 32.4962L7.60833 30.3116C7.13407 30.0388 6.78579 29.5897 6.64168 29.0607C6.49752 28.5315 6.56999 27.9674 6.84249 27.4917L6.84526 27.4869L7.61889 26.155C7.22421 25.6063 6.88463 25.0204 6.60509 24.4056H5.07829C3.94672 24.4056 3 23.503 3 22.344V17.9559C3 16.8066 3.9368 15.8852 5.07829 15.8852H6.60693C6.88638 15.2739 7.2228 14.6934 7.61144 14.1484L6.84247 12.8262C6.56997 12.3506 6.49752 11.7864 6.64168 11.2572C6.78561 10.7288 7.1332 10.2802 7.60654 10.0073C7.60714 10.007 7.60773 10.0067 7.60833 10.0063L11.3902 7.81199C11.6268 7.6761 11.8878 7.58809 12.1581 7.55277C12.4285 7.51745 12.7032 7.53548 12.9667 7.60587C13.2301 7.67627 13.4774 7.79772 13.6941 7.96355C13.9102 8.12891 14.0919 8.3352 14.2284 8.57089C14.2288 8.57159 14.2292 8.57229 14.2296 8.57299L15.0038 9.89948C15.6677 9.83509 16.3364 9.83493 17.0003 9.899L17.7594 8.5763C17.7596 8.57603 17.7597 8.57577 17.7599 8.5755C17.7599 8.57543 17.7598 8.57558 17.7599 8.5755C17.8965 8.33713 18.0792 8.12828 18.297 7.96122C18.515 7.79395 18.764 7.67165 19.0294 7.60115M19.5918 9.41712C19.5655 9.41357 19.5387 9.41526 19.5132 9.42205C19.4876 9.42884 19.464 9.44051 19.4437 9.4561C19.4234 9.47167 19.4068 9.49078 19.3947 9.51207L18.5807 10.9303C18.2246 11.5509 17.5425 11.8499 16.8898 11.7814C16.3001 11.7196 15.7054 11.7197 15.1157 11.7818C14.4671 11.8502 13.7889 11.5557 13.4305 10.9416L12.5981 9.51538C12.586 9.49427 12.5695 9.47533 12.5493 9.45989C12.5291 9.44444 12.5057 9.43285 12.4803 9.42607C12.4549 9.41929 12.4284 9.41754 12.4022 9.42096C12.3764 9.42432 12.3518 9.4326 12.3298 9.4451C12.3294 9.4453 12.3291 9.4455 12.3287 9.4457L8.54769 11.6395C8.50292 11.6653 8.47203 11.7064 8.45949 11.7524C8.44715 11.7977 8.45295 11.8462 8.47637 11.888L9.29459 13.2949C9.65355 13.9121 9.57348 14.6518 9.18772 15.1835C8.83603 15.6682 8.53576 16.1862 8.29116 16.7333C8.02418 17.3304 7.42678 17.7693 6.71452 17.7693H5.07829C4.96535 17.7693 4.88406 17.8591 4.88406 17.9559V22.344C4.88406 22.4309 4.95542 22.5216 5.07829 22.5216H6.71253C7.42726 22.5216 8.02526 22.9633 8.29137 23.5617C8.53455 24.1086 8.83576 24.6283 9.18992 25.1121C9.5789 25.6433 9.66323 26.3865 9.30239 27.0077L8.47724 28.4284C8.47697 28.4288 8.4767 28.4293 8.47644 28.4298C8.45296 28.4716 8.44713 28.5201 8.45949 28.5655C8.47203 28.6115 8.50292 28.6527 8.54769 28.6784L8.54847 28.6789L12.3342 30.8611C12.379 30.8857 12.4325 30.8924 12.4828 30.8788C12.5338 30.8651 12.5754 30.8325 12.6 30.7902L13.4305 29.3672C13.7889 28.7532 14.4671 28.4587 15.1157 28.5271C15.7054 28.5892 16.3001 28.5893 16.8898 28.5274C17.5425 28.459 18.2246 28.758 18.5807 29.3786L19.3947 30.7968C19.4068 30.8181 19.4234 30.8372 19.4437 30.8528C19.464 30.8684 19.4876 30.88 19.5132 30.8868C19.5387 30.8936 19.5655 30.8953 19.5918 30.8918C19.6182 30.8882 19.6433 30.8795 19.6656 30.8664L19.6692 30.8644L23.4507 28.6793L23.4523 28.6784C23.4971 28.6527 23.528 28.6115 23.5405 28.5655C23.5529 28.5198 23.547 28.471 23.5231 28.429C23.523 28.4288 23.5232 28.4292 23.5231 28.429L22.7018 27.0031C22.345 26.3835 22.4294 25.6444 22.8158 25.115C23.1676 24.6332 23.4668 24.1157 23.7086 23.5714C23.9745 22.9726 24.5727 22.5306 25.2877 22.5306H26.9217C27.0346 22.5306 27.1159 22.4407 27.1159 22.344V17.9649C27.1159 17.8779 27.0446 17.7873 26.9217 17.7873H25.2888C24.5726 17.7873 23.9737 17.3438 23.7084 16.7436C23.4137 16.077 23.033 15.4504 22.5752 14.88C22.3001 14.5926 22.2108 14.1393 22.4383 13.7476L23.5228 11.8805C23.523 11.88 23.5233 11.8795 23.5236 11.8791C23.547 11.8372 23.5529 11.7887 23.5405 11.7434C23.528 11.6974 23.4971 11.6562 23.4523 11.6305L23.4507 11.6295L19.6692 9.4445L19.6656 9.44243C19.6433 9.42936 19.6182 9.42067 19.5918 9.41712ZM23.2565 13.2848C23.4492 13.2848 23.6226 13.3405 23.7664 13.434C23.6159 13.3377 23.4393 13.2848 23.2565 13.2848Z" stroke="black" stroke-width="0.5"/>
<path fill-rule="evenodd" clip-rule="evenodd" d="M16.0009 16.1985C14.0239 16.1985 12.4212 17.8012 12.4212 19.7782C12.4212 21.7552 14.0239 23.3579 16.0009 23.3579C17.9779 23.3579 19.5806 21.7552 19.5806 19.7782C19.5806 17.8012 17.9779 16.1985 16.0009 16.1985ZM10.5371 19.7782C10.5371 16.7607 12.9833 14.3145 16.0009 14.3145C19.0184 14.3145 21.4646 16.7607 21.4646 19.7782C21.4646 22.7958 19.0184 25.242 16.0009 25.242C12.9833 25.242 10.5371 22.7958 10.5371 19.7782Z" fill="#16110D" stroke="black" stroke-width="0.5"/>
<path fill-rule="evenodd" clip-rule="evenodd" d="M1.98782 31.86C2.38498 31.4817 3.01367 31.4969 3.39203 31.8941C6.70992 35.3768 11.3899 37.5452 16.578 37.5452C20.8725 37.5452 24.8188 36.0595 27.9326 33.5724H26.8412C26.2927 33.5724 25.848 33.1277 25.848 32.5792C25.848 32.0306 26.2927 31.5859 26.8412 31.5859H30.4831C30.7807 31.5859 31.0626 31.7194 31.2512 31.9495C31.4399 32.1796 31.5154 32.4822 31.457 32.7739L30.7949 36.0847C30.6873 36.6226 30.1641 36.9714 29.6262 36.8638C29.0883 36.7562 28.7395 36.233 28.847 35.6951L28.9218 35.3213C25.5089 37.9603 21.2264 39.5317 16.578 39.5317C10.8242 39.5317 5.63099 37.1242 1.95378 33.2642C1.57542 32.8671 1.59066 32.2384 1.98782 31.86Z" fill="#0064FF" stroke="#0066FF" stroke-width="0.5" stroke-linecap="round" stroke-linejoin="round"/>
<path fill-rule="evenodd" clip-rule="evenodd" d="M30.6168 8.20689C30.2263 8.5921 29.5975 8.5878 29.2122 8.19728C25.8343 4.77276 21.1173 2.68603 15.93 2.77625C11.6362 2.85093 7.71627 4.4051 4.64615 6.94597L5.73741 6.92699C6.28587 6.91746 6.73821 7.35433 6.74775 7.90279C6.75729 8.45125 6.32041 8.90359 5.77196 8.91313L2.13063 8.97646C1.83311 8.98163 1.54895 8.85314 1.35632 8.62634C1.1637 8.39954 1.08291 8.09833 1.13618 7.80557L1.74066 4.48383C1.83886 3.94416 2.35597 3.58628 2.89565 3.68448C3.43532 3.78269 3.7932 4.2998 3.695 4.83947L3.62675 5.2145C6.99319 2.51652 11.2477 0.870951 15.8954 0.790117C21.6484 0.690061 26.8827 3.00692 30.6264 6.8023C31.0117 7.19282 31.0074 7.82168 30.6168 8.20689Z" fill="#0064FF" stroke="#0066FF" stroke-width="0.5" stroke-linecap="round" stroke-linejoin="round"/>
</svg>
