<svg width="43" height="40" viewBox="0 0 43 40" fill="none" xmlns="http://www.w3.org/2000/svg">
<path fill-rule="evenodd" clip-rule="evenodd" d="M10.0946 2.46034C10.8593 1.22406 12.2095 0.47168 13.6632 0.47168H30.0167C31.522 0.47168 32.9119 1.27795 33.6593 2.58462L42.4119 17.8884C43.1501 19.1792 43.1501 20.7642 42.4119 22.0549L33.6593 37.3587C32.9119 38.6654 31.522 39.4717 30.0167 39.4717H13.6632C12.2095 39.4717 10.8593 38.7193 10.0946 37.483L0.627606 22.1792C-0.209203 20.8265 -0.209201 19.1169 0.627607 17.7641L10.0946 2.46034ZM13.6632 2.94003C13.0646 2.94003 12.5086 3.24984 12.1937 3.75889L2.72678 19.0627C2.38221 19.6197 2.38221 20.3237 2.72678 20.8807L12.1937 36.1845C12.5086 36.6935 13.0646 37.0033 13.6632 37.0033H30.0167C30.6365 37.0033 31.2089 36.6713 31.5166 36.1333L40.2692 20.8295C40.5732 20.298 40.5732 19.6454 40.2692 19.1139L31.5166 3.81007C31.2089 3.27203 30.6365 2.94003 30.0167 2.94003H13.6632Z" fill="black"/>
<path fill-rule="evenodd" clip-rule="evenodd" d="M20.2726 9.99645C21.2474 9.48362 22.4171 9.50661 23.371 10.0573L29.3759 13.5243C30.3643 14.0949 30.9752 15.1475 30.9803 16.2887L31.0135 23.6279C31.0187 24.7847 30.4009 25.8547 29.3965 26.4286L23.024 30.0694C22.0331 30.6356 20.8161 30.6328 19.8278 30.0622L13.8228 26.5952C12.8689 26.0445 12.2642 25.043 12.2209 23.9424L11.9263 16.4523C11.8777 15.2163 12.5439 14.0623 13.6387 13.4864L20.2726 9.99645ZM22.1368 12.195C21.9167 12.0679 21.6468 12.0626 21.4218 12.181L14.7879 15.6709C14.5353 15.8038 14.3815 16.0701 14.3928 16.3553L14.6873 23.8454C14.6973 24.0994 14.8369 24.3305 15.057 24.4576L21.0619 27.9245C21.29 28.0562 21.5709 28.0568 21.7995 27.9262L28.172 24.2854C28.4038 24.1529 28.5464 23.906 28.5452 23.639L28.512 16.2999C28.5108 16.0365 28.3698 15.7936 28.1417 15.662L22.1368 12.195Z" fill="#0066FF"/>
</svg>
