<svg width="38" height="38" viewBox="0 0 38 38" fill="none" xmlns="http://www.w3.org/2000/svg">
<path d="M19 0.0771484C8.825 0.0771484 0.5 8.6099 0.5 19.0388C0.5 27.4136 5.74167 34.5242 13.1417 37.0524C14.0667 37.2104 14.375 36.5784 14.375 36.1043V32.628C9.2875 33.7341 8.20833 30.4158 8.20833 30.4158C7.4375 28.2036 6.20417 27.5716 6.20417 27.5716C4.50833 26.4655 6.35833 26.4655 6.35833 26.4655C8.20833 26.6235 9.13333 28.3616 9.13333 28.3616C10.8292 31.2059 13.45 30.4158 14.5292 29.9418C14.6833 28.6777 15.1458 27.8876 15.7625 27.4136C11.4458 26.9395 7.12917 25.3594 7.12917 18.0907C7.12917 16.0366 7.9 14.2984 8.97917 13.0343C8.97917 12.5602 8.20833 10.5061 9.2875 7.97784C9.2875 7.97784 10.8292 7.5038 14.375 9.87401C15.9167 9.39997 17.4583 9.24195 19 9.24195C20.5417 9.24195 22.0833 9.39997 23.625 9.87401C27.1708 7.5038 28.7125 7.97784 28.7125 7.97784C29.7917 10.6641 29.0208 12.5602 28.8667 13.0343C30.1 14.2984 30.7167 16.0366 30.7167 18.0907C30.7167 25.3594 26.4 26.9395 22.2375 27.4136C22.8542 28.0456 23.4708 29.1517 23.4708 30.8899V36.1043C23.4708 36.5784 23.7792 37.2104 24.7042 37.0524C32.2583 34.5242 37.5 27.4136 37.5 19.0388C37.5 8.6099 29.175 0.0771484 19 0.0771484Z" fill="white"/>
</svg>
