<svg width="37" height="40" viewBox="0 0 37 40" fill="none" xmlns="http://www.w3.org/2000/svg">
<path d="M8.16895 23.3994L1.86604 33.7547C1.47366 34.3994 1.92976 35.1944 2.69999 35.2085L5.87464 35.2663C6.22784 35.2727 6.5478 35.4536 6.72055 35.7446L8.06621 38.0111C8.45109 38.6593 9.43612 38.6463 9.83701 37.9877L16.1025 27.6938" stroke="#0066FF" stroke-width="2.5" stroke-linecap="round"/>
<path d="M29.0164 23.3994L35.3193 33.7547C35.7116 34.3994 35.2555 35.1944 34.4853 35.2085L31.3107 35.2663C30.9575 35.2727 30.6375 35.4536 30.4648 35.7446L29.1191 38.0111C28.7342 38.6593 27.7492 38.6463 27.3483 37.9877L21.0828 27.6938" stroke="#0066FF" stroke-width="2.5" stroke-linecap="round"/>
<path d="M17.2384 27.5503L17.6296 28.7375L17.2384 27.5503L13.7507 28.6996C12.8501 28.9963 11.8761 28.5273 11.5465 27.6381L10.2705 24.1948C9.95353 23.3394 9.37048 22.6083 8.60709 22.1089L5.53406 20.0987C4.7405 19.5795 4.49994 18.5256 4.98968 17.7136L6.88617 14.5691C7.35729 13.7879 7.56537 12.8762 7.47984 11.968L7.13551 8.31206C7.04659 7.36796 7.72062 6.52275 8.66084 6.39936L12.3018 5.92152C13.2062 5.80282 14.0487 5.39709 14.7055 4.76396L17.3491 2.21529C18.0318 1.55714 19.1129 1.55714 19.7956 2.21529L22.4392 4.76396C23.096 5.39709 23.9385 5.80282 24.8429 5.92152L28.4839 6.39936C29.4241 6.52275 30.0981 7.36796 30.0092 8.31206L29.6649 11.968C29.5793 12.8762 29.7874 13.7879 30.2585 14.569L32.155 17.7136C32.6448 18.5256 32.4042 19.5795 31.6106 20.0987L28.5376 22.1089C27.7742 22.6083 27.1912 23.3394 26.8742 24.1948L25.5982 27.6381C25.2686 28.5273 24.2946 28.9963 23.394 28.6996L19.9063 27.5503C19.0399 27.2648 18.1048 27.2648 17.2384 27.5503Z" stroke="black" stroke-width="2.5"/>
</svg>
