<svg width="57" height="40" viewBox="0 0 57 40" fill="none" xmlns="http://www.w3.org/2000/svg">
<path d="M33.8109 24.8468C36.4278 23.0987 38.1622 20.1101 38.1622 16.7217C38.1622 11.3443 33.8109 6.97168 28.4597 6.97168C23.1086 6.97168 18.7572 11.3443 18.7572 16.7217C18.7572 20.1101 20.4865 23.0987 23.1086 24.8468C17.181 27.0459 12.9368 32.7616 12.9368 39.4718H15.5231C15.5231 32.3054 21.3282 26.4718 28.4597 26.4718C35.5912 26.4718 41.3964 32.3054 41.3964 39.4718H43.9827C43.9827 32.7616 39.7385 27.0459 33.8109 24.8468ZM21.3435 16.7217C21.3435 12.7797 24.5369 9.57067 28.4597 9.57067C32.3825 9.57067 35.5759 12.7797 35.5759 16.7217C35.5759 20.6638 32.3825 23.8728 28.4597 23.8728C24.5369 23.8728 21.3435 20.6638 21.3435 16.7217Z" fill="black"/>
<path d="M46.7473 18.3468C49.3642 16.5987 51.0986 13.6101 51.0986 10.2217C51.0986 4.84433 46.7473 0.47168 41.3961 0.47168C38.8047 0.47168 36.453 1.50205 34.7084 3.17319C34.0657 3.79346 33.5045 4.49575 33.0505 5.27493C33.8565 5.60301 34.6268 6.00798 35.3359 6.49497C35.795 5.74654 36.3816 5.09039 37.0703 4.55726C38.2691 3.62942 39.7637 3.07579 41.391 3.07579C45.3138 3.07579 48.5072 6.2848 48.5072 10.2268C48.5072 13.4974 46.3034 16.2604 43.3141 17.1062C42.702 17.2805 42.0593 17.3779 41.391 17.3779C41.1614 17.3779 40.937 17.3625 40.7125 17.342C40.6666 18.2801 40.5187 19.1875 40.2789 20.0538C40.6462 20.023 41.0135 19.9718 41.391 19.9718C41.9164 19.9718 42.4316 20.0128 42.9418 20.0743C49.3438 20.8483 54.3276 26.3334 54.3276 32.9718H56.9139C56.9139 26.2616 52.6697 20.5459 46.7421 18.3468H46.7473Z" fill="#0066FF"/>
<path d="M15.5229 19.9718C15.9004 19.9718 16.2677 20.0179 16.635 20.0538C16.3901 19.1823 16.2473 18.275 16.2014 17.342C15.977 17.3625 15.7525 17.3779 15.5229 17.3779C14.8547 17.3779 14.2119 17.2805 13.5998 17.1062C10.6105 16.2604 8.40677 13.5025 8.40677 10.2268C8.40677 6.2848 11.6001 3.07579 15.5229 3.07579C17.1502 3.07579 18.6449 3.63455 19.8437 4.55726C20.5323 5.09039 21.1241 5.74654 21.5781 6.49497C22.2922 6.00798 23.0574 5.60301 23.8634 5.27493C23.4043 4.50088 22.8483 3.79346 22.2055 3.17319C20.466 1.50205 18.1093 0.47168 15.5178 0.47168C10.1718 0.47168 5.82047 4.84433 5.82047 10.2217C5.82047 13.6101 7.54977 16.5987 10.1718 18.3468C4.2442 20.5459 0 26.2616 0 32.9718H2.58631C2.58631 26.3334 7.57018 20.8483 13.9722 20.0743C14.4823 20.0128 14.9975 19.9718 15.5229 19.9718Z" fill="#0066FF"/>
</svg>
