<svg width="56" height="39" viewBox="0 0 56 39" fill="none" xmlns="http://www.w3.org/2000/svg">
<path d="M26 30.0313C25.9836 30.3928 24.0562 30.7353 23.6803 30.7353L16.989 30.7066C16.7579 30.894 16.6593 31.2207 16.8113 31.5136C17.4922 32.8215 17.4809 34.5185 16.2978 36.1746C16.1766 36.3446 16.0194 36.4951 15.8448 36.6119C12.3744 38.9081 8.67283 36.5566 8.67694 33.3694C8.67694 32.6945 8.84641 32.0585 9.14117 31.4972C9.29832 31.1941 9.17712 30.8571 8.92241 30.6718L2.18898 30.6441L2 30.6062C2.11914 30.4485 2.19206 30.257 2.20131 30.047L2.19925 30.047C2.21774 29.9723 2.24136 29.9006 2.24136 29.8145L2.23109 23.8396C2.26396 23.687 2.41802 23.5631 2.57002 23.5651L2.71484 23.6009L2.72819 23.6071L2.76516 23.6214L2.76516 23.6204C3.39065 23.9277 4.09726 24.1069 4.84702 24.1069L4.85627 24.1069C5.32563 24.1069 5.76008 24.0198 6.16783 23.9041C8.07714 23.3551 9.49346 21.653 9.49346 19.6057L9.4914 19.5145L9.49346 19.406C9.49346 17.3566 8.07714 15.6555 6.16783 15.1065C5.76008 14.9908 5.32563 14.9027 4.85832 14.9027L4.8234 14.9027C4.08494 14.9079 3.38757 15.084 2.76927 15.3882L2.74873 15.3964L2.7323 15.4046L2.71586 15.4117L2.56899 15.4466C2.41904 15.4496 2.26498 15.3257 2.23212 15.1741L2.24239 9.19918C2.24239 9.11417 2.21877 9.04043 2.20028 8.96669L2.20233 8.96669C2.19309 8.75776 2.12222 8.56727 2.00617 8.41057C2.08114 8.38395 2.16022 8.36449 2.24444 8.36449L8.97787 8.36961C9.23464 8.18833 9.35891 7.85036 9.20177 7.54516C8.90803 6.98392 8.74268 6.34689 8.74678 5.67196C8.75911 2.4858 12.4719 0.150707 15.929 2.46531C16.1026 2.58412 16.2608 2.73569 16.3799 2.9057C17.5559 4.56689 17.558 6.26495 16.8719 7.56871C16.7158 7.8606 16.8154 8.18526 17.0444 8.37678L25 8.37678" stroke="black" stroke-width="2.5" stroke-linejoin="round"/>
<path d="M25.4656 23.6214L25.4286 23.6071L25.4152 23.6009L25.2704 23.5651C25.1184 23.5631 24.9643 23.687 24.9315 23.8396L24.9418 29.8145C24.9418 29.9006 24.9181 29.9723 24.8996 30.047L24.9017 30.047C24.8925 30.257 24.8195 30.4485 24.7004 30.6062L24.8894 30.6441L31.6228 30.6718C31.8775 30.8571 31.9987 31.1941 31.8416 31.4972C31.5468 32.0585 31.3773 32.6945 31.3773 33.3694C31.3732 36.5566 35.0748 38.9081 38.5452 36.6119C38.7198 36.4951 38.877 36.3446 38.9981 36.1746C40.1813 34.5185 40.1926 32.8215 39.5117 31.5136C39.3597 31.2207 39.4583 30.894 39.6894 30.7066L46.3807 30.7353C46.7566 30.7353 47.0647 30.4475 47.0811 30.0859L47.1232 29.8668L47.1274 23.8488C47.2044 23.4135 47.6943 23.137 48.1144 23.3511C48.7049 23.6511 49.3766 23.8222 50.0884 23.8263C52.4979 23.8365 54.4483 21.9234 54.399 19.578C54.4606 17.2337 52.5184 15.3124 50.1099 15.3093C49.3961 15.3093 48.7244 15.4773 48.1328 15.7763C47.7128 15.9873 47.2229 15.7088 47.1499 15.2735L47.1756 9.25244L47.1356 9.03429C47.1202 8.67174 46.8141 8.38292 46.4361 8.38292L39.7448 8.37678C39.5158 8.18526 39.4162 7.8606 39.5723 7.56871C40.2584 6.26495 40.2563 4.56689 39.0803 2.9057C38.9612 2.73569 38.803 2.58412 38.6294 2.46531C35.1723 0.150706 31.4595 2.4858 31.4472 5.67196C31.4431 6.34689 31.6084 6.98392 31.9022 7.54516C32.0593 7.85036 31.935 8.18833 31.6783 8.36961L24.9448 8.36449C24.8606 8.36449 24.7815 8.38395 24.7066 8.41057C24.8226 8.56727 24.8935 8.75776 24.9027 8.96669L24.9007 8.96669C24.9192 9.04043 24.9428 9.11417 24.9428 9.19918L24.9325 15.1741C24.9654 15.3257 25.1194 15.4496 25.2694 15.4466L25.4163 15.4117L25.4327 15.4046L25.4491 15.3964L25.4697 15.3882C26.088 15.084 26.7853 14.9079 27.5238 14.9027L27.5587 14.9027C28.026 14.9027 28.4605 14.9908 28.8682 15.1065C30.7775 15.6555 32.1938 17.3566 32.1938 19.406L32.1918 19.5145L32.1938 19.6057C32.1938 21.653 30.7775 23.3551 28.8682 23.9041C28.4605 24.0198 28.026 24.1069 27.5567 24.1069L27.5474 24.1069C26.7977 24.1069 26.091 23.9277 25.4656 23.6204L25.4656 23.6214Z" stroke="#0066FF" stroke-width="2.5" stroke-linejoin="round"/>
</svg>
