<svg width="36" height="40" viewBox="0 0 36 40" fill="none" xmlns="http://www.w3.org/2000/svg">
<path d="M1.67981 9.98018C1.70913 9.59701 1.94546 9.25795 2.29839 9.09259L17.704 1.87282C18.0125 1.72827 18.3714 1.7348 18.6728 1.89046L33.7227 9.66486C34.0675 9.84293 34.2876 10.1903 34.2987 10.5742C34.3051 10.7927 34.4322 15.9948 32.4909 21.9965C31.3422 25.5476 29.7033 28.6375 27.6196 31.1805C24.9937 34.3851 21.6612 36.7171 17.7144 38.1117C17.5892 38.1559 17.4582 38.1767 17.3275 38.1744C17.1969 38.172 17.067 38.1464 16.9439 38.0977C13.0667 36.5606 9.84763 34.1093 7.37601 30.8119C5.41468 28.1951 3.92367 25.0482 2.94438 21.4584C1.28936 15.3913 1.66308 10.1983 1.67981 9.98018Z" stroke="black" stroke-width="2.5"/>
<path d="M12.6455 18.6722L16.9155 23.7922L23.3206 15.0581" stroke="#0066FF" stroke-width="2.5" stroke-linecap="round" stroke-linejoin="round"/>
</svg>
