<svg width="17" height="20" viewBox="0 0 17 20" fill="none" xmlns="http://www.w3.org/2000/svg">
<g clip-path="url(#clip0_14_2)">
<path fill-rule="evenodd" clip-rule="evenodd" d="M13.5386 12.4612H15.231V19.2305H0V12.4612H1.69233V17.5382H13.5386V12.4612Z" fill="#2A64F6"/>
<path d="M3.53675 11.9581L11.8484 13.705L12.1978 12.0435L3.88614 10.2958L3.53675 11.9581ZM4.63661 7.97819L12.3361 11.5641L13.0533 10.0242L5.3537 6.43832L4.63661 7.97819ZM6.7671 4.20076L13.2946 9.63636L14.3817 8.33096L7.85419 2.89551L6.7671 4.20076ZM10.9805 0.182861L9.61744 1.19672L14.6864 8.01219L16.0495 6.99848L10.9805 0.182861ZM3.38477 15.8458H11.8464V14.1535H3.38477V15.8458Z" fill="#2A64F6"/>
</g>
<defs>
<clipPath id="clip0_14_2">
<rect width="16.1905" height="20" fill="white"/>
</clipPath>
</defs>
</svg>
