<svg width="36" height="39" viewBox="0 0 36 39" fill="none" xmlns="http://www.w3.org/2000/svg">
    <path d="M17.6884 11.5067C18.1473 11.5067 18.5615 11.3219 18.8604 11.0232C19.1575 10.7264 19.3413 10.3136 19.3413 9.85565C19.3413 9.40186 19.1572 8.99094 18.8595 8.69451C18.5611 8.39738 18.1472 8.21312 17.6884 8.21312C17.2362 8.21312 16.8272 8.39656 16.5322 8.69226C16.2353 8.98978 16.0513 9.40146 16.0513 9.85565C16.0513 10.3139 16.235 10.7275 16.5313 11.0255C16.8268 11.3227 17.2362 11.5067 17.6884 11.5067ZM20.0155 12.1848C19.4191 12.7808 18.5963 13.1496 17.6884 13.1496C16.7854 13.1496 15.9649 12.7792 15.3697 12.1807C14.7762 11.5838 14.4083 10.7616 14.4083 9.85565C14.4083 8.95304 14.7765 8.13245 15.3706 7.5371C15.9661 6.94033 16.7863 6.57019 17.6884 6.57019C18.5955 6.57019 19.4179 6.93866 20.0147 7.53292C20.6137 8.12948 20.9842 8.95162 20.9842 9.85565C20.9842 10.7629 20.6141 11.5868 20.0155 12.1848Z" fill="black"/>
    <path d="M7.22452 9.1246L14.5519 16.6502L14.7861 17.2213V23.8222L14.7572 24.0276L11.603 36.1349L11.5998 36.1478C11.4492 36.6905 11.4933 37.0466 11.6434 37.2289C11.6872 37.2823 11.7449 37.3195 11.8103 37.3398C11.8951 37.3661 11.9964 37.3682 12.106 37.3452C12.4629 37.2704 12.851 36.9535 13.1144 36.3673L16.4732 26.3749L16.662 25.8133H17.2498H18.0676H18.6406L18.8377 26.3556L22.4834 36.387L22.4866 36.3967C22.6813 36.9567 23.068 37.2627 23.438 37.3281C23.5514 37.3482 23.6588 37.3449 23.7515 37.3184C23.8262 37.2971 23.891 37.2608 23.9391 37.2101C24.0964 37.0442 24.1431 36.6985 23.9718 36.1483L23.9654 36.1258L20.5683 24.0436L20.5362 23.8222V17.2213L20.7704 16.6502L28.1119 9.10511L28.1215 9.09547C28.3572 8.86161 28.4229 8.58468 28.3593 8.37035C28.3392 8.30258 28.3055 8.24267 28.2602 8.19635C28.2234 8.15872 28.173 8.12925 28.1103 8.11221C27.8317 8.0365 27.3903 8.18625 26.804 8.73272L26.7911 8.74555L20.2693 14.5484L19.7238 14.757H15.6076L15.0653 14.5484L8.53089 8.74694C7.99336 8.27411 7.57447 8.14553 7.30075 8.21499C7.23238 8.23233 7.17619 8.26429 7.13411 8.30595C7.08769 8.35188 7.05289 8.41225 7.03227 8.48113C6.97621 8.66839 7.0285 8.90885 7.22452 9.1246ZM13.1432 17.5519L6.03108 10.2474L6.01183 10.2282C5.39326 9.54729 5.25084 8.71096 5.45996 8.01267C5.55834 7.68416 5.73538 7.38546 5.97893 7.14439C6.22676 6.89898 6.53902 6.71576 6.90283 6.62344C7.64941 6.43401 8.60862 6.63239 9.61389 7.51662L15.9149 13.114H19.4127L25.7001 7.51983C26.7656 6.53279 27.7717 6.31825 28.5403 6.52709C28.8922 6.62274 29.194 6.80775 29.4346 7.05407C29.6668 7.29165 29.8358 7.58538 29.9316 7.90831C30.1515 8.64932 29.9817 9.55077 29.2863 10.2474L22.1791 17.5518V23.715L25.5393 35.6657C25.9114 36.866 25.6649 37.7717 25.1263 38.3396C24.8688 38.6111 24.5503 38.7973 24.2007 38.8972C23.8693 38.9918 23.5114 39.0083 23.1556 38.9454C22.2636 38.7876 21.3577 38.1264 20.9434 36.9453L17.6728 27.9467L14.6544 36.9262L14.6287 36.9935C14.1308 38.1357 13.2719 38.7753 12.4397 38.9496C12.0578 39.0297 11.6773 39.0138 11.3289 38.9057C10.9611 38.7916 10.6336 38.5779 10.3791 38.2686C9.91278 37.7019 9.71024 36.8316 10.021 35.7114L13.1432 23.7278L13.1432 17.5519Z" fill="black"/>
    <path d="M4.10534 4.1073H31.2172V5.75025H4.10534V4.1073Z" fill="#0066FF"/>
    <path d="M1.40964 2.75413e-06H3.54913C3.92882 2.75413e-06 4.27346 0.154753 4.52274 0.404038C4.77306 0.655052 4.92681 1.00078 4.92681 1.37756V8.46673C4.92681 8.84642 4.772 9.19103 4.52277 9.44025C4.27336 9.68951 3.9266 9.84426 3.54912 9.84426H1.40964C1.04178 9.84426 0.690406 9.69373 0.43475 9.45205C0.170638 9.20234 0 8.85473 0 8.46673V1.37756C0 0.989533 0.170668 0.641922 0.43475 0.392242C0.690372 0.150536 1.04172 2.75413e-06 1.40964 2.75413e-06ZM3.28386 1.64295H1.64295V8.20132H3.28386V1.64295Z" fill="#0066FF"/>
    <path d="M31.8053 2.75413e-06H33.9448C34.3245 2.75413e-06 34.6691 0.154753 34.9184 0.404038C35.1687 0.655052 35.3225 1.00078 35.3225 1.37756V8.46673C35.3225 8.84642 35.1677 9.19103 34.9184 9.44025C34.669 9.68951 34.3223 9.84426 33.9448 9.84426H31.8053C31.4375 9.84426 31.0861 9.69376 30.8304 9.45205C30.5663 9.20234 30.3957 8.85473 30.3957 8.46673V1.37756C30.3957 0.989533 30.5663 0.641922 30.8304 0.392242C31.086 0.150536 31.4374 2.75413e-06 31.8053 2.75413e-06ZM33.6795 1.64295H32.0386V8.20132H33.6795V1.64295Z" fill="#0066FF"/>
</svg>