<svg width="1159" height="138" viewBox="0 0 1159 138" fill="none" xmlns="http://www.w3.org/2000/svg">
<circle cx="35.3842" cy="68.7651" r="34.1342" fill="white" stroke="black" stroke-width="2.5"/>
<mask id="mask0_820_5426" style="mask-type:alpha" maskUnits="userSpaceOnUse" x="0" y="33" width="71" height="72">
<circle cx="35.3842" cy="68.7651" r="35.3842" fill="#C4C4C4"/>
</mask>
<g mask="url(#mask0_820_5426)">
<path d="M28.462 80.373H41.887C46.5312 80.373 50.9852 82.226 54.2691 85.5243C57.553 88.8226 59.3979 93.296 59.3979 97.9605V101.478H10.9512V97.9605C10.9512 93.296 12.7961 88.8226 16.08 85.5243C19.3639 82.226 23.8179 80.373 28.462 80.373Z" fill="#0064FF" stroke="black" stroke-width="2.5" stroke-miterlimit="10"/>
<path d="M27.8789 80.5195L35.7588 89.1667L43.7846 80.5195" stroke="black" stroke-width="2.5" stroke-miterlimit="10"/>
<path d="M35.1728 83.1989C42.6291 83.1989 48.6736 77.1279 48.6736 69.639C48.6736 62.1501 42.6291 56.0791 35.1728 56.0791C27.7164 56.0791 21.6719 62.1501 21.6719 69.639C21.6719 77.1279 27.7164 83.1989 35.1728 83.1989Z" fill="white" stroke="black" stroke-width="2.5" stroke-miterlimit="10"/>
</g>
<circle cx="35.3842" cy="68.7651" r="34.1342" stroke="black" stroke-width="2.5"/>
<path d="M70.7676 68.1836C70.0772 68.1836 69.5176 68.7432 69.5176 69.4336C69.5176 70.1239 70.0772 70.6836 70.7676 70.6836L70.7676 68.1836ZM110.825 69.4336L98.3252 62.2167L98.3252 76.6505L110.825 69.4336ZM70.7676 70.6836L99.5752 70.6836L99.5752 68.1836L70.7676 68.1836L70.7676 70.6836Z" fill="black"/>
<path d="M323.5 68.1836C322.81 68.1836 322.25 68.7432 322.25 69.4336C322.25 70.1239 322.81 70.6836 323.5 70.6836V68.1836ZM368.53 69.4336L356.03 62.2167V76.6505L368.53 69.4336ZM323.5 70.6836H357.28V68.1836H323.5V70.6836Z" fill="black"/>
<path d="M905.301 68.1836C904.61 68.1836 904.051 68.7432 904.051 69.4336C904.051 70.1239 904.61 70.6836 905.301 70.6836V68.1836ZM945.358 69.4336L932.858 62.2167V76.6505L945.358 69.4336ZM905.301 70.6836H934.108V68.1836H905.301V70.6836Z" fill="black"/>
<rect x="112.076" y="39.9727" width="211.141" height="57.5864" rx="8.75" fill="white" stroke="black" stroke-width="2.5"/>
<path d="M172.885 65.1182C171.745 65.1182 170.863 65.5479 170.238 66.4072C169.613 67.2601 169.301 68.4515 169.301 69.9814C169.301 73.165 170.495 74.7568 172.885 74.7568C173.887 74.7568 175.102 74.5062 176.527 74.0049V76.5439C175.355 77.0322 174.047 77.2764 172.602 77.2764C170.525 77.2764 168.936 76.6481 167.836 75.3916C166.736 74.1286 166.186 72.3187 166.186 69.9619C166.186 68.4775 166.456 67.1787 166.996 66.0654C167.536 64.9456 168.311 64.0895 169.32 63.4971C170.336 62.8981 171.524 62.5986 172.885 62.5986C174.271 62.5986 175.665 62.9339 177.064 63.6045L176.088 66.0654C175.554 65.8115 175.017 65.5902 174.477 65.4014C173.936 65.2126 173.406 65.1182 172.885 65.1182ZM180.574 77.0811V62.8037H183.602V77.0811H180.574ZM186.994 72.9404V70.499H192.238V72.9404H186.994ZM203.023 73.8389C203.023 74.9587 202.633 75.8115 201.852 76.3975C201.077 76.9834 199.915 77.2764 198.365 77.2764C197.571 77.2764 196.894 77.221 196.334 77.1104C195.774 77.0062 195.25 76.8499 194.762 76.6416V74.1807C195.315 74.4411 195.937 74.6592 196.627 74.835C197.324 75.0107 197.936 75.0986 198.463 75.0986C199.544 75.0986 200.084 74.7861 200.084 74.1611C200.084 73.9268 200.012 73.738 199.869 73.5947C199.726 73.445 199.479 73.279 199.127 73.0967C198.775 72.9079 198.307 72.6898 197.721 72.4424C196.881 72.0908 196.262 71.7653 195.865 71.4658C195.475 71.1663 195.188 70.8245 195.006 70.4404C194.83 70.0498 194.742 69.5713 194.742 69.0049C194.742 68.0348 195.117 67.2861 195.865 66.7588C196.62 66.2249 197.688 65.958 199.068 65.958C200.383 65.958 201.663 66.2445 202.906 66.8174L202.008 68.9658C201.461 68.7314 200.95 68.5394 200.475 68.3896C199.999 68.2399 199.514 68.165 199.02 68.165C198.141 68.165 197.701 68.4027 197.701 68.8779C197.701 69.1449 197.841 69.376 198.121 69.5713C198.408 69.7666 199.029 70.0563 199.986 70.4404C200.839 70.7855 201.464 71.1077 201.861 71.4072C202.258 71.7067 202.551 72.0518 202.74 72.4424C202.929 72.833 203.023 73.2985 203.023 73.8389ZM204.785 66.1631H208.047L210.107 72.3057C210.283 72.8395 210.404 73.471 210.469 74.2002H210.527C210.599 73.5296 210.739 72.8981 210.947 72.3057L212.969 66.1631H216.162L211.543 78.4775C211.12 79.6169 210.514 80.4697 209.727 81.0361C208.945 81.6025 208.031 81.8857 206.982 81.8857C206.468 81.8857 205.964 81.8304 205.469 81.7197V79.3564C205.827 79.4411 206.217 79.4834 206.641 79.4834C207.168 79.4834 207.627 79.3206 208.018 78.9951C208.415 78.6761 208.724 78.1911 208.945 77.54L209.121 77.0029L204.785 66.1631ZM226.352 73.8389C226.352 74.9587 225.961 75.8115 225.18 76.3975C224.405 76.9834 223.243 77.2764 221.693 77.2764C220.899 77.2764 220.222 77.221 219.662 77.1104C219.102 77.0062 218.578 76.8499 218.09 76.6416V74.1807C218.643 74.4411 219.265 74.6592 219.955 74.835C220.652 75.0107 221.264 75.0986 221.791 75.0986C222.872 75.0986 223.412 74.7861 223.412 74.1611C223.412 73.9268 223.34 73.738 223.197 73.5947C223.054 73.445 222.807 73.279 222.455 73.0967C222.104 72.9079 221.635 72.6898 221.049 72.4424C220.209 72.0908 219.59 71.7653 219.193 71.4658C218.803 71.1663 218.516 70.8245 218.334 70.4404C218.158 70.0498 218.07 69.5713 218.07 69.0049C218.07 68.0348 218.445 67.2861 219.193 66.7588C219.949 66.2249 221.016 65.958 222.396 65.958C223.712 65.958 224.991 66.2445 226.234 66.8174L225.336 68.9658C224.789 68.7314 224.278 68.5394 223.803 68.3896C223.327 68.2399 222.842 68.165 222.348 68.165C221.469 68.165 221.029 68.4027 221.029 68.8779C221.029 69.1449 221.169 69.376 221.449 69.5713C221.736 69.7666 222.357 70.0563 223.314 70.4404C224.167 70.7855 224.792 71.1077 225.189 71.4072C225.587 71.7067 225.88 72.0518 226.068 72.4424C226.257 72.833 226.352 73.2985 226.352 73.8389ZM234.275 74.9033C234.796 74.9033 235.421 74.7894 236.15 74.5615V76.7783C235.408 77.1104 234.497 77.2764 233.416 77.2764C232.225 77.2764 231.355 76.9769 230.809 76.3779C230.268 75.7725 229.998 74.8675 229.998 73.6631V68.3994H228.572V67.1396L230.213 66.1436L231.072 63.8389H232.977V66.1631H236.033V68.3994H232.977V73.6631C232.977 74.0863 233.094 74.3988 233.328 74.6006C233.569 74.8024 233.885 74.9033 234.275 74.9033ZM243.889 68.0771C243.257 68.0771 242.762 68.279 242.404 68.6826C242.046 69.0798 241.841 69.6462 241.789 70.3818H245.969C245.956 69.6462 245.764 69.0798 245.393 68.6826C245.021 68.279 244.52 68.0771 243.889 68.0771ZM244.309 77.2764C242.551 77.2764 241.177 76.7913 240.187 75.8213C239.198 74.8512 238.703 73.4775 238.703 71.7002C238.703 69.8708 239.159 68.458 240.07 67.4619C240.988 66.4593 242.255 65.958 243.869 65.958C245.412 65.958 246.613 66.3975 247.473 67.2764C248.332 68.1553 248.762 69.3695 248.762 70.9189V72.3643H241.721C241.753 73.2106 242.004 73.8714 242.473 74.3467C242.941 74.8219 243.599 75.0596 244.445 75.0596C245.103 75.0596 245.725 74.9912 246.311 74.8545C246.896 74.7178 247.508 74.4997 248.146 74.2002V76.5049C247.626 76.7653 247.069 76.9574 246.477 77.0811C245.884 77.2113 245.161 77.2764 244.309 77.2764ZM261.959 77.0811H258.98V70.7041C258.98 69.9163 258.847 69.3271 258.58 68.9365C258.32 68.5394 257.906 68.3408 257.34 68.3408C256.578 68.3408 256.025 68.6208 255.68 69.1807C255.335 69.7406 255.162 70.6618 255.162 71.9443V77.0811H252.184V66.1631H254.459L254.859 67.5596H255.025C255.318 67.0583 255.742 66.6676 256.295 66.3877C256.848 66.1012 257.483 65.958 258.199 65.958C259.833 65.958 260.94 66.4919 261.52 67.5596H261.783C262.076 67.0518 262.506 66.6579 263.072 66.3779C263.645 66.098 264.29 65.958 265.006 65.958C266.243 65.958 267.177 66.277 267.809 66.915C268.447 67.5465 268.766 68.5622 268.766 69.9619V77.0811H265.777V70.7041C265.777 69.9163 265.644 69.3271 265.377 68.9365C265.117 68.5394 264.703 68.3408 264.137 68.3408C263.408 68.3408 262.861 68.6012 262.496 69.1221C262.138 69.6429 261.959 70.4697 261.959 71.6025V77.0811Z" fill="black"/>
<rect x="371.115" y="1.25" width="532.937" height="135.031" rx="3.75" fill="white" stroke="black" stroke-width="2.5" stroke-dasharray="8 8"/>
<path d="M568.801 28.9854C567.662 28.9854 566.78 29.415 566.155 30.2744C565.53 31.1273 565.217 32.3187 565.217 33.8486C565.217 37.0322 566.412 38.624 568.801 38.624C569.804 38.624 571.018 38.3734 572.444 37.8721V40.4111C571.272 40.8994 569.963 41.1436 568.518 41.1436C566.441 41.1436 564.852 40.5153 563.752 39.2588C562.652 37.9958 562.102 36.1859 562.102 33.8291C562.102 32.3447 562.372 31.0459 562.912 29.9326C563.453 28.8128 564.227 27.9567 565.237 27.3643C566.252 26.7653 567.44 26.4658 568.801 26.4658C570.188 26.4658 571.581 26.8011 572.981 27.4717L572.004 29.9326C571.47 29.6787 570.933 29.4574 570.393 29.2686C569.852 29.0798 569.322 28.9854 568.801 28.9854ZM576.49 40.9482V26.6709H579.518V40.9482H576.49ZM590.479 26.6709L585.156 40.9482H582.451L587.774 26.6709H590.479ZM599.438 28.9854C598.298 28.9854 597.416 29.415 596.791 30.2744C596.166 31.1273 595.854 32.3187 595.854 33.8486C595.854 37.0322 597.048 38.624 599.438 38.624C600.44 38.624 601.655 38.3734 603.08 37.8721V40.4111C601.908 40.8994 600.6 41.1436 599.155 41.1436C597.078 41.1436 595.489 40.5153 594.389 39.2588C593.289 37.9958 592.739 36.1859 592.739 33.8291C592.739 32.3447 593.009 31.0459 593.549 29.9326C594.089 28.8128 594.864 27.9567 595.873 27.3643C596.889 26.7653 598.077 26.4658 599.438 26.4658C600.824 26.4658 602.218 26.8011 603.617 27.4717L602.641 29.9326C602.107 29.6787 601.57 29.4574 601.03 29.2686C600.489 29.0798 599.959 28.9854 599.438 28.9854ZM618.973 33.6729C618.973 36.0231 618.302 37.8232 616.961 39.0732C615.627 40.3232 613.696 40.9482 611.17 40.9482H607.127V26.6709H611.61C613.94 26.6709 615.75 27.2861 617.039 28.5166C618.328 29.7471 618.973 31.4658 618.973 33.6729ZM615.828 33.751C615.828 30.6846 614.474 29.1514 611.766 29.1514H610.155V38.4482H611.453C614.37 38.4482 615.828 36.8825 615.828 33.751ZM634.889 41.1436C633.606 41.1436 632.601 40.6781 631.871 39.7471H631.715C631.819 40.6585 631.871 41.1859 631.871 41.3291V45.7529H628.893V30.0303H631.315L631.735 31.4463H631.871C632.568 30.3656 633.6 29.8252 634.967 29.8252C636.256 29.8252 637.265 30.3232 637.994 31.3193C638.724 32.3154 639.088 33.6989 639.088 35.4697C639.088 36.6351 638.916 37.6475 638.571 38.5068C638.232 39.3662 637.747 40.0205 637.115 40.4697C636.484 40.9189 635.742 41.1436 634.889 41.1436ZM634.01 32.208C633.274 32.208 632.737 32.4359 632.399 32.8916C632.06 33.3408 631.884 34.0863 631.871 35.1279V35.4502C631.871 36.6221 632.044 37.4619 632.389 37.9697C632.74 38.4775 633.294 38.7314 634.049 38.7314C635.384 38.7314 636.051 37.6312 636.051 35.4307C636.051 34.3564 635.885 33.5524 635.553 33.0186C635.227 32.4782 634.713 32.208 634.01 32.208ZM642.422 27.208C642.422 26.238 642.962 25.7529 644.043 25.7529C645.124 25.7529 645.664 26.238 645.664 27.208C645.664 27.6702 645.528 28.0316 645.254 28.292C644.987 28.5459 644.584 28.6729 644.043 28.6729C642.962 28.6729 642.422 28.1846 642.422 27.208ZM645.528 40.9482H642.549V30.0303H645.528V40.9482ZM655.658 41.1436C654.376 41.1436 653.37 40.6781 652.641 39.7471H652.485C652.589 40.6585 652.641 41.1859 652.641 41.3291V45.7529H649.662V30.0303H652.084L652.504 31.4463H652.641C653.337 30.3656 654.369 29.8252 655.737 29.8252C657.026 29.8252 658.035 30.3232 658.764 31.3193C659.493 32.3154 659.858 33.6989 659.858 35.4697C659.858 36.6351 659.685 37.6475 659.34 38.5068C659.002 39.3662 658.517 40.0205 657.885 40.4697C657.253 40.9189 656.511 41.1436 655.658 41.1436ZM654.78 32.208C654.044 32.208 653.507 32.4359 653.168 32.8916C652.83 33.3408 652.654 34.0863 652.641 35.1279V35.4502C652.641 36.6221 652.813 37.4619 653.158 37.9697C653.51 38.4775 654.063 38.7314 654.819 38.7314C656.153 38.7314 656.821 37.6312 656.821 35.4307C656.821 34.3564 656.655 33.5524 656.323 33.0186C655.997 32.4782 655.483 32.208 654.78 32.208ZM667.84 31.9443C667.209 31.9443 666.714 32.1462 666.356 32.5498C665.998 32.9469 665.793 33.5133 665.74 34.249H669.92C669.907 33.5133 669.715 32.9469 669.344 32.5498C668.973 32.1462 668.472 31.9443 667.84 31.9443ZM668.26 41.1436C666.502 41.1436 665.128 40.6585 664.139 39.6885C663.149 38.7184 662.655 37.3447 662.655 35.5674C662.655 33.738 663.11 32.3252 664.022 31.3291C664.94 30.3265 666.206 29.8252 667.821 29.8252C669.364 29.8252 670.565 30.2646 671.424 31.1436C672.283 32.0225 672.713 33.2367 672.713 34.7861V36.2314H665.672C665.705 37.0778 665.955 37.7386 666.424 38.2139C666.893 38.6891 667.55 38.9268 668.397 38.9268C669.054 38.9268 669.676 38.8584 670.262 38.7217C670.848 38.585 671.46 38.3669 672.098 38.0674V40.3721C671.577 40.6325 671.02 40.8245 670.428 40.9482C669.836 41.0785 669.113 41.1436 668.26 41.1436ZM679.114 40.9482H676.135V25.7529H679.114V40.9482ZM683.121 27.208C683.121 26.238 683.662 25.7529 684.742 25.7529C685.823 25.7529 686.364 26.238 686.364 27.208C686.364 27.6702 686.227 28.0316 685.953 28.292C685.686 28.5459 685.283 28.6729 684.742 28.6729C683.662 28.6729 683.121 28.1846 683.121 27.208ZM686.227 40.9482H683.248V30.0303H686.227V40.9482ZM700.44 40.9482H697.461V34.5713C697.461 33.7835 697.321 33.1943 697.041 32.8037C696.761 32.4066 696.315 32.208 695.703 32.208C694.87 32.208 694.268 32.488 693.897 33.0479C693.526 33.6012 693.34 34.5225 693.34 35.8115V40.9482H690.362V30.0303H692.637L693.037 31.4268H693.203C693.535 30.8994 693.991 30.5023 694.571 30.2354C695.156 29.9619 695.821 29.8252 696.563 29.8252C697.832 29.8252 698.796 30.1702 699.453 30.8604C700.111 31.5439 700.44 32.5335 700.44 33.8291V40.9482ZM709.028 31.9443C708.396 31.9443 707.901 32.1462 707.543 32.5498C707.185 32.9469 706.98 33.5133 706.928 34.249H711.108C711.095 33.5133 710.903 32.9469 710.531 32.5498C710.16 32.1462 709.659 31.9443 709.028 31.9443ZM709.448 41.1436C707.69 41.1436 706.316 40.6585 705.326 39.6885C704.337 38.7184 703.842 37.3447 703.842 35.5674C703.842 33.738 704.298 32.3252 705.209 31.3291C706.127 30.3265 707.393 29.8252 709.008 29.8252C710.551 29.8252 711.752 30.2646 712.612 31.1436C713.471 32.0225 713.901 33.2367 713.901 34.7861V36.2314H706.86C706.892 37.0778 707.143 37.7386 707.612 38.2139C708.08 38.6891 708.738 38.9268 709.584 38.9268C710.242 38.9268 710.864 38.8584 711.449 38.7217C712.035 38.585 712.647 38.3669 713.285 38.0674V40.3721C712.765 40.6325 712.208 40.8245 711.615 40.9482C711.023 41.0785 710.3 41.1436 709.448 41.1436Z" fill="black"/>
<rect x="408.502" y="64.0068" width="128.355" height="46.9044" rx="3.75" fill="white" stroke="#0064FF" stroke-width="2.5"/>
<path d="M495.379 62.7568H533.107C535.868 62.7568 538.107 64.9954 538.107 67.7568V107.161C538.107 109.923 535.868 112.161 533.107 112.161H495.379V62.7568Z" fill="#0066FF"/>
<path fill-rule="evenodd" clip-rule="evenodd" d="M523.499 87.3139L524.487 90.1933L526.211 87.3139H523.499ZM523.319 81.0876V86.4125H526.244L523.319 81.0876ZM522.395 84.094V79.7931H520.919L522.395 84.094ZM519.177 74.7158L520.61 78.8912H522.113L519.673 74.4492L519.304 74.6474L519.177 74.7158ZM517.163 97.9064H519.356L518.528 96.4191L518.254 96.7093C517.929 97.0961 517.566 97.496 517.163 97.9064ZM516.089 96.5501L516.126 87.8757C515.89 88.0095 515.551 88.2172 515.151 88.4888C515.189 89.5598 515.365 93.2073 516.089 96.5501ZM513.587 89.6795C513.62 90.3656 513.829 92.8287 515.13 95.5099C514.661 92.884 514.49 90.2831 514.431 89.0048C514.143 89.2216 513.861 89.4466 513.587 89.6795ZM512.786 97.9064H515.069L514.894 97.7069C514.466 97.2609 514.058 96.7962 513.673 96.3143L512.786 97.9064ZM512.056 91.1691C512.139 91.6529 512.781 93.4771 514.376 95.6491C513.325 93.4264 512.992 91.3922 512.887 90.3076C512.598 90.5828 512.321 90.8703 512.056 91.1691ZM513.21 86.6963V88.7595C513.581 88.447 513.968 88.1537 514.37 87.8807C515.393 87.1416 515.81 86.9897 516.073 86.9734H516.071V86.6963H513.21ZM505.931 87.3139L507.774 90.3914L509.042 87.3139H505.931ZM509.264 82.4271L506.074 86.412H509.264L509.264 82.4271ZM510.189 81.2722V84.5311L512.433 79.0848L512.133 78.844L510.189 81.2722ZM525.097 90.9632H526.955L527.418 91.4144V98.3567L526.955 98.8083H505.187L504.725 98.3576V91.4149L505.187 90.9637H507.045L504.726 87.0913L504.761 86.5861L511.696 77.9249L512.326 77.8568L512.338 77.8414L515.454 80.1214L514.899 80.8432L513.214 79.6099L508.364 91.3786L511.994 97.4389L513.068 95.5099C511.248 92.9312 511.116 91.1555 511.109 91.0553L511.218 90.7379C511.557 90.3445 511.913 89.9653 512.285 89.6011V86.2456L512.748 85.7944H519.395L519.857 86.2456V89.4963C520.236 89.86 520.63 90.2717 521.033 90.7383L521.14 91.0553C521.135 91.1569 520.999 92.9706 519.122 95.5952L520.149 97.4389L523.867 91.2294L518.354 75.1584L516.842 75.9723L516.396 75.1824L519.635 73.4385L520.267 73.6208L527.424 86.6505L527.416 87.0913L525.096 90.9637L525.097 90.9632Z" fill="white"/>
<path d="M433.096 80.0986V83.3945C433.096 83.7754 433.085 84.1504 433.061 84.5195C433.044 84.8828 433.026 85.167 433.008 85.3721H433.096C433.36 84.9502 433.726 84.5957 434.195 84.3086C434.67 84.0156 435.276 83.8691 436.014 83.8691C437.169 83.8691 438.097 84.2939 438.8 85.1436C439.504 85.9873 439.855 87.2383 439.855 88.8965C439.855 89.998 439.694 90.9238 439.372 91.6738C439.049 92.4238 438.595 92.9922 438.009 93.3789C437.429 93.7598 436.747 93.9502 435.962 93.9502C435.223 93.9502 434.626 93.8154 434.169 93.5459C433.717 93.2705 433.363 92.9512 433.105 92.5879H432.956L432.578 93.7744H431.031V80.0986H433.096ZM435.469 85.5479C434.883 85.5479 434.418 85.665 434.072 85.8994C433.732 86.1338 433.486 86.4854 433.334 86.9541C433.181 87.417 433.102 88.0059 433.096 88.7207V88.9053C433.096 89.9893 433.266 90.8184 433.606 91.3926C433.952 91.9668 434.579 92.2539 435.487 92.2539C436.208 92.2539 436.761 91.9639 437.148 91.3838C437.535 90.7979 437.728 89.96 437.728 88.8701C437.728 87.7686 437.535 86.9395 437.148 86.3828C436.767 85.8262 436.208 85.5479 435.469 85.5479ZM451.627 84.0449V93.7744H450.001L449.72 92.4648H449.606C449.401 92.7988 449.14 93.0771 448.823 93.2998C448.507 93.5166 448.156 93.6777 447.769 93.7832C447.382 93.8945 446.975 93.9502 446.547 93.9502C445.815 93.9502 445.188 93.8271 444.666 93.5811C444.151 93.3291 443.755 92.9424 443.48 92.4209C443.204 91.8994 443.067 91.2256 443.067 90.3994V84.0449H445.141V90.0127C445.141 90.7686 445.293 91.334 445.598 91.709C445.908 92.084 446.389 92.2715 447.039 92.2715C447.666 92.2715 448.164 92.1426 448.533 91.8848C448.903 91.627 449.163 91.2461 449.316 90.7422C449.474 90.2383 449.553 89.6201 449.553 88.8877V84.0449H451.627ZM457.555 84.0449V93.7744H455.489V84.0449H457.555ZM456.535 80.3184C456.851 80.3184 457.124 80.4033 457.352 80.5732C457.587 80.7432 457.704 81.0361 457.704 81.4521C457.704 81.8623 457.587 82.1553 457.352 82.3311C457.124 82.501 456.851 82.5859 456.535 82.5859C456.207 82.5859 455.929 82.501 455.7 82.3311C455.477 82.1553 455.366 81.8623 455.366 81.4521C455.366 81.0361 455.477 80.7432 455.7 80.5732C455.929 80.4033 456.207 80.3184 456.535 80.3184ZM463.491 93.7744H461.416V80.0986H463.491V93.7744ZM470.613 93.9502C469.453 93.9502 468.522 93.5283 467.818 92.6846C467.121 91.835 466.773 90.584 466.773 88.9316C466.773 87.2617 467.127 85.999 467.836 85.1436C468.551 84.2881 469.491 83.8604 470.657 83.8604C471.149 83.8604 471.58 83.9277 471.949 84.0625C472.318 84.1914 472.635 84.3672 472.898 84.5898C473.168 84.8125 473.397 85.0615 473.584 85.3369H473.681C473.651 85.1553 473.616 84.8945 473.575 84.5547C473.54 84.209 473.523 83.8896 473.523 83.5967V80.0986H475.597V93.7744H473.98L473.61 92.4473H473.523C473.347 92.7285 473.124 92.9834 472.855 93.2119C472.591 93.4346 472.274 93.6133 471.905 93.748C471.542 93.8828 471.111 93.9502 470.613 93.9502ZM471.193 92.2715C472.078 92.2715 472.702 92.0166 473.065 91.5068C473.429 90.9971 473.616 90.2324 473.628 89.2129V88.9404C473.628 87.8506 473.452 87.0156 473.101 86.4355C472.749 85.8496 472.107 85.5566 471.176 85.5566C470.432 85.5566 469.863 85.8584 469.471 86.4619C469.084 87.0596 468.891 87.8945 468.891 88.9668C468.891 90.0391 469.084 90.8594 469.471 91.4277C469.863 91.9902 470.438 92.2715 471.193 92.2715Z" fill="#0064FF"/>
<rect x="574.072" y="64.0068" width="128.355" height="46.9044" rx="3.75" fill="white" stroke="#0064FF" stroke-width="2.5"/>
<path d="M660.949 62.7568H698.677C701.439 62.7568 703.677 64.9954 703.677 67.7568V107.161C703.677 109.923 701.439 112.161 698.677 112.161H660.949V62.7568Z" fill="#0066FF"/>
<path fill-rule="evenodd" clip-rule="evenodd" d="M689.071 87.3139L690.059 90.1933L691.783 87.3139H689.071ZM688.892 81.0876V86.4125H691.816L688.892 81.0876ZM687.967 84.094V79.7931H686.491L687.967 84.094ZM684.749 74.7158L686.182 78.8912H687.685L685.245 74.4492L684.876 74.6474L684.749 74.7158ZM682.735 97.9064H684.928L684.101 96.4191L683.826 96.7093C683.501 97.0961 683.138 97.496 682.735 97.9064ZM681.661 96.5501L681.698 87.8757C681.462 88.0095 681.123 88.2172 680.724 88.4888C680.761 89.5598 680.937 93.2073 681.661 96.5501ZM679.159 89.6795C679.192 90.3656 679.402 92.8287 680.702 95.5099C680.233 92.884 680.063 90.2831 680.003 89.0048C679.715 89.2216 679.433 89.4466 679.159 89.6795ZM678.358 97.9064H680.641L680.466 97.7069C680.038 97.2609 679.63 96.7962 679.245 96.3143L678.358 97.9064ZM677.629 91.1691C677.711 91.6529 678.353 93.4771 679.948 95.6491C678.898 93.4264 678.564 91.3922 678.46 90.3076C678.17 90.5828 677.893 90.8703 677.629 91.1691ZM678.782 86.6963V88.7595C679.153 88.447 679.54 88.1537 679.943 87.8807C680.966 87.1416 681.382 86.9897 681.645 86.9734H681.644V86.6963H678.782ZM671.504 87.3139L673.346 90.3914L674.614 87.3139H671.504ZM674.837 82.4271L671.646 86.412H674.836L674.837 82.4271ZM675.762 81.2722V84.5311L678.006 79.0848L677.706 78.844L675.762 81.2722ZM690.67 90.9632H692.528L692.99 91.4144V98.3567L692.528 98.8083H670.759L670.297 98.3576V91.4149L670.759 90.9637H672.617L670.299 87.0913L670.333 86.5861L677.269 77.9249L677.899 77.8568L677.91 77.8414L681.026 80.1214L680.471 80.8432L678.787 79.6099L673.937 91.3786L677.566 97.4389L678.641 95.5099C676.821 92.9312 676.688 91.1555 676.682 91.0553L676.79 90.7379C677.129 90.3445 677.485 89.9653 677.857 89.6011V86.2456L678.32 85.7944H684.967L685.43 86.2456V89.4963C685.808 89.86 686.202 90.2717 686.605 90.7383L686.713 91.0553C686.707 91.1569 686.571 92.9706 684.694 95.5952L685.721 97.4389L689.439 91.2294L683.926 75.1584L682.414 75.9723L681.968 75.1824L685.208 73.4385L685.839 73.6208L692.996 86.6505L692.988 87.0913L690.669 90.9637L690.67 90.9632Z" fill="white"/>
<path d="M605.946 92.2803C606.215 92.2803 606.482 92.2568 606.746 92.21C607.009 92.1572 607.25 92.0957 607.466 92.0254V93.5898C607.238 93.6895 606.942 93.7744 606.579 93.8447C606.215 93.915 605.837 93.9502 605.445 93.9502C604.894 93.9502 604.399 93.8594 603.96 93.6777C603.52 93.4902 603.171 93.1709 602.914 92.7197C602.656 92.2686 602.527 91.6445 602.527 90.8477V85.6182H601.2V84.6953L602.624 83.9658L603.3 81.8828H604.601V84.0449H607.387V85.6182H604.601V90.8213C604.601 91.3135 604.724 91.6797 604.97 91.9199C605.216 92.1602 605.542 92.2803 605.946 92.2803ZM614.22 83.8604C615.087 83.8604 615.831 84.0391 616.452 84.3965C617.073 84.7539 617.551 85.2607 617.885 85.917C618.219 86.5732 618.386 87.3584 618.386 88.2725V89.3799H611.891C611.914 90.3232 612.166 91.0498 612.647 91.5596C613.133 92.0693 613.813 92.3242 614.686 92.3242C615.307 92.3242 615.863 92.2656 616.356 92.1484C616.854 92.0254 617.366 91.8467 617.894 91.6123V93.291C617.407 93.5195 616.912 93.6865 616.408 93.792C615.904 93.8975 615.301 93.9502 614.598 93.9502C613.643 93.9502 612.802 93.7656 612.075 93.3965C611.355 93.0215 610.789 92.4648 610.379 91.7266C609.975 90.9883 609.773 90.0713 609.773 88.9756C609.773 87.8857 609.957 86.96 610.326 86.1982C610.695 85.4365 611.214 84.8564 611.882 84.458C612.55 84.0596 613.329 83.8604 614.22 83.8604ZM614.22 85.416C613.569 85.416 613.042 85.627 612.638 86.0488C612.239 86.4707 612.005 87.0889 611.935 87.9033H616.364C616.359 87.417 616.277 86.9863 616.118 86.6113C615.966 86.2363 615.732 85.9434 615.415 85.7324C615.105 85.5215 614.706 85.416 614.22 85.416ZM628.154 90.9971C628.154 91.6357 627.999 92.1748 627.688 92.6143C627.378 93.0537 626.924 93.3877 626.326 93.6162C625.734 93.8389 625.008 93.9502 624.146 93.9502C623.467 93.9502 622.881 93.9004 622.388 93.8008C621.902 93.707 621.442 93.5605 621.009 93.3613V91.5771C621.471 91.7939 621.99 91.9814 622.564 92.1396C623.144 92.2979 623.692 92.377 624.208 92.377C624.887 92.377 625.377 92.2715 625.676 92.0605C625.974 91.8438 626.124 91.5566 626.124 91.1992C626.124 90.9883 626.062 90.8008 625.939 90.6367C625.822 90.4668 625.599 90.2939 625.271 90.1182C624.949 89.9365 624.474 89.7197 623.847 89.4678C623.232 89.2217 622.714 88.9756 622.292 88.7295C621.87 88.4834 621.551 88.1875 621.334 87.8418C621.117 87.4902 621.009 87.042 621.009 86.4971C621.009 85.6357 621.348 84.9824 622.028 84.5371C622.714 84.0859 623.619 83.8604 624.744 83.8604C625.342 83.8604 625.904 83.9219 626.431 84.0449C626.965 84.1621 627.486 84.335 627.996 84.5635L627.345 86.1191C626.906 85.9258 626.464 85.7676 626.018 85.6445C625.579 85.5156 625.131 85.4512 624.674 85.4512C624.14 85.4512 623.733 85.5332 623.452 85.6973C623.177 85.8613 623.039 86.0957 623.039 86.4004C623.039 86.6289 623.106 86.8223 623.241 86.9805C623.376 87.1387 623.607 87.2969 623.935 87.4551C624.269 87.6133 624.732 87.8096 625.324 88.0439C625.904 88.2666 626.405 88.501 626.827 88.7471C627.255 88.9873 627.583 89.2832 627.811 89.6348C628.04 89.9863 628.154 90.4404 628.154 90.9971ZM634.908 92.2803C635.177 92.2803 635.444 92.2568 635.707 92.21C635.971 92.1572 636.211 92.0957 636.428 92.0254V93.5898C636.2 93.6895 635.904 93.7744 635.54 93.8447C635.177 93.915 634.799 93.9502 634.407 93.9502C633.856 93.9502 633.361 93.8594 632.921 93.6777C632.482 93.4902 632.133 93.1709 631.875 92.7197C631.618 92.2686 631.489 91.6445 631.489 90.8477V85.6182H630.161V84.6953L631.585 83.9658L632.262 81.8828H633.563V84.0449H636.349V85.6182H633.563V90.8213C633.563 91.3135 633.686 91.6797 633.932 91.9199C634.178 92.1602 634.503 92.2803 634.908 92.2803Z" fill="#0064FF"/>
<rect x="739.645" y="64.0068" width="128.355" height="46.9044" rx="3.75" fill="white" stroke="#0064FF" stroke-width="2.5"/>
<path d="M826.521 62.7568H864.25C867.011 62.7568 869.25 64.9954 869.25 67.7568V107.161C869.25 109.923 867.011 112.161 864.25 112.161H826.521V62.7568Z" fill="#0066FF"/>
<path fill-rule="evenodd" clip-rule="evenodd" d="M854.642 87.3139L855.63 90.1933L857.353 87.3139H854.642ZM854.462 81.0876V86.4125H857.387L854.462 81.0876ZM853.537 84.094V79.7931H852.062L853.537 84.094ZM850.32 74.7158L851.752 78.8912H853.256L850.816 74.4492L850.446 74.6474L850.32 74.7158ZM848.305 97.9064H850.498L849.671 96.4191L849.397 96.7093C849.071 97.0961 848.709 97.496 848.305 97.9064ZM847.231 96.5501L847.269 87.8757C847.033 88.0095 846.693 88.2172 846.294 88.4888C846.332 89.5598 846.508 93.2073 847.231 96.5501ZM844.729 89.6795C844.763 90.3656 844.972 92.8287 846.272 95.5099C845.803 92.884 845.633 90.2831 845.573 89.0048C845.285 89.2216 845.004 89.4466 844.729 89.6795ZM843.929 97.9064H846.211L846.037 97.7069C845.608 97.2609 845.201 96.7962 844.815 96.3143L843.929 97.9064ZM843.199 91.1691C843.281 91.6529 843.923 93.4771 845.518 95.6491C844.468 93.4264 844.135 91.3922 844.03 90.3076C843.74 90.5828 843.463 90.8703 843.199 91.1691ZM844.352 86.6963V88.7595C844.723 88.447 845.111 88.1537 845.513 87.8807C846.536 87.1416 846.953 86.9897 847.215 86.9734H847.214V86.6963H844.352ZM837.074 87.3139L838.917 90.3914L840.185 87.3139H837.074ZM840.407 82.4271L837.216 86.412H840.406L840.407 82.4271ZM841.332 81.2722V84.5311L843.576 79.0848L843.276 78.844L841.332 81.2722ZM856.24 90.9632H858.098L858.56 91.4144V98.3567L858.098 98.8083H836.329L835.867 98.3576V91.4149L836.329 90.9637H838.188L835.869 87.0913L835.903 86.5861L842.839 77.9249L843.469 77.8568L843.481 77.8414L846.596 80.1214L846.041 80.8432L844.357 79.6099L839.507 91.3786L843.137 97.4389L844.211 95.5099C842.391 92.9312 842.258 91.1555 842.252 91.0553L842.36 90.7379C842.699 90.3445 843.055 89.9653 843.427 89.6011V86.2456L843.89 85.7944H850.538L851 86.2456V89.4963C851.378 89.86 851.773 90.2717 852.175 90.7383L852.283 91.0553C852.277 91.1569 852.141 92.9706 850.264 95.5952L851.292 97.4389L855.009 91.2294L849.497 75.1584L847.985 75.9723L847.538 75.1824L850.778 73.4385L851.409 73.6208L858.567 86.6505L858.558 87.0913L856.239 90.9637L856.24 90.9632Z" fill="white"/>
<path d="M758.402 93.9502C757.242 93.9502 756.31 93.5283 755.607 92.6846C754.909 91.835 754.561 90.584 754.561 88.9316C754.561 87.2617 754.915 85.999 755.624 85.1436C756.339 84.2881 757.28 83.8604 758.446 83.8604C758.938 83.8604 759.368 83.9277 759.738 84.0625C760.107 84.1914 760.423 84.3672 760.687 84.5898C760.956 84.8125 761.185 85.0615 761.372 85.3369H761.469C761.44 85.1553 761.405 84.8945 761.364 84.5547C761.328 84.209 761.311 83.8896 761.311 83.5967V80.0986H763.385V93.7744H761.768L761.399 92.4473H761.311C761.135 92.7285 760.912 92.9834 760.643 93.2119C760.379 93.4346 760.063 93.6133 759.694 93.748C759.33 93.8828 758.9 93.9502 758.402 93.9502ZM758.982 92.2715C759.867 92.2715 760.491 92.0166 760.854 91.5068C761.217 90.9971 761.405 90.2324 761.416 89.2129V88.9404C761.416 87.8506 761.241 87.0156 760.889 86.4355C760.537 85.8496 759.896 85.5566 758.964 85.5566C758.22 85.5566 757.652 85.8584 757.259 86.4619C756.872 87.0596 756.679 87.8945 756.679 88.9668C756.679 90.0391 756.872 90.8594 757.259 91.4277C757.652 91.9902 758.226 92.2715 758.982 92.2715ZM771.123 83.8604C771.99 83.8604 772.734 84.0391 773.355 84.3965C773.976 84.7539 774.454 85.2607 774.788 85.917C775.122 86.5732 775.289 87.3584 775.289 88.2725V89.3799H768.794C768.817 90.3232 769.069 91.0498 769.55 91.5596C770.036 92.0693 770.716 92.3242 771.589 92.3242C772.21 92.3242 772.767 92.2656 773.259 92.1484C773.757 92.0254 774.269 91.8467 774.797 91.6123V93.291C774.31 93.5195 773.815 93.6865 773.311 93.792C772.808 93.8975 772.204 93.9502 771.501 93.9502C770.546 93.9502 769.705 93.7656 768.978 93.3965C768.258 93.0215 767.692 92.4648 767.282 91.7266C766.878 90.9883 766.676 90.0713 766.676 88.9756C766.676 87.8857 766.86 86.96 767.229 86.1982C767.599 85.4365 768.117 84.8564 768.785 84.458C769.453 84.0596 770.232 83.8604 771.123 83.8604ZM771.123 85.416C770.473 85.416 769.945 85.627 769.541 86.0488C769.142 86.4707 768.908 87.0889 768.838 87.9033H773.267C773.262 87.417 773.18 86.9863 773.021 86.6113C772.869 86.2363 772.635 85.9434 772.318 85.7324C772.008 85.5215 771.609 85.416 771.123 85.416ZM783.51 83.8604C784.665 83.8604 785.59 84.2822 786.288 85.126C786.991 85.9697 787.342 87.2236 787.342 88.8877C787.342 89.9893 787.178 90.918 786.85 91.6738C786.528 92.4238 786.074 92.9922 785.488 93.3789C784.908 93.7598 784.231 93.9502 783.458 93.9502C782.965 93.9502 782.538 93.8857 782.174 93.7568C781.811 93.6279 781.5 93.4609 781.243 93.2559C780.985 93.0449 780.768 92.8164 780.592 92.5703H780.469C780.499 92.8047 780.525 93.0654 780.548 93.3525C780.578 93.6338 780.592 93.8916 780.592 94.126V98.0898H778.518V84.0449H780.206L780.496 85.3896H780.592C780.774 85.1143 780.994 84.8594 781.251 84.625C781.515 84.3906 781.832 84.2061 782.201 84.0713C782.576 83.9307 783.012 83.8604 783.51 83.8604ZM782.957 85.5479C782.388 85.5479 781.931 85.6621 781.585 85.8906C781.246 86.1133 780.997 86.4502 780.838 86.9014C780.686 87.3525 780.604 87.918 780.592 88.5977V88.8877C780.592 89.6084 780.666 90.2207 780.812 90.7246C780.964 91.2227 781.213 91.6035 781.559 91.8672C781.911 92.125 782.385 92.2539 782.983 92.2539C783.487 92.2539 783.903 92.1162 784.231 91.8408C784.565 91.5654 784.814 91.1729 784.978 90.6631C785.142 90.1533 785.224 89.5527 785.224 88.8613C785.224 87.8125 785.037 86.998 784.662 86.418C784.292 85.8379 783.724 85.5479 782.957 85.5479ZM792.707 93.7744H790.633V80.0986H792.707V93.7744ZM805.174 88.8877C805.174 89.6963 805.068 90.4141 804.857 91.041C804.646 91.668 804.339 92.1982 803.934 92.6318C803.53 93.0596 803.044 93.3877 802.475 93.6162C801.907 93.8389 801.265 93.9502 800.55 93.9502C799.883 93.9502 799.27 93.8389 798.714 93.6162C798.157 93.3877 797.674 93.0596 797.263 92.6318C796.859 92.1982 796.546 91.668 796.323 91.041C796.1 90.4141 795.989 89.6963 795.989 88.8877C795.989 87.8154 796.174 86.9072 796.543 86.1631C796.918 85.4131 797.451 84.8418 798.142 84.4492C798.834 84.0566 799.657 83.8604 800.612 83.8604C801.508 83.8604 802.3 84.0566 802.985 84.4492C803.671 84.8418 804.207 85.4131 804.593 86.1631C804.98 86.9131 805.174 87.8213 805.174 88.8877ZM798.116 88.8877C798.116 89.5967 798.201 90.2031 798.371 90.707C798.547 91.2109 798.816 91.5977 799.179 91.8672C799.543 92.1309 800.011 92.2627 800.586 92.2627C801.16 92.2627 801.629 92.1309 801.992 91.8672C802.355 91.5977 802.622 91.2109 802.792 90.707C802.962 90.2031 803.047 89.5967 803.047 88.8877C803.047 88.1787 802.962 87.5781 802.792 87.0859C802.622 86.5879 802.355 86.21 801.992 85.9521C801.629 85.6885 801.157 85.5566 800.577 85.5566C799.721 85.5566 799.097 85.8438 798.705 86.418C798.312 86.9922 798.116 87.8154 798.116 88.8877ZM806.979 84.0449H809.229L811.224 89.5996C811.312 89.8516 811.391 90.1006 811.461 90.3467C811.537 90.5869 811.602 90.8242 811.655 91.0586C811.713 91.293 811.76 91.5273 811.795 91.7617H811.848C811.907 91.457 811.989 91.1172 812.094 90.7422C812.205 90.3613 812.328 89.9805 812.463 89.5996L814.379 84.0449H816.603L812.428 95.1104C812.188 95.7432 811.892 96.2822 811.54 96.7275C811.195 97.1787 810.784 97.5186 810.31 97.7471C809.835 97.9814 809.293 98.0986 808.684 98.0986C808.391 98.0986 808.136 98.0811 807.919 98.0459C807.702 98.0166 807.518 97.9844 807.366 97.9492V96.2969C807.489 96.3262 807.644 96.3525 807.831 96.376C808.019 96.3994 808.212 96.4111 808.411 96.4111C808.781 96.4111 809.1 96.3379 809.369 96.1914C809.639 96.0449 809.867 95.8369 810.055 95.5674C810.242 95.3037 810.398 95.002 810.521 94.6621L810.864 93.748L806.979 84.0449Z" fill="#0064FF"/>
<path d="M572.824 88.127L562.824 82.3535V93.9005L572.824 88.127ZM538.107 89.127H563.824V87.127H538.107V89.127Z" fill="black"/>
<path d="M738.394 88.127L728.394 82.3535V93.9005L738.394 88.127ZM703.678 89.127H729.394V87.127H703.678V89.127Z" fill="black"/>
<rect x="946.609" y="39.9727" width="211.141" height="57.5864" rx="8.75" fill="white" stroke="black" stroke-width="2.5"/>
<path d="M1005.79 59.3648C1005.59 58.7437 1005.13 58.2196 1004.53 57.9091L992.561 52.1834C992.25 52.0281 991.9 51.9893 991.57 51.9893C991.259 51.9893 990.909 51.9893 990.579 52.0669L978.633 57.8315C978.05 58.1032 977.603 58.6078 977.448 59.2872L974.514 72.1749C974.398 72.8348 974.553 73.5142 974.942 74.0576L983.217 84.3057C983.683 84.7715 984.363 85.0821 985.024 85.1209H998.213C998.913 85.1986 999.593 84.888 1000.02 84.3057L1008.3 74.077C1008.68 73.5336 1008.84 72.8542 1008.76 72.1943L1005.79 59.3648Z" fill="#326DE6"/>
<path d="M1003.94 71.6688C1003.9 71.6688 1003.86 71.6688 1003.86 71.63C1003.86 71.5912 1003.79 71.5912 1003.71 71.5912C1003.55 71.5524 1003.4 71.5524 1003.24 71.5524C1003.16 71.5524 1003.09 71.5524 1003.01 71.5135H1002.97C1002.54 71.4747 1002.08 71.3971 1001.63 71.2806C1001.51 71.2418 1001.4 71.1254 1001.36 71.0089C1001.4 71.0089 1001.36 71.0089 1001.36 71.0089L1001.05 70.9313C1001.2 69.7861 1001.12 68.6216 1000.89 67.4764C1000.62 66.3313 1000.15 65.2443 999.513 64.2545L999.746 64.0216V63.9827C999.746 63.8663 999.785 63.711 999.862 63.6334C1000.21 63.3228 1000.56 63.0899 1000.97 62.857C1001.05 62.8182 1001.12 62.7794 1001.2 62.7405C1001.36 62.6629 1001.47 62.5853 1001.63 62.5076C1001.67 62.4688 1001.71 62.4688 1001.75 62.43C1001.79 62.3912 1001.75 62.3912 1001.75 62.3524C1002.1 62.0806 1002.17 61.6148 1001.9 61.246C1001.79 61.0908 1001.55 60.9743 1001.36 60.9743C1001.16 60.9743 1000.97 61.0519 1000.81 61.1684L1000.78 61.2072C1000.74 61.246 1000.7 61.2848 1000.66 61.2848C1000.54 61.4013 1000.43 61.5178 1000.35 61.6342C1000.31 61.7119 1000.23 61.7507 1000.19 61.7895C999.92 62.1 999.571 62.4106 999.202 62.6435C999.124 62.6823 999.046 62.7211 998.969 62.7211C998.93 62.7211 998.852 62.7211 998.813 62.6823H998.755L998.444 62.8764C998.133 62.5659 997.784 62.2553 997.453 61.9448C995.997 60.7996 994.19 60.1009 992.345 59.9068L992.306 59.5962V59.6351C992.189 59.5574 992.15 59.441 992.112 59.3245C992.112 58.8975 992.111 58.4705 992.189 57.9853V57.9464C992.189 57.8688 992.228 57.7912 992.228 57.7135C992.267 57.5583 992.267 57.403 992.306 57.2477V57.0148C992.345 56.6266 992.034 56.2384 991.645 56.1996C991.432 56.1414 991.179 56.2578 990.985 56.4519C990.829 56.6072 990.752 56.8013 990.752 56.9954V57.1895C990.752 57.3448 990.791 57.5 990.829 57.6553C990.868 57.7329 990.868 57.8106 990.868 57.8882V57.927C990.946 58.354 990.946 58.781 990.946 59.2663C990.907 59.3827 990.868 59.4992 990.752 59.5768V59.6545L990.713 59.965C990.286 60.0038 989.858 60.0815 989.373 60.1591C987.527 60.5473 985.837 61.5372 984.555 62.8958L984.322 62.7405H984.283C984.244 62.7405 984.205 62.7794 984.128 62.7794C984.05 62.7794 983.972 62.7405 983.895 62.7017C983.545 62.43 983.195 62.1194 982.904 61.8089C982.865 61.7313 982.787 61.6924 982.748 61.6536C982.632 61.5372 982.554 61.4207 982.438 61.3043C982.399 61.2654 982.36 61.2654 982.321 61.2266C982.282 61.1878 982.282 61.1878 982.282 61.1878C982.127 61.0713 981.933 60.9937 981.738 60.9937C981.505 60.9937 981.311 61.0713 981.194 61.2654C980.961 61.6148 981.039 62.0806 981.35 62.3718C981.389 62.3718 981.389 62.4106 981.389 62.4106C981.389 62.4106 981.466 62.4882 981.505 62.4882C981.622 62.5659 981.777 62.6435 981.933 62.7211C982.01 62.76 982.088 62.7988 982.166 62.8376C982.554 63.0705 982.943 63.3034 983.273 63.614C983.351 63.6916 983.428 63.8469 983.39 63.9633V63.9245L983.623 64.1574C983.584 64.2351 983.545 64.2739 983.506 64.3515C982.282 66.273 981.777 68.5439 982.127 70.776L981.816 70.8536C981.816 70.8924 981.777 70.8924 981.777 70.8924C981.738 71.0089 981.622 71.0865 981.505 71.1642C981.078 71.2806 980.651 71.3583 980.165 71.3971C980.087 71.3971 980.01 71.3971 979.932 71.4359C979.776 71.4359 979.621 71.4747 979.466 71.4747C979.427 71.4747 979.388 71.5135 979.31 71.5135C979.271 71.5135 979.271 71.5135 979.232 71.5524C978.805 71.63 978.533 72.0182 978.611 72.4452C978.689 72.7946 979.038 73.0275 979.388 72.9886C979.466 72.9886 979.504 72.9886 979.582 72.9498C979.621 72.9498 979.621 72.9498 979.621 72.911C979.621 72.8722 979.738 72.911 979.776 72.911C979.932 72.8722 980.087 72.7946 980.204 72.7557C980.281 72.7169 980.359 72.6781 980.437 72.6781H980.476C980.903 72.5228 981.292 72.4064 981.777 72.3287H981.816C981.933 72.3287 982.049 72.3676 982.127 72.4452C982.166 72.4452 982.166 72.484 982.166 72.484L982.515 72.4452C983.098 74.2503 984.205 75.8612 985.74 77.0258C986.09 77.2975 986.4 77.5304 986.808 77.7245L986.614 77.9962C986.614 78.0351 986.653 78.0351 986.653 78.0351C986.731 78.1515 986.731 78.3068 986.692 78.4233C986.536 78.8114 986.303 79.1996 986.07 79.5684V79.6072C986.031 79.6849 985.993 79.7237 985.915 79.8013C985.837 79.879 985.759 80.0342 985.643 80.1895C985.604 80.2283 985.604 80.2671 985.565 80.306C985.565 80.306 985.565 80.3448 985.526 80.3448C985.332 80.733 985.487 81.1988 985.837 81.4123C985.915 81.4511 986.031 81.4899 986.109 81.4899C986.42 81.4899 986.692 81.2958 986.847 81.0241C986.847 81.0241 986.847 80.9853 986.886 80.9853C986.886 80.9465 986.925 80.9076 986.964 80.8688C987.003 80.7135 987.08 80.5971 987.119 80.4418L987.197 80.2089C987.313 79.7819 987.508 79.3937 987.702 78.9861C987.78 78.8697 987.896 78.792 988.013 78.7532C988.052 78.7532 988.052 78.7532 988.052 78.7144L988.207 78.4038C989.314 78.8308 990.441 79.0249 991.626 79.0249C992.325 79.0249 993.044 78.9473 993.743 78.7532C994.171 78.6756 994.598 78.5203 995.006 78.4038L995.161 78.6756C995.2 78.6756 995.2 78.6756 995.2 78.7144C995.317 78.7532 995.433 78.8308 995.511 78.9473C995.705 79.3355 995.899 79.7237 996.016 80.1701V80.2089L996.094 80.4418C996.133 80.5971 996.171 80.7524 996.249 80.8688C996.288 80.9076 996.288 80.9465 996.327 80.9853C996.327 80.9853 996.327 81.0241 996.366 81.0241C996.521 81.2958 996.793 81.4899 997.104 81.4899C997.22 81.4899 997.298 81.4511 997.415 81.4123C997.57 81.3346 997.725 81.1794 997.764 80.9853C997.803 80.7912 997.803 80.5971 997.725 80.403C997.725 80.3642 997.687 80.3642 997.687 80.3642C997.687 80.3254 997.648 80.2865 997.609 80.2477C997.531 80.0925 997.453 79.976 997.337 79.8595C997.298 79.7819 997.259 79.7431 997.182 79.6654V79.5878C996.91 79.2384 996.715 78.8503 996.56 78.4427C996.521 78.3262 996.521 78.1709 996.599 78.0545C996.599 78.0157 996.638 78.0157 996.638 78.0157L996.521 77.7051C998.522 76.4823 1000.06 74.5996 1000.76 72.3676L1001.07 72.4064C1001.11 72.4064 1001.11 72.3676 1001.11 72.3676C1001.18 72.2899 1001.3 72.2511 1001.42 72.2511H1001.46C1001.88 72.3287 1002.31 72.4452 1002.72 72.6005H1002.76C1002.83 72.6393 1002.91 72.6781 1002.99 72.6781C1003.15 72.7557 1003.26 72.8334 1003.42 72.8722C1003.46 72.8722 1003.49 72.911 1003.57 72.911C1003.61 72.911 1003.61 72.911 1003.65 72.9498C1003.73 72.9886 1003.77 72.9886 1003.84 72.9886C1004.19 72.9886 1004.5 72.7557 1004.62 72.4452C1004.6 72.057 1004.29 71.7465 1003.94 71.6688ZM992.597 70.446L991.529 70.9507L990.46 70.446L990.208 69.3203L990.946 68.3886H992.131L992.869 69.3203L992.597 70.446ZM998.988 67.9034C999.182 68.7186 999.221 69.5532 999.143 70.3684L995.414 69.3009C995.064 69.2232 994.87 68.8739 994.948 68.5245C994.986 68.4081 995.025 68.3304 995.103 68.2528L998.056 65.5937C998.483 66.2924 998.794 67.0882 998.988 67.9034ZM996.871 64.138L993.666 66.4089C993.394 66.5642 993.005 66.5254 992.811 66.2536C992.733 66.176 992.694 66.0983 992.694 65.9819L992.461 62.0224C994.171 62.2165 995.705 62.9735 996.871 64.138ZM989.78 62.1389L990.557 61.9836L990.363 65.9043C990.363 66.2536 990.052 66.5254 989.703 66.5254C989.586 66.5254 989.509 66.4865 989.392 66.4477L986.128 64.138C987.139 63.1675 988.401 62.4494 989.78 62.1389ZM984.982 65.5937L987.877 68.1751C988.149 68.4081 988.188 68.7962 987.954 69.068C987.877 69.1844 987.799 69.2232 987.644 69.2621L983.836 70.3684C983.739 68.738 984.128 67.0494 984.982 65.5937ZM984.322 72.2123L988.207 71.5524C988.518 71.5524 988.829 71.7465 988.867 72.057C988.906 72.1735 988.906 72.3287 988.829 72.4452L987.352 76.0553C985.973 75.1625 984.866 73.7844 984.322 72.2123ZM993.238 77.084C992.694 77.2005 992.131 77.2781 991.548 77.2781C990.732 77.2781 989.858 77.1228 989.081 76.8899L991.004 73.3962C991.199 73.1633 991.509 73.0857 991.781 73.241C991.898 73.3186 991.976 73.3962 992.092 73.5127L993.976 76.9287C993.743 76.9676 993.51 77.0064 993.238 77.084ZM998.017 73.668C997.434 74.5996 996.599 75.4342 995.666 76.0165L994.132 72.3287C994.054 72.0182 994.209 71.7076 994.481 71.5912C994.598 71.5524 994.714 71.5135 994.831 71.5135L998.755 72.1735C998.561 72.7363 998.328 73.241 998.017 73.668Z" fill="white"/>
<path d="M1129.36 74.0792C1129.76 74.1083 1130.21 74.0502 1130.59 73.9049C1130.82 73.7887 1130.96 73.5273 1130.94 73.2658C1130.91 72.9753 1130.73 72.7139 1130.47 72.6267C1130.04 72.3653 1129.53 72.1329 1129.04 71.9876C1128.55 71.8133 1128.1 71.61 1127.7 71.4066C1127.32 71.2323 1127 70.9999 1126.67 70.7094C1126.38 70.4189 1126.18 70.0994 1126.03 69.7072C1125.86 69.2714 1125.8 68.7921 1125.8 68.3273C1125.77 67.3541 1126.21 66.4245 1126.97 65.829C1127.77 65.219 1128.81 64.9139 1130.15 64.9139C1130.79 64.9139 1131.47 64.972 1132.11 65.1173C1132.6 65.2044 1133.1 65.3206 1133.6 65.4949L1133.05 67.9932C1132.64 67.848 1132.25 67.7608 1131.85 67.6446C1131.38 67.5284 1130.88 67.4994 1130.41 67.4994C1129.42 67.4994 1128.93 67.7608 1128.93 68.3273C1128.93 68.4435 1128.95 68.5597 1128.98 68.6759C1129.04 68.7921 1129.13 68.8793 1129.24 68.9664C1129.36 69.0536 1129.53 69.1407 1129.74 69.2569C1129.94 69.3731 1130.23 69.4893 1130.59 69.6055C1131.17 69.8089 1131.76 70.0703 1132.28 70.3753C1132.69 70.5787 1133.05 70.8401 1133.34 71.2033C1133.6 71.4647 1133.77 71.7843 1133.89 72.1764C1134 72.5831 1134.06 73.0044 1134.06 73.4111C1134.12 74.4133 1133.65 75.3719 1132.8 75.9384C1131.98 76.4904 1130.82 76.7954 1129.3 76.7954C1128.45 76.8244 1127.64 76.7373 1126.81 76.5339C1126.35 76.4177 1125.9 76.2725 1125.47 76.1272L1125.99 73.5418C1126.51 73.7451 1127.07 73.9194 1127.62 74.0356C1128.22 74.0066 1128.78 74.0792 1129.36 74.0792ZM1113.27 70.8401C1113.24 69.9541 1113.41 69.0826 1113.7 68.2547C1113.96 67.5575 1114.36 66.9329 1114.9 66.381C1115.39 65.8871 1115.95 65.4949 1116.59 65.2625C1117.23 65.0011 1117.91 64.8849 1118.57 64.8849C1120.15 64.8849 1121.41 65.3787 1122.32 66.3519C1123.23 67.3251 1123.69 68.7631 1123.69 70.6368C1123.69 70.8111 1123.69 71.0144 1123.66 71.2468C1123.66 71.4792 1123.63 71.6535 1123.63 71.8278H1116.5C1116.56 72.4379 1116.88 73.0334 1117.42 73.382C1118.05 73.7887 1118.82 73.9921 1119.57 73.963C1120.12 73.963 1120.71 73.9049 1121.26 73.8178C1121.72 73.7306 1122.2 73.5854 1122.64 73.382L1123.07 75.9675C1122.87 76.0837 1122.64 76.1418 1122.4 76.2289C1122.09 76.3161 1121.77 76.4032 1121.44 76.4323C1121.09 76.4904 1120.74 76.5485 1120.32 76.6066C1119.95 76.6356 1119.53 76.6647 1119.12 76.6647C1118.21 76.6937 1117.34 76.5485 1116.49 76.2289C1115.8 75.9675 1115.17 75.5608 1114.65 75.0233C1114.16 74.5004 1113.8 73.8468 1113.57 73.1787C1113.38 72.3943 1113.27 71.61 1113.27 70.8401ZM1120.65 69.6346C1120.65 69.3731 1120.6 69.1117 1120.51 68.8357C1120.45 68.5742 1120.31 68.3709 1120.16 68.1675C1119.99 67.9642 1119.79 67.7899 1119.56 67.6737C1119.27 67.5284 1118.98 67.4703 1118.64 67.4703C1118.33 67.4703 1118.04 67.5284 1117.73 67.6737C1117.5 67.7899 1117.27 67.9351 1117.1 68.1385C1116.92 68.3418 1116.78 68.5742 1116.69 68.8357C1116.61 69.0971 1116.55 69.3586 1116.52 69.6346H1120.65ZM1104.7 62.3721L1107.86 61.8782V65.1609H1111.66V67.7899H1107.86V71.7262C1107.83 72.2781 1107.94 72.8446 1108.2 73.3094C1108.44 73.687 1108.9 73.8904 1109.64 73.8904C1109.98 73.8904 1110.33 73.8613 1110.66 73.8032C1111.01 73.7451 1111.33 73.658 1111.66 73.5418L1112.09 76.011C1111.69 76.1853 1111.24 76.3015 1110.81 76.4177C1110.26 76.5339 1109.66 76.592 1109.09 76.592C1108.35 76.6211 1107.63 76.5049 1106.96 76.2434C1106.44 76.0401 1105.96 75.6915 1105.62 75.2703C1105.27 74.8345 1105.04 74.2971 1104.88 73.7451C1104.73 73.106 1104.68 72.4234 1104.7 71.7843V62.3721ZM1091.94 70.8401C1091.91 69.9541 1092.08 69.0826 1092.37 68.2547C1092.63 67.5575 1093.04 66.9329 1093.57 66.381C1094.06 65.8871 1094.63 65.4949 1095.26 65.2625C1095.9 65.0011 1096.58 64.8849 1097.24 64.8849C1098.82 64.8849 1100.08 65.3787 1100.99 66.3519C1101.9 67.3251 1102.36 68.7631 1102.36 70.6368C1102.36 70.8111 1102.36 71.0144 1102.33 71.2468C1102.3 71.4792 1102.3 71.6535 1102.3 71.8278H1095.15C1095.2 72.4379 1095.52 73.0334 1096.06 73.382C1096.69 73.7887 1097.46 73.9921 1098.21 73.963C1098.76 73.963 1099.35 73.9049 1099.9 73.8178C1100.37 73.7306 1100.84 73.5854 1101.31 73.382L1101.74 75.9675C1101.54 76.0837 1101.31 76.1418 1101.08 76.2289C1100.76 76.3161 1100.44 76.4032 1100.11 76.4323C1099.76 76.4904 1099.41 76.5485 1098.99 76.6066C1098.62 76.6356 1098.2 76.6647 1097.79 76.6647C1096.88 76.6937 1096.01 76.5485 1095.16 76.2289C1094.47 75.9675 1093.84 75.5608 1093.32 75.0233C1092.83 74.5004 1092.47 73.8468 1092.24 73.1787C1092.02 72.3943 1091.91 71.61 1091.94 70.8401ZM1099.33 69.6346C1099.33 69.3731 1099.27 69.1117 1099.18 68.8357C1099.12 68.5742 1098.98 68.3709 1098.83 68.1675C1098.66 67.9642 1098.46 67.7899 1098.23 67.6737C1097.94 67.5284 1097.65 67.4703 1097.32 67.4703C1096.98 67.4703 1096.71 67.5284 1096.4 67.6737C1096.17 67.7899 1095.97 67.9351 1095.8 68.1385C1095.62 68.3418 1095.48 68.5742 1095.39 68.8357C1095.31 69.0971 1095.25 69.3586 1095.22 69.6346H1099.33ZM1079.96 65.5385C1080.63 65.3642 1081.34 65.219 1082.03 65.1028C1082.91 64.9575 1083.81 64.8994 1084.69 64.8994C1085.49 64.8704 1086.27 65.0156 1087.03 65.2771C1087.61 65.4804 1088.15 65.829 1088.52 66.3083C1088.9 66.7731 1089.16 67.3396 1089.32 67.9206C1089.49 68.5888 1089.55 69.3005 1089.55 69.9977V76.3015H1086.43V70.4044C1086.43 69.3731 1086.28 68.6759 1086.02 68.2402C1085.76 67.8335 1085.26 67.6011 1084.53 67.6011C1084.3 67.6011 1084.07 67.6011 1083.79 67.6301C1083.53 67.6301 1083.33 67.6592 1083.13 67.6882V76.3161H1079.98L1079.96 65.5385ZM1077.75 67.9642C1077.46 67.9061 1077.14 67.8189 1076.75 67.7608C1076.35 67.6737 1075.93 67.6446 1075.52 67.6446C1075.29 67.6446 1075.06 67.6737 1074.79 67.7027C1074.58 67.7318 1074.38 67.7608 1074.18 67.8189V76.3596H1071.03V65.7419C1071.66 65.5095 1072.34 65.3352 1073.01 65.1899C1073.86 64.9866 1074.73 64.8994 1075.58 64.9285C1075.78 64.9285 1075.99 64.9575 1076.19 64.9575C1076.42 64.9575 1076.65 64.9866 1076.93 65.0447C1077.16 65.0737 1077.39 65.1028 1077.66 65.1609C1077.87 65.1899 1078.07 65.248 1078.27 65.3352L1077.75 67.9642ZM1058.14 70.8401C1058.11 69.9541 1058.29 69.0826 1058.58 68.2547C1058.84 67.5575 1059.24 66.9329 1059.78 66.381C1060.27 65.8871 1060.83 65.4949 1061.47 65.2625C1062.1 65.0011 1062.78 64.8849 1063.45 64.8849C1065.03 64.8849 1066.28 65.3787 1067.19 66.3519C1068.11 67.3251 1068.57 68.7631 1068.57 70.6077C1068.57 70.782 1068.57 70.9854 1068.54 71.2178C1068.51 71.4502 1068.51 71.6245 1068.51 71.7988H1061.35C1061.41 72.4088 1061.73 73.0044 1062.26 73.353C1062.9 73.7597 1063.67 73.963 1064.42 73.934C1064.97 73.934 1065.56 73.8759 1066.11 73.7887C1066.57 73.7016 1067.05 73.5563 1067.48 73.382L1067.92 75.9675C1067.72 76.0837 1067.48 76.1418 1067.25 76.2289C1066.93 76.3161 1066.62 76.4032 1066.28 76.4323C1065.94 76.4904 1065.59 76.5485 1065.17 76.6066C1064.79 76.6356 1064.37 76.6647 1063.97 76.6647C1063.06 76.6937 1062.19 76.5485 1061.34 76.2289C1060.64 75.9675 1060.02 75.5608 1059.5 75.0233C1059.01 74.5004 1058.65 73.8468 1058.42 73.1787C1058.26 72.3943 1058.14 71.639 1058.14 70.8401ZM1065.56 69.6346C1065.56 69.3731 1065.5 69.1117 1065.42 68.8357C1065.36 68.5742 1065.21 68.3709 1065.07 68.1675C1064.9 67.9642 1064.69 67.7899 1064.46 67.6737C1064.17 67.5284 1063.88 67.4703 1063.55 67.4703C1063.22 67.4703 1062.94 67.5284 1062.64 67.6737C1062.41 67.7899 1062.18 67.9351 1062 68.1385C1061.83 68.3418 1061.69 68.5742 1061.6 68.8357C1061.51 69.0971 1061.45 69.3586 1061.42 69.6346H1065.56ZM1053.04 70.6658C1053.04 68.6178 1052.27 67.6156 1050.78 67.6156C1050.46 67.6156 1050.15 67.6446 1049.81 67.7318C1049.55 67.7899 1049.29 67.9061 1049.05 68.0513V73.8032C1049.19 73.8323 1049.39 73.8613 1049.63 73.8904C1049.86 73.9194 1050.12 73.9194 1050.42 73.9194C1051.19 73.9775 1051.91 73.658 1052.37 73.0334C1052.84 72.3362 1053.07 71.5228 1053.04 70.6658ZM1056.25 70.782C1056.25 71.61 1056.13 72.4234 1055.84 73.2222C1055.61 73.9194 1055.24 74.544 1054.73 75.0669C1054.21 75.5898 1053.59 76.011 1052.92 76.2725C1052.13 76.563 1051.32 76.6792 1050.46 76.6792C1050.09 76.6792 1049.67 76.6501 1049.26 76.6211C1048.86 76.592 1048.44 76.5339 1048.03 76.5049C1047.66 76.4468 1047.27 76.3887 1046.89 76.3015C1046.52 76.2434 1046.2 76.1563 1045.92 76.0401V60.3386L1049.08 59.8447V65.4223C1049.42 65.2771 1049.81 65.1609 1050.19 65.0737C1050.59 64.9866 1051.01 64.9575 1051.42 64.9575C1052.16 64.9575 1052.85 65.0737 1053.52 65.3933C1054.09 65.6547 1054.63 66.0614 1055.03 66.5698C1055.47 67.1217 1055.8 67.7463 1055.97 68.4145C1056.16 69.1407 1056.25 69.9686 1056.25 70.782ZM1042.93 75.9529C1042.27 76.1272 1041.56 76.2725 1040.86 76.3596C1039.98 76.5049 1039.08 76.563 1038.2 76.563C1037.38 76.592 1036.6 76.4468 1035.83 76.1853C1035.25 75.9529 1034.75 75.6043 1034.34 75.125C1033.96 74.6312 1033.7 74.0647 1033.55 73.4546C1033.37 72.7865 1033.31 72.0457 1033.31 71.3485V65.1463H1036.47V70.9854C1036.47 72.0167 1036.61 72.7429 1036.87 73.1932C1037.13 73.6289 1037.64 73.8613 1038.36 73.8613C1038.59 73.8613 1038.82 73.8613 1039.1 73.8323C1039.36 73.8032 1039.56 73.8032 1039.76 73.7451V65.1463H1042.93V75.9529ZM1024.52 69.1988C1024.84 68.8502 1025.13 68.5016 1025.49 68.1385C1025.81 67.7608 1026.13 67.3977 1026.46 67.0491C1026.78 66.6715 1027.07 66.3519 1027.34 66.0178C1027.6 65.6983 1027.86 65.4078 1028.08 65.1609H1031.8C1031.03 66.0178 1030.31 66.8603 1029.6 67.6592C1028.86 68.458 1028.11 69.2714 1027.26 70.0994C1027.72 70.5351 1028.17 70.9854 1028.57 71.4792C1029 72.0021 1029.45 72.5396 1029.89 73.1206C1030.29 73.6725 1030.71 74.268 1031.06 74.82C1031.41 75.3719 1031.69 75.9094 1031.94 76.3742H1028.33C1028.09 75.9965 1027.83 75.6043 1027.53 75.1686C1027.24 74.7328 1026.92 74.2826 1026.62 73.8178C1026.3 73.382 1025.95 72.9317 1025.56 72.525C1025.25 72.1474 1024.9 71.7843 1024.51 71.4938V76.3887H1021.36V60.3386L1024.51 59.8447L1024.52 69.1988Z" fill="black"/>
</svg>
