<?xml version="1.0" encoding="UTF-8" standalone="no"?><svg xmlns="http://www.w3.org/2000/svg" xmlns:xlink="http://www.w3.org/1999/xlink" contentScriptType="application/ecmascript" contentStyleType="text/css" height="526px" preserveAspectRatio="none" style="width:318px;height:526px;background:#FFFFFF;" version="1.1" viewBox="0 0 318 526" width="318px" zoomAndPan="magnify"><defs><filter height="300%" id="fxm9r7f9tgwsx" width="300%" x="-1" y="-1"><feGaussianBlur result="blurOut" stdDeviation="2.0"/><feColorMatrix in="blurOut" result="blurOut2" type="matrix" values="0 0 0 0 0 0 0 0 0 0 0 0 0 0 0 0 0 0 .4 0"/><feOffset dx="4.0" dy="4.0" in="blurOut2" result="blurOut3"/><feBlend in="SourceGraphic" in2="blurOut3" mode="normal"/></filter></defs><g><line style="stroke:#A80036;stroke-width:1.0;stroke-dasharray:5.0,5.0;" x1="28" x2="28" y1="88.2969" y2="441.7578"/><line style="stroke:#A80036;stroke-width:1.0;stroke-dasharray:5.0,5.0;" x1="153.5" x2="153.5" y1="88.2969" y2="441.7578"/><line style="stroke:#A80036;stroke-width:1.0;stroke-dasharray:5.0,5.0;" x1="268.5" x2="268.5" y1="88.2969" y2="441.7578"/><text fill="#000000" font-family="sans-serif" font-size="14" lengthAdjust="spacing" textLength="41" x="5" y="84.9951">client</text><ellipse cx="28.5" cy="15" fill="#FEFECE" filter="url(#fxm9r7f9tgwsx)" rx="8" ry="8" style="stroke:#A80036;stroke-width:2.0;"/><path d="M28.5,23 L28.5,50 M15.5,31 L41.5,31 M28.5,50 L15.5,65 M28.5,50 L41.5,65 " fill="none" filter="url(#fxm9r7f9tgwsx)" style="stroke:#A80036;stroke-width:2.0;"/><text fill="#000000" font-family="sans-serif" font-size="14" lengthAdjust="spacing" textLength="41" x="5" y="453.7529">client</text><ellipse cx="28.5" cy="467.0547" fill="#FEFECE" filter="url(#fxm9r7f9tgwsx)" rx="8" ry="8" style="stroke:#A80036;stroke-width:2.0;"/><path d="M28.5,475.0547 L28.5,502.0547 M15.5,483.0547 L41.5,483.0547 M28.5,502.0547 L15.5,517.0547 M28.5,502.0547 L41.5,517.0547 " fill="none" filter="url(#fxm9r7f9tgwsx)" style="stroke:#A80036;stroke-width:2.0;"/><rect fill="#FEFECE" filter="url(#fxm9r7f9tgwsx)" height="30.2969" style="stroke:#A80036;stroke-width:1.5;" width="78" x="112.5" y="53"/><text fill="#000000" font-family="sans-serif" font-size="14" lengthAdjust="spacing" textLength="64" x="119.5" y="72.9951">frontend</text><rect fill="#FEFECE" filter="url(#fxm9r7f9tgwsx)" height="30.2969" style="stroke:#A80036;stroke-width:1.5;" width="78" x="112.5" y="440.7578"/><text fill="#000000" font-family="sans-serif" font-size="14" lengthAdjust="spacing" textLength="64" x="119.5" y="460.7529">frontend</text><rect fill="#FEFECE" filter="url(#fxm9r7f9tgwsx)" height="30.2969" style="stroke:#A80036;stroke-width:1.5;" width="76" x="228.5" y="53"/><text fill="#000000" font-family="sans-serif" font-size="14" lengthAdjust="spacing" textLength="62" x="235.5" y="72.9951">backend</text><rect fill="#FEFECE" filter="url(#fxm9r7f9tgwsx)" height="30.2969" style="stroke:#A80036;stroke-width:1.5;" width="76" x="228.5" y="440.7578"/><text fill="#000000" font-family="sans-serif" font-size="14" lengthAdjust="spacing" textLength="62" x="235.5" y="460.7529">backend</text><polygon fill="#A80036" points="141.5,115.4297,151.5,119.4297,141.5,123.4297,145.5,119.4297" style="stroke:#A80036;stroke-width:1.0;"/><line style="stroke:#A80036;stroke-width:1.0;" x1="28.5" x2="147.5" y1="119.4297" y2="119.4297"/><text fill="#000000" font-family="sans-serif" font-size="13" lengthAdjust="spacing" textLength="72" x="35.5" y="114.3638">/index.html</text><polygon fill="#A80036" points="256.5,144.5625,266.5,148.5625,256.5,152.5625,260.5,148.5625" style="stroke:#A80036;stroke-width:1.0;"/><line style="stroke:#A80036;stroke-width:1.0;" x1="153.5" x2="262.5" y1="148.5625" y2="148.5625"/><text fill="#000000" font-family="sans-serif" font-size="13" lengthAdjust="spacing" textLength="72" x="160.5" y="143.4966">/index.html</text><polygon fill="#A80036" points="39.5,156.5625,29.5,160.5625,39.5,164.5625,35.5,160.5625" style="stroke:#A80036;stroke-width:1.0;"/><line style="stroke:#A80036;stroke-width:1.0;" x1="33.5" x2="267.5" y1="160.5625" y2="160.5625"/><text fill="#000000" font-family="sans-serif" font-size="13" lengthAdjust="spacing" textLength="72" x="45.5" y="173.6294">/index.html</text><polygon fill="#A80036" points="141.5,202.8281,151.5,206.8281,141.5,210.8281,145.5,206.8281" style="stroke:#A80036;stroke-width:1.0;"/><line style="stroke:#A80036;stroke-width:1.0;" x1="28.5" x2="147.5" y1="206.8281" y2="206.8281"/><text fill="#000000" font-family="sans-serif" font-size="13" lengthAdjust="spacing" textLength="62" x="35.5" y="201.7622">&lt;assets&gt;</text><polygon fill="#A80036" points="39.5,214.8281,29.5,218.8281,39.5,222.8281,35.5,218.8281" style="stroke:#A80036;stroke-width:1.0;"/><line style="stroke:#A80036;stroke-width:1.0;" x1="33.5" x2="152.5" y1="218.8281" y2="218.8281"/><text fill="#000000" font-family="sans-serif" font-size="13" lengthAdjust="spacing" textLength="62" x="45.5" y="231.895">&lt;assets&gt;</text><polygon fill="#A80036" points="141.5,261.0938,151.5,265.0938,141.5,269.0938,145.5,265.0938" style="stroke:#A80036;stroke-width:1.0;"/><line style="stroke:#A80036;stroke-width:1.0;" x1="28.5" x2="147.5" y1="265.0938" y2="265.0938"/><text fill="#000000" font-family="sans-serif" font-size="13" lengthAdjust="spacing" textLength="101" x="35.5" y="260.0278">/config/env.json</text><line style="stroke:#A80036;stroke-width:1.0;" x1="153.5" x2="195.5" y1="294.2266" y2="294.2266"/><line style="stroke:#A80036;stroke-width:1.0;" x1="195.5" x2="195.5" y1="294.2266" y2="307.2266"/><line style="stroke:#A80036;stroke-width:1.0;" x1="154.5" x2="195.5" y1="307.2266" y2="307.2266"/><polygon fill="#A80036" points="164.5,303.2266,154.5,307.2266,164.5,311.2266,160.5,307.2266" style="stroke:#A80036;stroke-width:1.0;"/><text fill="#000000" font-family="sans-serif" font-size="13" lengthAdjust="spacing" textLength="101" x="160.5" y="289.1606">/config/env.json</text><polygon fill="#A80036" points="39.5,315.2266,29.5,319.2266,39.5,323.2266,35.5,319.2266" style="stroke:#A80036;stroke-width:1.0;"/><line style="stroke:#A80036;stroke-width:1.0;" x1="33.5" x2="152.5" y1="319.2266" y2="319.2266"/><text fill="#000000" font-family="sans-serif" font-size="13" lengthAdjust="spacing" textLength="101" x="45.5" y="332.2935">/config/env.json</text><polygon fill="#A80036" points="141.5,361.4922,151.5,365.4922,141.5,369.4922,145.5,365.4922" style="stroke:#A80036;stroke-width:1.0;"/><line style="stroke:#A80036;stroke-width:1.0;" x1="28.5" x2="147.5" y1="365.4922" y2="365.4922"/><text fill="#000000" font-family="sans-serif" font-size="13" lengthAdjust="spacing" textLength="64" x="35.5" y="360.4263">/api/labels</text><polygon fill="#A80036" points="256.5,390.625,266.5,394.625,256.5,398.625,260.5,394.625" style="stroke:#A80036;stroke-width:1.0;"/><line style="stroke:#A80036;stroke-width:1.0;" x1="153.5" x2="262.5" y1="394.625" y2="394.625"/><text fill="#000000" font-family="sans-serif" font-size="13" lengthAdjust="spacing" textLength="64" x="160.5" y="389.5591">/api/labels</text><polygon fill="#A80036" points="39.5,402.625,29.5,406.625,39.5,410.625,35.5,406.625" style="stroke:#A80036;stroke-width:1.0;"/><line style="stroke:#A80036;stroke-width:1.0;" x1="33.5" x2="267.5" y1="406.625" y2="406.625"/><text fill="#000000" font-family="sans-serif" font-size="13" lengthAdjust="spacing" textLength="64" x="45.5" y="419.6919">/api/labels</text><!--MD5=[84b08f6120b89cfb00f41d5bf902cfc8]
@startuml
actor client
skinparam responseMessageBelowArrow true

client   -> frontend: /index.html
frontend -> backend: /index.html
backend  -> client: /index.html
client   -> frontend: <assets>
client   <- frontend: <assets>
client   -> frontend: /config/env.json
frontend -> frontend: /config/env.json
frontend -> client: /config/env.json
client   -> frontend: /api/labels
frontend -> backend: /api/labels
backend  -> client: /api/labels
@enduml

PlantUML version 1.2021.7(Sun May 23 12:40:07 UTC 2021)
(GPL source distribution)
Java Runtime: Java(TM) SE Runtime Environment
JVM: Java HotSpot(TM) 64-Bit Server VM
Default Encoding: UTF-8
Language: en
Country: US
--></g></svg>