<?xml version="1.0" encoding="UTF-8" standalone="no"?><svg xmlns="http://www.w3.org/2000/svg" xmlns:xlink="http://www.w3.org/1999/xlink" contentScriptType="application/ecmascript" contentStyleType="text/css" height="293px" preserveAspectRatio="none" style="width:446px;height:293px;background:#FFFFFF;" version="1.1" viewBox="0 0 446 293" width="446px" zoomAndPan="magnify"><defs><filter height="300%" id="f146aus86amd2b" width="300%" x="-1" y="-1"><feGaussianBlur result="blurOut" stdDeviation="2.0"/><feColorMatrix in="blurOut" result="blurOut2" type="matrix" values="0 0 0 0 0 0 0 0 0 0 0 0 0 0 0 0 0 0 .4 0"/><feOffset dx="4.0" dy="4.0" in="blurOut2" result="blurOut3"/><feBlend in="SourceGraphic" in2="blurOut3" mode="normal"/></filter></defs><g><!--MD5=[c8ffe1ebc5ac90f537fe46e912343a18]
cluster Deployment--><polygon fill="#FFFFFF" filter="url(#f146aus86amd2b)" points="108.1251,6,210.1251,6,217.1251,28.2969,429.1251,28.2969,429.1251,175,108.1251,175,108.1251,6" style="stroke:#000000;stroke-width:1.5;"/><line style="stroke:#000000;stroke-width:1.5;" x1="108.1251" x2="217.1251" y1="28.2969" y2="28.2969"/><text fill="#000000" font-family="sans-serif" font-size="14" font-weight="bold" lengthAdjust="spacing" textLength="96" x="112.1251" y="20.9951">Deployment</text><!--MD5=[8c58abf96511aeb6a9380ef39749e44f]
cluster Pod--><polygon fill="#FFFFFF" filter="url(#f146aus86amd2b)" points="132.1251,59,142.1251,49,405.1251,49,405.1251,141,395.1251,151,132.1251,151,132.1251,59" style="stroke:#000000;stroke-width:1.5;"/><line style="stroke:#000000;stroke-width:1.5;" x1="395.1251" x2="405.1251" y1="59" y2="49"/><line style="stroke:#000000;stroke-width:1.5;" x1="132.1251" x2="395.1251" y1="59" y2="59"/><line style="stroke:#000000;stroke-width:1.5;" x1="395.1251" x2="395.1251" y1="59" y2="151"/><text fill="#000000" font-family="sans-serif" font-size="14" font-weight="bold" lengthAdjust="spacing" textLength="30" x="249.6251" y="74.9951">Pod</text><!--MD5=[182176afbd1dcbab1bb45a579223bebe]
cluster Configmap--><polygon fill="#FFFFFF" filter="url(#f146aus86amd2b)" points="144.1251,199,237.1251,199,244.1251,221.2969,256.1251,221.2969,256.1251,286,144.1251,286,144.1251,199" style="stroke:#000000;stroke-width:1.5;"/><line style="stroke:#000000;stroke-width:1.5;" x1="144.1251" x2="244.1251" y1="221.2969" y2="221.2969"/><text fill="#000000" font-family="sans-serif" font-size="14" font-weight="bold" lengthAdjust="spacing" textLength="87" x="148.1251" y="213.9951">Configmap</text><!--MD5=[b1e3d2dcb3697de9e6328d1cb436cbc4]
entity frontend--><rect fill="#FEFECE" filter="url(#f146aus86amd2b)" height="46.2969" style="stroke:#A80036;stroke-width:1.5;" width="104" x="148.1251" y="89"/><rect fill="#FEFECE" height="10" style="stroke:#A80036;stroke-width:1.5;" width="15" x="232.1251" y="94"/><rect fill="#FEFECE" height="2" style="stroke:#A80036;stroke-width:1.5;" width="4" x="230.1251" y="96"/><rect fill="#FEFECE" height="2" style="stroke:#A80036;stroke-width:1.5;" width="4" x="230.1251" y="100"/><text fill="#000000" font-family="sans-serif" font-size="14" lengthAdjust="spacing" textLength="64" x="163.1251" y="121.9951">frontend</text><!--MD5=[4e8ecd94af36cce41665c9f079adf9fd]
entity backend--><rect fill="#FEFECE" filter="url(#f146aus86amd2b)" height="46.2969" style="stroke:#A80036;stroke-width:1.5;" width="102" x="287.1251" y="89"/><rect fill="#FEFECE" height="10" style="stroke:#A80036;stroke-width:1.5;" width="15" x="369.1251" y="94"/><rect fill="#FEFECE" height="2" style="stroke:#A80036;stroke-width:1.5;" width="4" x="367.1251" y="96"/><rect fill="#FEFECE" height="2" style="stroke:#A80036;stroke-width:1.5;" width="4" x="367.1251" y="100"/><text fill="#000000" font-family="sans-serif" font-size="14" lengthAdjust="spacing" textLength="62" x="302.1251" y="121.9951">backend</text><!--MD5=[0e8360d14080a800d2620add0a2d13f0]
entity env.json--><polygon fill="#FEFECE" filter="url(#f146aus86amd2b)" points="160.1251,234,160.1251,270.2969,240.1251,270.2969,240.1251,244,230.1251,234,160.1251,234" style="stroke:#000000;stroke-width:1.5;"/><path d="M230.1251,234 L230.1251,244 L240.1251,244 " fill="#FEFECE" style="stroke:#000000;stroke-width:1.5;"/><text fill="#000000" font-family="sans-serif" font-size="14" lengthAdjust="spacing" textLength="60" x="170.1251" y="256.9951">env.json</text><!--MD5=[76135f9afc5f2b97af6996623fc8da30]
entity Ingress--><path d="M18.9049,97.262 C22.2303,87.8765 30.3967,87.6993 35.5552,95.4844 C40.6165,87.9444 46.5068,85.765 52.8224,94.1218 C58.1658,87.7384 64.3599,89.3584 67.9143,96.1682 C73.9688,89.8728 80.1444,89.9753 84.7863,97.8502 C93.4251,101.4803 93.2265,106.714 87.1746,112.7059 C92.7928,118.1843 92.2189,126.0252 83.629,128.2661 C79.2434,136.9356 73.5231,137.5543 67.9167,129.4068 C64.524,137.6631 58.9018,140.5365 51.8779,133.1238 C45.3459,139.1026 39.4362,138.3082 36.4304,129.4521 C30.4644,138.4006 24.1456,136.0738 19.3985,128.2168 C11.1151,127.2205 7.7665,122.1186 11.2446,114.254 C6,106.0218 9.3699,98.8312 18.9049,97.262 " fill="#FEFECE" filter="url(#f146aus86amd2b)" style="stroke:#000000;stroke-width:1.5;"/><text fill="#000000" font-family="sans-serif" font-size="14" lengthAdjust="spacing" textLength="51" x="25.6251" y="116.9951">Ingress</text><!--MD5=[65ee48e45ab3f88cdc51cc93c03cbd1a]
link Ingress to frontend--><path d="M91.8673,112 C110.6151,112 129.3631,112 148.1111,112 " fill="none" id="Ingress-frontend" style="stroke:#A80036;stroke-width:1.0;"/><!--MD5=[bd606b2753a479dfaff996c7926d0075]
link frontend to backend--><path d="M252.1451,112 C263.7881,112 275.4311,112 287.0741,112 " fill="none" id="frontend-backend" style="stroke:#A80036;stroke-width:1.0;"/><!--MD5=[fa82b855ad5b0aa2afd1f5b5577e4870]
link frontend to env.json--><path d="M200.1251,135.172 C200.1251,162.601 200.1251,208.7213 200.1251,233.6881 " fill="none" id="frontend-env.json" style="stroke:#A80036;stroke-width:1.0;"/><!--MD5=[7b17f2fa0a14e0b65f7f9d48d1fbb58d]
@startuml
package "Deployment" {
    node "Pod" {
        [frontend]
        [backend]
    }
}

package "Configmap" {
  file env.json
}

cloud "Ingress"

Ingress - [frontend]
[frontend] - [backend]
[frontend] - - [env.json]
@enduml

PlantUML version 1.2021.7(Sun May 23 12:40:07 UTC 2021)
(GPL source distribution)
Java Runtime: Java(TM) SE Runtime Environment
JVM: Java HotSpot(TM) 64-Bit Server VM
Default Encoding: UTF-8
Language: en
Country: US
--></g></svg>