<svg width="118" height="85" viewBox="0 0 118 85" fill="none" xmlns="http://www.w3.org/2000/svg">
<circle cx="5" cy="79.4004" r="5" transform="rotate(-90 5 79.4004)" fill="#CFE2FF"/>
<circle cx="5" cy="42.561" r="5" transform="rotate(-90 5 42.561)" fill="#CFE2FF"/>
<circle cx="5" cy="5.72168" r="5" transform="rotate(-90 5 5.72168)" fill="#CFE2FF"/>
<circle cx="41.0146" cy="79.4004" r="5" transform="rotate(-90 41.0146 79.4004)" fill="#CFE2FF"/>
<circle cx="41.0144" cy="42.561" r="5" transform="rotate(-90 41.0144 42.561)" fill="#CFE2FF"/>
<circle cx="41.0144" cy="5.72168" r="5" transform="rotate(-90 41.0144 5.72168)" fill="#CFE2FF"/>
<circle cx="77.0002" cy="79.4004" r="5" transform="rotate(-90 77.0002 79.4004)" fill="#CFE2FF"/>
<circle cx="77" cy="42.561" r="5" transform="rotate(-90 77 42.561)" fill="#CFE2FF"/>
<circle cx="77" cy="5.72168" r="5" transform="rotate(-90 77 5.72168)" fill="#CFE2FF"/>
<circle cx="113" cy="79.4004" r="5" transform="rotate(-90 113 79.4004)" fill="#CFE2FF"/>
<circle cx="113" cy="42.561" r="5" transform="rotate(-90 113 42.561)" fill="#CFE2FF"/>
<circle cx="113" cy="5.72168" r="5" transform="rotate(-90 113 5.72168)" fill="#CFE2FF"/>
</svg>
