<svg width="1920" height="764" viewBox="0 0 1920 764" fill="none" xmlns="http://www.w3.org/2000/svg">
<rect width="1920" height="764" fill="#0066FF"/>
<path d="M1427.25 435.682C1428.32 436.396 1428.32 437.11 1427.25 437.823C1426.18 438.537 1424.75 438.537 1423.67 437.823C1422.96 437.11 1422.96 436.039 1424.03 435.682C1424.75 434.968 1426.53 434.968 1427.25 435.682Z" fill="#16110D"/>
<path d="M1436.54 430.327C1437.25 431.041 1437.25 431.755 1436.54 432.469C1435.47 433.183 1434.04 433.183 1432.96 432.469C1431.89 431.755 1431.89 431.041 1432.96 430.327C1434.04 429.97 1435.47 429.97 1436.54 430.327Z" fill="#16110D"/>
<path d="M1445.47 425.331C1446.55 426.045 1446.55 426.759 1445.47 427.473C1444.4 428.187 1442.97 428.187 1441.9 427.473C1440.83 426.759 1440.83 426.045 1441.9 425.331C1442.97 424.617 1444.4 424.617 1445.47 425.331Z" fill="#16110D"/>
<path d="M1454.41 419.977C1455.48 420.691 1455.48 421.404 1454.41 422.118C1453.34 422.832 1451.91 422.832 1450.83 422.118C1449.76 421.404 1449.76 420.691 1450.83 419.977C1451.91 419.62 1453.69 419.62 1454.41 419.977C1455.48 420.691 1453.69 419.62 1454.41 419.977Z" fill="#16110D"/>
<path d="M1416.53 432.826C1417.91 432.826 1419.03 432.187 1419.03 431.398C1419.03 430.61 1417.91 429.971 1416.53 429.971C1415.14 429.971 1414.02 430.61 1414.02 431.398C1414.02 432.187 1415.14 432.826 1416.53 432.826Z" fill="#16110D"/>
<path d="M1427.25 425.331C1428.32 426.045 1428.32 426.759 1427.25 427.473C1426.18 428.187 1424.75 428.187 1423.67 427.473C1422.96 426.759 1422.96 425.688 1424.03 425.331C1424.75 424.617 1426.53 424.617 1427.25 425.331Z" fill="#16110D"/>
<path d="M1434.75 422.475C1436.13 422.475 1437.25 421.836 1437.25 421.048C1437.25 420.259 1436.13 419.62 1434.75 419.62C1433.37 419.62 1432.25 420.259 1432.25 421.048C1432.25 421.836 1433.37 422.475 1434.75 422.475Z" fill="#16110D"/>
<path d="M1443.69 417.121C1445.07 417.121 1446.19 416.482 1446.19 415.693C1446.19 414.905 1445.07 414.266 1443.69 414.266C1442.3 414.266 1441.18 414.905 1441.18 415.693C1441.18 416.482 1442.3 417.121 1443.69 417.121Z" fill="#16110D"/>
<path d="M1409.38 425.331C1410.45 426.045 1410.45 426.759 1409.38 427.473C1408.31 428.187 1406.88 428.187 1405.8 427.473C1404.73 426.759 1404.73 426.045 1405.8 425.331C1406.88 424.617 1408.31 424.617 1409.38 425.331Z" fill="#16110D"/>
<path d="M1418.31 419.977C1419.38 420.691 1419.38 421.404 1418.31 422.118C1417.24 422.832 1415.81 422.832 1414.74 422.118C1413.67 421.404 1413.67 420.691 1414.74 419.977C1415.81 419.62 1417.24 419.62 1418.31 419.977Z" fill="#16110D"/>
<path d="M1427.25 414.622C1428.32 415.336 1428.32 416.05 1427.25 416.764C1426.18 417.478 1424.75 417.478 1423.67 416.764C1422.96 416.407 1422.96 415.336 1424.03 414.622C1424.75 414.265 1426.53 414.265 1427.25 414.622Z" fill="#16110D"/>
<path d="M1436.54 411.411C1435.47 412.125 1434.04 412.125 1432.96 411.411C1431.89 410.697 1431.89 409.983 1432.96 409.269C1434.04 408.913 1437.25 411.054 1436.54 411.411Z" fill="#16110D"/>
<path d="M1409.38 414.622C1410.45 415.336 1410.45 416.05 1409.38 416.764C1408.31 417.478 1406.88 417.478 1405.8 416.764C1404.73 416.05 1404.73 415.336 1405.8 414.622C1406.88 414.265 1408.31 414.265 1409.38 414.622Z" fill="#16110D"/>
<path d="M1416.53 412.124C1417.91 412.124 1419.03 411.485 1419.03 410.696C1419.03 409.908 1417.91 409.269 1416.53 409.269C1415.14 409.269 1414.02 409.908 1414.02 410.696C1414.02 411.485 1415.14 412.124 1416.53 412.124Z" fill="#16110D"/>
<path d="M1427.25 406.414C1426.17 407.128 1424.75 407.128 1423.67 406.414C1422.6 405.7 1422.6 404.986 1423.67 404.272C1424.75 403.915 1428.32 405.7 1427.25 406.414Z" fill="#16110D"/>
<path d="M1545.54 481.723C1546.61 482.437 1546.61 483.15 1545.54 483.864C1544.47 484.578 1543.04 484.578 1541.97 483.864C1540.9 483.15 1540.9 482.437 1541.97 481.723C1543.04 481.366 1544.47 481.366 1545.54 481.723Z" fill="#16110D"/>
<path d="M1554.48 476.727C1555.55 477.441 1555.55 478.154 1554.48 478.868C1553.41 479.582 1551.98 479.582 1550.9 478.868C1549.83 478.154 1549.83 477.441 1550.9 476.727C1551.98 476.013 1553.41 476.013 1554.48 476.727Z" fill="#16110D"/>
<path d="M1563.41 471.372C1564.49 472.086 1564.49 472.8 1563.41 473.514C1562.34 474.228 1560.91 474.228 1559.84 473.514C1558.77 472.8 1558.77 472.086 1559.84 471.372C1560.91 471.015 1562.7 471.015 1563.41 471.372Z" fill="#16110D"/>
<path d="M1572.7 466.02C1573.77 466.733 1573.77 467.447 1572.7 468.161C1571.63 468.875 1570.2 468.875 1569.13 468.161C1568.06 467.447 1568.06 466.733 1569.13 466.02C1569.84 465.663 1571.63 465.663 1572.7 466.02Z" fill="#16110D"/>
<path d="M1581.64 461.023C1582.71 461.737 1582.71 462.45 1581.64 463.164C1580.56 463.878 1579.13 463.878 1578.06 463.164C1576.99 462.45 1576.99 461.737 1578.06 461.023C1579.13 460.309 1580.56 460.309 1581.64 461.023Z" fill="#16110D"/>
<path d="M1590.57 455.669C1591.64 456.383 1591.64 457.097 1590.57 457.811C1589.5 458.524 1588.07 458.524 1587 457.811C1585.92 457.097 1585.92 456.383 1587 455.669C1588.07 455.312 1589.5 455.312 1590.57 455.669Z" fill="#16110D"/>
<path d="M1599.5 450.671C1600.58 451.385 1600.58 452.099 1599.5 452.813C1598.43 453.526 1597 453.526 1595.93 452.813C1594.86 452.099 1594.86 451.385 1595.93 450.671C1597 449.957 1598.79 449.957 1599.5 450.671Z" fill="#16110D"/>
<path d="M1607.01 447.815C1608.39 447.815 1609.51 447.176 1609.51 446.388C1609.51 445.599 1608.39 444.96 1607.01 444.96C1605.63 444.96 1604.51 445.599 1604.51 446.388C1604.51 447.176 1605.63 447.815 1607.01 447.815Z" fill="#16110D"/>
<path d="M1615.95 442.463C1617.33 442.463 1618.45 441.824 1618.45 441.035C1618.45 440.247 1617.33 439.607 1615.95 439.607C1614.57 439.607 1613.45 440.247 1613.45 441.035C1613.45 441.824 1614.57 442.463 1615.95 442.463Z" fill="#16110D"/>
<path d="M1626.67 434.967C1627.74 435.681 1627.74 436.395 1626.67 437.109C1625.59 437.822 1624.17 437.822 1623.09 437.109C1622.02 436.395 1622.02 435.681 1623.09 434.967C1624.17 434.253 1625.95 434.253 1626.67 434.967Z" fill="#16110D"/>
<path d="M1527.31 481.723C1528.39 482.437 1528.39 483.15 1527.31 483.864C1526.24 484.578 1524.81 484.578 1523.74 483.864C1522.67 483.15 1522.67 482.437 1523.74 481.723C1524.81 481.366 1526.24 481.366 1527.31 481.723Z" fill="#16110D"/>
<path d="M1536.25 476.727C1537.32 477.441 1537.32 478.154 1536.25 478.868C1535.18 479.582 1533.75 479.582 1532.68 478.868C1531.6 478.154 1531.6 477.441 1532.68 476.727C1533.75 476.013 1535.53 476.013 1536.25 476.727Z" fill="#16110D"/>
<path d="M1545.54 471.372C1546.61 472.086 1546.61 472.8 1545.54 473.514C1544.47 474.228 1543.04 474.228 1541.97 473.514C1540.89 472.8 1540.89 472.086 1541.97 471.372C1543.04 471.015 1544.47 471.015 1545.54 471.372Z" fill="#16110D"/>
<path d="M1552.69 468.516C1554.07 468.516 1555.19 467.877 1555.19 467.089C1555.19 466.3 1554.07 465.661 1552.69 465.661C1551.31 465.661 1550.19 466.3 1550.19 467.089C1550.19 467.877 1551.31 468.516 1552.69 468.516Z" fill="#16110D"/>
<path d="M1561.62 463.521C1563.01 463.521 1564.13 462.882 1564.13 462.094C1564.13 461.305 1563.01 460.666 1561.62 460.666C1560.24 460.666 1559.12 461.305 1559.12 462.094C1559.12 462.882 1560.24 463.521 1561.62 463.521Z" fill="#16110D"/>
<path d="M1572.7 455.669C1573.77 456.383 1573.77 457.097 1572.7 457.811C1571.63 458.524 1570.2 458.524 1569.13 457.811C1568.06 457.097 1568.06 456.383 1569.13 455.669C1569.84 455.312 1571.63 455.312 1572.7 455.669Z" fill="#16110D"/>
<path d="M1581.64 450.671C1582.71 451.385 1582.71 452.099 1581.64 452.813C1580.56 453.526 1579.13 453.526 1578.06 452.813C1576.99 452.099 1576.99 451.385 1578.06 450.671C1579.13 449.957 1580.56 449.957 1581.64 450.671Z" fill="#16110D"/>
<path d="M1590.57 445.318C1591.64 446.031 1591.64 446.745 1590.57 447.459C1589.5 448.173 1588.07 448.173 1587 447.459C1585.92 446.745 1585.92 446.031 1587 445.318C1588.07 444.604 1589.5 444.604 1590.57 445.318Z" fill="#16110D"/>
<path d="M1599.5 439.964C1600.58 440.678 1600.58 441.392 1599.5 442.105C1598.43 442.819 1597 442.819 1595.93 442.105C1594.86 441.392 1594.86 440.678 1595.93 439.964C1597 439.607 1598.79 439.607 1599.5 439.964Z" fill="#16110D"/>
<path d="M1608.8 434.967C1609.87 435.681 1609.87 436.395 1608.8 437.109C1607.73 437.822 1606.3 437.822 1605.23 437.109C1604.15 436.395 1604.15 435.681 1605.23 434.967C1606.3 434.253 1607.73 434.253 1608.8 434.967Z" fill="#16110D"/>
<path d="M1615.95 432.112C1617.33 432.112 1618.45 431.473 1618.45 430.685C1618.45 429.896 1617.33 429.257 1615.95 429.257C1614.57 429.257 1613.45 429.896 1613.45 430.685C1613.45 431.473 1614.57 432.112 1615.95 432.112Z" fill="#16110D"/>
<path d="M1507.3 484.222C1508.68 484.222 1509.8 483.582 1509.8 482.794C1509.8 482.005 1508.68 481.366 1507.3 481.366C1505.92 481.366 1504.8 482.005 1504.8 482.794C1504.8 483.582 1505.92 484.222 1507.3 484.222Z" fill="#16110D"/>
<path d="M1518.38 476.727C1519.45 477.441 1519.45 478.154 1518.38 478.868C1517.31 479.582 1515.88 479.582 1514.81 478.868C1513.73 478.154 1513.73 477.441 1514.81 476.727C1515.88 476.013 1517.31 476.013 1518.38 476.727Z" fill="#16110D"/>
<path d="M1527.32 471.372C1528.39 472.086 1528.39 472.8 1527.32 473.514C1526.24 474.228 1524.81 474.228 1523.74 473.514C1522.67 472.8 1522.67 472.086 1523.74 471.372C1524.81 471.015 1526.24 471.015 1527.32 471.372Z" fill="#16110D"/>
<path d="M1536.25 466.02C1537.32 466.733 1537.32 467.447 1536.25 468.161C1535.17 468.875 1533.75 468.875 1532.67 468.161C1531.6 467.447 1531.6 466.733 1532.67 466.02C1533.75 465.663 1535.53 465.663 1536.25 466.02Z" fill="#16110D"/>
<path d="M1545.54 461.023C1546.61 461.737 1546.61 462.45 1545.54 463.164C1544.47 463.878 1543.04 463.878 1541.97 463.164C1540.89 462.45 1540.89 461.737 1541.97 461.023C1543.04 460.309 1544.47 460.309 1545.54 461.023Z" fill="#16110D"/>
<path d="M1554.48 455.668C1555.55 456.382 1555.55 457.096 1554.48 457.809C1553.41 458.523 1551.98 458.523 1550.9 457.809C1549.83 457.096 1549.83 456.382 1550.9 455.668C1551.98 454.954 1553.41 455.311 1554.48 455.668Z" fill="#16110D"/>
<path d="M1561.62 452.812C1563.01 452.812 1564.13 452.173 1564.13 451.385C1564.13 450.596 1563.01 449.957 1561.62 449.957C1560.24 449.957 1559.12 450.596 1559.12 451.385C1559.12 452.173 1560.24 452.812 1561.62 452.812Z" fill="#16110D"/>
<path d="M1572.7 445.318C1573.77 446.031 1573.77 446.745 1572.7 447.459C1571.63 448.173 1570.2 448.173 1569.13 447.459C1568.06 446.745 1568.06 446.031 1569.13 445.318C1569.84 444.604 1571.63 444.604 1572.7 445.318Z" fill="#16110D"/>
<path d="M1579.85 442.463C1581.23 442.463 1582.35 441.824 1582.35 441.035C1582.35 440.247 1581.23 439.607 1579.85 439.607C1578.47 439.607 1577.35 440.247 1577.35 441.035C1577.35 441.824 1578.47 442.463 1579.85 442.463Z" fill="#16110D"/>
<path d="M1590.57 434.967C1591.64 435.681 1591.64 436.395 1590.57 437.109C1589.5 437.822 1588.07 437.822 1587 437.109C1585.92 436.395 1585.92 435.681 1587 434.967C1588.07 434.253 1589.5 434.253 1590.57 434.967Z" fill="#16110D"/>
<path d="M1598.08 432.112C1599.46 432.112 1600.58 431.473 1600.58 430.685C1600.58 429.896 1599.46 429.257 1598.08 429.257C1596.7 429.257 1595.58 429.896 1595.58 430.685C1595.58 431.473 1596.7 432.112 1598.08 432.112Z" fill="#16110D"/>
<path d="M1608.8 424.615C1609.87 425.329 1609.87 426.043 1608.8 426.757C1607.73 427.471 1606.3 427.471 1605.23 426.757C1604.15 426.043 1604.15 425.329 1605.23 424.615C1606.3 423.902 1607.73 423.902 1608.8 424.615Z" fill="#16110D"/>
<path d="M1500.15 476.727C1501.22 477.441 1501.22 478.154 1500.15 478.868C1499.08 479.582 1497.65 479.582 1496.58 478.868C1495.51 478.154 1495.51 477.441 1496.58 476.727C1497.65 476.013 1499.08 476.013 1500.15 476.727Z" fill="#16110D"/>
<path d="M1507.3 473.871C1508.68 473.871 1509.8 473.232 1509.8 472.443C1509.8 471.655 1508.68 471.016 1507.3 471.016C1505.92 471.016 1504.8 471.655 1504.8 472.443C1504.8 473.232 1505.92 473.871 1507.3 473.871Z" fill="#16110D"/>
<path d="M1518.38 466.02C1519.45 466.733 1519.45 467.447 1518.38 468.161C1517.31 468.875 1515.88 468.875 1514.8 468.161C1513.73 467.447 1513.73 466.733 1514.8 466.02C1515.88 465.663 1517.31 465.663 1518.38 466.02Z" fill="#16110D"/>
<path d="M1525.53 463.521C1526.91 463.521 1528.03 462.882 1528.03 462.094C1528.03 461.305 1526.91 460.666 1525.53 460.666C1524.14 460.666 1523.02 461.305 1523.02 462.094C1523.02 462.882 1524.14 463.521 1525.53 463.521Z" fill="#16110D"/>
<path d="M1536.25 455.669C1537.32 456.383 1537.32 457.097 1536.25 457.811C1535.17 458.524 1533.75 458.524 1532.67 457.811C1531.6 457.097 1531.6 456.383 1532.67 455.669C1533.75 455.312 1535.53 455.312 1536.25 455.669Z" fill="#16110D"/>
<path d="M1543.76 452.812C1545.14 452.812 1546.26 452.173 1546.26 451.385C1546.26 450.596 1545.14 449.957 1543.76 449.957C1542.37 449.957 1541.25 450.596 1541.25 451.385C1541.25 452.173 1542.37 452.812 1543.76 452.812Z" fill="#16110D"/>
<path d="M1554.48 445.318C1555.55 446.031 1555.55 446.745 1554.48 447.459C1553.41 448.173 1551.98 448.173 1550.9 447.459C1549.83 446.745 1549.83 446.031 1550.9 445.318C1551.98 444.604 1553.41 444.604 1554.48 445.318Z" fill="#16110D"/>
<path d="M1563.41 439.964C1564.49 440.678 1564.49 441.392 1563.41 442.105C1562.34 442.819 1560.91 442.819 1559.84 442.105C1558.77 441.392 1558.77 440.678 1559.84 439.964C1560.91 439.607 1562.7 439.607 1563.41 439.964Z" fill="#16110D"/>
<path d="M1572.7 434.967C1573.77 435.681 1573.77 436.395 1572.7 437.109C1571.63 437.822 1570.2 437.822 1569.13 437.109C1568.06 436.395 1568.06 435.681 1569.13 434.967C1569.84 434.253 1571.63 434.253 1572.7 434.967Z" fill="#16110D"/>
<path d="M1579.85 432.112C1581.23 432.112 1582.35 431.473 1582.35 430.685C1582.35 429.896 1581.23 429.257 1579.85 429.257C1578.47 429.257 1577.35 429.896 1577.35 430.685C1577.35 431.473 1578.47 432.112 1579.85 432.112Z" fill="#16110D"/>
<path d="M1590.57 424.615C1591.64 425.329 1591.64 426.043 1590.57 426.757C1589.5 427.471 1588.07 427.471 1587 426.757C1585.92 426.043 1585.92 425.329 1587 424.615C1588.07 423.902 1589.5 423.902 1590.57 424.615Z" fill="#16110D"/>
<path d="M1598.08 421.762C1599.46 421.762 1600.58 421.122 1600.58 420.334C1600.58 419.545 1599.46 418.906 1598.08 418.906C1596.7 418.906 1595.58 419.545 1595.58 420.334C1595.58 421.122 1596.7 421.762 1598.08 421.762Z" fill="#16110D"/>
<path d="M1489.43 473.871C1490.81 473.871 1491.93 473.232 1491.93 472.443C1491.93 471.655 1490.81 471.016 1489.43 471.016C1488.05 471.016 1486.93 471.655 1486.93 472.443C1486.93 473.232 1488.05 473.871 1489.43 473.871Z" fill="#16110D"/>
<path d="M1500.15 466.02C1501.23 466.733 1501.23 467.447 1500.15 468.161C1499.08 468.875 1497.65 468.875 1496.58 468.161C1495.51 467.447 1495.51 466.733 1496.58 466.02C1497.65 465.663 1499.08 465.663 1500.15 466.02Z" fill="#16110D"/>
<path d="M1509.09 461.023C1510.16 461.737 1510.16 462.45 1509.09 463.164C1508.02 463.878 1506.59 463.878 1505.52 463.164C1504.44 462.45 1504.44 461.737 1505.52 461.023C1506.59 460.309 1508.37 460.309 1509.09 461.023Z" fill="#16110D"/>
<path d="M1518.38 455.669C1519.45 456.383 1519.45 457.097 1518.38 457.811C1517.31 458.524 1515.88 458.524 1514.8 457.811C1513.73 457.097 1513.73 456.383 1514.8 455.669C1515.88 455.312 1517.31 455.312 1518.38 455.669Z" fill="#16110D"/>
<path d="M1527.32 450.671C1528.39 451.385 1528.39 452.099 1527.32 452.813C1526.24 453.526 1524.81 453.526 1523.74 452.813C1522.67 452.099 1522.67 451.385 1523.74 450.671C1524.81 449.957 1526.24 449.957 1527.32 450.671Z" fill="#16110D"/>
<path d="M1481.92 466.02C1483 466.733 1483 467.447 1481.92 468.161C1480.85 468.875 1479.42 468.875 1478.35 468.161C1477.28 467.447 1477.28 466.733 1478.35 466.02C1479.42 465.663 1481.21 465.663 1481.92 466.02Z" fill="#16110D"/>
<path d="M1491.22 461.023C1492.29 461.737 1492.29 462.45 1491.22 463.164C1490.15 463.878 1488.72 463.878 1487.65 463.164C1486.57 462.45 1486.57 461.737 1487.65 461.023C1488.72 460.309 1490.15 460.309 1491.22 461.023Z" fill="#16110D"/>
<path d="M1498.37 458.166C1499.75 458.166 1500.87 457.527 1500.87 456.738C1500.87 455.95 1499.75 455.311 1498.37 455.311C1496.99 455.311 1495.87 455.95 1495.87 456.738C1495.87 457.527 1496.99 458.166 1498.37 458.166Z" fill="#16110D"/>
<path d="M1507.3 452.812C1508.68 452.812 1509.8 452.173 1509.8 451.385C1509.8 450.596 1508.68 449.957 1507.3 449.957C1505.92 449.957 1504.8 450.596 1504.8 451.385C1504.8 452.173 1505.92 452.812 1507.3 452.812Z" fill="#16110D"/>
<path d="M1471.2 463.521C1472.59 463.521 1473.71 462.882 1473.71 462.094C1473.71 461.305 1472.59 460.666 1471.2 460.666C1469.82 460.666 1468.7 461.305 1468.7 462.094C1468.7 462.882 1469.82 463.521 1471.2 463.521Z" fill="#16110D"/>
<path d="M1481.92 455.669C1483 456.383 1483 457.097 1481.92 457.811C1480.85 458.524 1479.42 458.524 1478.35 457.811C1477.28 457.097 1477.28 456.383 1478.35 455.669C1479.42 455.312 1481.21 455.312 1481.92 455.669Z" fill="#16110D"/>
<path d="M1491.22 450.671C1492.29 451.385 1492.29 452.099 1491.22 452.813C1490.15 453.526 1488.72 453.526 1487.65 452.813C1486.57 452.099 1486.57 451.385 1487.65 450.671C1488.72 449.957 1490.15 449.957 1491.22 450.671Z" fill="#16110D"/>
<path d="M1500.15 445.318C1501.22 446.031 1501.22 446.745 1500.15 447.459C1499.08 448.173 1497.65 448.173 1496.58 447.459C1495.51 446.745 1495.51 446.031 1496.58 445.318C1497.65 444.604 1499.08 444.604 1500.15 445.318Z" fill="#16110D"/>
<path d="M1464.06 455.669C1465.13 456.383 1465.13 457.097 1464.06 457.811C1462.99 458.524 1461.56 458.524 1460.48 457.811C1459.41 457.097 1459.41 456.383 1460.48 455.669C1461.56 455.312 1462.99 455.312 1464.06 455.669Z" fill="#16110D"/>
<path d="M1472.99 450.315C1474.06 451.028 1474.06 451.742 1472.99 452.456C1471.92 453.17 1470.49 453.17 1469.42 452.456C1468.34 451.742 1468.34 451.028 1469.42 450.315C1470.49 449.958 1471.92 449.958 1472.99 450.315Z" fill="#16110D"/>
<path d="M1481.92 445.318C1483 446.031 1483 446.745 1481.92 447.459C1480.85 448.173 1479.42 448.173 1478.35 447.459C1477.28 446.745 1477.28 446.031 1478.35 445.318C1479.42 444.604 1480.85 444.604 1481.92 445.318Z" fill="#16110D"/>
<path d="M1490.86 439.964C1491.93 440.678 1491.93 441.392 1490.86 442.105C1489.79 442.819 1488.36 442.819 1487.29 442.105C1486.22 441.392 1486.22 440.678 1487.29 439.964C1488.36 439.607 1490.15 439.607 1490.86 439.964Z" fill="#16110D"/>
<path d="M1454.77 450.315C1455.84 451.028 1455.84 451.742 1454.77 452.456C1453.69 453.17 1452.26 453.17 1451.19 452.456C1450.12 451.742 1450.12 451.028 1451.19 450.315C1452.26 449.958 1454.05 449.958 1454.77 450.315Z" fill="#16110D"/>
<path d="M1464.06 445.318C1465.13 446.031 1465.13 446.745 1464.06 447.459C1462.99 448.173 1461.56 448.173 1460.48 447.459C1459.41 446.745 1459.41 446.031 1460.48 445.318C1461.56 444.604 1462.99 444.604 1464.06 445.318Z" fill="#16110D"/>
<path d="M1472.99 439.964C1474.07 440.678 1474.07 441.392 1472.99 442.105C1471.92 442.819 1470.49 442.819 1469.42 442.105C1468.35 441.392 1468.35 440.678 1469.42 439.964C1470.49 439.607 1471.92 439.607 1472.99 439.964Z" fill="#16110D"/>
<path d="M1481.92 434.967C1483 435.681 1483 436.395 1481.92 437.109C1480.85 437.822 1479.42 437.822 1478.35 437.109C1477.28 436.395 1477.28 435.681 1478.35 434.967C1479.42 434.253 1480.85 434.253 1481.92 434.967Z" fill="#16110D"/>
<path d="M1445.83 445.318C1446.9 446.031 1446.9 446.745 1445.83 447.459C1444.76 448.173 1443.33 448.173 1442.26 447.459C1441.19 446.745 1441.19 446.031 1442.26 445.318C1443.33 444.604 1444.76 444.604 1445.83 445.318Z" fill="#16110D"/>
<path d="M1454.77 439.964C1455.84 440.678 1455.84 441.392 1454.77 442.105C1453.69 442.819 1452.26 442.819 1451.19 442.105C1450.12 441.392 1450.12 440.678 1451.19 439.964C1452.26 439.607 1454.05 439.607 1454.77 439.964Z" fill="#16110D"/>
<path d="M1464.06 434.967C1465.13 435.681 1465.13 436.395 1464.06 437.109C1462.99 437.822 1461.56 437.822 1460.48 437.109C1459.41 436.395 1459.41 435.681 1460.48 434.967C1461.56 434.253 1462.99 434.253 1464.06 434.967Z" fill="#16110D"/>
<path d="M1472.99 429.613C1474.07 430.326 1474.07 431.04 1472.99 431.754C1471.92 432.468 1470.49 432.468 1469.42 431.754C1468.35 431.04 1468.35 430.326 1469.42 429.613C1470.49 428.899 1471.92 428.899 1472.99 429.613Z" fill="#16110D"/>
<path d="M1436.9 439.964C1437.97 440.678 1437.97 441.392 1436.9 442.105C1435.83 442.819 1434.4 442.819 1433.32 442.105C1432.25 441.392 1432.25 440.678 1433.32 439.964C1434.4 439.607 1435.83 439.607 1436.9 439.964Z" fill="#16110D"/>
<path d="M1444.04 437.107C1445.43 437.107 1446.55 436.468 1446.55 435.68C1446.55 434.891 1445.43 434.252 1444.04 434.252C1442.66 434.252 1441.54 434.891 1441.54 435.68C1441.54 436.468 1442.66 437.107 1444.04 437.107Z" fill="#16110D"/>
<path d="M1454.77 429.613C1455.84 430.326 1455.84 431.04 1454.77 431.754C1453.69 432.468 1452.26 432.468 1451.19 431.754C1450.12 431.04 1450.12 430.326 1451.19 429.613C1452.26 428.899 1454.05 428.899 1454.77 429.613Z" fill="#16110D"/>
<path d="M1464.06 424.259C1465.13 424.973 1465.13 425.687 1464.06 426.4C1462.99 427.114 1461.56 427.114 1460.48 426.4C1459.41 425.687 1459.41 424.973 1460.48 424.259C1461.56 423.902 1462.99 423.902 1464.06 424.259C1464.77 424.973 1462.99 423.902 1464.06 424.259Z" fill="#16110D"/>
<path d="M1632.39 429.613C1633.46 428.899 1634.89 428.899 1635.96 429.613C1637.03 430.326 1637.03 431.04 1635.96 431.754C1634.89 432.468 1633.46 432.468 1632.39 431.754C1631.67 431.04 1631.67 430.326 1632.39 429.613Z" fill="#16110D"/>
<path d="M1643.11 426.758C1644.49 426.758 1645.61 426.118 1645.61 425.33C1645.61 424.542 1644.49 423.902 1643.11 423.902C1641.72 423.902 1640.6 424.542 1640.6 425.33C1640.6 426.118 1641.72 426.758 1643.11 426.758Z" fill="#16110D"/>
<path d="M1625.24 426.758C1626.62 426.758 1627.74 426.118 1627.74 425.33C1627.74 424.542 1626.62 423.902 1625.24 423.902C1623.85 423.902 1622.73 424.542 1622.73 425.33C1622.73 426.118 1623.85 426.758 1625.24 426.758Z" fill="#16110D"/>
<path d="M1635.96 419.263C1637.03 419.977 1637.03 420.69 1635.96 421.404C1634.89 422.118 1633.46 422.118 1632.38 421.404C1631.31 420.69 1631.31 419.977 1632.38 419.263C1633.46 418.906 1634.89 418.906 1635.96 419.263Z" fill="#16110D"/>
<path d="M1644.89 413.908C1645.97 414.622 1645.97 415.336 1644.89 416.05C1643.82 416.764 1642.39 416.764 1641.32 416.05C1640.25 415.336 1640.25 414.622 1641.32 413.908C1642.39 413.551 1644.18 413.551 1644.89 413.908Z" fill="#16110D"/>
<path d="M1614.52 419.262C1615.59 418.548 1617.02 418.548 1618.09 419.262C1619.16 419.976 1619.16 420.69 1618.09 421.403C1617.02 422.117 1615.59 422.117 1614.52 421.403C1613.44 420.69 1613.44 419.976 1614.52 419.262Z" fill="#16110D"/>
<path d="M1627.02 413.908C1628.1 414.622 1628.1 415.336 1627.02 416.05C1625.95 416.764 1624.52 416.764 1623.45 416.05C1622.38 415.336 1622.38 414.622 1623.45 413.908C1624.52 413.551 1625.95 413.551 1627.02 413.908Z" fill="#16110D"/>
<path d="M1634.17 411.41C1635.55 411.41 1636.67 410.771 1636.67 409.982C1636.67 409.194 1635.55 408.555 1634.17 408.555C1632.79 408.555 1631.67 409.194 1631.67 409.982C1631.67 410.771 1632.79 411.41 1634.17 411.41Z" fill="#16110D"/>
<path d="M1605.22 413.909C1606.3 413.196 1607.73 413.196 1608.8 413.909C1609.87 414.623 1609.87 415.337 1608.8 416.051C1607.73 416.765 1606.3 416.765 1605.22 416.051C1604.51 415.694 1604.51 414.623 1605.22 413.909Z" fill="#16110D"/>
<path d="M1617.73 408.912C1618.81 409.626 1618.81 410.34 1617.73 411.054C1616.66 411.768 1615.23 411.768 1614.16 411.054C1613.09 410.34 1613.09 409.626 1614.16 408.912C1615.23 408.198 1617.02 408.198 1617.73 408.912Z" fill="#16110D"/>
<path d="M1627.02 403.559C1628.1 404.273 1628.1 404.986 1627.02 405.7C1625.95 406.414 1624.52 406.414 1623.45 405.7C1622.38 404.986 1622.38 404.273 1623.45 403.559C1624.52 403.202 1625.95 403.202 1627.02 403.559Z" fill="#16110D"/>
<path d="M1448.33 334.317C1449.4 335.03 1449.4 335.744 1448.33 336.458C1447.26 337.172 1445.83 337.172 1444.76 336.458C1443.68 335.744 1443.68 335.03 1444.76 334.317C1445.83 333.96 1447.26 333.96 1448.33 334.317Z" fill="#16110D"/>
<path d="M1439.4 329.321C1440.47 330.034 1440.47 330.748 1439.4 331.462C1438.32 332.176 1436.89 332.176 1435.82 331.462C1434.75 330.748 1434.75 330.034 1435.82 329.321C1436.89 328.607 1438.32 328.607 1439.4 329.321Z" fill="#16110D"/>
<path d="M1428.32 326.464C1429.7 326.464 1430.82 325.825 1430.82 325.036C1430.82 324.248 1429.7 323.608 1428.32 323.608C1426.93 323.608 1425.81 324.248 1425.81 325.036C1425.81 325.825 1426.93 326.464 1428.32 326.464Z" fill="#16110D"/>
<path d="M1421.17 318.612C1422.24 319.326 1422.24 320.04 1421.17 320.754C1420.1 321.468 1418.67 321.468 1417.6 320.754C1416.52 320.04 1416.52 319.326 1417.6 318.612C1418.67 318.255 1420.1 318.255 1421.17 318.612Z" fill="#16110D"/>
<path d="M1499.08 326.108C1498.01 325.394 1498.01 324.68 1499.08 323.966C1500.15 323.252 1501.58 323.252 1502.65 323.966C1503.73 324.68 1500.15 326.464 1499.08 326.108Z" fill="#16110D"/>
<path d="M1508.37 320.754C1507.3 320.04 1507.3 319.326 1508.37 318.613C1509.44 317.899 1510.87 317.899 1511.94 318.613C1512.66 319.326 1509.09 321.468 1508.37 320.754Z" fill="#16110D"/>
<path d="M1517.31 315.757C1516.23 315.043 1516.23 314.329 1517.31 313.615C1518.38 312.902 1519.81 312.902 1520.88 313.615C1521.59 314.329 1518.38 316.114 1517.31 315.757Z" fill="#16110D"/>
<path d="M1475.49 329.321C1476.57 330.034 1476.57 330.748 1475.49 331.462C1474.42 332.176 1472.99 332.176 1471.92 331.462C1470.85 330.748 1470.85 330.034 1471.92 329.321C1472.99 328.607 1474.42 328.607 1475.49 329.321Z" fill="#16110D"/>
<path d="M1484.42 323.967C1485.5 324.681 1485.5 325.395 1484.42 326.108C1483.35 326.822 1481.92 326.822 1480.85 326.108C1479.78 325.395 1479.78 324.681 1480.85 323.967C1481.92 323.61 1483.71 323.61 1484.42 323.967Z" fill="#16110D"/>
<path d="M1491.93 321.11C1493.31 321.11 1494.43 320.471 1494.43 319.683C1494.43 318.894 1493.31 318.255 1491.93 318.255C1490.55 318.255 1489.43 318.894 1489.43 319.683C1489.43 320.471 1490.55 321.11 1491.93 321.11Z" fill="#16110D"/>
<path d="M1500.87 316.113C1502.25 316.113 1503.37 315.474 1503.37 314.685C1503.37 313.897 1502.25 313.258 1500.87 313.258C1499.49 313.258 1498.37 313.897 1498.37 314.685C1498.37 315.474 1499.49 316.113 1500.87 316.113Z" fill="#16110D"/>
<path d="M1511.58 308.262C1512.66 308.976 1512.66 309.689 1511.58 310.403C1510.51 311.117 1509.08 311.117 1508.01 310.403C1506.94 309.689 1506.94 308.976 1508.01 308.262C1509.08 307.905 1510.87 307.905 1511.58 308.262Z" fill="#16110D"/>
<path d="M1519.09 305.764C1520.47 305.764 1521.59 305.124 1521.59 304.336C1521.59 303.547 1520.47 302.908 1519.09 302.908C1517.71 302.908 1516.59 303.547 1516.59 304.336C1516.59 305.124 1517.71 305.764 1519.09 305.764Z" fill="#16110D"/>
<path d="M1454.05 329.321C1455.12 328.607 1456.55 328.607 1457.62 329.321C1458.7 330.034 1458.7 330.748 1457.62 331.462C1456.55 332.176 1455.12 332.176 1454.05 331.462C1452.98 330.748 1452.98 329.677 1454.05 329.321Z" fill="#16110D"/>
<path d="M1464.77 326.464C1466.15 326.464 1467.27 325.825 1467.27 325.036C1467.27 324.248 1466.15 323.608 1464.77 323.608C1463.39 323.608 1462.27 324.248 1462.27 325.036C1462.27 325.825 1463.39 326.464 1464.77 326.464Z" fill="#16110D"/>
<path d="M1475.49 318.969C1476.57 319.683 1476.57 320.397 1475.49 321.11C1474.42 321.824 1472.99 321.824 1471.92 321.11C1470.85 320.397 1470.85 319.683 1471.92 318.969C1472.99 318.255 1474.42 318.255 1475.49 318.969Z" fill="#16110D"/>
<path d="M1484.42 313.615C1485.5 314.329 1485.5 315.043 1484.42 315.757C1483.35 316.471 1481.92 316.471 1480.85 315.757C1479.78 315.043 1479.78 314.329 1480.85 313.615C1481.92 312.902 1483.71 312.902 1484.42 313.615Z" fill="#16110D"/>
<path d="M1493.72 308.262C1494.79 308.976 1494.79 309.689 1493.72 310.403C1492.64 311.117 1491.21 311.117 1490.14 310.403C1489.07 309.689 1489.07 308.976 1490.14 308.262C1491.21 307.905 1492.64 307.905 1493.72 308.262Z" fill="#16110D"/>
<path d="M1502.65 303.265C1503.73 303.979 1503.73 304.693 1502.65 305.406C1501.58 306.12 1500.15 306.12 1499.08 305.406C1498.01 304.693 1498.01 303.979 1499.08 303.265C1500.15 302.551 1501.58 302.551 1502.65 303.265Z" fill="#16110D"/>
<path d="M1511.58 297.911C1512.66 298.625 1512.66 299.339 1511.58 300.053C1510.51 300.767 1509.08 300.767 1508.01 300.053C1506.94 299.339 1506.94 298.625 1508.01 297.911C1509.08 297.554 1510.87 297.554 1511.58 297.911Z" fill="#16110D"/>
<path d="M1444.76 323.966C1445.83 323.252 1447.26 323.252 1448.33 323.966C1449.4 324.68 1449.4 325.394 1448.33 326.108C1447.26 326.821 1445.83 326.821 1444.76 326.108C1444.04 325.394 1444.04 324.68 1444.76 323.966Z" fill="#16110D"/>
<path d="M1457.26 318.969C1458.34 319.683 1458.34 320.397 1457.26 321.11C1456.19 321.824 1454.76 321.824 1453.69 321.11C1452.62 320.397 1452.62 319.683 1453.69 318.969C1454.76 318.255 1456.55 318.255 1457.26 318.969Z" fill="#16110D"/>
<path d="M1464.77 316.113C1466.15 316.113 1467.27 315.474 1467.27 314.685C1467.27 313.897 1466.15 313.258 1464.77 313.258C1463.39 313.258 1462.27 313.897 1462.27 314.685C1462.27 315.474 1463.39 316.113 1464.77 316.113Z" fill="#16110D"/>
<path d="M1475.49 308.262C1476.57 308.976 1476.57 309.689 1475.49 310.403C1474.42 311.117 1472.99 311.117 1471.92 310.403C1470.85 309.689 1470.85 308.976 1471.92 308.262C1472.99 307.905 1474.42 307.905 1475.49 308.262Z" fill="#16110D"/>
<path d="M1481.21 303.265C1482.28 302.551 1483.71 302.551 1484.78 303.265C1485.86 303.979 1485.86 304.693 1484.78 305.406C1483.71 306.12 1482.28 306.12 1481.21 305.406C1480.14 304.693 1480.14 303.622 1481.21 303.265C1481.93 302.551 1480.14 303.622 1481.21 303.265Z" fill="#16110D"/>
<path d="M1493.72 297.912C1494.79 298.626 1494.79 299.34 1493.72 300.053C1492.65 300.767 1491.22 300.767 1490.14 300.053C1489.07 299.34 1492.65 297.555 1493.72 297.912Z" fill="#16110D"/>
<path d="M1502.65 292.914C1503.73 293.628 1503.73 294.342 1502.65 295.056C1501.58 295.77 1500.15 295.77 1499.08 295.056C1498.36 294.342 1501.58 292.2 1502.65 292.914Z" fill="#16110D"/>
<path d="M1435.82 318.969C1436.89 318.255 1438.32 318.255 1439.4 318.969C1440.47 319.683 1440.47 320.397 1439.4 321.11C1438.32 321.824 1436.89 321.824 1435.82 321.11C1434.75 320.397 1434.75 319.326 1435.82 318.969Z" fill="#16110D"/>
<path d="M1446.54 316.113C1447.92 316.113 1449.04 315.474 1449.04 314.685C1449.04 313.897 1447.92 313.258 1446.54 313.258C1445.16 313.258 1444.04 313.897 1444.04 314.685C1444.04 315.474 1445.16 316.113 1446.54 316.113Z" fill="#16110D"/>
<path d="M1457.26 308.262C1458.34 308.976 1458.34 309.689 1457.26 310.403C1456.19 311.117 1454.76 311.117 1453.69 310.403C1452.62 309.689 1452.62 308.976 1453.69 308.262C1454.76 307.905 1456.55 307.905 1457.26 308.262C1458.34 308.976 1456.55 307.905 1457.26 308.262Z" fill="#16110D"/>
<path d="M1426.89 313.615C1427.96 312.902 1429.39 312.902 1430.46 313.615C1431.53 314.329 1431.53 315.043 1430.46 315.757C1429.39 316.471 1427.96 316.471 1426.89 315.757C1425.81 315.043 1425.81 314.329 1426.89 313.615Z" fill="#16110D"/>
<path d="M1437.61 310.76C1438.99 310.76 1440.11 310.12 1440.11 309.332C1440.11 308.543 1438.99 307.904 1437.61 307.904C1436.23 307.904 1435.11 308.543 1435.11 309.332C1435.11 310.12 1436.23 310.76 1437.61 310.76Z" fill="#16110D"/>
<path d="M1448.33 305.05C1447.26 305.763 1445.83 305.763 1444.76 305.05C1443.68 304.336 1443.68 303.622 1444.76 302.908C1445.83 302.551 1449.4 304.693 1448.33 305.05Z" fill="#16110D"/>
<path d="M1417.59 308.262C1418.66 307.548 1420.09 307.548 1421.17 308.262C1422.24 308.976 1422.24 309.69 1421.17 310.403C1420.09 311.117 1418.66 311.117 1417.59 310.403C1416.88 309.69 1416.88 308.976 1417.59 308.262Z" fill="#16110D"/>
<path d="M1430.1 303.265C1431.17 303.979 1431.17 304.693 1430.1 305.406C1429.03 306.12 1427.6 306.12 1426.53 305.406C1425.46 304.693 1425.46 303.979 1426.53 303.265C1427.6 302.551 1429.39 302.551 1430.1 303.265Z" fill="#16110D"/>
<path d="M1439.4 300.053C1438.32 300.767 1436.89 300.767 1435.82 300.053C1434.75 299.339 1434.75 298.625 1435.82 297.911C1436.89 297.197 1440.11 299.339 1439.4 300.053Z" fill="#16110D"/>
<path d="M1418.31 396.419L1418.67 370.364H1634.88L1634.53 395.705C1634.53 396.419 1634.53 395.705 1634.53 396.419C1634.17 400.345 1630.95 403.914 1625.59 407.127L1544.82 453.526C1534.1 459.593 1517.66 460.307 1508.37 454.954L1424.74 406.413C1420.1 403.914 1417.95 399.988 1418.31 396.419Z" fill="#0066FF"/>
<path d="M1418.31 396.419L1418.67 370.364H1634.88L1634.53 395.705C1634.53 396.419 1634.53 395.705 1634.53 396.419C1634.17 400.345 1630.95 403.914 1625.59 407.127L1544.82 453.526C1534.1 459.593 1517.66 460.307 1508.37 454.954L1424.74 406.413C1420.1 403.914 1417.95 400.345 1418.31 396.419Z" fill="#0066FF"/>
<path d="M1524.45 460.307C1518.38 460.307 1512.3 459.236 1508.01 456.381L1424.03 407.84C1419.02 404.985 1416.52 400.702 1417.24 396.419L1417.59 371.078L1636.67 368.937L1636.31 395.705C1636.31 396.062 1636.31 396.419 1636.31 396.776C1635.6 401.059 1632.38 405.342 1626.66 408.554L1545.9 454.953C1539.82 458.523 1531.96 460.307 1524.45 460.307ZM1420.1 371.435L1419.74 396.419C1419.38 399.631 1421.17 402.844 1425.1 405.342L1509.44 453.883C1518.38 458.88 1534.1 458.523 1544.47 452.455L1625.23 406.056C1629.88 403.201 1632.74 399.988 1633.45 396.419V396.062L1633.81 372.149H1420.1V371.435Z" fill="#16110D"/>
<path d="M1425.1 381.073L1509.09 429.613C1518.38 434.967 1534.82 434.253 1545.54 428.186L1626.31 381.787C1637.03 375.719 1638.1 366.082 1628.81 360.728L1544.47 312.188C1535.17 306.834 1518.73 307.548 1508.01 313.615L1427.24 360.015C1416.88 366.439 1415.45 375.719 1425.1 381.073Z" fill="#0066FF"/>
<path d="M1424.03 390.709L1508.01 439.249C1517.31 444.603 1533.75 443.889 1544.47 437.822L1625.24 391.422C1635.96 385.355 1637.03 375.718 1627.74 370.364L1543.75 321.824C1534.46 316.47 1518.02 317.184 1507.3 323.251L1426.53 369.65C1415.81 376.075 1414.74 385.355 1424.03 390.709Z" fill="white"/>
<path d="M1524.81 434.61C1518.74 434.61 1512.66 433.539 1508.37 430.684L1424.39 382.143C1419.74 379.645 1417.24 375.719 1417.24 371.793C1417.24 367.153 1420.81 362.156 1426.89 358.587L1507.66 312.188C1518.74 305.763 1535.89 305.049 1545.54 310.76L1629.53 359.301C1634.17 361.799 1636.67 365.725 1636.67 369.651C1636.67 374.291 1633.1 379.288 1627.02 382.857L1546.26 429.256C1540.18 432.825 1532.32 434.61 1524.81 434.61ZM1528.74 309.689C1521.95 309.689 1514.45 311.474 1508.73 314.686L1427.96 361.085C1422.96 364.297 1420.1 368.224 1420.1 371.793C1420.1 374.648 1422.24 377.503 1425.82 379.645L1509.8 428.186C1518.74 433.182 1534.46 432.825 1544.83 426.758L1625.6 380.359C1630.96 377.503 1633.81 373.577 1633.81 369.651C1633.81 366.796 1631.67 363.941 1628.1 361.799L1543.75 313.258C1539.82 310.76 1534.46 309.689 1528.74 309.689Z" fill="#16110D"/>
<path d="M1525.17 433.183V458.881L1537.68 456.74L1553.76 449.244L1630.24 404.273L1634.88 398.205V370.009L1632.03 378.218L1615.23 387.855L1538.03 431.399L1525.17 433.183Z" fill="#16110D"/>
<path d="M1512.3 431.398V456.739L1503.01 452.456V427.115L1512.3 431.398Z" fill="#16110D"/>
<path d="M1423.32 380.715V404.986L1419.74 402.13L1417.24 385.712L1418.31 371.436L1423.32 380.715Z" fill="#16110D"/>
<path d="M1505.51 278.637L1500.51 280.422C1499.08 278.994 1497.29 277.566 1495.15 276.139C1494.79 275.782 1494.43 275.425 1493.72 275.068C1494.08 273.997 1494.43 272.57 1494.43 271.856C1494.08 270.071 1482.64 262.933 1479.07 260.791C1475.49 259.007 1458.34 258.293 1458.34 258.293L1439.4 271.856L1442.26 273.64C1441.18 273.997 1440.11 274.711 1439.04 275.068C1437.25 276.139 1435.82 277.21 1434.04 278.28H1426.17V292.557C1426.53 297.911 1429.75 303.264 1436.54 307.547C1451.19 316.827 1476.56 317.184 1492.65 308.618C1500.87 303.978 1505.51 297.911 1505.51 292.2V278.637ZM1457.62 296.126L1447.26 285.776C1448.33 284.705 1449.76 283.634 1451.19 282.92C1459.77 278.28 1473.71 278.28 1481.57 283.277C1484.07 284.705 1485.86 286.489 1486.57 288.631L1457.62 296.126Z" fill="#0066FF"/>
<path d="M1465.13 316.113C1454.41 316.113 1443.33 313.615 1435.46 308.618C1428.67 304.335 1424.74 298.981 1424.38 293.271V292.557V276.853H1433.32C1434.75 275.782 1436.54 274.711 1437.97 273.997C1437.97 273.997 1438.32 273.997 1438.32 273.64L1436.54 272.213L1457.98 256.865H1458.69C1460.48 256.865 1476.21 257.579 1480.14 259.721C1480.14 259.721 1495.86 268.643 1496.22 271.856C1496.22 272.213 1496.22 272.926 1495.86 274.711L1496.22 275.068C1498.01 276.139 1499.79 277.566 1501.22 278.637L1507.66 276.496V293.271C1506.94 300.052 1502.29 306.12 1494.07 310.403C1485.5 314.329 1475.49 316.113 1465.13 316.113ZM1427.96 292.557C1428.32 297.554 1431.53 302.551 1437.61 306.12C1451.9 315.043 1476.21 315.4 1492.29 306.834C1499.79 302.908 1504.08 297.554 1504.44 291.486V290.772V280.779L1500.51 282.206L1499.79 281.492C1498.01 280.065 1496.22 278.637 1494.43 277.566C1494.07 277.209 1493.72 277.209 1493.36 276.853L1491.57 275.782L1491.93 274.354C1492.65 272.57 1492.29 271.856 1492.29 271.856C1491.57 270.785 1481.57 264.004 1477.99 262.219C1475.85 261.148 1465.13 260.077 1458.69 259.721L1442.61 271.856L1446.19 273.997L1443.33 275.425C1441.9 275.782 1440.82 276.139 1440.11 276.496C1438.32 277.566 1436.54 278.637 1435.11 279.708L1434.75 280.065H1427.96V292.557ZM1456.91 297.911L1444.76 285.775L1445.83 284.705C1446.9 283.634 1448.69 282.563 1450.12 281.492C1459.41 276.496 1473.7 276.853 1482.28 281.849C1485.14 283.634 1486.93 285.419 1488 287.917L1488.71 289.702L1456.91 297.911ZM1449.76 285.775L1457.98 293.985L1484.07 287.203C1483.35 286.132 1482.28 285.419 1480.85 284.348C1473.35 279.708 1460.48 279.351 1452.26 283.991C1451.19 284.705 1450.47 285.419 1449.76 285.775Z" fill="#16110D"/>
<path d="M1492.64 295.055C1476.56 303.621 1451.54 303.264 1436.53 294.341C1421.88 285.061 1422.95 270.428 1439.04 261.862C1455.12 253.296 1480.49 253.653 1495.15 262.933C1510.16 271.856 1509.08 286.489 1492.64 295.055ZM1451.54 269.357C1442.97 273.997 1442.25 281.849 1450.12 286.846C1457.98 291.843 1471.56 291.843 1480.49 287.203C1489.07 282.563 1489.78 274.711 1481.92 269.714C1473.7 265.074 1460.12 264.717 1451.54 269.357Z" fill="#0066FF"/>
<path d="M1495.51 267.216C1480.85 257.936 1455.48 257.579 1439.4 266.502C1433.68 269.358 1429.75 273.284 1427.96 277.21V289.345C1429.39 292.557 1432.61 295.77 1436.9 298.625C1451.55 307.905 1476.92 308.262 1493 299.696C1509.09 291.13 1510.16 276.496 1495.51 267.216ZM1480.85 291.843C1472.28 296.483 1458.34 296.483 1450.48 291.487C1442.61 286.49 1442.97 278.638 1451.91 273.998C1460.48 269.358 1474.42 269.358 1482.28 274.355C1490.15 279.351 1489.43 287.204 1480.85 291.843Z" fill="white"/>
<path d="M1465.13 302.908C1454.4 302.908 1443.33 300.409 1435.46 295.413C1427.96 290.773 1424.03 284.705 1424.38 278.281C1424.74 271.142 1429.39 265.075 1438.32 260.435C1455.12 251.512 1480.85 251.869 1496.22 261.506C1503.72 266.145 1507.65 272.213 1507.3 278.638C1506.94 285.776 1502.29 291.843 1493.36 296.483C1485.5 300.766 1475.49 302.908 1465.13 302.908ZM1466.56 257.223C1456.91 257.223 1447.26 259.364 1439.75 263.29C1432.6 267.216 1427.96 272.927 1427.96 278.638C1427.96 283.991 1431.17 288.988 1437.61 292.914C1451.9 301.837 1476.2 302.194 1492.29 293.628C1499.79 289.702 1504.08 283.991 1504.44 278.281C1504.44 272.927 1501.22 267.93 1494.79 264.004C1486.93 259.721 1476.92 257.223 1466.56 257.223ZM1465.48 292.557C1459.41 292.557 1453.33 291.13 1449.04 288.631C1444.75 286.133 1442.61 282.564 1442.61 278.638C1442.61 274.711 1445.47 270.785 1450.47 268.287C1459.76 263.29 1474.06 263.647 1482.64 269.001C1486.93 271.499 1489.07 275.068 1489.07 278.994C1489.07 282.921 1486.21 286.847 1481.21 289.345C1476.92 291.487 1471.2 292.557 1465.48 292.557ZM1466.2 267.93C1461.19 267.93 1456.19 269.001 1452.26 271.142C1448.33 273.284 1446.18 275.782 1446.18 278.638C1446.18 281.136 1447.97 283.634 1450.83 285.776C1458.34 290.416 1471.2 290.773 1479.42 286.133C1483.35 283.991 1485.5 281.493 1485.5 278.638C1485.5 276.139 1483.71 273.641 1480.85 271.499C1476.92 269.001 1471.56 267.93 1466.2 267.93Z" fill="#16110D"/>
<path d="M1469.06 266.859V279.708L1451.91 281.85L1447.97 284.705L1444.4 279.351L1448.69 270.429L1463.7 266.859H1469.06Z" fill="#16110D"/>
<path d="M1458.34 300.767V314.687L1486.93 311.831L1504.08 299.696L1506.23 284.349L1503.01 286.49L1492.65 295.056L1476.21 301.481L1458.34 300.767Z" fill="#16110D"/>
<path fill-rule="evenodd" clip-rule="evenodd" d="M1550.9 386.538L1544.64 393.856L1559.72 391.63L1550.9 386.538ZM1570.85 374.327L1553.32 384.446L1562.74 389.885L1570.85 374.327ZM1557.97 378.523L1572.27 370.265L1567.46 367.488L1557.97 378.523ZM1578.57 354.594L1569.48 365.164L1574.29 367.942L1581.18 354.938L1579.17 354.709L1578.57 354.594ZM1495.61 395.089L1502.62 399.139L1504.85 394.843L1503.04 394.962C1500.63 394.965 1498.22 394.969 1495.61 395.089ZM1496.63 390.563L1525.44 374.162C1524.23 373.932 1522.42 373.819 1520.22 373.474C1516.79 375.451 1505.3 382.777 1496.63 390.563ZM1511.38 372.791C1509.36 374.186 1501.7 379.302 1497.05 386.85C1504.11 380.923 1512.37 375.69 1516.4 373.132C1514.59 373.018 1512.98 372.789 1511.38 372.791ZM1481.58 386.989L1488.79 391.155L1488.79 390.458C1488.8 388.834 1489.21 387.209 1489.42 385.469L1481.58 386.989ZM1501.33 372.806C1499.92 373.852 1496.08 378.614 1494.04 385.578C1497.88 379.424 1503.73 374.891 1506.96 372.566C1505.15 372.684 1503.14 372.687 1501.33 372.806ZM1520.05 366.398L1513.2 370.352C1515.41 370.465 1517.62 370.578 1519.82 370.922C1525.45 371.378 1527.46 371.839 1528.26 372.302L1529.27 371.721L1520.05 366.398ZM1494.58 354.022L1490.32 363.193L1504.4 359.692L1494.58 354.022ZM1521.52 350.966L1498.2 352.624L1508.43 358.526L1521.52 350.966ZM1528.15 350.376L1517.48 356.54L1542.62 350.355L1542.43 349.311L1528.15 350.376ZM1544.03 396.525L1550.04 399.997L1550.03 401.621L1527.06 414.88L1524.25 414.885L1454.3 374.5L1454.11 372.992L1477.07 359.732L1479.89 359.728L1485.9 363.2L1491.38 351.474L1493.19 350.66L1543.84 346.872L1546.05 347.913L1548.62 358.002L1544.4 358.357L1543.01 352.906L1488.9 366.328L1480.58 384.554L1490.44 382.799C1493.08 374.558 1498.53 370.954 1498.93 370.721L1500.34 370.371C1502.55 370.252 1505.16 370.132 1507.57 370.128L1518.45 363.848L1521.26 363.844L1542.51 376.109L1542.5 377.734L1531.82 383.898C1531.82 385.29 1531.61 386.799 1531.6 388.423L1531 389.236C1530.59 389.469 1524.35 392.61 1509.68 394.14L1506.84 399.481L1539.21 394.444L1574.56 353.904L1567.13 352.639L1568.34 350.316L1584.21 352.961L1585.61 354.467L1565.34 392.549L1563.93 393.364L1544.03 396.525Z" fill="#0066FF"/>
<path d="M335.882 423.078C336.941 423.782 336.941 424.486 335.882 425.19C334.823 425.894 333.411 425.894 332.353 425.19C331.294 424.486 331.294 423.782 332.353 423.078C333.411 422.725 334.823 422.725 335.882 423.078Z" fill="#16110D"/>
<path d="M344.706 418.149C345.765 418.853 345.765 419.557 344.706 420.262C343.647 420.966 342.236 420.966 341.177 420.262C340.118 419.557 340.118 418.853 341.177 418.149C342.236 417.445 344 417.445 344.706 418.149Z" fill="#16110D"/>
<path d="M352.117 415.332C353.481 415.332 354.588 414.702 354.588 413.924C354.588 413.146 353.481 412.516 352.117 412.516C350.753 412.516 349.646 413.146 349.646 413.924C349.646 414.702 350.753 415.332 352.117 415.332Z" fill="#16110D"/>
<path d="M360.941 410.051C362.306 410.051 363.412 409.42 363.412 408.643C363.412 407.865 362.306 407.234 360.941 407.234C359.577 407.234 358.471 407.865 358.471 408.643C358.471 409.42 359.577 410.051 360.941 410.051Z" fill="#16110D"/>
<path d="M371.527 402.657C372.585 403.361 372.585 404.065 371.527 404.769C370.468 405.474 369.056 405.474 367.997 404.769C366.938 404.065 366.938 403.361 367.997 402.657C369.056 401.953 370.821 401.953 371.527 402.657Z" fill="#16110D"/>
<path d="M380.704 397.376C381.763 398.08 381.763 398.785 380.704 399.489C379.646 400.193 378.234 400.193 377.175 399.489C376.116 398.785 376.116 398.08 377.175 397.376C378.234 397.024 379.646 397.024 380.704 397.376Z" fill="#16110D"/>
<path d="M389.529 392.447C390.587 393.151 390.587 393.855 389.529 394.559C388.47 395.264 387.058 395.264 385.999 394.559C384.94 393.855 384.94 393.151 385.999 392.447C387.058 391.743 388.47 391.743 389.529 392.447Z" fill="#16110D"/>
<path d="M398.351 387.167C399.41 387.871 399.41 388.575 398.351 389.279C397.292 389.983 395.88 389.983 394.821 389.279C393.763 388.575 393.763 387.871 394.821 387.167C395.88 386.463 397.645 386.463 398.351 387.167Z" fill="#16110D"/>
<path d="M407.527 381.886C408.585 382.59 408.585 383.294 407.527 383.998C406.468 384.703 405.056 384.703 403.997 383.998C402.938 383.294 402.938 382.59 403.997 381.886C405.056 381.182 406.468 381.534 407.527 381.886Z" fill="#16110D"/>
<path d="M325.293 420.261C326.657 420.261 327.763 419.63 327.763 418.853C327.763 418.075 326.657 417.444 325.293 417.444C323.928 417.444 322.822 418.075 322.822 418.853C322.822 419.63 323.928 420.261 325.293 420.261Z" fill="#16110D"/>
<path d="M335.882 412.867C336.941 413.571 336.941 414.275 335.882 414.979C334.823 415.683 333.411 415.683 332.353 414.979C331.294 414.275 331.294 413.571 332.353 412.867C333.411 412.163 334.823 412.163 335.882 412.867Z" fill="#16110D"/>
<path d="M344.706 407.586C345.765 408.29 345.765 408.995 344.706 409.699C343.647 410.403 342.236 410.403 341.177 409.699C340.118 408.995 340.118 408.29 341.177 407.586C342.236 407.234 344 407.234 344.706 407.586Z" fill="#16110D"/>
<path d="M353.88 402.657C354.939 403.361 354.939 404.065 353.88 404.769C352.821 405.474 351.41 405.474 350.351 404.769C349.292 404.065 349.292 403.361 350.351 402.657C351.41 401.953 352.821 401.953 353.88 402.657Z" fill="#16110D"/>
<path d="M362.704 397.376C363.763 398.08 363.763 398.785 362.704 399.489C361.646 400.193 360.234 400.193 359.175 399.489C358.116 398.785 358.116 398.08 359.175 397.376C360.234 397.024 361.646 397.024 362.704 397.376Z" fill="#16110D"/>
<path d="M371.527 392.447C372.585 393.151 372.585 393.855 371.527 394.559C370.468 395.264 369.056 395.264 367.997 394.559C366.938 393.855 366.938 393.151 367.997 392.447C369.056 391.743 370.821 391.743 371.527 392.447Z" fill="#16110D"/>
<path d="M378.939 389.632C380.304 389.632 381.41 389.001 381.41 388.224C381.41 387.446 380.304 386.815 378.939 386.815C377.575 386.815 376.469 387.446 376.469 388.224C376.469 389.001 377.575 389.632 378.939 389.632Z" fill="#16110D"/>
<path d="M389.529 381.886C390.587 382.59 390.587 383.294 389.529 383.998C388.47 384.703 387.058 384.703 385.999 383.998C384.94 383.294 384.94 382.59 385.999 381.886C387.058 381.534 388.47 381.534 389.529 381.886Z" fill="#16110D"/>
<path d="M396.588 379.069C397.952 379.069 399.058 378.439 399.058 377.661C399.058 376.883 397.952 376.253 396.588 376.253C395.223 376.253 394.117 376.883 394.117 377.661C394.117 378.439 395.223 379.069 396.588 379.069Z" fill="#16110D"/>
<path d="M316.469 415.332C317.833 415.332 318.939 414.702 318.939 413.924C318.939 413.146 317.833 412.516 316.469 412.516C315.104 412.516 313.998 413.146 313.998 413.924C313.998 414.702 315.104 415.332 316.469 415.332Z" fill="#16110D"/>
<path d="M327.058 407.586C328.117 408.29 328.117 408.995 327.058 409.699C325.999 410.403 324.587 410.403 323.528 409.699C322.47 408.995 322.47 408.29 323.528 407.586C324.587 407.234 325.999 407.234 327.058 407.586Z" fill="#16110D"/>
<path d="M335.882 402.657C336.941 403.361 336.941 404.065 335.882 404.769C334.823 405.474 333.411 405.474 332.353 404.769C331.294 404.065 331.294 403.361 332.353 402.657C333.411 401.953 334.823 401.953 335.882 402.657Z" fill="#16110D"/>
<path d="M343.293 399.841C344.657 399.841 345.763 399.21 345.763 398.433C345.763 397.655 344.657 397.024 343.293 397.024C341.928 397.024 340.822 397.655 340.822 398.433C340.822 399.21 341.928 399.841 343.293 399.841Z" fill="#16110D"/>
<path d="M352.117 394.561C353.481 394.561 354.588 393.93 354.588 393.152C354.588 392.375 353.481 391.744 352.117 391.744C350.753 391.744 349.646 392.375 349.646 393.152C349.646 393.93 350.753 394.561 352.117 394.561Z" fill="#16110D"/>
<path d="M360.941 389.631C362.306 389.631 363.412 389 363.412 388.223C363.412 387.445 362.306 386.814 360.941 386.814C359.577 386.814 358.471 387.445 358.471 388.223C358.471 389 359.577 389.631 360.941 389.631Z" fill="#16110D"/>
<path d="M371.527 381.886C372.585 382.59 372.585 383.294 371.527 383.998C370.468 384.703 369.056 384.703 367.997 383.998C366.938 383.294 366.938 382.59 367.997 381.886C369.056 381.534 370.821 381.534 371.527 381.886Z" fill="#16110D"/>
<path d="M380.704 376.957C381.763 377.661 381.763 378.365 380.704 379.069C379.646 379.773 378.234 379.773 377.175 379.069C376.116 378.365 376.116 377.661 377.175 376.957C378.234 376.253 379.646 376.253 380.704 376.957Z" fill="#16110D"/>
<path d="M389.529 371.675C390.587 372.379 390.587 373.083 389.529 373.788C388.47 374.492 387.058 374.492 385.999 373.788C384.94 373.083 384.94 372.379 385.999 371.675C387.058 371.323 388.47 371.323 389.529 371.675Z" fill="#16110D"/>
<path d="M307.295 410.051C308.659 410.051 309.765 409.42 309.765 408.643C309.765 407.865 308.659 407.234 307.295 407.234C305.93 407.234 304.824 407.865 304.824 408.643C304.824 409.42 305.93 410.051 307.295 410.051Z" fill="#16110D"/>
<path d="M316.469 405.122C317.833 405.122 318.939 404.492 318.939 403.714C318.939 402.936 317.833 402.306 316.469 402.306C315.104 402.306 313.998 402.936 313.998 403.714C313.998 404.492 315.104 405.122 316.469 405.122Z" fill="#16110D"/>
<path d="M327.058 397.376C328.117 398.08 328.117 398.785 327.058 399.489C325.999 400.193 324.587 400.193 323.528 399.489C322.47 398.785 322.47 398.08 323.528 397.376C324.587 397.024 325.999 397.024 327.058 397.376Z" fill="#16110D"/>
<path d="M335.882 392.447C336.941 393.151 336.941 393.855 335.882 394.559C334.823 395.264 333.411 395.264 332.353 394.559C331.294 393.855 331.294 393.151 332.353 392.447C333.411 391.743 334.823 391.743 335.882 392.447Z" fill="#16110D"/>
<path d="M344.706 387.167C345.765 387.871 345.765 388.575 344.706 389.279C343.647 389.983 342.236 389.983 341.177 389.279C340.118 388.575 340.118 387.871 341.177 387.167C342.236 386.463 344 386.463 344.706 387.167Z" fill="#16110D"/>
<path d="M352.117 384.349C353.481 384.349 354.588 383.718 354.588 382.94C354.588 382.163 353.481 381.532 352.117 381.532C350.753 381.532 349.646 382.163 349.646 382.94C349.646 383.718 350.753 384.349 352.117 384.349Z" fill="#16110D"/>
<path d="M360.939 379.069C362.304 379.069 363.41 378.439 363.41 377.661C363.41 376.883 362.304 376.253 360.939 376.253C359.575 376.253 358.469 376.883 358.469 377.661C358.469 378.439 359.575 379.069 360.939 379.069Z" fill="#16110D"/>
<path d="M371.527 371.675C372.585 372.379 372.585 373.083 371.527 373.788C370.468 374.492 369.056 374.492 367.997 373.788C366.938 373.083 366.938 372.379 367.997 371.675C369.056 371.323 370.821 371.323 371.527 371.675Z" fill="#16110D"/>
<path d="M378.939 368.859C380.304 368.859 381.41 368.229 381.41 367.451C381.41 366.673 380.304 366.043 378.939 366.043C377.575 366.043 376.469 366.673 376.469 367.451C376.469 368.229 377.575 368.859 378.939 368.859Z" fill="#16110D"/>
<path d="M298.471 405.122C299.835 405.122 300.941 404.492 300.941 403.714C300.941 402.936 299.835 402.306 298.471 402.306C297.106 402.306 296 402.936 296 403.714C296 404.492 297.106 405.122 298.471 405.122Z" fill="#16110D"/>
<path d="M307.295 399.841C308.659 399.841 309.765 399.21 309.765 398.433C309.765 397.655 308.659 397.024 307.295 397.024C305.93 397.024 304.824 397.655 304.824 398.433C304.824 399.21 305.93 399.841 307.295 399.841Z" fill="#16110D"/>
<path d="M316.469 394.561C317.833 394.561 318.939 393.93 318.939 393.152C318.939 392.375 317.833 391.744 316.469 391.744C315.104 391.744 313.998 392.375 313.998 393.152C313.998 393.93 315.104 394.561 316.469 394.561Z" fill="#16110D"/>
<path d="M325.293 389.632C326.657 389.632 327.763 389.001 327.763 388.224C327.763 387.446 326.657 386.815 325.293 386.815C323.928 386.815 322.822 387.446 322.822 388.224C322.822 389.001 323.928 389.632 325.293 389.632Z" fill="#16110D"/>
<path d="M335.882 381.886C336.941 382.59 336.941 383.294 335.882 383.998C334.823 384.703 333.411 384.703 332.353 383.998C331.294 383.294 331.294 382.59 332.353 381.886C333.411 381.534 334.823 381.534 335.882 381.886Z" fill="#16110D"/>
<path d="M344.706 376.957C345.765 377.661 345.765 378.365 344.706 379.069C343.647 379.773 342.236 379.773 341.177 379.069C340.118 378.365 340.118 377.661 341.177 376.957C342.236 376.253 344 376.253 344.706 376.957Z" fill="#16110D"/>
<path d="M353.88 371.675C354.939 372.379 354.939 373.083 353.88 373.788C352.821 374.492 351.41 374.492 350.351 373.788C349.292 373.083 349.292 372.379 350.351 371.675C351.41 371.323 352.821 371.323 353.88 371.675Z" fill="#16110D"/>
<path d="M362.704 366.394C363.763 367.098 363.763 367.802 362.704 368.506C361.646 369.21 360.234 369.21 359.175 368.506C358.116 367.802 358.116 367.098 359.175 366.394C360.234 366.042 361.646 366.042 362.704 366.394Z" fill="#16110D"/>
<path d="M371.527 361.466C372.585 362.17 372.585 362.874 371.527 363.578C370.468 364.282 369.056 364.282 367.997 363.578C366.938 362.874 366.938 362.17 367.997 361.466C369.056 360.761 370.821 360.761 371.527 361.466Z" fill="#16110D"/>
<path d="M298.471 394.561C299.835 394.561 300.941 393.93 300.941 393.152C300.941 392.375 299.835 391.744 298.471 391.744C297.106 391.744 296 392.375 296 393.152C296 393.93 297.106 394.561 298.471 394.561Z" fill="#16110D"/>
<path d="M305.527 387.167C306.586 386.463 307.998 386.463 309.057 387.167C310.116 387.871 310.116 388.575 309.057 389.279C307.998 389.983 306.586 389.983 305.527 389.279C304.822 388.575 304.822 387.519 305.527 387.167C306.586 386.463 304.822 387.519 305.527 387.167Z" fill="#16110D"/>
<path d="M317.884 381.886C318.943 382.59 318.943 383.294 317.884 383.998C316.825 384.702 315.413 384.702 314.355 383.998C313.649 383.294 317.178 381.534 317.884 381.886Z" fill="#16110D"/>
<path d="M327.057 376.957C328.116 377.661 328.116 378.365 327.057 379.07C325.998 379.774 324.587 379.774 323.528 379.07C322.469 378.365 325.998 376.253 327.057 376.957Z" fill="#16110D"/>
<path d="M335.881 371.676C336.939 372.38 336.939 373.084 335.881 373.788C334.822 374.492 333.41 374.492 332.351 373.788C331.645 373.084 334.822 370.972 335.881 371.676Z" fill="#16110D"/>
<path d="M344.704 366.394C345.763 367.098 345.763 367.802 344.704 368.506C343.645 369.21 342.234 369.21 341.175 368.506C340.469 367.802 343.998 366.042 344.704 366.394Z" fill="#16110D"/>
<path d="M353.88 361.467C354.938 362.171 354.938 362.875 353.88 363.579C352.821 364.283 351.409 364.283 350.35 363.579C349.291 362.875 352.821 360.763 353.88 361.467Z" fill="#16110D"/>
<path d="M362.705 356.185C363.764 356.889 363.764 357.593 362.705 358.297C361.646 359.001 360.234 359.001 359.176 358.297C358.47 357.593 361.646 355.833 362.705 356.185Z" fill="#16110D"/>
<path d="M399.058 479.055C400.117 479.76 400.117 480.464 399.058 481.168C397.999 481.872 396.587 481.872 395.528 481.168C394.47 480.464 394.47 479.76 395.528 479.055C396.587 478.351 397.999 478.351 399.058 479.055Z" fill="#16110D"/>
<path d="M407.88 473.775C408.939 474.479 408.939 475.183 407.88 475.887C406.821 476.591 405.41 476.591 404.351 475.887C403.292 475.183 403.292 474.479 404.351 473.775C405.41 473.423 406.821 473.423 407.88 473.775Z" fill="#16110D"/>
<path d="M416.7 468.845C417.759 469.55 417.759 470.254 416.7 470.958C415.642 471.662 414.23 471.662 413.171 470.958C412.112 470.254 412.112 469.55 413.171 468.845C414.23 468.141 415.642 468.141 416.7 468.845Z" fill="#16110D"/>
<path d="M425.527 463.565C426.585 464.269 426.585 464.973 425.527 465.678C424.468 466.382 423.056 466.382 421.997 465.678C420.938 464.973 420.938 464.269 421.997 463.565C423.056 462.861 424.821 462.861 425.527 463.565Z" fill="#16110D"/>
<path d="M434.704 458.285C435.763 458.989 435.763 459.693 434.704 460.397C433.645 461.101 432.234 461.101 431.175 460.397C430.116 459.693 430.116 458.989 431.175 458.285C432.234 457.932 433.645 457.932 434.704 458.285Z" fill="#16110D"/>
<path d="M441.76 455.467C443.124 455.467 444.23 454.836 444.23 454.059C444.23 453.281 443.124 452.65 441.76 452.65C440.395 452.65 439.289 453.281 439.289 454.059C439.289 454.836 440.395 455.467 441.76 455.467Z" fill="#16110D"/>
<path d="M452.349 448.075C453.408 448.779 453.408 449.483 452.349 450.187C451.29 450.891 449.878 450.891 448.819 450.187C447.761 449.483 447.761 448.779 448.819 448.075C449.878 447.723 451.643 447.723 452.349 448.075Z" fill="#16110D"/>
<path d="M459.762 445.257C461.126 445.257 462.232 444.626 462.232 443.849C462.232 443.071 461.126 442.44 459.762 442.44C458.397 442.44 457.291 443.071 457.291 443.849C457.291 444.626 458.397 445.257 459.762 445.257Z" fill="#16110D"/>
<path d="M468.584 440.328C469.948 440.328 471.054 439.698 471.054 438.92C471.054 438.142 469.948 437.512 468.584 437.512C467.219 437.512 466.113 438.142 466.113 438.92C466.113 439.698 467.219 440.328 468.584 440.328Z" fill="#16110D"/>
<path d="M477.76 435.048C479.124 435.048 480.23 434.417 480.23 433.64C480.23 432.862 479.124 432.231 477.76 432.231C476.395 432.231 475.289 432.862 475.289 433.64C475.289 434.417 476.395 435.048 477.76 435.048Z" fill="#16110D"/>
<path d="M388.113 476.239C389.478 476.239 390.584 475.609 390.584 474.831C390.584 474.053 389.478 473.423 388.113 473.423C386.749 473.423 385.643 474.053 385.643 474.831C385.643 475.609 386.749 476.239 388.113 476.239Z" fill="#16110D"/>
<path d="M399.058 468.845C400.117 469.55 400.117 470.254 399.058 470.958C397.999 471.662 396.587 471.662 395.528 470.958C394.47 470.254 394.47 469.55 395.528 468.845C396.587 468.141 397.999 468.141 399.058 468.845Z" fill="#16110D"/>
<path d="M406.117 466.027C407.481 466.027 408.588 465.397 408.588 464.619C408.588 463.841 407.481 463.211 406.117 463.211C404.753 463.211 403.646 463.841 403.646 464.619C403.646 465.397 404.753 466.027 406.117 466.027Z" fill="#16110D"/>
<path d="M414.937 460.748C416.302 460.748 417.408 460.118 417.408 459.34C417.408 458.562 416.302 457.932 414.937 457.932C413.573 457.932 412.467 458.562 412.467 459.34C412.467 460.118 413.573 460.748 414.937 460.748Z" fill="#16110D"/>
<path d="M424.117 455.467C425.481 455.467 426.588 454.836 426.588 454.059C426.588 453.281 425.481 452.65 424.117 452.65C422.753 452.65 421.646 453.281 421.646 454.059C421.646 454.836 422.753 455.467 424.117 455.467Z" fill="#16110D"/>
<path d="M434.704 448.075C435.763 448.779 435.763 449.483 434.704 450.187C433.645 450.891 432.234 450.891 431.175 450.187C430.116 449.483 430.116 448.779 431.175 448.075C432.234 447.723 433.645 447.723 434.704 448.075Z" fill="#16110D"/>
<path d="M443.525 442.792C444.583 443.496 444.583 444.201 443.525 444.905C442.466 445.609 441.054 445.609 439.995 444.905C438.936 444.201 438.936 443.496 439.995 442.792C441.054 442.44 442.466 442.44 443.525 442.792Z" fill="#16110D"/>
<path d="M452.349 437.863C453.408 438.567 453.408 439.271 452.349 439.975C451.29 440.68 449.878 440.68 448.819 439.975C447.761 439.271 447.761 438.567 448.819 437.863C449.878 437.159 451.643 437.159 452.349 437.863Z" fill="#16110D"/>
<path d="M459.762 435.048C461.126 435.048 462.232 434.417 462.232 433.64C462.232 432.862 461.126 432.231 459.762 432.231C458.397 432.231 457.291 432.862 457.291 433.64C457.291 434.417 458.397 435.048 459.762 435.048Z" fill="#16110D"/>
<path d="M468.584 429.767C469.948 429.767 471.054 429.136 471.054 428.358C471.054 427.581 469.948 426.95 468.584 426.95C467.219 426.95 466.113 427.581 466.113 428.358C466.113 429.136 467.219 429.767 468.584 429.767Z" fill="#16110D"/>
<path d="M477.76 424.838C479.124 424.838 480.23 424.208 480.23 423.43C480.23 422.652 479.124 422.021 477.76 422.021C476.395 422.021 475.289 422.652 475.289 423.43C475.289 424.208 476.395 424.838 477.76 424.838Z" fill="#16110D"/>
<path d="M381.056 468.845C382.115 469.55 382.115 470.254 381.056 470.958C379.997 471.662 378.585 471.662 377.527 470.958C376.468 470.254 376.468 469.55 377.527 468.845C378.585 468.141 379.997 468.141 381.056 468.845Z" fill="#16110D"/>
<path d="M389.88 463.565C390.939 464.269 390.939 464.973 389.88 465.678C388.821 466.382 387.41 466.382 386.351 465.678C385.292 464.973 385.292 464.269 386.351 463.565C387.41 462.861 389.174 462.861 389.88 463.565Z" fill="#16110D"/>
<path d="M399.058 458.285C400.117 458.989 400.117 459.693 399.058 460.397C397.999 461.101 396.587 461.101 395.528 460.397C394.47 459.693 394.47 458.989 395.528 458.285C396.587 457.932 397.999 457.932 399.058 458.285Z" fill="#16110D"/>
<path d="M407.88 453.355C408.939 454.059 408.939 454.763 407.88 455.468C406.821 456.172 405.41 456.172 404.351 455.468C403.292 454.763 403.292 454.059 404.351 453.355C405.41 452.651 406.821 452.651 407.88 453.355Z" fill="#16110D"/>
<path d="M414.937 450.538C416.302 450.538 417.408 449.908 417.408 449.13C417.408 448.352 416.302 447.722 414.937 447.722C413.573 447.722 412.467 448.352 412.467 449.13C412.467 449.908 413.573 450.538 414.937 450.538Z" fill="#16110D"/>
<path d="M425.527 442.792C426.585 443.496 426.585 444.201 425.527 444.905C424.468 445.609 423.056 445.609 421.997 444.905C420.938 444.201 420.938 443.496 421.997 442.792C423.056 442.44 424.821 442.44 425.527 442.792Z" fill="#16110D"/>
<path d="M434.704 437.863C435.763 438.567 435.763 439.271 434.704 439.975C433.645 440.68 432.234 440.68 431.175 439.975C430.116 439.271 430.116 438.567 431.175 437.863C432.234 437.159 433.645 437.159 434.704 437.863Z" fill="#16110D"/>
<path d="M441.76 435.048C443.124 435.048 444.23 434.417 444.23 433.64C444.23 432.862 443.124 432.231 441.76 432.231C440.395 432.231 439.289 432.862 439.289 433.64C439.289 434.417 440.395 435.048 441.76 435.048Z" fill="#16110D"/>
<path d="M452.349 427.654C453.408 428.358 453.408 429.062 452.349 429.766C451.29 430.471 449.878 430.471 448.819 429.766C447.761 429.062 447.761 428.358 448.819 427.654C449.878 426.95 451.643 426.95 452.349 427.654Z" fill="#16110D"/>
<path d="M459.762 424.838C461.126 424.838 462.232 424.208 462.232 423.43C462.232 422.652 461.126 422.021 459.762 422.021C458.397 422.021 457.291 422.652 457.291 423.43C457.291 424.208 458.397 424.838 459.762 424.838Z" fill="#16110D"/>
<path d="M470.351 417.092C471.41 417.796 471.41 418.5 470.351 419.205C469.292 419.909 467.88 419.909 466.821 419.205C465.763 418.5 465.763 417.796 466.821 417.092C467.88 416.74 469.292 416.74 470.351 417.092Z" fill="#16110D"/>
<path d="M372.234 463.565C373.292 464.269 373.292 464.973 372.234 465.678C371.175 466.382 369.763 466.382 368.704 465.678C367.645 464.973 367.645 464.269 368.704 463.565C369.763 462.861 371.175 462.861 372.234 463.565Z" fill="#16110D"/>
<path d="M381.056 458.285C382.115 458.989 382.115 459.693 381.056 460.397C379.997 461.101 378.585 461.101 377.527 460.397C376.468 459.693 376.468 458.989 377.527 458.285C378.585 457.932 379.997 457.932 381.056 458.285Z" fill="#16110D"/>
<path d="M388.117 455.467C389.481 455.467 390.588 454.836 390.588 454.059C390.588 453.281 389.481 452.65 388.117 452.65C386.753 452.65 385.646 453.281 385.646 454.059C385.646 454.836 386.753 455.467 388.117 455.467Z" fill="#16110D"/>
<path d="M399.058 448.075C400.117 448.779 400.117 449.483 399.058 450.187C397.999 450.891 396.587 450.891 395.528 450.187C394.47 449.483 394.47 448.779 395.528 448.075C396.587 447.723 397.999 447.723 399.058 448.075Z" fill="#16110D"/>
<path d="M406.117 445.257C407.481 445.257 408.588 444.626 408.588 443.849C408.588 443.071 407.481 442.44 406.117 442.44C404.753 442.44 403.646 443.071 403.646 443.849C403.646 444.626 404.753 445.257 406.117 445.257Z" fill="#16110D"/>
<path d="M416.702 437.863C417.761 438.567 417.761 439.271 416.702 439.975C415.644 440.68 414.232 440.68 413.173 439.975C412.114 439.271 412.114 438.567 413.173 437.863C414.232 437.159 415.644 437.159 416.702 437.863Z" fill="#16110D"/>
<path d="M425.527 432.582C426.585 433.287 426.585 433.991 425.527 434.695C424.468 435.399 423.056 435.399 421.997 434.695C420.938 433.991 420.938 433.287 421.997 432.582C423.056 432.23 424.821 432.23 425.527 432.582Z" fill="#16110D"/>
<path d="M434.704 427.654C435.763 428.358 435.763 429.062 434.704 429.766C433.645 430.471 432.234 430.471 431.175 429.766C430.116 429.062 430.116 428.358 431.175 427.654C432.234 426.95 433.645 426.95 434.704 427.654Z" fill="#16110D"/>
<path d="M443.525 422.373C444.583 423.077 444.583 423.781 443.525 424.485C442.466 425.189 441.054 425.189 439.995 424.485C438.936 423.781 438.936 423.077 439.995 422.373C441.054 421.669 442.466 421.669 443.525 422.373Z" fill="#16110D"/>
<path d="M452.349 417.092C453.408 417.796 453.408 418.5 452.349 419.205C451.29 419.909 449.878 419.909 448.819 419.205C447.761 418.5 447.761 417.796 448.819 417.092C449.878 416.74 451.643 416.74 452.349 417.092Z" fill="#16110D"/>
<path d="M459.762 414.628C461.126 414.628 462.232 413.998 462.232 413.22C462.232 412.442 461.126 411.812 459.762 411.812C458.397 411.812 457.291 412.442 457.291 413.22C457.291 413.998 458.397 414.628 459.762 414.628Z" fill="#16110D"/>
<path d="M363.058 458.285C364.117 458.989 364.117 459.693 363.058 460.397C361.999 461.101 360.587 461.101 359.528 460.397C358.47 459.693 358.47 458.989 359.528 458.285C360.587 457.932 362.352 457.932 363.058 458.285Z" fill="#16110D"/>
<path d="M372.234 453.355C373.292 454.059 373.292 454.763 372.234 455.468C371.175 456.172 369.763 456.172 368.704 455.468C367.645 454.763 367.645 454.059 368.704 453.355C369.763 452.651 371.175 452.651 372.234 453.355Z" fill="#16110D"/>
<path d="M381.056 448.075C382.115 448.779 382.115 449.483 381.056 450.187C379.997 450.891 378.585 450.891 377.527 450.187C376.468 449.483 376.468 448.779 377.527 448.075C378.585 447.723 379.997 447.723 381.056 448.075Z" fill="#16110D"/>
<path d="M389.88 442.792C390.939 443.496 390.939 444.201 389.88 444.905C388.821 445.609 387.41 445.609 386.351 444.905C385.292 444.201 385.292 443.496 386.351 442.792C387.41 442.44 389.174 442.44 389.88 442.792Z" fill="#16110D"/>
<path d="M399.058 437.863C400.117 438.567 400.117 439.271 399.058 439.975C397.999 440.68 396.587 440.68 395.528 439.975C394.47 439.271 394.47 438.567 395.528 437.863C396.587 437.159 397.999 437.159 399.058 437.863Z" fill="#16110D"/>
<path d="M406.117 435.048C407.481 435.048 408.588 434.417 408.588 433.64C408.588 432.862 407.481 432.231 406.117 432.231C404.753 432.231 403.646 432.862 403.646 433.64C403.646 434.417 404.753 435.048 406.117 435.048Z" fill="#16110D"/>
<path d="M414.937 429.767C416.302 429.767 417.408 429.136 417.408 428.358C417.408 427.581 416.302 426.95 414.937 426.95C413.573 426.95 412.467 427.581 412.467 428.358C412.467 429.136 413.573 429.767 414.937 429.767Z" fill="#16110D"/>
<path d="M425.527 422.373C426.585 423.077 426.585 423.781 425.527 424.485C424.468 425.189 423.056 425.189 421.997 424.485C420.938 423.781 420.938 423.077 421.997 422.373C423.056 421.669 424.821 421.669 425.527 422.373Z" fill="#16110D"/>
<path d="M434.704 417.092C435.763 417.796 435.763 418.5 434.704 419.205C433.645 419.909 432.234 419.909 431.175 419.205C430.116 418.5 430.116 417.796 431.175 417.092C432.234 416.74 433.645 416.74 434.704 417.092Z" fill="#16110D"/>
<path d="M443.525 412.163C444.583 412.867 444.583 413.571 443.525 414.275C442.466 414.979 441.054 414.979 439.995 414.275C438.936 413.571 438.936 412.867 439.995 412.163C441.054 411.459 442.466 411.459 443.525 412.163Z" fill="#16110D"/>
<path d="M452.349 406.882C453.408 407.586 453.408 408.29 452.349 408.995C451.29 409.699 449.878 409.699 448.819 408.995C447.761 408.29 447.761 407.586 448.819 406.882C449.878 406.53 451.643 406.53 452.349 406.882Z" fill="#16110D"/>
<path d="M354.234 453.355C355.292 454.059 355.292 454.763 354.234 455.468C353.175 456.172 351.763 456.172 350.704 455.468C349.645 454.763 349.645 454.059 350.704 453.355C351.763 452.651 353.175 452.651 354.234 453.355Z" fill="#16110D"/>
<path d="M363.058 448.073C364.117 448.777 364.117 449.481 363.058 450.185C361.999 450.89 360.587 450.89 359.528 450.185C358.47 449.481 358.47 448.777 359.528 448.073C360.587 447.369 361.999 447.369 363.058 448.073Z" fill="#16110D"/>
<path d="M371.88 442.792C372.939 443.496 372.939 444.201 371.88 444.905C370.821 445.609 369.41 445.609 368.351 444.905C367.292 444.201 367.292 443.496 368.351 442.792C369.41 442.44 371.174 442.44 371.88 442.792Z" fill="#16110D"/>
<path d="M381.056 437.863C382.115 438.567 382.115 439.271 381.056 439.975C379.997 440.68 378.585 440.68 377.527 439.975C376.468 439.271 376.468 438.567 377.527 437.863C378.585 437.159 379.997 437.159 381.056 437.863Z" fill="#16110D"/>
<path d="M389.88 432.582C390.939 433.287 390.939 433.991 389.88 434.695C388.821 435.399 387.41 435.399 386.351 434.695C385.292 433.991 385.292 433.287 386.351 432.582C387.41 432.23 388.821 432.23 389.88 432.582Z" fill="#16110D"/>
<path d="M396.939 429.767C398.304 429.767 399.41 429.136 399.41 428.358C399.41 427.581 398.304 426.95 396.939 426.95C395.575 426.95 394.469 427.581 394.469 428.358C394.469 429.136 395.575 429.767 396.939 429.767Z" fill="#16110D"/>
<path d="M406.117 424.838C407.481 424.838 408.588 424.208 408.588 423.43C408.588 422.652 407.481 422.021 406.117 422.021C404.753 422.021 403.646 422.652 403.646 423.43C403.646 424.208 404.753 424.838 406.117 424.838Z" fill="#16110D"/>
<path d="M414.937 419.556C416.302 419.556 417.408 418.925 417.408 418.148C417.408 417.37 416.302 416.739 414.937 416.739C413.573 416.739 412.467 417.37 412.467 418.148C412.467 418.925 413.573 419.556 414.937 419.556Z" fill="#16110D"/>
<path d="M425.527 412.163C426.585 412.867 426.585 413.571 425.527 414.275C424.468 414.979 423.056 414.979 421.997 414.275C420.938 413.571 420.938 412.867 421.997 412.163C423.056 411.459 424.821 411.459 425.527 412.163Z" fill="#16110D"/>
<path d="M434.704 406.883C435.763 407.587 435.763 408.291 434.704 408.995C433.645 409.699 432.234 409.699 431.175 408.995C430.116 408.291 430.116 407.587 431.175 406.883C432.234 406.178 433.645 406.178 434.704 406.883Z" fill="#16110D"/>
<path d="M443.525 401.602C444.583 402.306 444.583 403.01 443.525 403.714C442.466 404.418 441.054 404.418 439.995 403.714C438.936 403.01 438.936 402.306 439.995 401.602C441.054 401.25 442.466 401.25 443.525 401.602Z" fill="#16110D"/>
<path d="M354.233 442.793C355.292 443.497 355.292 444.201 354.233 444.906C353.174 445.61 351.762 445.61 350.704 444.906C349.645 444.201 353.174 442.441 354.233 442.793Z" fill="#16110D"/>
<path d="M361.293 440.328C362.657 440.328 363.763 439.698 363.763 438.92C363.763 438.142 362.657 437.512 361.293 437.512C359.928 437.512 358.822 438.142 358.822 438.92C358.822 439.698 359.928 440.328 361.293 440.328Z" fill="#16110D"/>
<path d="M371.88 432.582C372.939 433.287 372.939 433.991 371.88 434.695C370.821 435.399 369.41 435.399 368.351 434.695C367.292 433.991 367.292 433.287 368.351 432.582C369.41 432.23 371.174 432.23 371.88 432.582Z" fill="#16110D"/>
<path d="M381.056 427.302C382.115 428.006 382.115 428.71 381.056 429.415C379.997 430.119 378.585 430.119 377.527 429.415C376.468 428.71 376.468 428.006 377.527 427.302C378.585 426.95 379.997 426.95 381.056 427.302Z" fill="#16110D"/>
<path d="M389.88 422.373C390.939 423.077 390.939 423.781 389.88 424.485C388.821 425.189 387.41 425.189 386.351 424.485C385.292 423.781 385.292 423.077 386.351 422.373C387.41 421.669 388.821 421.669 389.88 422.373Z" fill="#16110D"/>
<path d="M398.704 417.092C399.763 417.796 399.763 418.5 398.704 419.205C397.646 419.909 396.234 419.909 395.175 419.205C394.116 418.5 394.116 417.796 395.175 417.092C396.234 416.74 397.998 416.74 398.704 417.092Z" fill="#16110D"/>
<path d="M407.88 412.163C408.939 412.867 408.939 413.571 407.88 414.275C406.821 414.979 405.41 414.979 404.351 414.275C403.292 413.571 403.292 412.867 404.351 412.163C405.41 411.459 406.821 411.459 407.88 412.163Z" fill="#16110D"/>
<path d="M414.937 409.348C416.302 409.348 417.408 408.717 417.408 407.939C417.408 407.162 416.302 406.531 414.937 406.531C413.573 406.531 412.467 407.162 412.467 407.939C412.467 408.717 413.573 409.348 414.937 409.348Z" fill="#16110D"/>
<path d="M425.527 401.602C426.585 402.306 426.585 403.01 425.527 403.714C424.468 404.418 423.056 404.418 421.997 403.714C420.938 403.01 420.938 402.306 421.997 401.602C423.056 401.25 424.821 401.25 425.527 401.602Z" fill="#16110D"/>
<path d="M432.939 399.138C434.304 399.138 435.41 398.507 435.41 397.73C435.41 396.952 434.304 396.321 432.939 396.321C431.575 396.321 430.469 396.952 430.469 397.73C430.469 398.507 431.575 399.138 432.939 399.138Z" fill="#16110D"/>
<path d="M371.88 422.373C372.939 423.077 372.939 423.781 371.88 424.485C370.821 425.189 369.41 425.189 368.351 424.485C367.292 423.781 367.292 423.077 368.351 422.373C369.41 421.669 371.174 421.669 371.88 422.373Z" fill="#16110D"/>
<path d="M379.293 419.556C380.657 419.556 381.763 418.925 381.763 418.148C381.763 417.37 380.657 416.739 379.293 416.739C377.928 416.739 376.822 417.37 376.822 418.148C376.822 418.925 377.928 419.556 379.293 419.556Z" fill="#16110D"/>
<path d="M389.88 412.163C390.939 412.867 390.939 413.571 389.88 414.275C388.821 414.979 387.41 414.979 386.351 414.275C385.292 413.571 385.292 412.867 386.351 412.163C387.41 411.459 388.821 411.459 389.88 412.163Z" fill="#16110D"/>
<path d="M396.939 409.347C398.304 409.347 399.41 408.716 399.41 407.939C399.41 407.161 398.304 406.53 396.939 406.53C395.575 406.53 394.469 407.161 394.469 407.939C394.469 408.716 395.575 409.347 396.939 409.347Z" fill="#16110D"/>
<path d="M406.117 404.066C407.481 404.066 408.588 403.435 408.588 402.657C408.588 401.88 407.481 401.249 406.117 401.249C404.753 401.249 403.646 401.88 403.646 402.657C403.646 403.435 404.753 404.066 406.117 404.066Z" fill="#16110D"/>
<path d="M416.7 396.673C417.759 397.377 417.759 398.081 416.7 398.785C415.642 399.489 414.23 399.489 413.171 398.785C412.112 398.081 412.112 397.377 413.171 396.673C414.23 395.968 415.642 395.968 416.7 396.673Z" fill="#16110D"/>
<path d="M425.527 391.391C426.585 392.095 426.585 392.799 425.527 393.503C424.468 394.207 423.056 394.207 421.997 393.503C420.938 392.799 420.938 392.095 421.997 391.391C423.056 391.039 424.821 391.039 425.527 391.391Z" fill="#16110D"/>
<path d="M352.469 424.838C353.833 424.838 354.939 424.208 354.939 423.43C354.939 422.652 353.833 422.021 352.469 422.021C351.104 422.021 349.998 422.652 349.998 423.43C349.998 424.208 351.104 424.838 352.469 424.838Z" fill="#16110D"/>
<path d="M363.058 417.092C364.117 417.796 364.117 418.5 363.058 419.205C361.999 419.909 360.587 419.909 359.528 419.205C358.47 418.5 358.47 417.796 359.528 417.092C360.587 416.74 361.999 416.74 363.058 417.092Z" fill="#16110D"/>
<path d="M371.88 412.163C372.939 412.867 372.939 413.571 371.88 414.275C370.821 414.979 369.41 414.979 368.351 414.275C367.292 413.571 367.292 412.867 368.351 412.163C369.41 411.459 371.174 411.459 371.88 412.163Z" fill="#16110D"/>
<path d="M381.056 406.883C382.115 407.587 382.115 408.291 381.056 408.995C379.997 409.699 378.585 409.699 377.527 408.995C376.468 408.291 376.468 407.587 377.527 406.883C378.585 406.178 379.997 406.178 381.056 406.883Z" fill="#16110D"/>
<path d="M389.88 401.602C390.939 402.306 390.939 403.01 389.88 403.714C388.821 404.418 387.41 404.418 386.351 403.714C385.292 403.01 385.292 402.306 386.351 401.602C387.41 401.25 388.821 401.25 389.88 401.602Z" fill="#16110D"/>
<path d="M396.939 399.138C398.304 399.138 399.41 398.507 399.41 397.73C399.41 396.952 398.304 396.321 396.939 396.321C395.575 396.321 394.469 396.952 394.469 397.73C394.469 398.507 395.575 399.138 396.939 399.138Z" fill="#16110D"/>
<path d="M406.117 393.856C407.481 393.856 408.588 393.225 408.588 392.447C408.588 391.67 407.481 391.039 406.117 391.039C404.753 391.039 403.646 391.67 403.646 392.447C403.646 393.225 404.753 393.856 406.117 393.856Z" fill="#16110D"/>
<path d="M414.937 388.575C416.302 388.575 417.408 387.945 417.408 387.167C417.408 386.389 416.302 385.759 414.937 385.759C413.573 385.759 412.467 386.389 412.467 387.167C412.467 387.945 413.573 388.575 414.937 388.575Z" fill="#16110D"/>
<path d="M416.351 376.957C417.41 377.661 417.41 378.365 416.351 379.069C415.292 379.773 413.88 379.773 412.821 379.069C411.763 378.365 411.763 377.661 412.821 376.957C413.88 376.253 415.292 376.253 416.351 376.957Z" fill="#16110D"/>
<path d="M425.175 371.675C426.234 372.379 426.234 373.083 425.175 373.788C424.116 374.492 422.704 374.492 421.646 373.788C420.587 373.083 420.587 372.379 421.646 371.675C422.704 371.323 424.469 371.323 425.175 371.675Z" fill="#16110D"/>
<path d="M432.588 368.859C433.952 368.859 435.058 368.229 435.058 367.451C435.058 366.673 433.952 366.043 432.588 366.043C431.223 366.043 430.117 366.673 430.117 367.451C430.117 368.229 431.223 368.859 432.588 368.859Z" fill="#16110D"/>
<path d="M441.412 363.93C442.776 363.93 443.882 363.299 443.882 362.522C443.882 361.744 442.776 361.113 441.412 361.113C440.048 361.113 438.941 361.744 438.941 362.522C438.941 363.299 440.048 363.93 441.412 363.93Z" fill="#16110D"/>
<path d="M450.584 358.65C451.948 358.65 453.054 358.019 453.054 357.241C453.054 356.464 451.948 355.833 450.584 355.833C449.219 355.833 448.113 356.464 448.113 357.241C448.113 358.019 449.219 358.65 450.584 358.65Z" fill="#16110D"/>
<path d="M461.175 351.257C462.234 351.961 462.234 352.665 461.175 353.369C460.116 354.073 458.704 354.073 457.646 353.369C456.587 352.665 456.587 351.961 457.646 351.257C458.704 350.552 460.116 350.552 461.175 351.257Z" fill="#16110D"/>
<path d="M469.999 345.976C471.058 346.68 471.058 347.384 469.999 348.088C468.94 348.792 467.529 348.792 466.47 348.088C465.411 347.384 465.411 346.68 466.47 345.976C467.529 345.624 468.94 345.624 469.999 345.976Z" fill="#16110D"/>
<path d="M478.82 341.047C479.878 341.751 479.878 342.455 478.82 343.159C477.761 343.863 476.349 343.863 475.29 343.159C474.231 342.455 474.231 341.751 475.29 341.047C476.349 340.343 478.114 340.343 478.82 341.047Z" fill="#16110D"/>
<path d="M486.232 338.23C487.597 338.23 488.703 337.599 488.703 336.821C488.703 336.044 487.597 335.413 486.232 335.413C484.868 335.413 483.762 336.044 483.762 336.821C483.762 337.599 484.868 338.23 486.232 338.23Z" fill="#16110D"/>
<path d="M495.055 332.949C496.419 332.949 497.525 332.319 497.525 331.541C497.525 330.763 496.419 330.133 495.055 330.133C493.69 330.133 492.584 330.763 492.584 331.541C492.584 332.319 493.69 332.949 495.055 332.949Z" fill="#16110D"/>
<path d="M505.642 325.555C506.701 326.26 506.701 326.964 505.642 327.668C504.583 328.372 503.171 328.372 502.112 327.668C501.054 326.964 501.054 326.26 502.112 325.555C503.171 324.851 504.936 324.851 505.642 325.555Z" fill="#16110D"/>
<path d="M514.82 320.275C515.878 320.979 515.878 321.683 514.82 322.387C513.761 323.091 512.349 323.091 511.29 322.387C510.231 321.683 510.231 320.979 511.29 320.275C512.349 319.923 513.761 319.923 514.82 320.275Z" fill="#16110D"/>
<path d="M403.997 371.677C405.056 370.972 406.468 370.972 407.527 371.677C408.585 372.381 408.585 373.085 407.527 373.789C406.468 374.493 405.056 374.493 403.997 373.789C402.938 373.085 402.938 372.381 403.997 371.677Z" fill="#16110D"/>
<path d="M416.351 366.747C417.41 367.451 417.41 368.155 416.351 368.859C415.292 369.563 413.88 369.563 412.821 368.859C411.763 368.155 411.763 367.451 412.821 366.747C413.88 366.043 415.292 366.043 416.351 366.747Z" fill="#16110D"/>
<path d="M425.175 361.466C426.234 362.17 426.234 362.874 425.175 363.578C424.116 364.282 422.704 364.282 421.646 363.578C420.587 362.874 420.587 362.17 421.646 361.466C422.704 360.761 424.469 360.761 425.175 361.466Z" fill="#16110D"/>
<path d="M432.586 358.65C433.95 358.65 435.056 358.019 435.056 357.241C435.056 356.464 433.95 355.833 432.586 355.833C431.221 355.833 430.115 356.464 430.115 357.241C430.115 358.019 431.221 358.65 432.586 358.65Z" fill="#16110D"/>
<path d="M441.412 353.72C442.776 353.72 443.882 353.089 443.882 352.312C443.882 351.534 442.776 350.903 441.412 350.903C440.048 350.903 438.941 351.534 438.941 352.312C438.941 353.089 440.048 353.72 441.412 353.72Z" fill="#16110D"/>
<path d="M451.997 345.976C453.056 346.68 453.056 347.384 451.997 348.088C450.938 348.792 449.527 348.792 448.468 348.088C447.409 347.384 447.409 346.68 448.468 345.976C449.527 345.624 451.291 345.624 451.997 345.976Z" fill="#16110D"/>
<path d="M461.175 341.047C462.234 341.751 462.234 342.455 461.175 343.159C460.116 343.863 458.704 343.863 457.646 343.159C456.587 342.455 456.587 341.751 457.646 341.047C458.704 340.343 460.116 340.343 461.175 341.047Z" fill="#16110D"/>
<path d="M469.999 335.765C471.058 336.47 471.058 337.174 469.999 337.878C468.94 338.582 467.529 338.582 466.47 337.878C465.411 337.174 465.411 336.47 466.47 335.765C467.529 335.061 468.94 335.061 469.999 335.765Z" fill="#16110D"/>
<path d="M478.82 330.485C479.878 331.189 479.878 331.893 478.82 332.597C477.761 333.301 476.349 333.301 475.29 332.597C474.231 331.893 474.231 331.189 475.29 330.485C476.349 330.133 478.114 330.133 478.82 330.485Z" fill="#16110D"/>
<path d="M487.995 325.555C489.054 326.26 489.054 326.964 487.995 327.668C486.937 328.372 485.525 328.372 484.466 327.668C483.407 326.964 483.407 326.26 484.466 325.555C485.525 324.851 486.937 324.851 487.995 325.555Z" fill="#16110D"/>
<path d="M495.055 322.738C496.419 322.738 497.525 322.108 497.525 321.33C497.525 320.552 496.419 319.922 495.055 319.922C493.69 319.922 492.584 320.552 492.584 321.33C492.584 322.108 493.69 322.738 495.055 322.738Z" fill="#16110D"/>
<path d="M505.642 314.994C506.701 315.698 506.701 316.402 505.642 317.106C504.583 317.81 503.171 317.81 502.112 317.106C501.054 316.402 501.054 315.698 502.112 314.994C503.171 314.641 504.936 314.641 505.642 314.994Z" fill="#16110D"/>
<path d="M395.175 366.747C396.234 366.043 397.646 366.043 398.704 366.747C399.763 367.451 399.763 368.155 398.704 368.859C397.646 369.563 396.234 369.563 395.175 368.859C394.116 368.155 394.116 367.099 395.175 366.747Z" fill="#16110D"/>
<path d="M407.527 361.466C408.585 362.17 408.585 362.874 407.527 363.578C406.468 364.282 405.056 364.282 403.997 363.578C402.938 362.874 402.938 362.17 403.997 361.466C405.056 360.761 406.468 360.761 407.527 361.466Z" fill="#16110D"/>
<path d="M416.351 356.186C417.41 356.89 417.41 357.594 416.351 358.298C415.292 359.002 413.88 359.002 412.821 358.298C411.763 357.594 411.763 356.89 412.821 356.186C413.88 355.834 415.292 355.834 416.351 356.186Z" fill="#16110D"/>
<path d="M425.175 351.257C426.234 351.961 426.234 352.665 425.175 353.369C424.116 354.073 422.704 354.073 421.646 353.369C420.587 352.665 420.587 351.961 421.646 351.257C422.704 350.552 424.469 350.552 425.175 351.257Z" fill="#16110D"/>
<path d="M434.351 345.976C435.41 346.68 435.41 347.384 434.351 348.088C433.292 348.792 431.88 348.792 430.821 348.088C429.763 347.384 429.763 346.68 430.821 345.976C431.88 345.624 433.292 345.624 434.351 345.976Z" fill="#16110D"/>
<path d="M443.175 341.047C444.234 341.751 444.234 342.455 443.175 343.159C442.116 343.863 440.704 343.863 439.646 343.159C438.587 342.455 438.587 341.751 439.646 341.047C440.704 340.343 442.116 340.343 443.175 341.047Z" fill="#16110D"/>
<path d="M451.997 335.765C453.056 336.47 453.056 337.174 451.997 337.878C450.938 338.582 449.527 338.582 448.468 337.878C447.409 337.174 447.409 336.47 448.468 335.765C449.527 335.061 451.291 335.061 451.997 335.765Z" fill="#16110D"/>
<path d="M461.175 330.485C462.234 331.189 462.234 331.893 461.175 332.597C460.116 333.301 458.704 333.301 457.646 332.597C456.587 331.893 456.587 331.189 457.646 330.485C458.704 330.133 460.116 330.133 461.175 330.485Z" fill="#16110D"/>
<path d="M469.995 325.555C471.054 326.26 471.054 326.964 469.995 327.668C468.937 328.372 467.525 328.372 466.466 327.668C465.407 326.964 465.407 326.26 466.466 325.555C467.525 324.851 468.937 324.851 469.995 325.555Z" fill="#16110D"/>
<path d="M477.408 322.738C478.772 322.738 479.879 322.108 479.879 321.33C479.879 320.552 478.772 319.922 477.408 319.922C476.044 319.922 474.938 320.552 474.938 321.33C474.938 322.108 476.044 322.738 477.408 322.738Z" fill="#16110D"/>
<path d="M486.232 317.457C487.597 317.457 488.703 316.827 488.703 316.049C488.703 315.271 487.597 314.641 486.232 314.641C484.868 314.641 483.762 315.271 483.762 316.049C483.762 316.827 484.868 317.457 486.232 317.457Z" fill="#16110D"/>
<path d="M495.055 312.529C496.419 312.529 497.525 311.899 497.525 311.121C497.525 310.343 496.419 309.713 495.055 309.713C493.69 309.713 492.584 310.343 492.584 311.121C492.584 311.899 493.69 312.529 495.055 312.529Z" fill="#16110D"/>
<path d="M386.351 361.466C387.41 360.761 388.821 360.761 389.88 361.466C390.939 362.17 390.939 362.874 389.88 363.578C388.821 364.282 387.41 364.282 386.351 363.578C385.292 362.874 385.292 362.17 386.351 361.466Z" fill="#16110D"/>
<path d="M398.704 356.186C399.763 356.89 399.763 357.594 398.704 358.298C397.646 359.002 396.234 359.002 395.175 358.298C394.116 357.594 394.116 356.89 395.175 356.186C396.234 355.834 397.646 355.834 398.704 356.186Z" fill="#16110D"/>
<path d="M407.527 351.257C408.585 351.961 408.585 352.665 407.527 353.369C406.468 354.073 405.056 354.073 403.997 353.369C402.938 352.665 402.938 351.961 403.997 351.257C405.056 350.552 406.468 350.552 407.527 351.257Z" fill="#16110D"/>
<path d="M416.351 345.976C417.41 346.68 417.41 347.384 416.351 348.088C415.292 348.792 413.88 348.792 412.821 348.088C411.763 347.384 411.763 346.68 412.821 345.976C413.88 345.624 415.292 345.624 416.351 345.976Z" fill="#16110D"/>
<path d="M423.762 343.159C425.126 343.159 426.232 342.529 426.232 341.751C426.232 340.973 425.126 340.343 423.762 340.343C422.397 340.343 421.291 340.973 421.291 341.751C421.291 342.529 422.397 343.159 423.762 343.159Z" fill="#16110D"/>
<path d="M432.588 338.23C433.952 338.23 435.058 337.599 435.058 336.821C435.058 336.044 433.952 335.413 432.588 335.413C431.223 335.413 430.117 336.044 430.117 336.821C430.117 337.599 431.223 338.23 432.588 338.23Z" fill="#16110D"/>
<path d="M441.412 332.949C442.776 332.949 443.882 332.319 443.882 331.541C443.882 330.763 442.776 330.133 441.412 330.133C440.048 330.133 438.941 330.763 438.941 331.541C438.941 332.319 440.048 332.949 441.412 332.949Z" fill="#16110D"/>
<path d="M451.997 325.555C453.056 326.26 453.056 326.964 451.997 327.668C450.938 328.372 449.527 328.372 448.468 327.668C447.409 326.964 447.409 326.26 448.468 325.555C449.527 324.851 451.291 324.851 451.997 325.555Z" fill="#16110D"/>
<path d="M459.408 322.738C460.772 322.738 461.879 322.108 461.879 321.33C461.879 320.552 460.772 319.922 459.408 319.922C458.044 319.922 456.938 320.552 456.938 321.33C456.938 322.108 458.044 322.738 459.408 322.738Z" fill="#16110D"/>
<path d="M469.995 314.994C471.054 315.698 471.054 316.402 469.995 317.106C468.937 317.81 467.525 317.81 466.466 317.106C465.407 316.402 465.407 315.698 466.466 314.994C467.525 314.641 468.937 314.641 469.995 314.994Z" fill="#16110D"/>
<path d="M478.82 310.065C479.878 310.769 479.878 311.473 478.82 312.178C477.761 312.882 476.349 312.882 475.29 312.178C474.231 311.473 474.231 310.769 475.29 310.065C476.349 309.361 478.114 309.361 478.82 310.065Z" fill="#16110D"/>
<path d="M487.997 304.784C489.056 305.488 489.056 306.192 487.997 306.896C486.938 307.6 485.527 307.6 484.468 306.896C483.409 306.192 483.409 305.488 484.468 304.784C485.527 304.432 486.938 304.432 487.997 304.784Z" fill="#16110D"/>
<path d="M377.176 356.184C378.235 355.48 379.646 355.48 380.705 356.184C381.764 356.888 381.764 357.593 380.705 358.297C379.646 359.001 378.235 359.001 377.176 358.297C376.47 357.593 376.47 356.888 377.176 356.184Z" fill="#16110D"/>
<path d="M387.764 353.72C389.128 353.72 390.234 353.089 390.234 352.312C390.234 351.534 389.128 350.903 387.764 350.903C386.399 350.903 385.293 351.534 385.293 352.312C385.293 353.089 386.399 353.72 387.764 353.72Z" fill="#16110D"/>
<path d="M398.704 345.976C399.763 346.68 399.763 347.384 398.704 348.088C397.646 348.792 396.234 348.792 395.175 348.088C394.116 347.384 394.116 346.68 395.175 345.976C396.234 345.624 397.646 345.624 398.704 345.976Z" fill="#16110D"/>
<path d="M405.764 343.159C407.128 343.159 408.234 342.529 408.234 341.751C408.234 340.973 407.128 340.343 405.764 340.343C404.399 340.343 403.293 340.973 403.293 341.751C403.293 342.529 404.399 343.159 405.764 343.159Z" fill="#16110D"/>
<path d="M416.351 335.765C417.41 336.47 417.41 337.174 416.351 337.878C415.292 338.582 413.88 338.582 412.821 337.878C411.763 337.174 411.763 336.47 412.821 335.765C413.88 335.061 415.292 335.061 416.351 335.765Z" fill="#16110D"/>
<path d="M425.175 330.485C426.234 331.189 426.234 331.893 425.175 332.597C424.116 333.301 422.704 333.301 421.646 332.597C420.587 331.893 420.587 331.189 421.646 330.485C422.704 330.133 424.469 330.133 425.175 330.485Z" fill="#16110D"/>
<path d="M434.351 325.555C435.41 326.26 435.41 326.964 434.351 327.668C433.292 328.372 431.88 328.372 430.821 327.668C429.763 326.964 429.763 326.26 430.821 325.555C431.88 324.851 433.292 324.851 434.351 325.555Z" fill="#16110D"/>
<path d="M441.412 322.738C442.776 322.738 443.882 322.108 443.882 321.33C443.882 320.552 442.776 319.922 441.412 319.922C440.048 319.922 438.941 320.552 438.941 321.33C438.941 322.108 440.048 322.738 441.412 322.738Z" fill="#16110D"/>
<path d="M451.997 314.994C453.056 315.698 453.056 316.402 451.997 317.106C450.938 317.81 449.527 317.81 448.468 317.106C447.409 316.402 447.409 315.698 448.468 314.994C449.527 314.641 451.291 314.641 451.997 314.994Z" fill="#16110D"/>
<path d="M459.408 312.529C460.772 312.529 461.879 311.899 461.879 311.121C461.879 310.343 460.772 309.713 459.408 309.713C458.044 309.713 456.938 310.343 456.938 311.121C456.938 311.899 458.044 312.529 459.408 312.529Z" fill="#16110D"/>
<path d="M469.995 304.784C471.054 305.488 471.054 306.192 469.995 306.896C468.937 307.6 467.525 307.6 466.466 306.896C465.407 306.192 465.407 305.488 466.466 304.784C467.525 304.432 468.937 304.432 469.995 304.784Z" fill="#16110D"/>
<path d="M478.82 299.855C479.878 300.559 479.878 301.264 478.82 301.968C477.761 302.672 476.349 302.672 475.29 301.968C474.231 301.264 474.231 300.559 475.29 299.855C476.349 299.151 478.114 299.151 478.82 299.855C479.878 300.207 478.114 299.151 478.82 299.855Z" fill="#16110D"/>
<path d="M371.528 351.257C372.587 351.961 372.587 352.665 371.528 353.369C370.47 354.073 369.058 354.073 367.999 353.369C367.293 352.665 370.823 350.553 371.528 351.257Z" fill="#16110D"/>
<path d="M377.175 345.975C378.234 345.271 379.646 345.271 380.704 345.975C381.763 346.679 381.763 347.384 380.704 348.088C379.646 348.792 378.234 348.792 377.175 348.088C376.116 347.384 376.116 346.679 377.175 345.975C378.234 345.271 376.116 346.679 377.175 345.975Z" fill="#16110D"/>
<path d="M385.998 340.694C387.057 339.99 388.469 339.99 389.527 340.694C390.586 341.398 390.586 342.102 389.527 342.806C388.469 343.511 387.057 343.511 385.998 342.806C385.292 342.102 385.292 341.398 385.998 340.694C387.057 340.342 385.292 341.398 385.998 340.694Z" fill="#16110D"/>
<path d="M398.351 335.765C399.41 336.47 399.41 337.174 398.351 337.878C397.292 338.582 395.88 338.582 394.821 337.878C393.763 337.174 393.763 336.47 394.821 335.765C395.88 335.061 397.645 335.061 398.351 335.765Z" fill="#16110D"/>
<path d="M407.527 330.485C408.585 331.189 408.585 331.893 407.527 332.597C406.468 333.301 405.056 333.301 403.997 332.597C402.938 331.893 402.938 331.189 403.997 330.485C405.056 330.133 406.468 330.133 407.527 330.485Z" fill="#16110D"/>
<path d="M416.351 325.555C417.41 326.26 417.41 326.964 416.351 327.668C415.292 328.372 413.88 328.372 412.821 327.668C411.763 326.964 411.763 326.26 412.821 325.555C413.88 324.851 415.292 324.851 416.351 325.555Z" fill="#16110D"/>
<path d="M425.175 320.274C426.234 320.978 426.234 321.682 425.175 322.387C424.116 323.091 422.704 323.091 421.646 322.387C420.587 321.682 420.587 320.978 421.646 320.274C422.704 319.57 424.469 319.57 425.175 320.274Z" fill="#16110D"/>
<path d="M432.588 317.457C433.952 317.457 435.058 316.827 435.058 316.049C435.058 315.271 433.952 314.641 432.588 314.641C431.223 314.641 430.117 315.271 430.117 316.049C430.117 316.827 431.223 317.457 432.588 317.457Z" fill="#16110D"/>
<path d="M441.412 312.177C442.776 312.177 443.882 311.546 443.882 310.769C443.882 309.991 442.776 309.36 441.412 309.36C440.048 309.36 438.941 309.991 438.941 310.769C438.941 311.546 440.048 312.177 441.412 312.177Z" fill="#16110D"/>
<path d="M448.819 304.784C449.878 304.08 451.29 304.08 452.349 304.784C453.408 305.488 453.408 306.192 452.349 306.896C451.29 307.6 449.878 307.6 448.819 306.896C447.761 306.192 447.761 305.488 448.819 304.784C449.525 304.432 447.761 305.488 448.819 304.784Z" fill="#16110D"/>
<path d="M461.174 299.502C462.233 300.206 462.233 300.91 461.174 301.614C460.116 302.319 458.704 302.319 457.645 301.614C456.586 300.91 460.116 299.15 461.174 299.502Z" fill="#16110D"/>
<path d="M449.171 396.673C450.23 395.968 451.642 395.968 452.7 396.673C453.759 397.377 453.759 398.081 452.7 398.785C451.642 399.489 450.23 399.489 449.171 398.785C448.112 398.081 448.112 397.025 449.171 396.673Z" fill="#16110D"/>
<path d="M439.996 391.391C441.055 390.687 442.467 390.687 443.526 391.391C444.584 392.096 444.584 392.8 443.526 393.504C442.467 394.208 441.055 394.208 439.996 393.504C439.29 392.8 439.29 392.096 439.996 391.391Z" fill="#16110D"/>
<path d="M452.349 386.463C453.408 387.167 453.408 387.871 452.349 388.575C451.29 389.279 449.878 389.279 448.819 388.575C447.761 387.871 447.761 387.167 448.819 386.463C449.878 385.759 451.643 385.759 452.349 386.463Z" fill="#16110D"/>
<path d="M431.175 386.463C432.234 385.759 433.645 385.759 434.704 386.463C435.763 387.167 435.763 387.871 434.704 388.575C433.645 389.279 432.234 389.279 431.175 388.575C430.116 387.871 430.116 386.815 431.175 386.463Z" fill="#16110D"/>
<path d="M443.525 381.182C444.583 381.886 444.583 382.59 443.525 383.294C442.466 383.999 441.054 383.999 439.995 383.294C438.936 382.59 438.936 381.886 439.995 381.182C441.054 380.83 442.466 380.83 443.525 381.182Z" fill="#16110D"/>
<path d="M452.349 375.901C453.408 376.605 453.408 377.309 452.349 378.013C451.29 378.717 449.878 378.717 448.819 378.013C447.761 377.309 447.761 376.605 448.819 375.901C449.878 375.549 451.643 375.549 452.349 375.901Z" fill="#16110D"/>
<path d="M422.351 381.181C423.41 380.477 424.821 380.477 425.88 381.181C426.939 381.886 426.939 382.59 425.88 383.294C424.821 383.998 423.41 383.998 422.351 383.294C421.292 382.59 421.292 381.886 422.351 381.181Z" fill="#16110D"/>
<path d="M434.704 375.901C435.763 376.605 435.763 377.309 434.704 378.013C433.645 378.717 432.234 378.717 431.175 378.013C430.116 377.309 430.116 376.605 431.175 375.901C432.234 375.549 433.645 375.549 434.704 375.901Z" fill="#16110D"/>
<path d="M443.525 370.971C444.583 371.676 444.583 372.38 443.525 373.084C442.466 373.788 441.054 373.788 439.995 373.084C438.936 372.38 438.936 371.676 439.995 370.971C441.054 370.267 442.466 370.267 443.525 370.971Z" fill="#16110D"/>
<path d="M452.349 365.691C453.408 366.395 453.408 367.099 452.349 367.803C451.29 368.507 449.878 368.507 448.819 367.803C447.761 367.099 447.761 366.395 448.819 365.691C449.878 365.339 451.643 365.339 452.349 365.691Z" fill="#16110D"/>
<path d="M461.527 362.522C460.468 363.226 459.056 363.226 457.997 362.522C456.938 361.818 456.938 361.114 457.997 360.41C459.056 359.706 460.468 359.706 461.527 360.41C462.232 361.114 462.232 362.17 461.527 362.522C460.468 363.226 462.232 362.17 461.527 362.522Z" fill="#16110D"/>
<path d="M470.351 355.481C471.41 356.185 471.41 356.889 470.351 357.594C469.292 358.298 467.88 358.298 466.821 357.594C465.763 356.889 465.763 356.185 466.821 355.481C467.88 354.777 469.292 354.777 470.351 355.481Z" fill="#16110D"/>
<path d="M477.408 352.664C478.772 352.664 479.879 352.034 479.879 351.256C479.879 350.478 478.772 349.848 477.408 349.848C476.044 349.848 474.938 350.478 474.938 351.256C474.938 352.034 476.044 352.664 477.408 352.664Z" fill="#16110D"/>
<path d="M486.582 347.735C487.946 347.735 489.052 347.105 489.052 346.327C489.052 345.549 487.946 344.919 486.582 344.919C485.217 344.919 484.111 345.549 484.111 346.327C484.111 347.105 485.217 347.735 486.582 347.735Z" fill="#16110D"/>
<path d="M495.406 342.454C496.771 342.454 497.877 341.824 497.877 341.046C497.877 340.268 496.771 339.638 495.406 339.638C494.042 339.638 492.936 340.268 492.936 341.046C492.936 341.824 494.042 342.454 495.406 342.454Z" fill="#16110D"/>
<path d="M505.995 335.06C507.054 335.764 507.054 336.469 505.995 337.173C504.937 337.877 503.525 337.877 502.466 337.173C501.407 336.469 501.407 335.764 502.466 335.06C503.525 334.356 505.289 334.356 505.995 335.06Z" fill="#16110D"/>
<path d="M515.171 329.781C516.23 330.485 516.23 331.189 515.171 331.893C514.112 332.598 512.701 332.598 511.642 331.893C510.583 331.189 510.583 330.485 511.642 329.781C512.701 329.077 514.112 329.077 515.171 329.781Z" fill="#16110D"/>
<path d="M434.701 307.6V282.251L468.936 301.967V327.315L434.701 307.6Z" fill="#0066FF"/>
<path d="M434.701 282.251L466.112 264.296L500.347 284.011L468.936 301.967L434.701 282.251Z" fill="#0066FF"/>
<path d="M435.406 290.348L466.112 272.745L500.346 292.461L468.935 309.712L435.406 290.348Z" fill="white"/>
<path d="M466.112 262.535L433.289 281.195V308.303L468.935 329.075L501.758 310.416V283.307L466.112 262.535ZM467.524 324.85L436.113 306.895V284.715L467.524 302.67V324.85ZM437.877 282.251L466.112 266.056L497.523 284.011L468.935 300.206L437.877 282.251Z" fill="#16110D"/>
<path d="M389.877 334.005V274.154L424.112 293.87V353.721L389.877 334.005Z" fill="#0066FF"/>
<path d="M389.877 274.154L421.288 256.199L455.523 275.915L424.112 293.87L389.877 274.154Z" fill="#0066FF"/>
<path d="M390.23 282.253L421.289 264.649L455.523 284.365L423.759 301.616L390.23 282.253Z" fill="white"/>
<path d="M421.29 254.439L388.467 273.099V334.71L424.113 355.13L456.936 336.47V274.859L421.29 254.439ZM422.701 351.257L391.29 332.95V276.619L422.701 294.575V351.257ZM392.702 274.155L420.937 257.96L452.348 275.915L424.113 292.11L392.702 274.155Z" fill="#16110D"/>
<path d="M345.055 359.002V323.092L379.289 342.807V378.366L345.055 359.002Z" fill="#0066FF"/>
<path d="M345.055 323.092L376.466 305.137L410.7 324.852L379.289 342.808L345.055 323.092Z" fill="#0066FF"/>
<path d="M345.406 331.542L376.464 313.938L410.699 333.654L378.935 350.905L345.406 331.542Z" fill="white"/>
<path d="M376.465 303.729L343.643 322.388V359.707L379.289 380.126L412.112 361.467V324.148L376.465 303.729ZM377.877 376.254L346.466 358.298V325.909L377.877 343.864V376.254ZM347.878 323.092L376.113 306.897L407.524 324.852L379.289 341.047L347.878 323.092Z" fill="#16110D"/>
<path d="M299.877 384.349V368.506L334.112 388.221V404.064L299.877 384.349Z" fill="#0066FF"/>
<path d="M299.877 368.506L331.288 350.551L365.523 370.266L334.112 388.222L299.877 368.506Z" fill="#0066FF"/>
<path d="M300.232 376.956L331.291 359.001L365.525 378.717L333.761 395.968L300.232 376.956Z" fill="white"/>
<path d="M331.29 348.79L298.467 367.449V385.053L334.113 405.824L366.936 387.165V369.562L331.29 348.79ZM332.701 401.6L301.29 383.644V370.97L332.701 388.925V401.6ZM302.702 368.506L330.937 352.311L362.348 370.266L334.113 386.461L302.702 368.506Z" fill="#16110D"/>
<path d="M400.115 411.457V351.606L434.35 371.322V431.173L400.115 411.457Z" fill="#0066FF"/>
<path d="M400.115 351.607L431.526 333.651L465.761 353.367L434.35 371.322L400.115 351.607Z" fill="#0066FF"/>
<path d="M400.467 360.056L431.525 342.453L465.76 362.169L433.996 379.42L400.467 360.056Z" fill="white"/>
<path d="M431.526 332.243L398.703 350.903V412.514L434.349 432.933L467.172 414.274V352.663L431.526 332.243ZM432.938 428.709L401.527 410.753V354.071L432.938 372.026V428.709ZM402.938 351.607L431.173 335.412L462.584 353.367L434.349 369.562L402.938 351.607Z" fill="#16110D"/>
<path d="M355.291 436.454V400.896L389.526 420.611V456.17L355.291 436.454Z" fill="#0066FF"/>
<path d="M355.291 400.896L386.702 382.94L420.937 402.656L389.526 420.611L355.291 400.896Z" fill="#0066FF"/>
<path d="M355.998 409.346L386.703 391.743L420.938 411.459L389.174 428.358L355.998 409.346Z" fill="white"/>
<path d="M386.704 381.18L353.881 399.839V437.51L389.527 457.93L422.35 439.27V401.951L386.704 381.18ZM388.115 453.705L356.704 435.75V403.36L388.115 421.315V453.705ZM358.116 400.895L386.351 384.7L417.762 402.656L389.527 418.851L358.116 400.895Z" fill="#16110D"/>
</svg>
