<svg width="168" height="160" viewBox="0 0 168 160" fill="none" xmlns="http://www.w3.org/2000/svg">
<path d="M15.4508 126.168C16.1954 126.663 16.1954 127.159 15.4508 127.655C14.7063 128.151 13.7135 128.151 12.969 127.655C12.4726 127.159 12.4726 126.416 13.2172 126.168C13.7135 125.672 14.9544 125.672 15.4508 126.168Z" fill="#16110D"/>
<path d="M21.9016 122.45C22.3979 122.945 22.3979 123.441 21.9016 123.937C21.157 124.432 20.1643 124.432 19.4197 123.937C18.6752 123.441 18.6752 122.945 19.4197 122.45C20.1643 122.202 21.157 122.202 21.9016 122.45Z" fill="#16110D"/>
<path d="M28.1066 118.98C28.8512 119.476 28.8512 119.972 28.1066 120.467C27.3621 120.963 26.3694 120.963 25.6248 120.467C24.8803 119.972 24.8803 119.476 25.6248 118.98C26.3694 118.484 27.3621 118.484 28.1066 118.98Z" fill="#16110D"/>
<path d="M34.3117 115.262C35.0563 115.758 35.0563 116.254 34.3117 116.749C33.5672 117.245 32.5744 117.245 31.8299 116.749C31.0853 116.254 31.0853 115.758 31.8299 115.262C32.5744 115.014 33.8154 115.014 34.3117 115.262C35.0563 115.758 33.8154 115.014 34.3117 115.262Z" fill="#16110D"/>
<path d="M8.00486 124.184C8.96433 124.184 9.74214 123.74 9.74214 123.193C9.74214 122.645 8.96433 122.201 8.00486 122.201C7.04539 122.201 6.26758 122.645 6.26758 123.193C6.26758 123.74 7.04539 124.184 8.00486 124.184Z" fill="#16110D"/>
<path d="M15.4508 118.98C16.1954 119.476 16.1954 119.972 15.4508 120.467C14.7063 120.963 13.7135 120.963 12.969 120.467C12.4726 119.972 12.4726 119.228 13.2172 118.98C13.7135 118.484 14.9544 118.484 15.4508 118.98Z" fill="#16110D"/>
<path d="M20.6611 116.998C21.6206 116.998 22.3984 116.554 22.3984 116.006C22.3984 115.459 21.6206 115.015 20.6611 115.015C19.7016 115.015 18.9238 115.459 18.9238 116.006C18.9238 116.554 19.7016 116.998 20.6611 116.998Z" fill="#16110D"/>
<path d="M26.8662 113.279C27.8257 113.279 28.6035 112.835 28.6035 112.287C28.6035 111.74 27.8257 111.296 26.8662 111.296C25.9067 111.296 25.1289 111.74 25.1289 112.287C25.1289 112.835 25.9067 113.279 26.8662 113.279Z" fill="#16110D"/>
<path d="M3.04024 118.98C3.78479 119.476 3.78479 119.972 3.04024 120.467C2.29569 120.963 1.30296 120.963 0.558411 120.467C-0.186137 119.972 -0.186137 119.476 0.558411 118.98C1.30296 118.484 2.29569 118.484 3.04024 118.98Z" fill="#16110D"/>
<path d="M9.24532 115.262C9.98987 115.758 9.98987 116.254 9.24532 116.749C8.50077 117.245 7.50804 117.245 6.76349 116.749C6.01894 116.254 6.01894 115.758 6.76349 115.262C7.50804 115.014 8.50077 115.014 9.24532 115.262Z" fill="#16110D"/>
<path d="M15.4508 111.543C16.1954 112.039 16.1954 112.535 15.4508 113.03C14.7063 113.526 13.7135 113.526 12.969 113.03C12.4726 112.783 12.4726 112.039 13.2172 111.543C13.7135 111.295 14.9544 111.295 15.4508 111.543Z" fill="#16110D"/>
<path d="M21.9016 109.314C21.157 109.809 20.1643 109.809 19.4197 109.314C18.6752 108.818 18.6752 108.322 19.4197 107.827C20.1643 107.579 22.3979 109.066 21.9016 109.314Z" fill="#16110D"/>
<path d="M3.04024 111.543C3.78479 112.039 3.78479 112.535 3.04024 113.03C2.29569 113.526 1.30296 113.526 0.558411 113.03C-0.186137 112.535 -0.186137 112.039 0.558411 111.543C1.30296 111.295 2.29569 111.295 3.04024 111.543Z" fill="#16110D"/>
<path d="M8.00486 109.808C8.96433 109.808 9.74214 109.364 9.74214 108.817C9.74214 108.269 8.96433 107.825 8.00486 107.825C7.04539 107.825 6.26758 108.269 6.26758 108.817C6.26758 109.364 7.04539 109.808 8.00486 109.808Z" fill="#16110D"/>
<path d="M15.4504 105.843C14.7058 106.339 13.7131 106.339 12.9686 105.843C12.224 105.347 12.224 104.851 12.9686 104.356C13.7131 104.108 16.1949 105.347 15.4504 105.843Z" fill="#16110D"/>
<path d="M97.5988 158.14C98.3434 158.636 98.3434 159.131 97.5988 159.627C96.8543 160.123 95.8616 160.123 95.117 159.627C94.3725 159.131 94.3725 158.636 95.117 158.14C95.8616 157.892 96.8543 157.892 97.5988 158.14Z" fill="#16110D"/>
<path d="M103.804 154.672C104.548 155.167 104.548 155.663 103.804 156.159C103.059 156.654 102.067 156.654 101.322 156.159C100.578 155.663 100.578 155.167 101.322 154.672C102.067 154.176 103.059 154.176 103.804 154.672Z" fill="#16110D"/>
<path d="M110.009 150.953C110.754 151.449 110.754 151.945 110.009 152.441C109.264 152.936 108.272 152.936 107.527 152.441C106.783 151.945 106.783 151.449 107.527 150.953C108.272 150.706 109.513 150.706 110.009 150.953Z" fill="#16110D"/>
<path d="M116.458 147.236C117.203 147.731 117.203 148.227 116.458 148.723C115.714 149.219 114.721 149.219 113.976 148.723C113.232 148.227 113.232 147.731 113.976 147.236C114.473 146.988 115.714 146.988 116.458 147.236Z" fill="#16110D"/>
<path d="M122.663 143.766C123.408 144.262 123.408 144.758 122.663 145.253C121.919 145.749 120.926 145.749 120.181 145.253C119.437 144.758 119.437 144.262 120.181 143.766C120.926 143.271 121.919 143.271 122.663 143.766Z" fill="#16110D"/>
<path d="M128.868 140.048C129.613 140.544 129.613 141.04 128.868 141.535C128.124 142.031 127.131 142.031 126.387 141.535C125.642 141.04 125.642 140.544 126.387 140.048C127.131 139.8 128.124 139.8 128.868 140.048Z" fill="#16110D"/>
<path d="M135.071 136.577C135.816 137.073 135.816 137.568 135.071 138.064C134.327 138.56 133.334 138.56 132.59 138.064C131.845 137.568 131.845 137.073 132.59 136.577C133.334 136.081 134.575 136.081 135.071 136.577Z" fill="#16110D"/>
<path d="M140.284 134.593C141.244 134.593 142.021 134.149 142.021 133.602C142.021 133.054 141.244 132.61 140.284 132.61C139.325 132.61 138.547 133.054 138.547 133.602C138.547 134.149 139.325 134.593 140.284 134.593Z" fill="#16110D"/>
<path d="M146.491 130.877C147.451 130.877 148.228 130.434 148.228 129.886C148.228 129.338 147.451 128.895 146.491 128.895C145.532 128.895 144.754 129.338 144.754 129.886C144.754 130.434 145.532 130.877 146.491 130.877Z" fill="#16110D"/>
<path d="M153.935 125.672C154.679 126.167 154.679 126.663 153.935 127.159C153.19 127.654 152.197 127.654 151.453 127.159C150.708 126.663 150.708 126.167 151.453 125.672C152.197 125.176 153.438 125.176 153.935 125.672Z" fill="#16110D"/>
<path d="M84.9387 158.14C85.6832 158.636 85.6832 159.131 84.9387 159.627C84.1941 160.123 83.2014 160.123 82.4568 159.627C81.7123 159.131 81.7123 158.636 82.4568 158.14C83.2014 157.892 84.1941 157.892 84.9387 158.14Z" fill="#16110D"/>
<path d="M91.1437 154.672C91.8883 155.167 91.8883 155.663 91.1437 156.159C90.3992 156.654 89.4065 156.654 88.6619 156.159C87.9174 155.663 87.9174 155.167 88.6619 154.672C89.4065 154.176 90.6474 154.176 91.1437 154.672Z" fill="#16110D"/>
<path d="M97.5969 150.953C98.3414 151.449 98.3414 151.945 97.5969 152.441C96.8523 152.936 95.8596 152.936 95.1151 152.441C94.3705 151.945 94.3705 151.449 95.1151 150.953C95.8596 150.706 96.8523 150.706 97.5969 150.953Z" fill="#16110D"/>
<path d="M102.562 148.97C103.521 148.97 104.299 148.526 104.299 147.979C104.299 147.431 103.521 146.987 102.562 146.987C101.602 146.987 100.824 147.431 100.824 147.979C100.824 148.526 101.602 148.97 102.562 148.97Z" fill="#16110D"/>
<path d="M108.767 145.501C109.726 145.501 110.504 145.058 110.504 144.51C110.504 143.962 109.726 143.519 108.767 143.519C107.807 143.519 107.029 143.962 107.029 144.51C107.029 145.058 107.807 145.501 108.767 145.501Z" fill="#16110D"/>
<path d="M116.458 140.048C117.203 140.544 117.203 141.04 116.458 141.535C115.714 142.031 114.721 142.031 113.976 141.535C113.232 141.04 113.232 140.544 113.976 140.048C114.473 139.8 115.714 139.8 116.458 140.048Z" fill="#16110D"/>
<path d="M122.663 136.577C123.408 137.073 123.408 137.568 122.663 138.064C121.919 138.56 120.926 138.56 120.181 138.064C119.437 137.568 119.437 137.073 120.181 136.577C120.926 136.081 121.919 136.081 122.663 136.577Z" fill="#16110D"/>
<path d="M128.868 132.86C129.613 133.356 129.613 133.852 128.868 134.347C128.124 134.843 127.131 134.843 126.387 134.347C125.642 133.852 125.642 133.356 126.387 132.86C127.131 132.364 128.124 132.364 128.868 132.86Z" fill="#16110D"/>
<path d="M135.071 129.142C135.816 129.638 135.816 130.133 135.071 130.629C134.327 131.125 133.334 131.125 132.59 130.629C131.845 130.133 131.845 129.638 132.59 129.142C133.334 128.894 134.575 128.894 135.071 129.142Z" fill="#16110D"/>
<path d="M141.529 125.672C142.273 126.167 142.273 126.663 141.529 127.159C140.784 127.654 139.791 127.654 139.047 127.159C138.302 126.663 138.302 126.167 139.047 125.672C139.791 125.176 140.784 125.176 141.529 125.672Z" fill="#16110D"/>
<path d="M146.491 123.689C147.451 123.689 148.228 123.245 148.228 122.697C148.228 122.15 147.451 121.706 146.491 121.706C145.532 121.706 144.754 122.15 144.754 122.697C144.754 123.245 145.532 123.689 146.491 123.689Z" fill="#16110D"/>
<path d="M71.042 159.876C72.0014 159.876 72.7792 159.433 72.7792 158.885C72.7792 158.337 72.0014 157.894 71.042 157.894C70.0825 157.894 69.3047 158.337 69.3047 158.885C69.3047 159.433 70.0825 159.876 71.042 159.876Z" fill="#16110D"/>
<path d="M78.7356 154.672C79.4801 155.167 79.4801 155.663 78.7356 156.159C77.991 156.654 76.9983 156.654 76.2537 156.159C75.5092 155.663 75.5092 155.167 76.2537 154.672C76.9983 154.176 77.991 154.176 78.7356 154.672Z" fill="#16110D"/>
<path d="M84.9426 150.953C85.6871 151.449 85.6871 151.945 84.9426 152.441C84.198 152.936 83.2053 152.936 82.4608 152.441C81.7162 151.945 81.7162 151.449 82.4608 150.953C83.2053 150.706 84.198 150.706 84.9426 150.953Z" fill="#16110D"/>
<path d="M91.1437 147.236C91.8883 147.731 91.8883 148.227 91.1437 148.723C90.3992 149.219 89.4065 149.219 88.6619 148.723C87.9174 148.227 87.9174 147.731 88.6619 147.236C89.4065 146.988 90.6474 146.988 91.1437 147.236Z" fill="#16110D"/>
<path d="M97.5969 143.766C98.3414 144.262 98.3414 144.758 97.5969 145.253C96.8523 145.749 95.8596 145.749 95.1151 145.253C94.3705 144.758 94.3705 144.262 95.1151 143.766C95.8596 143.271 96.8523 143.271 97.5969 143.766Z" fill="#16110D"/>
<path d="M103.804 140.047C104.548 140.543 104.548 141.038 103.804 141.534C103.059 142.03 102.067 142.03 101.322 141.534C100.578 141.038 100.578 140.543 101.322 140.047C102.067 139.551 103.059 139.799 103.804 140.047Z" fill="#16110D"/>
<path d="M108.767 138.064C109.726 138.064 110.504 137.62 110.504 137.072C110.504 136.525 109.726 136.081 108.767 136.081C107.807 136.081 107.029 136.525 107.029 137.072C107.029 137.62 107.807 138.064 108.767 138.064Z" fill="#16110D"/>
<path d="M116.458 132.86C117.203 133.356 117.203 133.852 116.458 134.347C115.714 134.843 114.721 134.843 113.976 134.347C113.232 133.852 113.232 133.356 113.976 132.86C114.473 132.364 115.714 132.364 116.458 132.86Z" fill="#16110D"/>
<path d="M121.423 130.877C122.382 130.877 123.16 130.434 123.16 129.886C123.16 129.338 122.382 128.895 121.423 128.895C120.463 128.895 119.686 129.338 119.686 129.886C119.686 130.434 120.463 130.877 121.423 130.877Z" fill="#16110D"/>
<path d="M128.868 125.672C129.613 126.167 129.613 126.663 128.868 127.159C128.124 127.654 127.131 127.654 126.387 127.159C125.642 126.663 125.642 126.167 126.387 125.672C127.131 125.176 128.124 125.176 128.868 125.672Z" fill="#16110D"/>
<path d="M134.083 123.689C135.042 123.689 135.82 123.245 135.82 122.697C135.82 122.15 135.042 121.706 134.083 121.706C133.124 121.706 132.346 122.15 132.346 122.697C132.346 123.245 133.124 123.689 134.083 123.689Z" fill="#16110D"/>
<path d="M141.529 118.483C142.273 118.979 142.273 119.475 141.529 119.97C140.784 120.466 139.791 120.466 139.047 119.97C138.302 119.475 138.302 118.979 139.047 118.483C139.791 117.987 140.784 117.987 141.529 118.483Z" fill="#16110D"/>
<path d="M66.0773 154.672C66.8219 155.167 66.8219 155.663 66.0773 156.159C65.3328 156.654 64.3401 156.654 63.5955 156.159C62.851 155.663 62.851 155.167 63.5955 154.672C64.3401 154.176 65.3328 154.176 66.0773 154.672Z" fill="#16110D"/>
<path d="M71.042 152.688C72.0014 152.688 72.7792 152.244 72.7792 151.697C72.7792 151.149 72.0014 150.705 71.042 150.705C70.0825 150.705 69.3047 151.149 69.3047 151.697C69.3047 152.244 70.0825 152.688 71.042 152.688Z" fill="#16110D"/>
<path d="M78.7356 147.236C79.4801 147.731 79.4801 148.227 78.7356 148.723C77.991 149.219 76.9983 149.219 76.2537 148.723C75.5092 148.227 75.5092 147.731 76.2537 147.236C76.9983 146.988 77.991 146.988 78.7356 147.236Z" fill="#16110D"/>
<path d="M83.6982 145.501C84.6577 145.501 85.4355 145.058 85.4355 144.51C85.4355 143.962 84.6577 143.519 83.6982 143.519C82.7387 143.519 81.9609 143.962 81.9609 144.51C81.9609 145.058 82.7387 145.501 83.6982 145.501Z" fill="#16110D"/>
<path d="M91.1437 140.048C91.8883 140.544 91.8883 141.04 91.1437 141.535C90.3992 142.031 89.4065 142.031 88.6619 141.535C87.9174 141.04 87.9174 140.544 88.6619 140.048C89.4065 139.8 90.6474 139.8 91.1437 140.048Z" fill="#16110D"/>
<path d="M96.3564 138.064C97.3159 138.064 98.0937 137.62 98.0937 137.072C98.0937 136.525 97.3159 136.081 96.3564 136.081C95.3969 136.081 94.6191 136.525 94.6191 137.072C94.6191 137.62 95.3969 138.064 96.3564 138.064Z" fill="#16110D"/>
<path d="M103.804 132.86C104.548 133.356 104.548 133.852 103.804 134.347C103.059 134.843 102.067 134.843 101.322 134.347C100.578 133.852 100.578 133.356 101.322 132.86C102.067 132.364 103.059 132.364 103.804 132.86Z" fill="#16110D"/>
<path d="M110.009 129.142C110.754 129.638 110.754 130.133 110.009 130.629C109.264 131.125 108.272 131.125 107.527 130.629C106.783 130.133 106.783 129.638 107.527 129.142C108.272 128.894 109.513 128.894 110.009 129.142Z" fill="#16110D"/>
<path d="M116.458 125.672C117.203 126.167 117.203 126.663 116.458 127.159C115.714 127.654 114.721 127.654 113.976 127.159C113.232 126.663 113.232 126.167 113.976 125.672C114.473 125.176 115.714 125.176 116.458 125.672Z" fill="#16110D"/>
<path d="M121.423 123.689C122.382 123.689 123.16 123.245 123.16 122.697C123.16 122.15 122.382 121.706 121.423 121.706C120.463 121.706 119.686 122.15 119.686 122.697C119.686 123.245 120.463 123.689 121.423 123.689Z" fill="#16110D"/>
<path d="M128.868 118.483C129.613 118.979 129.613 119.475 128.868 119.97C128.124 120.466 127.131 120.466 126.387 119.97C125.642 119.475 125.642 118.979 126.387 118.483C127.131 117.987 128.124 117.987 128.868 118.483Z" fill="#16110D"/>
<path d="M134.083 116.501C135.042 116.501 135.82 116.058 135.82 115.51C135.82 114.962 135.042 114.519 134.083 114.519C133.124 114.519 132.346 114.962 132.346 115.51C132.346 116.058 133.124 116.501 134.083 116.501Z" fill="#16110D"/>
<path d="M58.6318 152.688C59.5913 152.688 60.3691 152.244 60.3691 151.697C60.3691 151.149 59.5913 150.705 58.6318 150.705C57.6723 150.705 56.8945 151.149 56.8945 151.697C56.8945 152.244 57.6723 152.688 58.6318 152.688Z" fill="#16110D"/>
<path d="M66.0773 147.236C66.8219 147.731 66.8219 148.227 66.0773 148.723C65.3328 149.219 64.3401 149.219 63.5955 148.723C62.851 148.227 62.851 147.731 63.5955 147.236C64.3401 146.988 65.3328 146.988 66.0773 147.236Z" fill="#16110D"/>
<path d="M72.2824 143.766C73.027 144.262 73.027 144.758 72.2824 145.253C71.5379 145.749 70.5451 145.749 69.8006 145.253C69.0561 144.758 69.0561 144.262 69.8006 143.766C70.5451 143.271 71.7861 143.271 72.2824 143.766Z" fill="#16110D"/>
<path d="M78.7356 140.048C79.4801 140.544 79.4801 141.04 78.7356 141.535C77.991 142.031 76.9983 142.031 76.2537 141.535C75.5092 141.04 75.5092 140.544 76.2537 140.048C76.9983 139.8 77.991 139.8 78.7356 140.048Z" fill="#16110D"/>
<path d="M84.9426 136.577C85.6871 137.073 85.6871 137.568 84.9426 138.064C84.198 138.56 83.2053 138.56 82.4608 138.064C81.7162 137.568 81.7162 137.073 82.4608 136.577C83.2053 136.081 84.198 136.081 84.9426 136.577Z" fill="#16110D"/>
<path d="M53.4211 147.236C54.1657 147.731 54.1657 148.227 53.4211 148.723C52.6766 149.219 51.6838 149.219 50.9393 148.723C50.1947 148.227 50.1947 147.731 50.9393 147.236C51.6838 146.988 52.9247 146.988 53.4211 147.236Z" fill="#16110D"/>
<path d="M59.8762 143.766C60.6207 144.262 60.6207 144.758 59.8762 145.253C59.1316 145.749 58.1389 145.749 57.3943 145.253C56.6498 144.758 56.6498 144.262 57.3943 143.766C58.1389 143.271 59.1316 143.271 59.8762 143.766Z" fill="#16110D"/>
<path d="M64.8369 141.782C65.7964 141.782 66.5742 141.338 66.5742 140.79C66.5742 140.243 65.7964 139.799 64.8369 139.799C63.8774 139.799 63.0996 140.243 63.0996 140.79C63.0996 141.338 63.8774 141.782 64.8369 141.782Z" fill="#16110D"/>
<path d="M71.042 138.064C72.0014 138.064 72.7792 137.62 72.7792 137.072C72.7792 136.525 72.0014 136.081 71.042 136.081C70.0825 136.081 69.3047 136.525 69.3047 137.072C69.3047 137.62 70.0825 138.064 71.042 138.064Z" fill="#16110D"/>
<path d="M45.9756 145.501C46.935 145.501 47.7128 145.058 47.7128 144.51C47.7128 143.962 46.935 143.519 45.9756 143.519C45.0161 143.519 44.2383 143.962 44.2383 144.51C44.2383 145.058 45.0161 145.501 45.9756 145.501Z" fill="#16110D"/>
<path d="M53.4211 140.048C54.1657 140.544 54.1657 141.04 53.4211 141.535C52.6766 142.031 51.6838 142.031 50.9393 141.535C50.1947 141.04 50.1947 140.544 50.9393 140.048C51.6838 139.8 52.9247 139.8 53.4211 140.048Z" fill="#16110D"/>
<path d="M59.8762 136.577C60.6207 137.073 60.6207 137.568 59.8762 138.064C59.1316 138.56 58.1389 138.56 57.3943 138.064C56.6498 137.568 56.6498 137.073 57.3943 136.577C58.1389 136.081 59.1316 136.081 59.8762 136.577Z" fill="#16110D"/>
<path d="M66.0773 132.86C66.8219 133.356 66.8219 133.852 66.0773 134.347C65.3328 134.843 64.3401 134.843 63.5955 134.347C62.851 133.852 62.851 133.356 63.5955 132.86C64.3401 132.364 65.3328 132.364 66.0773 132.86Z" fill="#16110D"/>
<path d="M41.0109 140.048C41.7555 140.544 41.7555 141.04 41.0109 141.535C40.2664 142.031 39.2737 142.031 38.5291 141.535C37.7846 141.04 37.7846 140.544 38.5291 140.048C39.2737 139.8 40.2664 139.8 41.0109 140.048Z" fill="#16110D"/>
<path d="M47.216 136.329C47.9606 136.825 47.9606 137.321 47.216 137.817C46.4715 138.312 45.4787 138.312 44.7342 137.817C43.9896 137.321 43.9896 136.825 44.7342 136.329C45.4787 136.082 46.4715 136.082 47.216 136.329Z" fill="#16110D"/>
<path d="M53.4211 132.86C54.1657 133.356 54.1657 133.852 53.4211 134.347C52.6766 134.843 51.6838 134.843 50.9393 134.347C50.1947 133.852 50.1947 133.356 50.9393 132.86C51.6838 132.364 52.6766 132.364 53.4211 132.86Z" fill="#16110D"/>
<path d="M59.6262 129.142C60.3707 129.638 60.3707 130.133 59.6262 130.629C58.8816 131.125 57.8889 131.125 57.1443 130.629C56.3998 130.133 56.3998 129.638 57.1443 129.142C57.8889 128.894 59.1298 128.894 59.6262 129.142Z" fill="#16110D"/>
<path d="M34.5598 136.329C35.3043 136.825 35.3043 137.321 34.5598 137.817C33.8152 138.312 32.8225 138.312 32.0779 137.817C31.3334 137.321 31.3334 136.825 32.0779 136.329C32.8225 136.082 34.0634 136.082 34.5598 136.329Z" fill="#16110D"/>
<path d="M41.0109 132.86C41.7555 133.356 41.7555 133.852 41.0109 134.347C40.2664 134.843 39.2737 134.843 38.5291 134.347C37.7846 133.852 37.7846 133.356 38.5291 132.86C39.2737 132.364 40.2664 132.364 41.0109 132.86Z" fill="#16110D"/>
<path d="M47.216 129.142C47.9606 129.638 47.9606 130.133 47.216 130.629C46.4715 131.125 45.4787 131.125 44.7342 130.629C43.9896 130.133 43.9896 129.638 44.7342 129.142C45.4787 128.894 46.4715 128.894 47.216 129.142Z" fill="#16110D"/>
<path d="M53.4211 125.672C54.1657 126.167 54.1657 126.663 53.4211 127.159C52.6766 127.654 51.6838 127.654 50.9393 127.159C50.1947 126.663 50.1947 126.167 50.9393 125.672C51.6838 125.176 52.6766 125.176 53.4211 125.672Z" fill="#16110D"/>
<path d="M28.3547 132.86C29.0992 133.356 29.0992 133.852 28.3547 134.347C27.6101 134.843 26.6174 134.843 25.8729 134.347C25.1283 133.852 25.1283 133.356 25.8729 132.86C26.6174 132.364 27.6101 132.364 28.3547 132.86Z" fill="#16110D"/>
<path d="M34.5598 129.142C35.3043 129.638 35.3043 130.133 34.5598 130.629C33.8152 131.125 32.8225 131.125 32.0779 130.629C31.3334 130.133 31.3334 129.638 32.0779 129.142C32.8225 128.894 34.0634 128.894 34.5598 129.142Z" fill="#16110D"/>
<path d="M41.0109 125.672C41.7555 126.167 41.7555 126.663 41.0109 127.159C40.2664 127.654 39.2737 127.654 38.5291 127.159C37.7846 126.663 37.7846 126.167 38.5291 125.672C39.2737 125.176 40.2664 125.176 41.0109 125.672Z" fill="#16110D"/>
<path d="M47.216 121.954C47.9606 122.45 47.9606 122.945 47.216 123.441C46.4715 123.937 45.4787 123.937 44.7342 123.441C43.9896 122.945 43.9896 122.45 44.7342 121.954C45.4787 121.458 46.4715 121.458 47.216 121.954Z" fill="#16110D"/>
<path d="M22.1496 129.142C22.8942 129.638 22.8942 130.133 22.1496 130.629C21.4051 131.125 20.4123 131.125 19.6678 130.629C18.9232 130.133 18.9232 129.638 19.6678 129.142C20.4123 128.894 21.4051 128.894 22.1496 129.142Z" fill="#16110D"/>
<path d="M27.1142 127.158C28.0737 127.158 28.8515 126.714 28.8515 126.166C28.8515 125.619 28.0737 125.175 27.1142 125.175C26.1548 125.175 25.377 125.619 25.377 126.166C25.377 126.714 26.1548 127.158 27.1142 127.158Z" fill="#16110D"/>
<path d="M34.5598 121.954C35.3043 122.45 35.3043 122.945 34.5598 123.441C33.8152 123.937 32.8225 123.937 32.0779 123.441C31.3334 122.945 31.3334 122.45 32.0779 121.954C32.8225 121.458 34.0634 121.458 34.5598 121.954Z" fill="#16110D"/>
<path d="M41.0109 118.236C41.7555 118.731 41.7555 119.227 41.0109 119.723C40.2664 120.219 39.2737 120.219 38.5291 119.723C37.7846 119.227 37.7846 118.731 38.5291 118.236C39.2737 117.988 40.2664 117.988 41.0109 118.236C41.5073 118.731 40.2664 117.988 41.0109 118.236Z" fill="#16110D"/>
<path d="M157.905 121.954C158.65 121.458 159.643 121.458 160.387 121.954C161.132 122.45 161.132 122.945 160.387 123.441C159.643 123.937 158.65 123.937 157.905 123.441C157.409 122.945 157.409 122.45 157.905 121.954Z" fill="#16110D"/>
<path d="M165.351 119.971C166.31 119.971 167.088 119.527 167.088 118.98C167.088 118.432 166.31 117.988 165.351 117.988C164.391 117.988 163.613 118.432 163.613 118.98C163.613 119.527 164.391 119.971 165.351 119.971Z" fill="#16110D"/>
<path d="M152.94 119.971C153.9 119.971 154.678 119.527 154.678 118.98C154.678 118.432 153.9 117.988 152.94 117.988C151.981 117.988 151.203 118.432 151.203 118.98C151.203 119.527 151.981 119.971 152.94 119.971Z" fill="#16110D"/>
<path d="M160.386 114.766C161.13 115.262 161.13 115.757 160.386 116.253C159.641 116.749 158.649 116.749 157.904 116.253C157.16 115.757 157.16 115.262 157.904 114.766C158.649 114.518 159.641 114.518 160.386 114.766Z" fill="#16110D"/>
<path d="M166.591 111.047C167.336 111.543 167.336 112.039 166.591 112.534C165.846 113.03 164.854 113.03 164.109 112.534C163.365 112.039 163.365 111.543 164.109 111.047C164.854 110.799 166.095 110.799 166.591 111.047Z" fill="#16110D"/>
<path d="M145.496 114.765C146.24 114.27 147.233 114.27 147.978 114.765C148.722 115.261 148.722 115.757 147.978 116.253C147.233 116.748 146.24 116.748 145.496 116.253C144.751 115.757 144.751 115.261 145.496 114.765Z" fill="#16110D"/>
<path d="M154.185 111.047C154.929 111.543 154.929 112.039 154.185 112.534C153.44 113.03 152.447 113.03 151.703 112.534C150.958 112.039 150.958 111.543 151.703 111.047C152.447 110.799 153.44 110.799 154.185 111.047Z" fill="#16110D"/>
<path d="M159.145 109.313C160.105 109.313 160.883 108.869 160.883 108.322C160.883 107.774 160.105 107.33 159.145 107.33C158.186 107.33 157.408 107.774 157.408 108.322C157.408 108.869 158.186 109.313 159.145 109.313Z" fill="#16110D"/>
<path d="M139.044 111.049C139.789 110.553 140.781 110.553 141.526 111.049C142.271 111.544 142.271 112.04 141.526 112.536C140.781 113.031 139.789 113.031 139.044 112.536C138.548 112.288 138.548 111.544 139.044 111.049Z" fill="#16110D"/>
<path d="M147.732 107.578C148.476 108.074 148.476 108.569 147.732 109.065C146.987 109.561 145.994 109.561 145.25 109.065C144.505 108.569 144.505 108.074 145.25 107.578C145.994 107.082 147.235 107.082 147.732 107.578Z" fill="#16110D"/>
<path d="M154.185 103.861C154.929 104.356 154.929 104.852 154.185 105.348C153.44 105.844 152.447 105.844 151.703 105.348C150.958 104.852 150.958 104.356 151.703 103.861C152.447 103.613 153.44 103.613 154.185 103.861Z" fill="#16110D"/>
<path d="M30.091 55.7748C30.8356 56.2705 30.8356 56.7662 30.091 57.2619C29.3465 57.7576 28.3537 57.7576 27.6092 57.2619C26.8646 56.7662 26.8646 56.2705 27.6092 55.7748C28.3537 55.5269 29.3465 55.5269 30.091 55.7748Z" fill="#16110D"/>
<path d="M23.8859 52.3064C24.6305 52.8021 24.6305 53.2978 23.8859 53.7935C23.1414 54.2892 22.1487 54.2892 21.4041 53.7935C20.6596 53.2978 20.6596 52.8021 21.4041 52.3064C22.1487 51.8106 23.1414 51.8106 23.8859 52.3064Z" fill="#16110D"/>
<path d="M16.1924 50.3217C17.1518 50.3217 17.9296 49.8779 17.9296 49.3303C17.9296 48.7827 17.1518 48.3389 16.1924 48.3389C15.2329 48.3389 14.4551 48.7827 14.4551 49.3303C14.4551 49.8779 15.2329 50.3217 16.1924 50.3217Z" fill="#16110D"/>
<path d="M11.2297 44.8695C11.9742 45.3652 11.9742 45.8609 11.2297 46.3566C10.4851 46.8524 9.49241 46.8524 8.74786 46.3566C8.00332 45.8609 8.00332 45.3652 8.74786 44.8695C9.49241 44.6216 10.4851 44.6216 11.2297 44.8695Z" fill="#16110D"/>
<path d="M65.3318 50.0738C64.5873 49.5781 64.5873 49.0823 65.3318 48.5866C66.0764 48.0909 67.0691 48.0909 67.8137 48.5866C68.5582 49.0823 66.0764 50.3216 65.3318 50.0738Z" fill="#16110D"/>
<path d="M71.785 46.357C71.0404 45.8613 71.0404 45.3656 71.785 44.8698C72.5295 44.3741 73.5222 44.3741 74.2668 44.8698C74.7632 45.3656 72.2813 46.8527 71.785 46.357Z" fill="#16110D"/>
<path d="M77.9901 42.8873C77.2455 42.3915 77.2455 41.8958 77.9901 41.4001C78.7346 40.9044 79.7273 40.9044 80.4719 41.4001C80.9682 41.8958 78.7346 43.1351 77.9901 42.8873Z" fill="#16110D"/>
<path d="M48.9523 52.3064C49.6969 52.8021 49.6969 53.2978 48.9523 53.7935C48.2078 54.2892 47.2151 54.2892 46.4705 53.7935C45.726 53.2978 45.726 52.8021 46.4705 52.3064C47.2151 51.8106 48.2078 51.8106 48.9523 52.3064Z" fill="#16110D"/>
<path d="M55.1574 48.5873C55.902 49.083 55.902 49.5787 55.1574 50.0744C54.4129 50.5701 53.4201 50.5701 52.6756 50.0744C51.9311 49.5787 51.9311 49.083 52.6756 48.5873C53.4201 48.3394 54.6611 48.3394 55.1574 48.5873Z" fill="#16110D"/>
<path d="M60.3701 46.604C61.3296 46.604 62.1074 46.1601 62.1074 45.6125C62.1074 45.065 61.3296 44.6211 60.3701 44.6211C59.4106 44.6211 58.6328 45.065 58.6328 45.6125C58.6328 46.1601 59.4106 46.604 60.3701 46.604Z" fill="#16110D"/>
<path d="M66.5752 43.1333C67.5346 43.1333 68.3124 42.6894 68.3124 42.1418C68.3124 41.5943 67.5346 41.1504 66.5752 41.1504C65.6157 41.1504 64.8379 41.5943 64.8379 42.1418C64.8379 42.6894 65.6157 43.1333 66.5752 43.1333Z" fill="#16110D"/>
<path d="M74.0188 37.681C74.7633 38.1767 74.7633 38.6724 74.0188 39.1682C73.2742 39.6639 72.2815 39.6639 71.5369 39.1682C70.7924 38.6724 70.7924 38.1767 71.5369 37.681C72.2815 37.4332 73.5224 37.4332 74.0188 37.681Z" fill="#16110D"/>
<path d="M79.2314 35.9467C80.1909 35.9467 80.9687 35.5029 80.9687 34.9553C80.9687 34.4077 80.1909 33.9639 79.2314 33.9639C78.2719 33.9639 77.4941 34.4077 77.4941 34.9553C77.4941 35.5029 78.2719 35.9467 79.2314 35.9467Z" fill="#16110D"/>
<path d="M34.0643 52.3064C34.8088 51.8106 35.8016 51.8106 36.5461 52.3064C37.2907 52.8021 37.2907 53.2978 36.5461 53.7935C35.8016 54.2892 34.8088 54.2892 34.0643 53.7935C33.3197 53.2978 33.3197 52.5542 34.0643 52.3064Z" fill="#16110D"/>
<path d="M41.5088 50.3217C42.4682 50.3217 43.246 49.8779 43.246 49.3303C43.246 48.7827 42.4682 48.3389 41.5088 48.3389C40.5493 48.3389 39.7715 48.7827 39.7715 49.3303C39.7715 49.8779 40.5493 50.3217 41.5088 50.3217Z" fill="#16110D"/>
<path d="M48.9523 45.1179C49.6969 45.6136 49.6969 46.1093 48.9523 46.605C48.2078 47.1007 47.2151 47.1007 46.4705 46.605C45.726 46.1093 45.726 45.6136 46.4705 45.1179C47.2151 44.6222 48.2078 44.6222 48.9523 45.1179Z" fill="#16110D"/>
<path d="M55.1574 41.4001C55.902 41.8958 55.902 42.3915 55.1574 42.8873C54.4129 43.383 53.4201 43.383 52.6756 42.8873C51.9311 42.3915 51.9311 41.8958 52.6756 41.4001C53.4201 40.9044 54.6611 40.9044 55.1574 41.4001Z" fill="#16110D"/>
<path d="M61.6086 37.681C62.3531 38.1767 62.3531 38.6724 61.6086 39.1682C60.864 39.6639 59.8713 39.6639 59.1268 39.1682C58.3822 38.6724 58.3822 38.1767 59.1268 37.681C59.8713 37.4332 60.864 37.4332 61.6086 37.681Z" fill="#16110D"/>
<path d="M67.8137 34.2116C68.5582 34.7073 68.5582 35.2031 67.8137 35.6988C67.0691 36.1945 66.0764 36.1945 65.3318 35.6988C64.5873 35.2031 64.5873 34.7073 65.3318 34.2116C66.0764 33.7159 67.0691 33.7159 67.8137 34.2116Z" fill="#16110D"/>
<path d="M74.0188 30.4945C74.7633 30.9902 74.7633 31.4859 74.0188 31.9816C73.2742 32.4774 72.2815 32.4774 71.5369 31.9816C70.7924 31.4859 70.7924 30.9902 71.5369 30.4945C72.2815 30.2466 73.5224 30.2466 74.0188 30.4945Z" fill="#16110D"/>
<path d="M27.6106 48.5866C28.3551 48.0909 29.3478 48.0909 30.0924 48.5866C30.8369 49.0824 30.8369 49.5781 30.0924 50.0738C29.3478 50.5695 28.3551 50.5695 27.6106 50.0738C27.1142 49.5781 27.1142 49.0824 27.6106 48.5866Z" fill="#16110D"/>
<path d="M36.2961 45.1179C37.0406 45.6136 37.0406 46.1093 36.2961 46.605C35.5516 47.1007 34.5588 47.1007 33.8143 46.605C33.0697 46.1093 33.0697 45.6136 33.8143 45.1179C34.5588 44.6222 35.7997 44.6222 36.2961 45.1179Z" fill="#16110D"/>
<path d="M41.5088 43.1333C42.4682 43.1333 43.246 42.6894 43.246 42.1418C43.246 41.5943 42.4682 41.1504 41.5088 41.1504C40.5493 41.1504 39.7715 41.5943 39.7715 42.1418C39.7715 42.6894 40.5493 43.1333 41.5088 43.1333Z" fill="#16110D"/>
<path d="M48.9523 37.681C49.6969 38.1767 49.6969 38.6724 48.9523 39.1682C48.2078 39.6639 47.2151 39.6639 46.4705 39.1682C45.726 38.6724 45.726 38.1767 46.4705 37.681C47.2151 37.4332 48.2078 37.4332 48.9523 37.681Z" fill="#16110D"/>
<path d="M52.9236 34.2116C53.6682 33.7159 54.6609 33.7159 55.4055 34.2116C56.15 34.7073 56.15 35.2031 55.4055 35.6988C54.6609 36.1945 53.6682 36.1945 52.9236 35.6988C52.1791 35.2031 52.1791 34.4595 52.9236 34.2116C53.42 33.7159 52.1791 34.4595 52.9236 34.2116Z" fill="#16110D"/>
<path d="M61.6098 30.4943C62.3543 30.99 62.3543 31.4858 61.6098 31.9815C60.8652 32.4772 59.8725 32.4772 59.128 31.9815C58.3834 31.4858 60.8652 30.2465 61.6098 30.4943Z" fill="#16110D"/>
<path d="M67.8148 27.0236C68.5593 27.5193 68.5593 28.015 67.8148 28.5107C67.0702 29.0065 66.0775 29.0065 65.333 28.5107C64.8366 28.015 67.0702 26.5279 67.8148 27.0236Z" fill="#16110D"/>
<path d="M21.4041 45.1179C22.1487 44.6222 23.1414 44.6222 23.8859 45.1179C24.6305 45.6136 24.6305 46.1093 23.8859 46.605C23.1414 47.1007 22.1487 47.1007 21.4041 46.605C20.6596 46.1093 20.6596 45.3657 21.4041 45.1179Z" fill="#16110D"/>
<path d="M28.8506 43.1333C29.81 43.1333 30.5878 42.6894 30.5878 42.1418C30.5878 41.5943 29.81 41.1504 28.8506 41.1504C27.8911 41.1504 27.1133 41.5943 27.1133 42.1418C27.1133 42.6894 27.8911 43.1333 28.8506 43.1333Z" fill="#16110D"/>
<path d="M36.2961 37.681C37.0406 38.1767 37.0406 38.6724 36.2961 39.1682C35.5516 39.6639 34.5588 39.6639 33.8143 39.1682C33.0697 38.6724 33.0697 38.1767 33.8143 37.681C34.5588 37.4332 35.7997 37.4332 36.2961 37.681C37.0406 38.1767 35.7997 37.4332 36.2961 37.681Z" fill="#16110D"/>
<path d="M15.199 41.4001C15.9436 40.9044 16.9363 40.9044 17.6809 41.4001C18.4254 41.8958 18.4254 42.3915 17.6809 42.8873C16.9363 43.383 15.9436 43.383 15.199 42.8873C14.4545 42.3915 14.4545 41.8958 15.199 41.4001Z" fill="#16110D"/>
<path d="M22.6455 39.4165C23.605 39.4165 24.3828 38.9726 24.3828 38.425C24.3828 37.8775 23.605 37.4336 22.6455 37.4336C21.686 37.4336 20.9082 37.8775 20.9082 38.425C20.9082 38.9726 21.686 39.4165 22.6455 39.4165Z" fill="#16110D"/>
<path d="M30.091 35.4504C29.3465 35.9462 28.3537 35.9462 27.6092 35.4504C26.8646 34.9547 26.8646 34.459 27.6092 33.9633C28.3537 33.7154 30.8356 35.2026 30.091 35.4504Z" fill="#16110D"/>
<path d="M8.74532 37.6823C9.48987 37.1866 10.4826 37.1866 11.2271 37.6823C11.9717 38.1781 11.9717 38.6738 11.2271 39.1695C10.4826 39.6652 9.48987 39.6652 8.74532 39.1695C8.24896 38.6738 8.24896 38.1781 8.74532 37.6823Z" fill="#16110D"/>
<path d="M17.4328 34.2116C18.1774 34.7073 18.1774 35.2031 17.4328 35.6988C16.6883 36.1945 15.6955 36.1945 14.951 35.6988C14.2064 35.2031 14.2064 34.7073 14.951 34.2116C15.6955 33.7159 16.9365 33.7159 17.4328 34.2116Z" fill="#16110D"/>
<path d="M23.8859 31.9805C23.1414 32.4762 22.1487 32.4762 21.4041 31.9805C20.6596 31.4848 20.6596 30.989 21.4041 30.4933C22.1487 29.9976 24.3823 31.4848 23.8859 31.9805Z" fill="#16110D"/>
<path d="M9.24534 98.9032L9.49352 80.8096H159.644L159.396 98.4075C159.396 98.9032 159.396 98.4075 159.396 98.9032C159.148 101.63 156.914 104.108 153.191 106.339L97.1021 138.561C89.6566 142.774 78.2402 143.27 71.7874 139.552L13.7126 105.843C10.4863 104.108 8.99716 101.382 9.24534 98.9032Z" fill="#0066FF"/>
<path d="M9.24534 98.9032L9.49352 80.8096H159.644L159.396 98.4075C159.396 98.9032 159.396 98.4075 159.396 98.9032C159.148 101.63 156.914 104.108 153.191 106.339L97.1021 138.561C89.6566 142.774 78.2402 143.27 71.7874 139.552L13.7126 105.843C10.4863 104.108 8.99716 101.63 9.24534 98.9032Z" fill="#0066FF"/>
<path d="M82.9562 143.27C78.7371 143.27 74.518 142.527 71.5398 140.544L13.2169 106.835C9.7423 104.852 8.00502 101.878 8.50139 98.9035L8.74957 81.3055L160.886 79.8184L160.637 98.4077C160.637 98.6556 160.637 98.9035 160.637 99.1513C160.141 102.126 157.907 105.1 153.937 107.331L97.8472 139.552C93.6281 142.031 88.1681 143.27 82.9562 143.27ZM10.4869 81.5534L10.2387 98.9035C9.99049 101.134 11.2314 103.365 13.9614 105.1L72.5326 138.809C78.7371 142.279 89.6572 142.031 96.8545 137.817L152.944 105.596C156.17 103.613 158.156 101.382 158.652 98.9035V98.6556L158.9 82.0491H10.4869V81.5534Z" fill="#16110D"/>
<path d="M13.9599 88.2447L72.2828 121.953C78.7356 125.671 90.152 125.176 97.5975 120.962L153.687 88.7404C161.132 84.5268 161.877 77.8346 155.424 74.1168L96.8529 40.408C90.4002 36.6901 78.9838 37.1858 71.5383 41.3994L15.449 73.621C8.25167 78.0825 7.25894 84.5268 13.9599 88.2447Z" fill="#0066FF"/>
<path d="M13.2167 94.9361L71.5397 128.645C77.9924 132.363 89.4089 131.867 96.8543 127.653L152.944 95.4318C160.389 91.2182 161.134 84.526 154.681 80.8082L96.358 47.0994C89.9052 43.3815 78.4888 43.8772 71.0433 48.0908L14.954 80.3125C7.50853 84.7739 6.76398 91.2182 13.2167 94.9361Z" fill="white"/>
<path d="M83.205 125.423C78.9859 125.423 74.7668 124.68 71.7886 122.697L13.4656 88.9883C10.2392 87.2533 8.50195 84.5268 8.50195 81.8004C8.50195 78.5782 10.9838 75.1082 15.2029 72.6296L71.2922 40.408C78.9859 35.9466 90.8986 35.4508 97.5996 39.4166L155.923 73.1253C159.149 74.8603 160.886 77.5868 160.886 80.3132C160.886 83.5354 158.404 87.0054 154.185 89.484L98.0959 121.706C93.8768 124.184 88.4168 125.423 83.205 125.423ZM85.935 38.673C81.2195 38.673 76.0077 39.9123 72.0367 42.143L15.9474 74.3646C12.4729 76.5954 10.4874 79.3218 10.4874 81.8004C10.4874 83.7833 11.9765 85.7661 14.4583 87.2533L72.7813 120.962C78.9859 124.432 89.9059 124.184 97.1032 119.971L153.193 87.749C156.915 85.7661 158.901 83.0397 158.901 80.3132C158.901 78.3304 157.412 76.3475 154.93 74.8603L96.3587 41.1516C93.6286 39.4166 89.9059 38.673 85.935 38.673Z" fill="#16110D"/>
<path d="M83.4531 124.432V142.278L92.1395 140.791L103.308 135.586L156.419 104.356L159.645 100.142V80.5615L157.66 86.2623L145.995 92.9545L92.3877 123.193L83.4531 124.432Z" fill="#16110D"/>
<path d="M74.5172 123.193V140.791L68.0645 137.817V120.219L74.5172 123.193Z" fill="#16110D"/>
<path d="M12.7211 87.9961V104.85L10.2392 102.868L8.50195 91.4661L9.2465 81.5518L12.7211 87.9961Z" fill="#16110D"/>
<path d="M69.8017 17.1094L66.3271 18.3487C65.3344 17.3572 64.0935 16.3658 62.6044 15.3744C62.3562 15.1265 62.108 14.8787 61.6116 14.6308C61.8598 13.8872 62.108 12.8958 62.108 12.4001C61.8598 11.1608 53.918 6.20361 51.4361 4.71645C48.9543 3.47716 37.0415 2.98145 37.0415 2.98145L23.8878 12.4001L25.8733 13.6394C25.1288 13.8872 24.3842 14.3829 23.6397 14.6308C22.3987 15.3744 21.406 16.1179 20.1651 16.8615H14.7051V26.7759C14.9533 30.4937 17.1869 34.2116 21.9024 37.1859C32.0779 43.6302 49.6988 43.8781 60.8671 37.9295C66.5753 34.7073 69.8017 30.4937 69.8017 26.528V17.1094ZM36.5452 29.2544L29.3479 22.0665C30.0924 21.323 31.0851 20.5794 32.0779 20.0837C38.0343 16.8615 47.7134 16.8615 53.1734 20.3315C54.9107 21.323 56.1516 22.5623 56.648 24.0494L36.5452 29.2544Z" fill="#0066FF"/>
<path d="M41.7557 43.1347C34.3102 43.1347 26.6166 41.3997 21.1566 37.9297C16.4411 34.9554 13.7111 31.2375 13.4629 27.2718V26.7761V15.8703H19.6675C20.6602 15.1267 21.9011 14.3832 22.8938 13.8874C22.8938 13.8874 23.142 13.8874 23.142 13.6396L21.9011 12.6481L36.7921 1.99023H37.2884C38.5294 1.99023 49.4494 2.48595 52.1794 3.9731C52.1794 3.9731 63.0995 10.1696 63.3476 12.4003C63.3476 12.6481 63.3476 13.1439 63.0995 14.3832L63.3476 14.631C64.5886 15.3746 65.8295 16.366 66.8222 17.1096L71.2895 15.6225V27.2718C70.7931 31.9811 67.5667 36.1947 61.8585 39.169C55.9022 41.8955 48.953 43.1347 41.7557 43.1347ZM15.9447 26.7761C16.1929 30.2461 18.4265 33.7161 22.6457 36.1947C32.573 42.3912 49.4494 42.639 60.6176 36.6904C65.8295 33.964 68.8077 30.2461 69.0558 26.0325V25.5368V18.5968L66.3258 19.5882L65.8295 19.0925C64.5886 18.101 63.3476 17.1096 62.1067 16.366C61.8585 16.1182 61.6104 16.1182 61.3622 15.8703L60.1213 15.1267L60.3694 14.1353C60.8658 12.896 60.6176 12.4003 60.6176 12.4003C60.1213 11.6567 53.1721 6.9474 50.6903 5.70811C49.2012 4.96454 41.7557 4.22096 37.2884 3.9731L26.1202 12.4003L28.602 13.8874L26.6166 14.8789C25.6238 15.1267 24.8793 15.3746 24.3829 15.6225C23.142 16.366 21.9011 17.1096 20.9084 17.8532L20.6602 18.101H15.9447V26.7761ZM36.0475 30.494L27.6093 22.0668L28.3539 21.3232C29.0984 20.5796 30.3393 19.836 31.3321 19.0925C37.7848 15.6224 47.7121 15.8703 53.6685 19.3403C55.654 20.5796 56.8949 21.8189 57.6394 23.5539L58.1358 24.7932L36.0475 30.494ZM31.0839 22.0668L36.7921 27.7675L54.9094 23.0582C54.4131 22.3146 53.6685 21.8189 52.6758 21.0753C47.4639 17.8532 38.5294 17.6053 32.8211 20.8275C32.0766 21.3232 31.5802 21.8189 31.0839 22.0668Z" fill="#16110D"/>
<path d="M60.8633 28.5106C49.6951 34.4592 32.3223 34.2113 21.8986 28.0149C11.7231 21.5706 12.4677 11.4084 23.6359 5.45975C34.8041 -0.488851 52.4251 -0.240993 62.6006 6.20333C73.0243 12.3998 72.2797 22.562 60.8633 28.5106ZM32.3223 10.6648C26.3659 13.8869 25.8696 19.3398 31.3296 22.8098C36.7896 26.2799 46.2205 26.2799 52.4251 23.0577C58.3815 19.8355 58.8779 14.3827 53.4179 10.9126C47.7096 7.69048 38.2787 7.44262 32.3223 10.6648Z" fill="#0066FF"/>
<path d="M62.8519 9.1778C52.6764 2.73348 35.0554 2.48562 23.8872 8.68208C19.9162 10.6649 17.1862 13.3914 15.9453 16.1178V24.545C16.938 26.7758 19.1717 29.0065 22.1499 30.9893C32.3254 37.4337 49.9464 37.6815 61.1146 31.7329C72.2828 25.7843 73.0274 15.6221 62.8519 9.1778ZM52.6764 26.28C46.72 29.5022 37.0409 29.5022 31.5808 26.0322C26.1208 22.5622 26.369 17.1093 32.5736 13.8871C38.53 10.6649 48.2091 10.6649 53.6691 14.135C59.1291 17.605 58.6328 23.0579 52.6764 26.28Z" fill="white"/>
<path d="M41.7537 33.9638C34.3082 33.9638 26.6145 32.2288 21.1545 28.7587C15.9427 25.5366 13.2127 21.323 13.4609 16.8615C13.709 11.9044 16.9354 7.69076 23.14 4.4686C34.8046 -1.72786 52.6737 -1.48 63.3456 5.21218C68.5574 8.43434 71.2875 12.6479 71.0393 17.1094C70.7911 22.0666 67.5647 26.2802 61.3601 29.5023C55.9001 32.4766 48.951 33.9638 41.7537 33.9638ZM42.7464 2.23788C36.0455 2.23788 29.3446 3.72503 24.1327 6.45147C19.1691 9.17791 15.9427 13.1437 15.9427 17.1094C15.9427 20.8273 18.1763 24.2973 22.6436 27.0237C32.5709 33.2202 49.4474 33.468 60.6156 27.5194C65.8274 24.793 68.8056 20.8273 69.0538 16.8615C69.0538 13.1437 66.8202 9.67363 62.3529 6.94719C56.8928 3.97289 49.9437 2.23788 42.7464 2.23788ZM42.0019 26.7759C37.7828 26.7759 33.5637 25.7844 30.5855 24.0494C27.6073 22.3144 26.1182 19.8358 26.1182 17.1094C26.1182 14.3829 28.1036 11.6565 31.5782 9.92149C38.031 6.45147 47.9583 6.69933 53.9147 10.4172C56.8928 12.1522 58.3819 14.6308 58.3819 17.3572C58.3819 20.0837 56.3965 22.8101 52.9219 24.5451C49.9437 26.0323 45.9728 26.7759 42.0019 26.7759ZM42.4982 9.67363C39.0237 9.67363 35.5491 10.4172 32.8191 11.9044C30.0891 13.3915 28.6 15.1265 28.6 17.1094C28.6 18.8444 29.8409 20.5794 31.8264 22.0666C37.0382 25.2887 45.9728 25.5366 51.681 22.3144C54.411 20.8273 55.9001 19.0923 55.9001 17.1094C55.9001 15.3744 54.6592 13.6394 52.6737 12.1522C49.9437 10.4172 46.221 9.67363 42.4982 9.67363Z" fill="#16110D"/>
<path d="M44.4859 8.93066V17.8536L32.5732 19.3407L29.8432 21.3236L27.3613 17.6057L30.3395 11.4092L40.7632 8.93066H44.4859Z" fill="#16110D"/>
<path d="M37.0391 32.4767V42.1432L56.8937 40.1603L68.8065 31.7331L70.2956 21.0752L68.0619 22.5623L60.8646 28.511L49.4482 32.9724L37.0391 32.4767Z" fill="#16110D"/>
<path fill-rule="evenodd" clip-rule="evenodd" d="M101.32 92.0401L96.9721 97.1221L107.445 95.5759L101.32 92.0401ZM115.173 83.5604L103.001 90.5875L109.543 94.3643L115.173 83.5604ZM106.229 86.474L116.162 80.7392L112.822 78.8106L106.229 86.474ZM120.536 69.8566L114.224 77.1973L117.565 79.1259L122.349 70.0956L120.954 69.9365L120.536 69.8566ZM62.9203 97.9781L67.7918 100.791L69.34 97.8075L68.0837 97.8899C66.4092 97.8924 64.7347 97.8948 62.9203 97.9781ZM63.632 94.8351L83.6369 83.4459C82.8003 83.286 81.5448 83.2073 80.0109 82.9679C77.6326 84.341 69.6562 89.4283 63.632 94.8351ZM73.8732 82.4936C72.4735 83.4624 67.1552 87.0151 63.9225 92.2566C68.8247 88.1406 74.562 84.5067 77.3607 82.7301C76.1052 82.6514 74.9896 82.4919 73.8732 82.4936ZM53.1774 92.353L58.188 95.2459L58.1902 94.7625C58.1952 93.6346 58.4793 92.5063 58.6242 91.2976L53.1774 92.353ZM66.8961 82.5039C65.9161 83.2304 63.2502 86.5375 61.8333 91.3735C64.5035 87.0996 68.5642 83.9516 70.804 82.337C69.5478 82.4194 68.1524 82.4215 66.8961 82.5039ZM79.8932 78.0537L75.1366 80.7999C76.6712 80.8782 78.2058 80.9565 79.7397 81.1959C83.6455 81.5124 85.0394 81.8326 85.5962 82.154L86.2957 81.7502L79.8932 78.0537ZM62.2096 69.4595L59.251 75.8284L69.0296 73.397L62.2096 69.4595ZM80.9175 67.3371L64.7256 68.489L71.8241 72.5873L80.9175 67.3371ZM85.5242 66.9275L78.1095 71.2084L95.5712 66.9126L95.4349 66.1878L85.5242 66.9275ZM96.5453 98.9757L100.721 101.386L100.716 102.514L84.7673 111.722L82.8137 111.725L34.2383 83.6801L34.1034 82.633L50.0519 73.4251L52.0055 73.4222L56.1811 75.8329L59.9848 67.6904L61.2432 67.1245L96.4192 64.4945L97.9509 65.2173L99.7339 72.2237L96.8024 72.4697L95.8424 68.6847L58.2645 78.0051L52.4872 90.6622L59.3301 89.4436C61.1695 83.7208 64.9483 81.2178 65.2281 81.0562L66.2059 80.8131C67.7412 80.7303 69.5556 80.647 71.2301 80.6445L78.7847 76.2829L80.7383 76.28L95.4919 84.798L95.4869 85.9259L88.0722 90.2068C88.0679 91.1735 87.9237 92.2211 87.9187 93.349L87.4976 93.9135C87.2178 94.0751 82.8823 96.2567 72.6911 97.3191L70.7211 101.028L93.2027 97.5305L117.747 69.3773L112.588 68.4988L113.433 66.8862L124.448 68.7229L125.42 69.7688L111.349 96.2146L110.37 96.78L96.5453 98.9757Z" fill="#0066FF"/>
</svg>
