<svg width="143" height="149" viewBox="0 0 143 149" fill="none" xmlns="http://www.w3.org/2000/svg">
<path d="M25.9213 110.045C26.6095 110.502 26.6095 110.96 25.9213 111.418C25.2332 111.875 24.3156 111.875 23.6275 111.418C22.9393 110.96 22.9393 110.502 23.6275 110.045C24.3156 109.816 25.2332 109.816 25.9213 110.045Z" fill="#16110D"/>
<path d="M31.6577 106.841C32.3458 107.299 32.3458 107.757 31.6577 108.214C30.9695 108.672 30.0519 108.672 29.3638 108.214C28.6756 107.757 28.6756 107.299 29.3638 106.841C30.0519 106.384 31.1989 106.384 31.6577 106.841Z" fill="#16110D"/>
<path d="M36.4729 105.01C37.3597 105.01 38.0786 104.6 38.0786 104.095C38.0786 103.589 37.3597 103.18 36.4729 103.18C35.5861 103.18 34.8672 103.589 34.8672 104.095C34.8672 104.6 35.5861 105.01 36.4729 105.01Z" fill="#16110D"/>
<path d="M42.2073 101.578C43.0941 101.578 43.813 101.168 43.813 100.662C43.813 100.157 43.0941 99.7471 42.2073 99.7471C41.3205 99.7471 40.6016 100.157 40.6016 100.662C40.6016 101.168 41.3205 101.578 42.2073 101.578Z" fill="#16110D"/>
<path d="M49.0893 96.7719C49.7775 97.2296 49.7775 97.6872 49.0893 98.1449C48.4011 98.6025 47.4836 98.6025 46.7954 98.1449C46.1073 97.6872 46.1073 97.2296 46.7954 96.7719C47.4836 96.3143 48.6305 96.3143 49.0893 96.7719Z" fill="#16110D"/>
<path d="M55.0522 93.3406C55.7404 93.7982 55.7404 94.2559 55.0522 94.7135C54.364 95.1712 53.4465 95.1712 52.7583 94.7135C52.0701 94.2559 52.0701 93.7982 52.7583 93.3406C53.4465 93.1117 54.364 93.1117 55.0522 93.3406Z" fill="#16110D"/>
<path d="M60.7885 90.1362C61.4767 90.5938 61.4767 91.0515 60.7885 91.5091C60.1004 91.9668 59.1828 91.9668 58.4946 91.5091C57.8065 91.0515 57.8065 90.5938 58.4946 90.1362C59.1828 89.6786 60.1004 89.6786 60.7885 90.1362Z" fill="#16110D"/>
<path d="M66.5229 86.7046C67.2111 87.1622 67.2111 87.6198 66.5229 88.0775C65.8347 88.5351 64.9172 88.5351 64.229 88.0775C63.5408 87.6198 63.5408 87.1622 64.229 86.7046C64.9172 86.2469 66.0641 86.2469 66.5229 86.7046Z" fill="#16110D"/>
<path d="M72.4858 83.272C73.1739 83.7297 73.1739 84.1873 72.4858 84.645C71.7976 85.1026 70.8801 85.1026 70.1919 84.645C69.5037 84.1873 69.5037 83.7297 70.1919 83.272C70.8801 82.8144 71.7976 83.0432 72.4858 83.272Z" fill="#16110D"/>
<path d="M19.0374 108.213C19.9242 108.213 20.6431 107.804 20.6431 107.298C20.6431 106.793 19.9242 106.383 19.0374 106.383C18.1505 106.383 17.4316 106.793 17.4316 107.298C17.4316 107.804 18.1505 108.213 19.0374 108.213Z" fill="#16110D"/>
<path d="M25.9213 103.409C26.6095 103.866 26.6095 104.324 25.9213 104.782C25.2332 105.239 24.3156 105.239 23.6275 104.782C22.9393 104.324 22.9393 103.866 23.6275 103.409C24.3156 102.951 25.2332 102.951 25.9213 103.409Z" fill="#16110D"/>
<path d="M31.6577 99.9763C32.3458 100.434 32.3458 100.892 31.6577 101.349C30.9695 101.807 30.0519 101.807 29.3638 101.349C28.6756 100.892 28.6756 100.434 29.3638 99.9763C30.0519 99.7475 31.1989 99.7475 31.6577 99.9763Z" fill="#16110D"/>
<path d="M37.6186 96.7719C38.3068 97.2296 38.3068 97.6872 37.6186 98.1449C36.9304 98.6025 36.0129 98.6025 35.3247 98.1449C34.6366 97.6872 34.6366 97.2296 35.3247 96.7719C36.0129 96.3143 36.9304 96.3143 37.6186 96.7719Z" fill="#16110D"/>
<path d="M43.353 93.3406C44.0411 93.7982 44.0411 94.2559 43.353 94.7135C42.6648 95.1712 41.7473 95.1712 41.0591 94.7135C40.3709 94.2559 40.3709 93.7982 41.0591 93.3406C41.7473 93.1117 42.6648 93.1117 43.353 93.3406Z" fill="#16110D"/>
<path d="M49.0893 90.1362C49.7775 90.5938 49.7775 91.0515 49.0893 91.5091C48.4011 91.9668 47.4836 91.9668 46.7954 91.5091C46.1073 91.0515 46.1073 90.5938 46.7954 90.1362C47.4836 89.6786 48.6305 89.6786 49.0893 90.1362Z" fill="#16110D"/>
<path d="M53.9065 88.3071C54.7933 88.3071 55.5122 87.8974 55.5122 87.3919C55.5122 86.8864 54.7933 86.4766 53.9065 86.4766C53.0197 86.4766 52.3008 86.8864 52.3008 87.3919C52.3008 87.8974 53.0197 88.3071 53.9065 88.3071Z" fill="#16110D"/>
<path d="M60.7885 83.2722C61.4767 83.7298 61.4767 84.1875 60.7885 84.6451C60.1004 85.1028 59.1828 85.1028 58.4946 84.6451C57.8065 84.1875 57.8065 83.7298 58.4946 83.2722C59.1828 83.0434 60.1004 83.0434 60.7885 83.2722Z" fill="#16110D"/>
<path d="M65.3752 81.4419C66.2621 81.4419 66.981 81.0321 66.981 80.5266C66.981 80.0211 66.2621 79.6113 65.3752 79.6113C64.4884 79.6113 63.7695 80.0211 63.7695 80.5266C63.7695 81.0321 64.4884 81.4419 65.3752 81.4419Z" fill="#16110D"/>
<path d="M13.303 105.01C14.1898 105.01 14.9087 104.6 14.9087 104.095C14.9087 103.589 14.1898 103.18 13.303 103.18C12.4162 103.18 11.6973 103.589 11.6973 104.095C11.6973 104.6 12.4162 105.01 13.303 105.01Z" fill="#16110D"/>
<path d="M20.187 99.9763C20.8751 100.434 20.8751 100.892 20.187 101.349C19.4988 101.807 18.5812 101.807 17.8931 101.349C17.2049 100.892 17.2049 100.434 17.8931 99.9763C18.5812 99.7475 19.4988 99.7475 20.187 99.9763Z" fill="#16110D"/>
<path d="M25.9213 96.7719C26.6095 97.2296 26.6095 97.6872 25.9213 98.1449C25.2332 98.6025 24.3156 98.6025 23.6275 98.1449C22.9393 97.6872 22.9393 97.2296 23.6275 96.7719C24.3156 96.3143 25.2332 96.3143 25.9213 96.7719Z" fill="#16110D"/>
<path d="M30.7366 94.9419C31.6234 94.9419 32.3423 94.5321 32.3423 94.0266C32.3423 93.5211 31.6234 93.1113 30.7366 93.1113C29.8498 93.1113 29.1309 93.5211 29.1309 94.0266C29.1309 94.5321 29.8498 94.9419 30.7366 94.9419Z" fill="#16110D"/>
<path d="M36.4729 91.5103C37.3597 91.5103 38.0786 91.1005 38.0786 90.595C38.0786 90.0895 37.3597 89.6797 36.4729 89.6797C35.5861 89.6797 34.8672 90.0895 34.8672 90.595C34.8672 91.1005 35.5861 91.5103 36.4729 91.5103Z" fill="#16110D"/>
<path d="M42.2073 88.3062C43.0941 88.3062 43.813 87.8964 43.813 87.3909C43.813 86.8854 43.0941 86.4756 42.2073 86.4756C41.3205 86.4756 40.6016 86.8854 40.6016 87.3909C40.6016 87.8964 41.3205 88.3062 42.2073 88.3062Z" fill="#16110D"/>
<path d="M49.0893 83.2722C49.7775 83.7298 49.7775 84.1875 49.0893 84.6451C48.4011 85.1028 47.4836 85.1028 46.7954 84.6451C46.1073 84.1875 46.1073 83.7298 46.7954 83.2722C47.4836 83.0434 48.6305 83.0434 49.0893 83.2722Z" fill="#16110D"/>
<path d="M55.0522 80.0688C55.7404 80.5265 55.7404 80.9841 55.0522 81.4418C54.364 81.8994 53.4465 81.8994 52.7583 81.4418C52.0701 80.9841 52.0701 80.5265 52.7583 80.0688C53.4465 79.6112 54.364 79.6112 55.0522 80.0688Z" fill="#16110D"/>
<path d="M60.7885 76.6355C61.4767 77.0931 61.4767 77.5508 60.7885 78.0084C60.1004 78.4661 59.1828 78.4661 58.4946 78.0084C57.8065 77.5508 57.8065 77.0931 58.4946 76.6355C59.1828 76.4067 60.1004 76.4067 60.7885 76.6355Z" fill="#16110D"/>
<path d="M7.34204 101.578C8.22886 101.578 8.94776 101.168 8.94776 100.662C8.94776 100.157 8.22886 99.7471 7.34204 99.7471C6.45523 99.7471 5.73633 100.157 5.73633 100.662C5.73633 101.168 6.45523 101.578 7.34204 101.578Z" fill="#16110D"/>
<path d="M13.303 98.3745C14.1898 98.3745 14.9087 97.9647 14.9087 97.4592C14.9087 96.9537 14.1898 96.5439 13.303 96.5439C12.4162 96.5439 11.6973 96.9537 11.6973 97.4592C11.6973 97.9647 12.4162 98.3745 13.303 98.3745Z" fill="#16110D"/>
<path d="M20.187 93.3406C20.8751 93.7982 20.8751 94.2559 20.187 94.7135C19.4988 95.1712 18.5812 95.1712 17.8931 94.7135C17.2049 94.2559 17.2049 93.7982 17.8931 93.3406C18.5812 93.1117 19.4988 93.1117 20.187 93.3406Z" fill="#16110D"/>
<path d="M25.9213 90.1362C26.6095 90.5938 26.6095 91.0515 25.9213 91.5091C25.2332 91.9668 24.3156 91.9668 23.6275 91.5091C22.9393 91.0515 22.9393 90.5938 23.6275 90.1362C24.3156 89.6786 25.2332 89.6786 25.9213 90.1362Z" fill="#16110D"/>
<path d="M31.6577 86.7046C32.3458 87.1622 32.3458 87.6198 31.6577 88.0775C30.9695 88.5351 30.0519 88.5351 29.3638 88.0775C28.6756 87.6198 28.6756 87.1622 29.3638 86.7046C30.0519 86.2469 31.1989 86.2469 31.6577 86.7046Z" fill="#16110D"/>
<path d="M36.4729 84.8736C37.3597 84.8736 38.0786 84.4638 38.0786 83.9583C38.0786 83.4528 37.3597 83.043 36.4729 83.043C35.5861 83.043 34.8672 83.4528 34.8672 83.9583C34.8672 84.4638 35.5861 84.8736 36.4729 84.8736Z" fill="#16110D"/>
<path d="M42.2073 81.4419C43.0941 81.4419 43.813 81.0321 43.813 80.5266C43.813 80.0211 43.0941 79.6113 42.2073 79.6113C41.3205 79.6113 40.6016 80.0211 40.6016 80.5266C40.6016 81.0321 41.3205 81.4419 42.2073 81.4419Z" fill="#16110D"/>
<path d="M49.0893 76.6355C49.7775 77.0931 49.7775 77.5508 49.0893 78.0084C48.4011 78.4661 47.4836 78.4661 46.7954 78.0084C46.1073 77.5508 46.1073 77.0931 46.7954 76.6355C47.4836 76.4067 48.6305 76.4067 49.0893 76.6355Z" fill="#16110D"/>
<path d="M53.9065 74.8062C54.7933 74.8062 55.5122 74.3964 55.5122 73.8909C55.5122 73.3854 54.7933 72.9756 53.9065 72.9756C53.0197 72.9756 52.3008 73.3854 52.3008 73.8909C52.3008 74.3964 53.0197 74.8062 53.9065 74.8062Z" fill="#16110D"/>
<path d="M1.60572 98.3745C2.49253 98.3745 3.21143 97.9647 3.21143 97.4592C3.21143 96.9537 2.49253 96.5439 1.60572 96.5439C0.718904 96.5439 0 96.9537 0 97.4592C0 97.9647 0.718904 98.3745 1.60572 98.3745Z" fill="#16110D"/>
<path d="M7.34204 94.9419C8.22886 94.9419 8.94776 94.5321 8.94776 94.0266C8.94776 93.5211 8.22886 93.1113 7.34204 93.1113C6.45523 93.1113 5.73633 93.5211 5.73633 94.0266C5.73633 94.5321 6.45523 94.9419 7.34204 94.9419Z" fill="#16110D"/>
<path d="M13.303 91.5103C14.1898 91.5103 14.9087 91.1005 14.9087 90.595C14.9087 90.0895 14.1898 89.6797 13.303 89.6797C12.4162 89.6797 11.6973 90.0895 11.6973 90.595C11.6973 91.1005 12.4162 91.5103 13.303 91.5103Z" fill="#16110D"/>
<path d="M19.0374 88.3071C19.9242 88.3071 20.6431 87.8974 20.6431 87.3919C20.6431 86.8864 19.9242 86.4766 19.0374 86.4766C18.1505 86.4766 17.4316 86.8864 17.4316 87.3919C17.4316 87.8974 18.1505 88.3071 19.0374 88.3071Z" fill="#16110D"/>
<path d="M25.9213 83.2722C26.6095 83.7298 26.6095 84.1875 25.9213 84.6451C25.2332 85.1028 24.3156 85.1028 23.6275 84.6451C22.9393 84.1875 22.9393 83.7298 23.6275 83.2722C24.3156 83.0434 25.2332 83.0434 25.9213 83.2722Z" fill="#16110D"/>
<path d="M31.6577 80.0688C32.3458 80.5265 32.3458 80.9841 31.6577 81.4418C30.9695 81.8994 30.0519 81.8994 29.3638 81.4418C28.6756 80.9841 28.6756 80.5265 29.3638 80.0688C30.0519 79.6112 31.1989 79.6112 31.6577 80.0688Z" fill="#16110D"/>
<path d="M37.6186 76.6355C38.3068 77.0931 38.3068 77.5508 37.6186 78.0084C36.9304 78.4661 36.0129 78.4661 35.3247 78.0084C34.6366 77.5508 34.6366 77.0931 35.3247 76.6355C36.0129 76.4067 36.9304 76.4067 37.6186 76.6355Z" fill="#16110D"/>
<path d="M43.353 73.2029C44.0411 73.6605 44.0411 74.1182 43.353 74.5758C42.6648 75.0335 41.7473 75.0335 41.0591 74.5758C40.3709 74.1182 40.3709 73.6605 41.0591 73.2029C41.7473 72.974 42.6648 72.974 43.353 73.2029Z" fill="#16110D"/>
<path d="M49.0893 70.0005C49.7775 70.4581 49.7775 70.9158 49.0893 71.3734C48.4011 71.831 47.4836 71.831 46.7954 71.3734C46.1073 70.9158 46.1073 70.4581 46.7954 70.0005C47.4836 69.5428 48.6305 69.5428 49.0893 70.0005Z" fill="#16110D"/>
<path d="M1.60572 91.5103C2.49253 91.5103 3.21143 91.1005 3.21143 90.595C3.21143 90.0895 2.49253 89.6797 1.60572 89.6797C0.718904 89.6797 0 90.0895 0 90.595C0 91.1005 0.718904 91.5103 1.60572 91.5103Z" fill="#16110D"/>
<path d="M6.19369 86.7046C6.88186 86.2469 7.79941 86.2469 8.48757 86.7046C9.17573 87.1622 9.17573 87.6198 8.48757 88.0775C7.79941 88.5351 6.88186 88.5351 6.19369 88.0775C5.73492 87.6198 5.73492 86.9334 6.19369 86.7046C6.88186 86.2469 5.73492 86.9334 6.19369 86.7046Z" fill="#16110D"/>
<path d="M14.2233 83.2721C14.9115 83.7298 14.9115 84.1874 14.2233 84.645C13.5352 85.1027 12.6176 85.1027 11.9295 84.645C11.4707 84.1874 13.7646 83.0433 14.2233 83.2721Z" fill="#16110D"/>
<path d="M20.1868 80.0687C20.875 80.5263 20.875 80.984 20.1868 81.4416C19.4986 81.8993 18.5811 81.8993 17.8929 81.4416C17.2048 80.984 19.4986 79.611 20.1868 80.0687Z" fill="#16110D"/>
<path d="M25.9203 76.6361C26.6084 77.0937 26.6084 77.5513 25.9203 78.009C25.2321 78.4666 24.3146 78.4666 23.6264 78.009C23.1676 77.5513 25.2321 76.1784 25.9203 76.6361Z" fill="#16110D"/>
<path d="M31.655 73.2028C32.3432 73.6604 32.3432 74.1181 31.655 74.5757C30.9668 75.0333 30.0493 75.0333 29.3611 74.5757C28.9023 74.1181 31.1962 72.974 31.655 73.2028Z" fill="#16110D"/>
<path d="M37.6184 70.0013C38.3066 70.4589 38.3066 70.9166 37.6184 71.3742C36.9303 71.8319 36.0127 71.8319 35.3246 71.3742C34.6364 70.9166 36.9303 69.5436 37.6184 70.0013Z" fill="#16110D"/>
<path d="M43.3558 66.568C44.044 67.0257 44.044 67.4833 43.3558 67.9409C42.6677 68.3986 41.7501 68.3986 41.0619 67.9409C40.6032 67.4833 42.6677 66.3392 43.3558 66.568Z" fill="#16110D"/>
<path d="M66.9819 146.427C67.67 146.885 67.67 147.343 66.9819 147.8C66.2937 148.258 65.3762 148.258 64.688 147.8C63.9998 147.343 63.9998 146.885 64.688 146.427C65.3762 145.97 66.2937 145.97 66.9819 146.427Z" fill="#16110D"/>
<path d="M72.7163 142.995C73.4044 143.453 73.4044 143.91 72.7163 144.368C72.0281 144.825 71.1105 144.825 70.4224 144.368C69.7342 143.91 69.7342 143.453 70.4224 142.995C71.1105 142.766 72.0281 142.766 72.7163 142.995Z" fill="#16110D"/>
<path d="M78.4487 139.791C79.1368 140.249 79.1368 140.707 78.4487 141.164C77.7605 141.622 76.843 141.622 76.1548 141.164C75.4666 140.707 75.4666 140.249 76.1548 139.791C76.843 139.334 77.7605 139.334 78.4487 139.791Z" fill="#16110D"/>
<path d="M84.185 136.359C84.8732 136.817 84.8732 137.274 84.185 137.732C83.4968 138.189 82.5793 138.189 81.8911 137.732C81.203 137.274 81.203 136.817 81.8911 136.359C82.5793 135.901 83.7262 135.901 84.185 136.359Z" fill="#16110D"/>
<path d="M90.1498 132.927C90.838 133.385 90.838 133.843 90.1498 134.3C89.4617 134.758 88.5441 134.758 87.856 134.3C87.1678 133.843 87.1678 133.385 87.856 132.927C88.5441 132.699 89.4617 132.699 90.1498 132.927Z" fill="#16110D"/>
<path d="M94.7346 131.096C95.6214 131.096 96.3403 130.686 96.3403 130.181C96.3403 129.675 95.6214 129.266 94.7346 129.266C93.8478 129.266 93.1289 129.675 93.1289 130.181C93.1289 130.686 93.8478 131.096 94.7346 131.096Z" fill="#16110D"/>
<path d="M101.619 126.292C102.307 126.749 102.307 127.207 101.619 127.665C100.93 128.122 100.013 128.122 99.3247 127.665C98.6366 127.207 98.6366 126.749 99.3247 126.292C100.013 126.063 101.16 126.063 101.619 126.292Z" fill="#16110D"/>
<path d="M106.436 124.459C107.323 124.459 108.041 124.05 108.041 123.544C108.041 123.039 107.323 122.629 106.436 122.629C105.549 122.629 104.83 123.039 104.83 123.544C104.83 124.05 105.549 124.459 106.436 124.459Z" fill="#16110D"/>
<path d="M112.17 121.256C113.057 121.256 113.776 120.847 113.776 120.341C113.776 119.836 113.057 119.426 112.17 119.426C111.283 119.426 110.564 119.836 110.564 120.341C110.564 120.847 111.283 121.256 112.17 121.256Z" fill="#16110D"/>
<path d="M118.135 117.825C119.022 117.825 119.741 117.415 119.741 116.909C119.741 116.404 119.022 115.994 118.135 115.994C117.248 115.994 116.529 116.404 116.529 116.909C116.529 117.415 117.248 117.825 118.135 117.825Z" fill="#16110D"/>
<path d="M59.8674 144.597C60.7542 144.597 61.4731 144.187 61.4731 143.682C61.4731 143.176 60.7542 142.767 59.8674 142.767C58.9806 142.767 58.2617 143.176 58.2617 143.682C58.2617 144.187 58.9806 144.597 59.8674 144.597Z" fill="#16110D"/>
<path d="M66.9819 139.791C67.67 140.249 67.67 140.707 66.9819 141.164C66.2937 141.622 65.3762 141.622 64.688 141.164C63.9998 140.707 63.9998 140.249 64.688 139.791C65.3762 139.334 66.2937 139.334 66.9819 139.791Z" fill="#16110D"/>
<path d="M71.5706 137.959C72.4574 137.959 73.1763 137.55 73.1763 137.044C73.1763 136.539 72.4574 136.129 71.5706 136.129C70.6837 136.129 69.9648 136.539 69.9648 137.044C69.9648 137.55 70.6837 137.959 71.5706 137.959Z" fill="#16110D"/>
<path d="M77.303 134.529C78.1898 134.529 78.9087 134.119 78.9087 133.614C78.9087 133.108 78.1898 132.698 77.303 132.698C76.4162 132.698 75.6973 133.108 75.6973 133.614C75.6973 134.119 76.4162 134.529 77.303 134.529Z" fill="#16110D"/>
<path d="M83.2678 131.096C84.1546 131.096 84.8735 130.686 84.8735 130.181C84.8735 129.675 84.1546 129.266 83.2678 129.266C82.381 129.266 81.6621 129.675 81.6621 130.181C81.6621 130.686 82.381 131.096 83.2678 131.096Z" fill="#16110D"/>
<path d="M90.1498 126.292C90.838 126.749 90.838 127.207 90.1498 127.665C89.4617 128.122 88.5441 128.122 87.856 127.665C87.1678 127.207 87.1678 126.749 87.856 126.292C88.5441 126.063 89.4617 126.063 90.1498 126.292Z" fill="#16110D"/>
<path d="M95.8842 122.858C96.5724 123.316 96.5724 123.773 95.8842 124.231C95.1961 124.689 94.2785 124.689 93.5903 124.231C92.9022 123.773 92.9022 123.316 93.5903 122.858C94.2785 122.629 95.1961 122.629 95.8842 122.858Z" fill="#16110D"/>
<path d="M101.619 119.655C102.307 120.112 102.307 120.57 101.619 121.028C100.93 121.485 100.013 121.485 99.3247 121.028C98.6366 120.57 98.6366 120.112 99.3247 119.655C100.013 119.197 101.16 119.197 101.619 119.655Z" fill="#16110D"/>
<path d="M106.436 117.825C107.323 117.825 108.041 117.415 108.041 116.909C108.041 116.404 107.323 115.994 106.436 115.994C105.549 115.994 104.83 116.404 104.83 116.909C104.83 117.415 105.549 117.825 106.436 117.825Z" fill="#16110D"/>
<path d="M112.17 114.392C113.057 114.392 113.776 113.982 113.776 113.477C113.776 112.971 113.057 112.562 112.17 112.562C111.283 112.562 110.564 112.971 110.564 113.477C110.564 113.982 111.283 114.392 112.17 114.392Z" fill="#16110D"/>
<path d="M118.135 111.189C119.022 111.189 119.741 110.779 119.741 110.274C119.741 109.768 119.022 109.358 118.135 109.358C117.248 109.358 116.529 109.768 116.529 110.274C116.529 110.779 117.248 111.189 118.135 111.189Z" fill="#16110D"/>
<path d="M55.2807 139.791C55.9689 140.249 55.9689 140.707 55.2807 141.164C54.5925 141.622 53.675 141.622 52.9868 141.164C52.2987 140.707 52.2987 140.249 52.9868 139.791C53.675 139.334 54.5925 139.334 55.2807 139.791Z" fill="#16110D"/>
<path d="M61.017 136.359C61.7052 136.817 61.7052 137.274 61.017 137.732C60.3289 138.189 59.4113 138.189 58.7232 137.732C58.035 137.274 58.035 136.817 58.7232 136.359C59.4113 135.901 60.5583 135.901 61.017 136.359Z" fill="#16110D"/>
<path d="M66.9819 132.927C67.67 133.385 67.67 133.843 66.9819 134.3C66.2937 134.758 65.3762 134.758 64.688 134.3C63.9998 133.843 63.9998 133.385 64.688 132.927C65.3762 132.699 66.2937 132.699 66.9819 132.927Z" fill="#16110D"/>
<path d="M72.7163 129.723C73.4044 130.181 73.4044 130.638 72.7163 131.096C72.0281 131.554 71.1105 131.554 70.4224 131.096C69.7342 130.638 69.7342 130.181 70.4224 129.723C71.1105 129.265 72.0281 129.265 72.7163 129.723Z" fill="#16110D"/>
<path d="M77.303 127.892C78.1898 127.892 78.9087 127.482 78.9087 126.977C78.9087 126.471 78.1898 126.062 77.303 126.062C76.4162 126.062 75.6973 126.471 75.6973 126.977C75.6973 127.482 76.4162 127.892 77.303 127.892Z" fill="#16110D"/>
<path d="M84.185 122.858C84.8732 123.316 84.8732 123.773 84.185 124.231C83.4968 124.689 82.5793 124.689 81.8911 124.231C81.203 123.773 81.203 123.316 81.8911 122.858C82.5793 122.629 83.7262 122.629 84.185 122.858Z" fill="#16110D"/>
<path d="M90.1498 119.655C90.838 120.112 90.838 120.57 90.1498 121.028C89.4617 121.485 88.5441 121.485 87.856 121.028C87.1678 120.57 87.1678 120.112 87.856 119.655C88.5441 119.197 89.4617 119.197 90.1498 119.655Z" fill="#16110D"/>
<path d="M94.7346 117.825C95.6214 117.825 96.3403 117.415 96.3403 116.909C96.3403 116.404 95.6214 115.994 94.7346 115.994C93.8478 115.994 93.1289 116.404 93.1289 116.909C93.1289 117.415 93.8478 117.825 94.7346 117.825Z" fill="#16110D"/>
<path d="M101.619 113.019C102.307 113.477 102.307 113.934 101.619 114.392C100.93 114.85 100.013 114.85 99.3247 114.392C98.6366 113.934 98.6366 113.477 99.3247 113.019C100.013 112.561 101.16 112.561 101.619 113.019Z" fill="#16110D"/>
<path d="M106.436 111.189C107.323 111.189 108.041 110.779 108.041 110.274C108.041 109.768 107.323 109.358 106.436 109.358C105.549 109.358 104.83 109.768 104.83 110.274C104.83 110.779 105.549 111.189 106.436 111.189Z" fill="#16110D"/>
<path d="M113.32 106.154C114.008 106.612 114.008 107.069 113.32 107.527C112.632 107.985 111.714 107.985 111.026 107.527C110.338 107.069 110.338 106.612 111.026 106.154C111.714 105.925 112.632 105.925 113.32 106.154Z" fill="#16110D"/>
<path d="M49.5463 136.359C50.2345 136.817 50.2345 137.274 49.5463 137.732C48.8582 138.189 47.9406 138.189 47.2525 137.732C46.5643 137.274 46.5643 136.817 47.2525 136.359C47.9406 135.901 48.8582 135.901 49.5463 136.359Z" fill="#16110D"/>
<path d="M55.2807 132.927C55.9689 133.385 55.9689 133.843 55.2807 134.3C54.5925 134.758 53.675 134.758 52.9868 134.3C52.2987 133.843 52.2987 133.385 52.9868 132.927C53.675 132.699 54.5925 132.699 55.2807 132.927Z" fill="#16110D"/>
<path d="M59.8713 131.096C60.7582 131.096 61.4771 130.686 61.4771 130.181C61.4771 129.675 60.7582 129.266 59.8713 129.266C58.9845 129.266 58.2656 129.675 58.2656 130.181C58.2656 130.686 58.9845 131.096 59.8713 131.096Z" fill="#16110D"/>
<path d="M66.9819 126.292C67.67 126.749 67.67 127.207 66.9819 127.665C66.2937 128.122 65.3762 128.122 64.688 127.665C63.9998 127.207 63.9998 126.749 64.688 126.292C65.3762 126.063 66.2937 126.063 66.9819 126.292Z" fill="#16110D"/>
<path d="M71.5706 124.459C72.4574 124.459 73.1763 124.05 73.1763 123.544C73.1763 123.039 72.4574 122.629 71.5706 122.629C70.6837 122.629 69.9648 123.039 69.9648 123.544C69.9648 124.05 70.6837 124.459 71.5706 124.459Z" fill="#16110D"/>
<path d="M78.4487 119.655C79.1368 120.112 79.1368 120.57 78.4487 121.028C77.7605 121.485 76.843 121.485 76.1548 121.028C75.4666 120.57 75.4666 120.112 76.1548 119.655C76.843 119.197 77.7605 119.197 78.4487 119.655Z" fill="#16110D"/>
<path d="M84.185 116.222C84.8732 116.68 84.8732 117.138 84.185 117.595C83.4968 118.053 82.5793 118.053 81.8911 117.595C81.203 117.138 81.203 116.68 81.8911 116.222C82.5793 115.994 83.7262 115.994 84.185 116.222Z" fill="#16110D"/>
<path d="M90.1498 113.019C90.838 113.477 90.838 113.934 90.1498 114.392C89.4617 114.85 88.5441 114.85 87.856 114.392C87.1678 113.934 87.1678 113.477 87.856 113.019C88.5441 112.561 89.4617 112.561 90.1498 113.019Z" fill="#16110D"/>
<path d="M95.8842 109.586C96.5724 110.044 96.5724 110.502 95.8842 110.959C95.1961 111.417 94.2785 111.417 93.5903 110.959C92.9022 110.502 92.9022 110.044 93.5903 109.586C94.2785 109.129 95.1961 109.129 95.8842 109.586Z" fill="#16110D"/>
<path d="M101.619 106.154C102.307 106.612 102.307 107.069 101.619 107.527C100.93 107.985 100.013 107.985 99.3247 107.527C98.6366 107.069 98.6366 106.612 99.3247 106.154C100.013 105.925 101.16 105.925 101.619 106.154Z" fill="#16110D"/>
<path d="M106.436 104.553C107.323 104.553 108.041 104.143 108.041 103.638C108.041 103.132 107.323 102.723 106.436 102.723C105.549 102.723 104.83 103.132 104.83 103.638C104.83 104.143 105.549 104.553 106.436 104.553Z" fill="#16110D"/>
<path d="M43.5854 132.927C44.2736 133.385 44.2736 133.843 43.5854 134.3C42.8972 134.758 41.9797 134.758 41.2915 134.3C40.6033 133.843 40.6033 133.385 41.2915 132.927C41.9797 132.699 43.1266 132.699 43.5854 132.927Z" fill="#16110D"/>
<path d="M49.5463 129.723C50.2345 130.181 50.2345 130.638 49.5463 131.096C48.8582 131.554 47.9406 131.554 47.2525 131.096C46.5643 130.638 46.5643 130.181 47.2525 129.723C47.9406 129.265 48.8582 129.265 49.5463 129.723Z" fill="#16110D"/>
<path d="M55.2807 126.292C55.9689 126.749 55.9689 127.207 55.2807 127.665C54.5925 128.122 53.675 128.122 52.9868 127.665C52.2987 127.207 52.2987 126.749 52.9868 126.292C53.675 126.063 54.5925 126.063 55.2807 126.292Z" fill="#16110D"/>
<path d="M61.017 122.858C61.7052 123.316 61.7052 123.773 61.017 124.231C60.3289 124.689 59.4113 124.689 58.7232 124.231C58.035 123.773 58.035 123.316 58.7232 122.858C59.4113 122.629 60.5583 122.629 61.017 122.858Z" fill="#16110D"/>
<path d="M66.9819 119.655C67.67 120.112 67.67 120.57 66.9819 121.028C66.2937 121.485 65.3762 121.485 64.688 121.028C63.9998 120.57 63.9998 120.112 64.688 119.655C65.3762 119.197 66.2937 119.197 66.9819 119.655Z" fill="#16110D"/>
<path d="M71.5706 117.825C72.4574 117.825 73.1763 117.415 73.1763 116.909C73.1763 116.404 72.4574 115.994 71.5706 115.994C70.6837 115.994 69.9648 116.404 69.9648 116.909C69.9648 117.415 70.6837 117.825 71.5706 117.825Z" fill="#16110D"/>
<path d="M77.303 114.392C78.1898 114.392 78.9087 113.982 78.9087 113.477C78.9087 112.971 78.1898 112.562 77.303 112.562C76.4162 112.562 75.6973 112.971 75.6973 113.477C75.6973 113.982 76.4162 114.392 77.303 114.392Z" fill="#16110D"/>
<path d="M84.185 109.586C84.8732 110.044 84.8732 110.502 84.185 110.959C83.4968 111.417 82.5793 111.417 81.8911 110.959C81.203 110.502 81.203 110.044 81.8911 109.586C82.5793 109.129 83.7262 109.129 84.185 109.586Z" fill="#16110D"/>
<path d="M90.1498 106.154C90.838 106.612 90.838 107.069 90.1498 107.527C89.4617 107.985 88.5441 107.985 87.856 107.527C87.1678 107.069 87.1678 106.612 87.856 106.154C88.5441 105.925 89.4617 105.925 90.1498 106.154Z" fill="#16110D"/>
<path d="M95.8842 102.951C96.5724 103.408 96.5724 103.866 95.8842 104.324C95.1961 104.781 94.2785 104.781 93.5903 104.324C92.9022 103.866 92.9022 103.408 93.5903 102.951C94.2785 102.493 95.1961 102.493 95.8842 102.951Z" fill="#16110D"/>
<path d="M101.619 99.5183C102.307 99.9759 102.307 100.434 101.619 100.891C100.93 101.349 100.013 101.349 99.3247 100.891C98.6366 100.434 98.6366 99.9759 99.3247 99.5183C100.013 99.2895 101.16 99.2895 101.619 99.5183Z" fill="#16110D"/>
<path d="M37.8491 129.723C38.5372 130.181 38.5372 130.638 37.8491 131.096C37.1609 131.554 36.2433 131.554 35.5552 131.096C34.867 130.638 34.867 130.181 35.5552 129.723C36.2433 129.265 37.1609 129.265 37.8491 129.723Z" fill="#16110D"/>
<path d="M43.5854 126.29C44.2736 126.748 44.2736 127.206 43.5854 127.663C42.8972 128.121 41.9797 128.121 41.2915 127.663C40.6033 127.206 40.6033 126.748 41.2915 126.29C41.9797 125.833 42.8972 125.833 43.5854 126.29Z" fill="#16110D"/>
<path d="M49.3178 122.858C50.006 123.316 50.006 123.773 49.3178 124.231C48.6297 124.689 47.7121 124.689 47.0239 124.231C46.3358 123.773 46.3358 123.316 47.0239 122.858C47.7121 122.629 48.859 122.629 49.3178 122.858Z" fill="#16110D"/>
<path d="M55.2807 119.655C55.9689 120.112 55.9689 120.57 55.2807 121.028C54.5925 121.485 53.675 121.485 52.9868 121.028C52.2987 120.57 52.2987 120.112 52.9868 119.655C53.675 119.197 54.5925 119.197 55.2807 119.655Z" fill="#16110D"/>
<path d="M61.017 116.222C61.7052 116.68 61.7052 117.138 61.017 117.595C60.3289 118.053 59.4113 118.053 58.7232 117.595C58.035 117.138 58.035 116.68 58.7232 116.222C59.4113 115.994 60.3289 115.994 61.017 116.222Z" fill="#16110D"/>
<path d="M65.6038 114.392C66.4906 114.392 67.2095 113.982 67.2095 113.477C67.2095 112.971 66.4906 112.562 65.6038 112.562C64.717 112.562 63.998 112.971 63.998 113.477C63.998 113.982 64.717 114.392 65.6038 114.392Z" fill="#16110D"/>
<path d="M71.5706 111.189C72.4574 111.189 73.1763 110.779 73.1763 110.274C73.1763 109.768 72.4574 109.358 71.5706 109.358C70.6837 109.358 69.9648 109.768 69.9648 110.274C69.9648 110.779 70.6837 111.189 71.5706 111.189Z" fill="#16110D"/>
<path d="M77.303 107.755C78.1898 107.755 78.9087 107.346 78.9087 106.84C78.9087 106.335 78.1898 105.925 77.303 105.925C76.4162 105.925 75.6973 106.335 75.6973 106.84C75.6973 107.346 76.4162 107.755 77.303 107.755Z" fill="#16110D"/>
<path d="M84.185 102.951C84.8732 103.408 84.8732 103.866 84.185 104.324C83.4968 104.781 82.5793 104.781 81.8911 104.324C81.203 103.866 81.203 103.408 81.8911 102.951C82.5793 102.493 83.7262 102.493 84.185 102.951Z" fill="#16110D"/>
<path d="M90.1498 99.519C90.838 99.9767 90.838 100.434 90.1498 100.892C89.4617 101.35 88.5441 101.35 87.856 100.892C87.1678 100.434 87.1678 99.9767 87.856 99.519C88.5441 99.0614 89.4617 99.0614 90.1498 99.519Z" fill="#16110D"/>
<path d="M95.8842 96.0867C96.5724 96.5443 96.5724 97.0019 95.8842 97.4596C95.1961 97.9172 94.2785 97.9172 93.5903 97.4596C92.9022 97.0019 92.9022 96.5443 93.5903 96.0867C94.2785 95.8578 95.1961 95.8578 95.8842 96.0867Z" fill="#16110D"/>
<path d="M37.847 122.859C38.5351 123.317 38.5351 123.774 37.847 124.232C37.1588 124.69 36.2412 124.69 35.5531 124.232C34.8649 123.774 37.1588 122.63 37.847 122.859Z" fill="#16110D"/>
<path d="M42.4358 121.256C43.3226 121.256 44.0415 120.847 44.0415 120.341C44.0415 119.836 43.3226 119.426 42.4358 119.426C41.549 119.426 40.8301 119.836 40.8301 120.341C40.8301 120.847 41.549 121.256 42.4358 121.256Z" fill="#16110D"/>
<path d="M49.3178 116.222C50.006 116.68 50.006 117.138 49.3178 117.595C48.6297 118.053 47.7121 118.053 47.0239 117.595C46.3358 117.138 46.3358 116.68 47.0239 116.222C47.7121 115.994 48.859 115.994 49.3178 116.222Z" fill="#16110D"/>
<path d="M55.2807 112.791C55.9689 113.248 55.9689 113.706 55.2807 114.164C54.5925 114.621 53.675 114.621 52.9868 114.164C52.2987 113.706 52.2987 113.248 52.9868 112.791C53.675 112.562 54.5925 112.562 55.2807 112.791Z" fill="#16110D"/>
<path d="M61.017 109.586C61.7052 110.044 61.7052 110.502 61.017 110.959C60.3289 111.417 59.4113 111.417 58.7232 110.959C58.035 110.502 58.035 110.044 58.7232 109.586C59.4113 109.129 60.3289 109.129 61.017 109.586Z" fill="#16110D"/>
<path d="M66.7534 106.154C67.4415 106.612 67.4415 107.069 66.7534 107.527C66.0652 107.985 65.1476 107.985 64.4595 107.527C63.7713 107.069 63.7713 106.612 64.4595 106.154C65.1476 105.925 66.2946 105.925 66.7534 106.154Z" fill="#16110D"/>
<path d="M72.7163 102.951C73.4044 103.408 73.4044 103.866 72.7163 104.324C72.0281 104.781 71.1105 104.781 70.4224 104.324C69.7342 103.866 69.7342 103.408 70.4224 102.951C71.1105 102.493 72.0281 102.493 72.7163 102.951Z" fill="#16110D"/>
<path d="M77.303 101.121C78.1898 101.121 78.9087 100.711 78.9087 100.205C78.9087 99.6998 78.1898 99.29 77.303 99.29C76.4162 99.29 75.6973 99.6998 75.6973 100.205C75.6973 100.711 76.4162 101.121 77.303 101.121Z" fill="#16110D"/>
<path d="M84.185 96.0867C84.8732 96.5443 84.8732 97.0019 84.185 97.4596C83.4968 97.9172 82.5793 97.9172 81.8911 97.4596C81.203 97.0019 81.203 96.5443 81.8911 96.0867C82.5793 95.8578 83.7262 95.8578 84.185 96.0867Z" fill="#16110D"/>
<path d="M89.0042 94.4849C89.891 94.4849 90.6099 94.0751 90.6099 93.5696C90.6099 93.0641 89.891 92.6543 89.0042 92.6543C88.1173 92.6543 87.3984 93.0641 87.3984 93.5696C87.3984 94.0751 88.1173 94.4849 89.0042 94.4849Z" fill="#16110D"/>
<path d="M49.3178 109.586C50.006 110.044 50.006 110.502 49.3178 110.959C48.6297 111.417 47.7121 111.417 47.0239 110.959C46.3358 110.502 46.3358 110.044 47.0239 109.586C47.7121 109.129 48.859 109.129 49.3178 109.586Z" fill="#16110D"/>
<path d="M54.137 107.755C55.0238 107.755 55.7427 107.346 55.7427 106.84C55.7427 106.335 55.0238 105.925 54.137 105.925C53.2502 105.925 52.5312 106.335 52.5312 106.84C52.5312 107.346 53.2502 107.755 54.137 107.755Z" fill="#16110D"/>
<path d="M61.017 102.951C61.7052 103.408 61.7052 103.866 61.017 104.324C60.3289 104.781 59.4113 104.781 58.7232 104.324C58.035 103.866 58.035 103.408 58.7232 102.951C59.4113 102.493 60.3289 102.493 61.017 102.951Z" fill="#16110D"/>
<path d="M65.6038 101.121C66.4906 101.121 67.2095 100.711 67.2095 100.205C67.2095 99.6998 66.4906 99.29 65.6038 99.29C64.717 99.29 63.998 99.6998 63.998 100.205C63.998 100.711 64.717 101.121 65.6038 101.121Z" fill="#16110D"/>
<path d="M71.5706 97.688C72.4574 97.688 73.1763 97.2782 73.1763 96.7727C73.1763 96.2672 72.4574 95.8574 71.5706 95.8574C70.6837 95.8574 69.9648 96.2672 69.9648 96.7727C69.9648 97.2782 70.6837 97.688 71.5706 97.688Z" fill="#16110D"/>
<path d="M78.4487 92.8833C79.1368 93.3409 79.1368 93.7986 78.4487 94.2562C77.7605 94.7138 76.843 94.7138 76.1548 94.2562C75.4666 93.7986 75.4666 93.3409 76.1548 92.8833C76.843 92.4256 77.7605 92.4256 78.4487 92.8833Z" fill="#16110D"/>
<path d="M84.185 89.4499C84.8732 89.9076 84.8732 90.3652 84.185 90.8229C83.4968 91.2805 82.5793 91.2805 81.8911 90.8229C81.203 90.3652 81.203 89.9076 81.8911 89.4499C82.5793 89.2211 83.7262 89.2211 84.185 89.4499Z" fill="#16110D"/>
<path d="M36.7014 111.189C37.5882 111.189 38.3071 110.779 38.3071 110.274C38.3071 109.768 37.5882 109.358 36.7014 109.358C35.8146 109.358 35.0957 109.768 35.0957 110.274C35.0957 110.779 35.8146 111.189 36.7014 111.189Z" fill="#16110D"/>
<path d="M43.5854 106.154C44.2736 106.612 44.2736 107.069 43.5854 107.527C42.8972 107.985 41.9797 107.985 41.2915 107.527C40.6033 107.069 40.6033 106.612 41.2915 106.154C41.9797 105.925 42.8972 105.925 43.5854 106.154Z" fill="#16110D"/>
<path d="M49.3178 102.951C50.006 103.408 50.006 103.866 49.3178 104.324C48.6297 104.781 47.7121 104.781 47.0239 104.324C46.3358 103.866 46.3358 103.408 47.0239 102.951C47.7121 102.493 48.859 102.493 49.3178 102.951Z" fill="#16110D"/>
<path d="M55.2807 99.519C55.9689 99.9767 55.9689 100.434 55.2807 100.892C54.5925 101.35 53.675 101.35 52.9868 100.892C52.2987 100.434 52.2987 99.9767 52.9868 99.519C53.675 99.0614 54.5925 99.0614 55.2807 99.519Z" fill="#16110D"/>
<path d="M61.017 96.0867C61.7052 96.5443 61.7052 97.0019 61.017 97.4596C60.3289 97.9172 59.4113 97.9172 58.7232 97.4596C58.035 97.0019 58.035 96.5443 58.7232 96.0867C59.4113 95.8578 60.3289 95.8578 61.017 96.0867Z" fill="#16110D"/>
<path d="M65.6038 94.4849C66.4906 94.4849 67.2095 94.0751 67.2095 93.5696C67.2095 93.0641 66.4906 92.6543 65.6038 92.6543C64.717 92.6543 63.998 93.0641 63.998 93.5696C63.998 94.0751 64.717 94.4849 65.6038 94.4849Z" fill="#16110D"/>
<path d="M71.5706 91.0523C72.4574 91.0523 73.1763 90.6425 73.1763 90.137C73.1763 89.6315 72.4574 89.2217 71.5706 89.2217C70.6837 89.2217 69.9648 89.6315 69.9648 90.137C69.9648 90.6425 70.6837 91.0523 71.5706 91.0523Z" fill="#16110D"/>
<path d="M77.303 87.6196C78.1898 87.6196 78.9087 87.2098 78.9087 86.7043C78.9087 86.1989 78.1898 85.7891 77.303 85.7891C76.4162 85.7891 75.6973 86.1989 75.6973 86.7043C75.6973 87.2098 76.4162 87.6196 77.303 87.6196Z" fill="#16110D"/>
<path d="M78.2202 80.0688C78.9083 80.5265 78.9083 80.9841 78.2202 81.4418C77.532 81.8994 76.6144 81.8994 75.9263 81.4418C75.2381 80.9841 75.2381 80.5265 75.9263 80.0688C76.6144 79.6112 77.532 79.6112 78.2202 80.0688Z" fill="#16110D"/>
<path d="M83.9565 76.6355C84.6447 77.0931 84.6447 77.5508 83.9565 78.0084C83.2683 78.4661 82.3508 78.4661 81.6626 78.0084C80.9744 77.5508 80.9744 77.0931 81.6626 76.6355C82.3508 76.4067 83.4977 76.4067 83.9565 76.6355Z" fill="#16110D"/>
<path d="M88.7756 74.8062C89.6624 74.8062 90.3814 74.3964 90.3814 73.8909C90.3814 73.3854 89.6624 72.9756 88.7756 72.9756C87.8888 72.9756 87.1699 73.3854 87.1699 73.8909C87.1699 74.3964 87.8888 74.8062 88.7756 74.8062Z" fill="#16110D"/>
<path d="M94.51 71.6021C95.3968 71.6021 96.1157 71.1923 96.1157 70.6868C96.1157 70.1813 95.3968 69.7715 94.51 69.7715C93.6232 69.7715 92.9043 70.1813 92.9043 70.6868C92.9043 71.1923 93.6232 71.6021 94.51 71.6021Z" fill="#16110D"/>
<path d="M100.471 68.1695C101.358 68.1695 102.077 67.7597 102.077 67.2542C102.077 66.7487 101.358 66.3389 100.471 66.3389C99.5841 66.3389 98.8652 66.7487 98.8652 67.2542C98.8652 67.7597 99.5841 68.1695 100.471 68.1695Z" fill="#16110D"/>
<path d="M107.355 63.3647C108.043 63.8224 108.043 64.28 107.355 64.7377C106.667 65.1953 105.749 65.1953 105.061 64.7377C104.373 64.28 104.373 63.8224 105.061 63.3647C105.749 62.9071 106.667 62.9071 107.355 63.3647Z" fill="#16110D"/>
<path d="M113.091 59.9324C113.779 60.39 113.779 60.8476 113.091 61.3053C112.403 61.7629 111.486 61.7629 110.797 61.3053C110.109 60.8476 110.109 60.39 110.797 59.9324C111.486 59.7035 112.403 59.7035 113.091 59.9324Z" fill="#16110D"/>
<path d="M118.822 56.729C119.51 57.1866 119.51 57.6443 118.822 58.1019C118.134 58.5596 117.216 58.5596 116.528 58.1019C115.84 57.6443 115.84 57.1866 116.528 56.729C117.216 56.2713 118.363 56.2713 118.822 56.729Z" fill="#16110D"/>
<path d="M123.641 54.898C124.528 54.898 125.247 54.4882 125.247 53.9827C125.247 53.4772 124.528 53.0674 123.641 53.0674C122.754 53.0674 122.035 53.4772 122.035 53.9827C122.035 54.4882 122.754 54.898 123.641 54.898Z" fill="#16110D"/>
<path d="M129.373 51.4663C130.26 51.4663 130.979 51.0565 130.979 50.551C130.979 50.0455 130.26 49.6357 129.373 49.6357C128.486 49.6357 127.768 50.0455 127.768 50.551C127.768 51.0565 128.486 51.4663 129.373 51.4663Z" fill="#16110D"/>
<path d="M136.255 46.6606C136.943 47.1183 136.943 47.5759 136.255 48.0335C135.567 48.4912 134.65 48.4912 133.961 48.0335C133.273 47.5759 133.273 47.1183 133.961 46.6606C134.65 46.203 135.797 46.203 136.255 46.6606Z" fill="#16110D"/>
<path d="M142.222 43.2283C142.91 43.6859 142.91 44.1435 142.222 44.6012C141.534 45.0588 140.616 45.0588 139.928 44.6012C139.24 44.1435 139.24 43.6859 139.928 43.2283C140.616 42.9994 141.534 42.9994 142.222 43.2283Z" fill="#16110D"/>
<path d="M70.1919 76.6372C70.8801 76.1795 71.7976 76.1795 72.4858 76.6372C73.1739 77.0948 73.1739 77.5525 72.4858 78.0101C71.7976 78.4678 70.8801 78.4678 70.1919 78.0101C69.5037 77.5525 69.5037 77.0948 70.1919 76.6372Z" fill="#16110D"/>
<path d="M78.2202 73.4331C78.9083 73.8907 78.9083 74.3484 78.2202 74.806C77.532 75.2637 76.6144 75.2637 75.9263 74.806C75.2381 74.3484 75.2381 73.8907 75.9263 73.4331C76.6144 72.9754 77.532 72.9754 78.2202 73.4331Z" fill="#16110D"/>
<path d="M83.9565 70.0005C84.6447 70.4581 84.6447 70.9158 83.9565 71.3734C83.2683 71.831 82.3508 71.831 81.6626 71.3734C80.9744 70.9158 80.9744 70.4581 81.6626 70.0005C82.3508 69.5428 83.4977 69.5428 83.9565 70.0005Z" fill="#16110D"/>
<path d="M88.7737 68.1695C89.6605 68.1695 90.3794 67.7597 90.3794 67.2542C90.3794 66.7487 89.6605 66.3389 88.7737 66.3389C87.8869 66.3389 87.168 66.7487 87.168 67.2542C87.168 67.7597 87.8869 68.1695 88.7737 68.1695Z" fill="#16110D"/>
<path d="M94.51 64.9654C95.3968 64.9654 96.1157 64.5556 96.1157 64.0501C96.1157 63.5446 95.3968 63.1348 94.51 63.1348C93.6232 63.1348 92.9043 63.5446 92.9043 64.0501C92.9043 64.5556 93.6232 64.9654 94.51 64.9654Z" fill="#16110D"/>
<path d="M101.39 59.9324C102.078 60.39 102.078 60.8476 101.39 61.3053C100.702 61.7629 99.7844 61.7629 99.0962 61.3053C98.408 60.8476 98.408 60.39 99.0962 59.9324C99.7844 59.7035 100.931 59.7035 101.39 59.9324Z" fill="#16110D"/>
<path d="M107.355 56.729C108.043 57.1866 108.043 57.6443 107.355 58.1019C106.667 58.5596 105.749 58.5596 105.061 58.1019C104.373 57.6443 104.373 57.1866 105.061 56.729C105.749 56.2713 106.667 56.2713 107.355 56.729Z" fill="#16110D"/>
<path d="M113.091 53.2964C113.779 53.754 113.779 54.2116 113.091 54.6693C112.403 55.1269 111.486 55.1269 110.797 54.6693C110.109 54.2116 110.109 53.754 110.797 53.2964C111.486 52.8387 112.403 52.8387 113.091 53.2964Z" fill="#16110D"/>
<path d="M118.822 49.864C119.51 50.3216 119.51 50.7793 118.822 51.2369C118.134 51.6946 117.216 51.6946 116.528 51.2369C115.84 50.7793 115.84 50.3216 116.528 49.864C117.216 49.6352 118.363 49.6352 118.822 49.864Z" fill="#16110D"/>
<path d="M124.787 46.6606C125.475 47.1183 125.475 47.5759 124.787 48.0335C124.098 48.4912 123.181 48.4912 122.493 48.0335C121.805 47.5759 121.805 47.1183 122.493 46.6606C123.181 46.203 124.098 46.203 124.787 46.6606Z" fill="#16110D"/>
<path d="M129.373 44.8296C130.26 44.8296 130.979 44.4198 130.979 43.9143C130.979 43.4088 130.26 42.999 129.373 42.999C128.486 42.999 127.768 43.4088 127.768 43.9143C127.768 44.4198 128.486 44.8296 129.373 44.8296Z" fill="#16110D"/>
<path d="M136.255 39.7956C136.943 40.2533 136.943 40.7109 136.255 41.1686C135.567 41.6262 134.65 41.6262 133.961 41.1686C133.273 40.7109 133.273 40.2533 133.961 39.7956C134.65 39.5668 135.797 39.5668 136.255 39.7956Z" fill="#16110D"/>
<path d="M64.4595 73.4331C65.1476 72.9754 66.0652 72.9754 66.7534 73.4331C67.4415 73.8907 67.4415 74.3484 66.7534 74.806C66.0652 75.2637 65.1476 75.2637 64.4595 74.806C63.7713 74.3484 63.7713 73.6619 64.4595 73.4331Z" fill="#16110D"/>
<path d="M72.4858 70.0005C73.1739 70.4581 73.1739 70.9158 72.4858 71.3734C71.7976 71.831 70.8801 71.831 70.1919 71.3734C69.5037 70.9158 69.5037 70.4581 70.1919 70.0005C70.8801 69.5428 71.7976 69.5428 72.4858 70.0005Z" fill="#16110D"/>
<path d="M78.2202 66.5691C78.9083 67.0267 78.9083 67.4844 78.2202 67.942C77.532 68.3997 76.6144 68.3997 75.9263 67.942C75.2381 67.4844 75.2381 67.0267 75.9263 66.5691C76.6144 66.3403 77.532 66.3403 78.2202 66.5691Z" fill="#16110D"/>
<path d="M83.9565 63.3647C84.6447 63.8224 84.6447 64.28 83.9565 64.7377C83.2683 65.1953 82.3508 65.1953 81.6626 64.7377C80.9744 64.28 80.9744 63.8224 81.6626 63.3647C82.3508 62.9071 83.4977 62.9071 83.9565 63.3647Z" fill="#16110D"/>
<path d="M89.9194 59.9324C90.6075 60.39 90.6075 60.8476 89.9194 61.3053C89.2312 61.7629 88.3137 61.7629 87.6255 61.3053C86.9373 60.8476 86.9373 60.39 87.6255 59.9324C88.3137 59.7035 89.2312 59.7035 89.9194 59.9324Z" fill="#16110D"/>
<path d="M95.6557 56.729C96.3439 57.1866 96.3439 57.6443 95.6557 58.1019C94.9675 58.5596 94.05 58.5596 93.3618 58.1019C92.6737 57.6443 92.6737 57.1866 93.3618 56.729C94.05 56.2713 94.9675 56.2713 95.6557 56.729Z" fill="#16110D"/>
<path d="M101.39 53.2964C102.078 53.754 102.078 54.2116 101.39 54.6693C100.702 55.1269 99.7844 55.1269 99.0962 54.6693C98.408 54.2116 98.408 53.754 99.0962 53.2964C99.7844 52.8387 100.931 52.8387 101.39 53.2964Z" fill="#16110D"/>
<path d="M107.355 49.864C108.043 50.3216 108.043 50.7793 107.355 51.2369C106.667 51.6946 105.749 51.6946 105.061 51.2369C104.373 50.7793 104.373 50.3216 105.061 49.864C105.749 49.6352 106.667 49.6352 107.355 49.864Z" fill="#16110D"/>
<path d="M113.087 46.6606C113.776 47.1183 113.776 47.5759 113.087 48.0335C112.399 48.4912 111.482 48.4912 110.793 48.0335C110.105 47.5759 110.105 47.1183 110.793 46.6606C111.482 46.203 112.399 46.203 113.087 46.6606Z" fill="#16110D"/>
<path d="M117.907 44.8296C118.793 44.8296 119.512 44.4198 119.512 43.9143C119.512 43.4088 118.793 42.999 117.907 42.999C117.02 42.999 116.301 43.4088 116.301 43.9143C116.301 44.4198 117.02 44.8296 117.907 44.8296Z" fill="#16110D"/>
<path d="M123.641 41.397C124.528 41.397 125.247 40.9872 125.247 40.4817C125.247 39.9762 124.528 39.5664 123.641 39.5664C122.754 39.5664 122.035 39.9762 122.035 40.4817C122.035 40.9872 122.754 41.397 123.641 41.397Z" fill="#16110D"/>
<path d="M129.373 38.1939C130.26 38.1939 130.979 37.7841 130.979 37.2786C130.979 36.7731 130.26 36.3633 129.373 36.3633C128.486 36.3633 127.768 36.7731 127.768 37.2786C127.768 37.7841 128.486 38.1939 129.373 38.1939Z" fill="#16110D"/>
<path d="M58.7232 70.0005C59.4113 69.5428 60.3289 69.5428 61.017 70.0005C61.7052 70.4581 61.7052 70.9158 61.017 71.3734C60.3289 71.831 59.4113 71.831 58.7232 71.3734C58.035 70.9158 58.035 70.4581 58.7232 70.0005Z" fill="#16110D"/>
<path d="M66.7534 66.5691C67.4415 67.0267 67.4415 67.4844 66.7534 67.942C66.0652 68.3997 65.1476 68.3997 64.4595 67.942C63.7713 67.4844 63.7713 67.0267 64.4595 66.5691C65.1476 66.3403 66.0652 66.3403 66.7534 66.5691Z" fill="#16110D"/>
<path d="M72.4858 63.3647C73.1739 63.8224 73.1739 64.28 72.4858 64.7377C71.7976 65.1953 70.8801 65.1953 70.1919 64.7377C69.5037 64.28 69.5037 63.8224 70.1919 63.3647C70.8801 62.9071 71.7976 62.9071 72.4858 63.3647Z" fill="#16110D"/>
<path d="M78.2202 59.9324C78.9083 60.39 78.9083 60.8476 78.2202 61.3053C77.532 61.7629 76.6144 61.7629 75.9263 61.3053C75.2381 60.8476 75.2381 60.39 75.9263 59.9324C76.6144 59.7035 77.532 59.7035 78.2202 59.9324Z" fill="#16110D"/>
<path d="M83.0393 58.1021C83.9261 58.1021 84.645 57.6923 84.645 57.1868C84.645 56.6813 83.9261 56.2715 83.0393 56.2715C82.1525 56.2715 81.4336 56.6813 81.4336 57.1868C81.4336 57.6923 82.1525 58.1021 83.0393 58.1021Z" fill="#16110D"/>
<path d="M88.7756 54.898C89.6624 54.898 90.3814 54.4882 90.3814 53.9827C90.3814 53.4772 89.6624 53.0674 88.7756 53.0674C87.8888 53.0674 87.1699 53.4772 87.1699 53.9827C87.1699 54.4882 87.8888 54.898 88.7756 54.898Z" fill="#16110D"/>
<path d="M94.51 51.4663C95.3968 51.4663 96.1157 51.0565 96.1157 50.551C96.1157 50.0455 95.3968 49.6357 94.51 49.6357C93.6232 49.6357 92.9043 50.0455 92.9043 50.551C92.9043 51.0565 93.6232 51.4663 94.51 51.4663Z" fill="#16110D"/>
<path d="M101.39 46.6606C102.078 47.1183 102.078 47.5759 101.39 48.0335C100.702 48.4912 99.7844 48.4912 99.0962 48.0335C98.408 47.5759 98.408 47.1183 99.0962 46.6606C99.7844 46.203 100.931 46.203 101.39 46.6606Z" fill="#16110D"/>
<path d="M106.205 44.8296C107.092 44.8296 107.811 44.4198 107.811 43.9143C107.811 43.4088 107.092 42.999 106.205 42.999C105.319 42.999 104.6 43.4088 104.6 43.9143C104.6 44.4198 105.319 44.8296 106.205 44.8296Z" fill="#16110D"/>
<path d="M113.087 39.7956C113.776 40.2533 113.776 40.7109 113.087 41.1686C112.399 41.6262 111.482 41.6262 110.793 41.1686C110.105 40.7109 110.105 40.2533 110.793 39.7956C111.482 39.5668 112.399 39.5668 113.087 39.7956Z" fill="#16110D"/>
<path d="M118.822 36.5923C119.51 37.0499 119.51 37.5075 118.822 37.9652C118.134 38.4228 117.216 38.4228 116.528 37.9652C115.84 37.5075 115.84 37.0499 116.528 36.5923C117.216 36.1346 118.363 36.1346 118.822 36.5923Z" fill="#16110D"/>
<path d="M124.787 33.1599C125.475 33.6175 125.475 34.0752 124.787 34.5328C124.098 34.9905 123.181 34.9905 122.493 34.5328C121.805 34.0752 121.805 33.6175 122.493 33.1599C123.181 32.9311 124.098 32.9311 124.787 33.1599Z" fill="#16110D"/>
<path d="M52.7601 66.5678C53.4483 66.1102 54.3658 66.1102 55.054 66.5678C55.7421 67.0255 55.7421 67.4831 55.054 67.9408C54.3658 68.3984 53.4483 68.3984 52.7601 67.9408C52.3013 67.4831 52.3013 67.0255 52.7601 66.5678Z" fill="#16110D"/>
<path d="M59.6409 64.9654C60.5277 64.9654 61.2466 64.5556 61.2466 64.0501C61.2466 63.5446 60.5277 63.1348 59.6409 63.1348C58.7541 63.1348 58.0352 63.5446 58.0352 64.0501C58.0352 64.5556 58.7541 64.9654 59.6409 64.9654Z" fill="#16110D"/>
<path d="M66.7534 59.9324C67.4415 60.39 67.4415 60.8476 66.7534 61.3053C66.0652 61.7629 65.1476 61.7629 64.4595 61.3053C63.7713 60.8476 63.7713 60.39 64.4595 59.9324C65.1476 59.7035 66.0652 59.7035 66.7534 59.9324Z" fill="#16110D"/>
<path d="M71.3401 58.1021C72.2269 58.1021 72.9458 57.6923 72.9458 57.1868C72.9458 56.6813 72.2269 56.2715 71.3401 56.2715C70.4533 56.2715 69.7344 56.6813 69.7344 57.1868C69.7344 57.6923 70.4533 58.1021 71.3401 58.1021Z" fill="#16110D"/>
<path d="M78.2202 53.2964C78.9083 53.754 78.9083 54.2116 78.2202 54.6693C77.532 55.1269 76.6144 55.1269 75.9263 54.6693C75.2381 54.2116 75.2381 53.754 75.9263 53.2964C76.6144 52.8387 77.532 52.8387 78.2202 53.2964Z" fill="#16110D"/>
<path d="M83.9565 49.864C84.6447 50.3216 84.6447 50.7793 83.9565 51.2369C83.2683 51.6946 82.3508 51.6946 81.6626 51.2369C80.9744 50.7793 80.9744 50.3216 81.6626 49.864C82.3508 49.6352 83.4977 49.6352 83.9565 49.864Z" fill="#16110D"/>
<path d="M89.9194 46.6606C90.6075 47.1183 90.6075 47.5759 89.9194 48.0335C89.2312 48.4912 88.3137 48.4912 87.6255 48.0335C86.9373 47.5759 86.9373 47.1183 87.6255 46.6606C88.3137 46.203 89.2312 46.203 89.9194 46.6606Z" fill="#16110D"/>
<path d="M94.51 44.8296C95.3968 44.8296 96.1157 44.4198 96.1157 43.9143C96.1157 43.4088 95.3968 42.999 94.51 42.999C93.6232 42.999 92.9043 43.4088 92.9043 43.9143C92.9043 44.4198 93.6232 44.8296 94.51 44.8296Z" fill="#16110D"/>
<path d="M101.39 39.7956C102.078 40.2533 102.078 40.7109 101.39 41.1686C100.702 41.6262 99.7844 41.6262 99.0962 41.1686C98.408 40.7109 98.408 40.2533 99.0962 39.7956C99.7844 39.5668 100.931 39.5668 101.39 39.7956Z" fill="#16110D"/>
<path d="M106.205 38.1939C107.092 38.1939 107.811 37.7841 107.811 37.2786C107.811 36.7731 107.092 36.3633 106.205 36.3633C105.319 36.3633 104.6 36.7731 104.6 37.2786C104.6 37.7841 105.319 38.1939 106.205 38.1939Z" fill="#16110D"/>
<path d="M113.087 33.1599C113.776 33.6175 113.776 34.0752 113.087 34.5328C112.399 34.9905 111.482 34.9905 110.793 34.5328C110.105 34.0752 110.105 33.6175 110.793 33.1599C111.482 32.9311 112.399 32.9311 113.087 33.1599Z" fill="#16110D"/>
<path d="M118.822 29.9565C119.51 30.4142 119.51 30.8718 118.822 31.3295C118.134 31.7871 117.216 31.7871 116.528 31.3295C115.84 30.8718 115.84 30.4142 116.528 29.9565C117.216 29.4989 118.363 29.4989 118.822 29.9565C119.51 30.1853 118.363 29.4989 118.822 29.9565Z" fill="#16110D"/>
<path d="M49.0905 63.3655C49.7787 63.8232 49.7787 64.2808 49.0905 64.7385C48.4024 65.1961 47.4848 65.1961 46.7967 64.7385C46.3379 64.2808 48.6318 62.9079 49.0905 63.3655Z" fill="#16110D"/>
<path d="M52.7583 59.9321C53.4465 59.4745 54.364 59.4745 55.0522 59.9321C55.7404 60.3897 55.7404 60.8474 55.0522 61.305C54.364 61.7627 53.4465 61.7627 52.7583 61.305C52.0701 60.8474 52.0701 60.3897 52.7583 59.9321C53.4465 59.4745 52.0701 60.3897 52.7583 59.9321Z" fill="#16110D"/>
<path d="M58.4925 56.4995C59.1807 56.0418 60.0982 56.0418 60.7864 56.4995C61.4746 56.9571 61.4746 57.4148 60.7864 57.8724C60.0982 58.3301 59.1807 58.3301 58.4925 57.8724C58.0337 57.4148 58.0337 56.9571 58.4925 56.4995C59.1807 56.2707 58.0337 56.9571 58.4925 56.4995Z" fill="#16110D"/>
<path d="M66.5229 53.2964C67.2111 53.754 67.2111 54.2116 66.5229 54.6693C65.8347 55.1269 64.9172 55.1269 64.229 54.6693C63.5408 54.2116 63.5408 53.754 64.229 53.2964C64.9172 52.8387 66.0641 52.8387 66.5229 53.2964Z" fill="#16110D"/>
<path d="M72.4858 49.864C73.1739 50.3216 73.1739 50.7793 72.4858 51.2369C71.7976 51.6946 70.8801 51.6946 70.1919 51.2369C69.5037 50.7793 69.5037 50.3216 70.1919 49.864C70.8801 49.6352 71.7976 49.6352 72.4858 49.864Z" fill="#16110D"/>
<path d="M78.2202 46.6606C78.9083 47.1183 78.9083 47.5759 78.2202 48.0335C77.532 48.4912 76.6144 48.4912 75.9263 48.0335C75.2381 47.5759 75.2381 47.1183 75.9263 46.6606C76.6144 46.203 77.532 46.203 78.2202 46.6606Z" fill="#16110D"/>
<path d="M83.9565 43.228C84.6447 43.6856 84.6447 44.1433 83.9565 44.6009C83.2683 45.0586 82.3508 45.0586 81.6626 44.6009C80.9744 44.1433 80.9744 43.6856 81.6626 43.228C82.3508 42.7704 83.4977 42.7704 83.9565 43.228Z" fill="#16110D"/>
<path d="M88.7756 41.397C89.6624 41.397 90.3814 40.9872 90.3814 40.4817C90.3814 39.9762 89.6624 39.5664 88.7756 39.5664C87.8888 39.5664 87.1699 39.9762 87.1699 40.4817C87.1699 40.9872 87.8888 41.397 88.7756 41.397Z" fill="#16110D"/>
<path d="M94.51 37.9653C95.3968 37.9653 96.1157 37.5555 96.1157 37.0501C96.1157 36.5446 95.3968 36.1348 94.51 36.1348C93.6232 36.1348 92.9043 36.5446 92.9043 37.0501C92.9043 37.5555 93.6232 37.9653 94.51 37.9653Z" fill="#16110D"/>
<path d="M99.3247 33.1606C100.013 32.703 100.93 32.703 101.619 33.1606C102.307 33.6183 102.307 34.0759 101.619 34.5336C100.93 34.9912 100.013 34.9912 99.3247 34.5336C98.6366 34.0759 98.6366 33.6183 99.3247 33.1606C99.7835 32.9318 98.6366 33.6183 99.3247 33.1606Z" fill="#16110D"/>
<path d="M107.355 29.7272C108.043 30.1848 108.043 30.6425 107.355 31.1001C106.667 31.5578 105.749 31.5578 105.061 31.1001C104.373 30.6425 106.667 29.4984 107.355 29.7272Z" fill="#16110D"/>
<path d="M99.5532 92.8833C100.241 92.4256 101.159 92.4256 101.847 92.8833C102.535 93.3409 102.535 93.7986 101.847 94.2562C101.159 94.7138 100.241 94.7138 99.5532 94.2562C98.8651 93.7986 98.8651 93.1121 99.5532 92.8833Z" fill="#16110D"/>
<path d="M93.5902 89.4507C94.2783 88.993 95.1959 88.993 95.8841 89.4507C96.5722 89.9083 96.5722 90.3659 95.8841 90.8236C95.1959 91.2812 94.2783 91.2812 93.5902 90.8236C93.1314 90.3659 93.1314 89.9083 93.5902 89.4507Z" fill="#16110D"/>
<path d="M101.619 86.2466C102.307 86.7042 102.307 87.1618 101.619 87.6195C100.93 88.0771 100.013 88.0771 99.3247 87.6195C98.6366 87.1618 98.6366 86.7042 99.3247 86.2466C100.013 85.7889 101.16 85.7889 101.619 86.2466Z" fill="#16110D"/>
<path d="M87.856 86.2466C88.5441 85.7889 89.4617 85.7889 90.1498 86.2466C90.838 86.7042 90.838 87.1618 90.1498 87.6195C89.4617 88.0771 88.5441 88.0771 87.856 87.6195C87.1678 87.1618 87.1678 86.4754 87.856 86.2466Z" fill="#16110D"/>
<path d="M95.8842 82.8152C96.5724 83.2728 96.5724 83.7305 95.8842 84.1881C95.1961 84.6457 94.2785 84.6457 93.5903 84.1881C92.9022 83.7305 92.9022 83.2728 93.5903 82.8152C94.2785 82.5863 95.1961 82.5863 95.8842 82.8152Z" fill="#16110D"/>
<path d="M101.619 79.3826C102.307 79.8402 102.307 80.2978 101.619 80.7555C100.93 81.2131 100.013 81.2131 99.3247 80.7555C98.6366 80.2978 98.6366 79.8402 99.3247 79.3826C100.013 79.1537 101.16 79.1537 101.619 79.3826Z" fill="#16110D"/>
<path d="M82.1216 82.8139C82.8098 82.3563 83.7273 82.3563 84.4155 82.8139C85.1036 83.2716 85.1036 83.7292 84.4155 84.1869C83.7273 84.6445 82.8098 84.6445 82.1216 84.1869C81.4334 83.7292 81.4334 83.2716 82.1216 82.8139Z" fill="#16110D"/>
<path d="M90.1498 79.3826C90.838 79.8402 90.838 80.2978 90.1498 80.7555C89.4617 81.2131 88.5441 81.2131 87.856 80.7555C87.1678 80.2978 87.1678 79.8402 87.856 79.3826C88.5441 79.1537 89.4617 79.1537 90.1498 79.3826Z" fill="#16110D"/>
<path d="M95.8842 76.1782C96.5724 76.6358 96.5724 77.0935 95.8842 77.5511C95.1961 78.0088 94.2785 78.0088 93.5903 77.5511C92.9022 77.0935 92.9022 76.6358 93.5903 76.1782C94.2785 75.7205 95.1961 75.7205 95.8842 76.1782Z" fill="#16110D"/>
<path d="M101.619 72.7458C102.307 73.2035 102.307 73.6611 101.619 74.1188C100.93 74.5764 100.013 74.5764 99.3247 74.1188C98.6366 73.6611 98.6366 73.2035 99.3247 72.7458C100.013 72.517 101.16 72.517 101.619 72.7458Z" fill="#16110D"/>
<path d="M107.583 70.6869C106.895 71.1445 105.978 71.1445 105.29 70.6869C104.601 70.2292 104.601 69.7716 105.29 69.3139C105.978 68.8563 106.895 68.8563 107.583 69.3139C108.042 69.7716 108.042 70.4581 107.583 70.6869C106.895 71.1445 108.042 70.4581 107.583 70.6869Z" fill="#16110D"/>
<path d="M113.32 66.1108C114.008 66.5685 114.008 67.0261 113.32 67.4837C112.632 67.9414 111.714 67.9414 111.026 67.4837C110.338 67.0261 110.338 66.5685 111.026 66.1108C111.714 65.6532 112.632 65.6532 113.32 66.1108Z" fill="#16110D"/>
<path d="M117.907 64.2798C118.793 64.2798 119.512 63.87 119.512 63.3645C119.512 62.859 118.793 62.4492 117.907 62.4492C117.02 62.4492 116.301 62.859 116.301 63.3645C116.301 63.87 117.02 64.2798 117.907 64.2798Z" fill="#16110D"/>
<path d="M123.867 61.0767C124.754 61.0767 125.473 60.6669 125.473 60.1614C125.473 59.6559 124.754 59.2461 123.867 59.2461C122.981 59.2461 122.262 59.6559 122.262 60.1614C122.262 60.6669 122.981 61.0767 123.867 61.0767Z" fill="#16110D"/>
<path d="M129.602 57.6441C130.489 57.6441 131.208 57.2343 131.208 56.7288C131.208 56.2233 130.489 55.8135 129.602 55.8135C128.715 55.8135 127.996 56.2233 127.996 56.7288C127.996 57.2343 128.715 57.6441 129.602 57.6441Z" fill="#16110D"/>
<path d="M136.486 52.8384C137.174 53.296 137.174 53.7536 136.486 54.2113C135.798 54.6689 134.88 54.6689 134.192 54.2113C133.504 53.7536 133.504 53.296 134.192 52.8384C134.88 52.3807 136.027 52.3807 136.486 52.8384Z" fill="#16110D"/>
<path d="M142.451 49.4067C143.139 49.8644 143.139 50.322 142.451 50.7796C141.762 51.2373 140.845 51.2373 140.157 50.7796C139.469 50.322 139.469 49.8644 140.157 49.4067C140.845 48.9491 141.762 48.9491 142.451 49.4067Z" fill="#16110D"/>
<path d="M90.1484 34.9908V18.5156L112.399 31.3297V47.8049L90.1484 34.9908Z" fill="#0066FF"/>
<path d="M90.1484 18.5156L110.564 6.8457L132.815 19.6598L112.399 31.3297L90.1484 18.5156Z" fill="#0066FF"/>
<path d="M90.6055 23.778L110.562 12.3369L132.813 25.151L112.397 36.3633L90.6055 23.778Z" fill="white"/>
<path d="M110.564 5.70117L89.2305 17.8288V35.4481L112.399 48.9486L133.732 36.821V19.2017L110.564 5.70117ZM111.481 46.2027L91.0656 34.5328V20.117L111.481 31.7869V46.2027ZM92.2125 18.5152L110.564 7.9894L130.979 19.6593L112.399 30.1852L92.2125 18.5152Z" fill="#16110D"/>
<path d="M61.0156 52.1527V13.2529L83.2663 26.067V64.9668L61.0156 52.1527Z" fill="#0066FF"/>
<path d="M61.0156 13.2529L81.4312 1.58301L103.682 14.3971L83.2663 26.067L61.0156 13.2529Z" fill="#0066FF"/>
<path d="M61.2461 18.5163L81.4322 7.0752L103.683 19.8892L83.038 31.1015L61.2461 18.5163Z" fill="white"/>
<path d="M81.4327 0.439453L60.0996 12.567V52.6109L83.2678 65.8826L104.601 53.755V13.7111L81.4327 0.439453ZM82.3502 63.3656L61.9347 51.4668V14.8553L82.3502 26.5252V63.3656ZM62.8523 13.2535L81.2033 2.72768L101.619 14.3976L83.2678 24.9234L62.8523 13.2535Z" fill="#16110D"/>
<path d="M31.8848 68.3994V45.0596L54.1354 57.8736V80.9847L31.8848 68.3994Z" fill="#0066FF"/>
<path d="M31.8848 45.0596L52.3003 33.3896L74.5509 46.2037L54.1354 57.8736L31.8848 45.0596Z" fill="#0066FF"/>
<path d="M32.1133 50.5515L52.2994 39.1104L74.5501 51.9244L53.9051 63.1367L32.1133 50.5515Z" fill="white"/>
<path d="M52.2999 32.4746L30.9668 44.6022V68.8574L54.135 82.1291L75.4681 70.0015V45.7463L52.2999 32.4746ZM53.2174 79.612L32.8019 67.9421V46.8904L53.2174 58.5604V79.612ZM33.7195 45.0598L52.0705 34.534L72.486 46.2039L54.135 56.7298L33.7195 45.0598Z" fill="#16110D"/>
<path d="M2.52148 84.8742V74.5771L24.7721 87.3912V97.6882L2.52148 84.8742Z" fill="#0066FF"/>
<path d="M2.52148 74.5772L22.937 62.9072L45.1877 75.7213L24.7721 87.3912L2.52148 74.5772Z" fill="#0066FF"/>
<path d="M2.75195 80.0694L22.9381 68.3994L45.1887 81.2135L24.5438 92.4258L2.75195 80.0694Z" fill="white"/>
<path d="M22.9366 61.7617L1.60352 73.8893V85.3304L24.7717 98.8309L46.1048 86.7034V75.2622L22.9366 61.7617ZM23.8542 96.0851L3.43862 84.4151V76.1775L23.8542 87.8475V96.0851ZM4.35617 74.5758L22.7072 64.0499L43.1227 75.7199L24.7717 86.2457L4.35617 74.5758Z" fill="#16110D"/>
<path d="M67.6699 102.492V63.5918L89.9206 76.4058V115.306L67.6699 102.492Z" fill="#0066FF"/>
<path d="M67.6699 63.5918L88.0855 51.9219L110.336 64.7359L89.9206 76.4059L67.6699 63.5918Z" fill="#0066FF"/>
<path d="M67.8984 69.0837L88.0846 57.6426L110.335 70.4566L89.6903 81.6689L67.8984 69.0837Z" fill="white"/>
<path d="M88.085 51.0068L66.752 63.1344V103.178L89.9201 116.45L111.253 104.322V64.2785L88.085 51.0068ZM89.0026 113.704L68.5871 102.034V65.1938L89.0026 76.8638V113.704ZM69.5046 63.5921L87.8556 53.0662L108.271 64.7362L89.9201 75.262L69.5046 63.5921Z" fill="#16110D"/>
<path d="M38.5391 118.739V95.6279L60.7897 108.442V131.553L38.5391 118.739Z" fill="#0066FF"/>
<path d="M38.5391 95.6279L58.9546 83.958L81.2052 96.7721L60.7897 108.442L38.5391 95.6279Z" fill="#0066FF"/>
<path d="M38.9961 101.12L58.9529 89.6787L81.2035 102.493L60.5586 113.476L38.9961 101.12Z" fill="white"/>
<path d="M58.9542 82.8135L37.6211 94.9411V119.425L60.7893 132.697L82.1224 120.569V96.314L58.9542 82.8135ZM59.8717 129.951L39.4562 118.281V97.2293L59.8717 108.899V129.951ZM40.3738 95.6275L58.7248 85.1017L79.1403 96.7716L60.7893 107.297L40.3738 95.6275Z" fill="#16110D"/>
</svg>
